<!-- Generator: Adobe Illustrator 19.0.1, SVG Export Plug-In  -->
<svg version="1.1"
	 xmlns="http://www.w3.org/2000/svg" xmlns:xlink="http://www.w3.org/1999/xlink" xmlns:a="http://ns.adobe.com/AdobeSVGViewerExtensions/3.0/"
	 x="0px" y="0px" width="603px" height="53.3px" viewBox="0 0 603 53.3"
	 style="overflow:scroll;enable-background:new 0 0 603 53.3;" xml:space="preserve">
<defs>
</defs>
<path d="M19.9,13.7h-9.5c0,2.2,0,4.4-0.1,6.7h1.2c0.5,0,0.6-0.2,0.9-0.5c0.6-0.9,1.6-2,2.3-2.8c0.3-0.3,0.8-0.4,1.3,0
	c1.1,0.9,2.8,2.6,3.6,3.3c0.8,0.8,0.7,2.1-0.1,2.9c-0.6,0.6-0.9,1-0.9,2.3c0,4.8-0.3,11.4-0.7,16c-0.5,6.2-1,8.3-6.8,9.3
	c-1,0.2-1-0.2-1.1-0.9c-0.5-4.7-0.5-5.3-3-7c-1.6,3.7-3.8,6.5-6.2,8.3c-0.6,0.5-1,0.1-0.7-0.7c1.6-5.1,2.4-10.1,3.1-16.2
	C3.8,28.8,4,21.6,4,13.8c-0.9,0.1-1.8,0.2-2.4,0.4c-0.4,0.1-0.7-0.1-0.9-0.5c-0.2-0.5-0.5-1.5-0.6-2.1c-0.1-0.7,0-0.7,0.6-0.5
	c1.3,0.5,3.4,0.7,4.9,0.7H6c0.1-3.6,0.1-6.5-0.1-8C5.5,1.5,5.4,1.5,6.5,1.5c2.4,0.3,5.2,0.6,7.6,1.1c1.4,0.2,1.1,1.9,0.1,2.3
	c-0.9,0.3-1.1,0.6-1.1,1.4c0,1.5,0,3.8,0,5.4c0.3,0,0.5-0.2,0.7-0.5c0.5-1,1.2-2.2,2.2-3.5c0.3-0.4,0.6-0.4,1,0
	c1.3,1.4,2.3,2.7,3.5,4.4C20.9,12.8,20.9,13.7,19.9,13.7z M10.3,22.5c-0.2,6.2-0.8,12.4-1.9,16.6c-0.3,1-0.5,1.9-0.9,2.7
	c0.6,0.1,1.4,0.1,2,0.2c1.5,0.1,1.8-0.2,2-2.1c0.5-4.6,1-12.5,1-17.4H10.3z M40.3,43.3c-1.9,1-2.1,2.9-2.7,7.6
	c-0.1,0.7-0.7,0.8-1.3,0.4c-2.9-2-5.5-4.5-7.6-7.9c-3.3,3.9-7.3,6.5-12.4,8.1c-1.1,0.3-1.1-0.8-0.5-1.4c4.3-3.9,7.5-8.3,9.8-13.4
	c-1.2-3.5-1.8-7.8-2.3-12.7c-1,1.8-2.1,3.4-3.2,4.6c-0.6,0.7-1.2,0.6-1-0.3c2-8,2.9-18,2.7-25.8c0-0.9-0.3-1.1,0.6-1
	C25.1,2,27.6,2.3,30.6,3c0.9,0.2,1.1,1.6,0,2.1c-1.1,0.3-1.3,0.6-1.4,1.2c-0.4,2.4-0.9,4.7-1.5,6.9h3.9c0.4,0,0.7-0.1,1-0.5
	c0.7-1.2,1.6-2.8,2.5-4.1c0.3-0.5,0.7-0.5,1.1,0c1.5,1.5,2.7,3.1,4.2,5c0.4,0.5,0.5,1.6-0.4,1.6h-2.4c-1,9.2-2.5,16.4-4.9,22
	c2.3,2.2,4.9,3.5,7.8,4.4C40.9,41.8,41,43,40.3,43.3z M27.1,15.3c-0.7,2.2-1.5,4.2-2.4,6.1c0.8,3.7,1.9,6.8,3.1,9.4
	c1.3-4.6,2.1-9.7,2.4-15.5H27.1z"/>
<path d="M62.5,29.4c-0.5-0.2-0.9-0.3-1.2-0.1c0,4.9,0,10.4,0.1,16.2c0,3.3-1.4,5.2-6.5,6.1c-1,0.2-1.3,0-1.4-1c-0.3-4-0.8-5.1-4-6.7
	c-0.8-0.4-0.5-1.3,0.1-1.2c1.7,0.2,3,0.2,4.4,0.2c0.9,0,1-0.5,1-1.5c0-1.2,0-2.5,0-3.8c-3.4,3.6-7.7,6.6-12.7,8.8
	c-0.5,0.2-0.9-0.7-0.4-1.2c4.3-4.5,8.6-9.9,11.9-15.4c-2.9,2-5.7,3.4-8.6,4.4c-0.4,0.2-0.5,0.4-0.6,1.2c-0.1,1.2-1.1,1.4-1.4,0.2
	c-0.6-2.8-1.1-5.7-1.4-8c-0.1-1-0.2-1,1-1c0.5,0,1,0,1.5,0c0-6.7,0.1-16.7-0.2-18.8c-0.4-2.2-0.2-2,0.6-1.7c1.4,0.6,3,1.3,4.3,1.9
	c0.1-2.2,0.1-4.3,0-5.6c-0.1-0.6-0.2-0.9,0.8-0.8c2.2,0.2,4.8,0.6,7,1c1,0.2,1,1.6,0,1.8c-0.9,0.2-1,0.3-1.3,0.6
	c-1.2,1.5-2.4,2.8-3.7,3.9h2c0.4,0,0.7-0.2,0.9-0.3c0.8-0.8,1.7-1.8,2.5-2.7c0.3-0.3,0.8-0.3,1.2,0c1.2,0.9,2.8,2,3.9,3.1
	c0.8,0.7,1,1.8-0.2,2.6c-0.6,0.5-0.9,0.7-0.9,1.5c0,2.5,0,5.3-0.1,8.6c0.8,2.1,1.5,4.2,2,5.8C63.8,29.2,63.3,29.7,62.5,29.4z
	 M55,10.9h-4.4c0,0.9,0,2,0,3.2h4.6C55,13.1,55,12,55,10.9z M55.1,16.2h-4.6c0,1.2,0,2.4,0,3.6h4.6C55.1,18.6,55.1,17.4,55.1,16.2z
	 M55.1,21.8h-4.6c0,1.5,0,2.9,0,4.4c1.5-0.1,3.1-0.3,4.6-0.6C55.1,24.4,55.1,23.1,55.1,21.8z M82.3,15.5h-4.7c0,10,0,21.9,0.1,29.5
	c0,3.8-1.9,6-7.8,6.5c-0.7,0.1-1-0.2-1.1-0.7c-0.5-5.6-1.1-6.3-5.3-8.6C63.1,42,63,40.9,63.8,41c2.3,0.3,4.6,0.5,5.9,0.5
	c0.8,0,1.1-0.7,1.1-1.5c0.1-4.7,0.2-15.7,0.1-24.4h-3.3c-1.8,0-3.6,0.1-4.5,0.5c-0.4,0.1-0.8-0.1-1-0.5c-0.2-0.5-0.5-1.6-0.6-2.2
	c-0.1-0.6,0-0.7,0.6-0.5c1.4,0.5,3.7,0.7,5.4,0.7h3.3c0-4.9-0.1-8.7-0.2-9.8c-0.2-2-0.5-2.3,0.5-2.2c2.5,0.3,5.2,0.7,7.6,1.1
	c1,0.2,1.2,1.6,0,2.1c-0.7,0.3-1,0.7-1,1.2c0,1.9,0,4,0,6.3c0.5-1.2,0.9-2.4,1.5-3.7c0.2-0.4,0.8-0.4,1,0C81,10,81.9,12,82.6,14
	C82.8,14.6,83,15.5,82.3,15.5z M63.8,30c-0.6-4.3,1.5-5.7-0.6-10.4c-0.2-0.6,0.1-1.1,0.7-0.8c3.9,2.1,6.7,5.2,6.5,9.9
	C70.3,33.9,64.4,34.7,63.8,30z"/>
<path d="M121.9,47.4c0,0.6-0.7,0.6-1,0.3c-4.5-3.6-6-10.3-6.8-17.7c0,5.4,0,11.5,0.1,14.9c0.1,5.1-1.8,6.1-6.1,6.7
	c-0.9,0.1-1.2,0-1.2-0.9c-0.3-4.4-0.5-5.2-3.2-6.7c-0.5-0.3-0.5-1.4,0.1-1.3c0.8,0.1,1.8,0.2,3,0.2c0.9,0,1-0.2,1-1.5
	c0.1-2.2,0.1-6,0.1-9.8c-0.3,0.3-0.5,0.6-0.5,1c-1.2,6.7-4.1,12.4-10.1,15.1c-0.7,0.3-0.9-0.4-0.4-1.1c3.1-4.8,4.5-10.9,5-15.9h-0.8
	c-0.9,0-1.4,0.1-2.2,0.4c-0.4,0.1-0.7-0.1-0.9-0.5c-0.1-0.3-0.3-0.9-0.5-1.5c-0.8,0-1.6-0.5-2-1.6c-0.2-0.6-0.2-1.1-0.3-1.6
	c-0.1,0.1-0.3,0.2-0.4,0.2c0,8.1,0,16.6,0.2,22.8c0,1.9-0.6,2.6-3.4,2.8c-2.4,0.2-3.1-0.6-3-2.4c0.1-3.5,0.2-7.4,0.2-11.3
	c-1,3.9-2.4,7.8-4.6,11c-0.4,0.6-0.9,0.4-0.8-0.5c1-5.3,1.5-11.5,1.4-15.6c0-0.8-0.3-1.2,0.4-1.1c1.2,0.2,2.4,0.6,3.7,1
	c0-1.4,0-2.7,0-4c-0.8,0.3-1.5,0.5-2.1,0.7c-0.5,0.1-0.7,0.3-0.9,1c-0.2,1-1,1.2-1.3,0.2c-0.5-2-1-4.9-1.3-6.9
	c-0.2-1.2,0.1-0.9,0.8-0.8c0.9,0.1,1.8,0.2,2.9,0.3c0.7-1.2,1.4-2.6,2-3.8c-1.1,0.5-2.4,0.3-2.9-1c-1.5-2.9,0.5-5.2-2.1-8.6
	c-0.4-0.5-0.1-1.1,0.4-1C85.5,9,86.3,9.3,87,9.6c0.5-2.3,1-5.3,1-7.1c0-0.7-0.2-1,0.8-0.9c2,0.4,4.7,1,6.7,1.6
	c1.2,0.3,1.1,1.6,0,1.9c-0.7,0.2-0.9,0.1-1.1,0.4C92.9,7.4,91,9.3,89,10.7c1.3,1,2.1,2.3,2.3,3.9c0.9-2.3,1.5-4.3,1.8-5.9
	c0.1-1,0.1-1.1,0.6-1c2,0.7,4.3,1.6,6.1,2.6c1,0.6,1,1.9-0.2,2c-0.8,0.1-1,0.1-1.2,0.5c-2,3.9-4.8,7.4-8.3,10.4
	c1.8,0.1,3.7,0.1,5.5-0.1c0-1.1-0.2-2.3-1.1-3.5c-0.3-0.4,0-1,0.5-0.7c2.6,1.1,5.4,3.4,5.3,7.1c0,1.1-0.5,1.9-1,2.5
	c0.6,0.2,1.2,0.3,1.8,0.3h0.3c0.3,0,0.5-0.1,0.7-0.4c0.6-0.7,1.5-1.8,2.1-2.4c0.3-0.3,0.8-0.2,1.1,0c0.8,0.6,1.9,1.6,2.8,2.6
	c0-1.9,0-3.8-0.1-5.3h-1.3c-0.4,1.2-1.7,1.6-3.3,1.8c-1.8,0.1-3.3,0-3.2-1.9c0.4-6.6,0.5-14.6,0-17c-0.4-1.5-0.2-1.6,0.6-1.3
	c1.9,0.8,4.2,1.8,5.7,2.4c0.1-2,0.1-3.7,0-4.8c-0.1-0.7-0.2-1,0.7-0.9c2.1,0.2,4.7,0.5,7.5,1c1.4,0.2,1.2,1.7,0,1.9
	c-0.9,0.2-1,0.5-1.4,0.7c-1,0.9-2.5,1.9-3.6,2.6h4c0.5,0,0.6-0.1,0.8-0.3c0.8-0.8,1.7-1.8,2.7-2.7c0.3-0.3,0.8-0.3,1.2,0
	c1.2,0.9,2.8,2,4.1,3.3c0.6,0.6,0.7,1.6-0.1,2.3c-0.6,0.6-1,0.7-1,1.8c0,2.8,0,6,0.1,9.5c0.1,2.3-1.4,2.7-3.3,2.8
	c-1.7,0.2-3,0.1-3.3-1.2h-0.7c0,0,0,0.6,0,0.7c0.5,2.7,1.1,4.9,2,6.9c0.6-1.5,1.1-3.6,1.2-5.4c0-0.7,0.4-0.9,0.9-0.5
	c1.4,1.1,3.6,3.3,5.1,4.8c0.7,0.7,0.5,2-0.5,1.8c-0.8-0.2-1-0.2-1.6,0.2c-1.1,0.7-2.4,1.2-3.5,1.6c1.5,2.1,3.4,3.6,6.2,4.6
	c0.4,0.2,0.5,0.9,0,1.3C122.5,40.4,122.1,42.3,121.9,47.4z M95.7,40.1c-0.1-3,1.2-4.5-0.3-8.4c-0.2-0.5,0.2-1,0.7-0.6
	c2.6,2.4,4.2,5.3,4,8.3C99.8,43.3,95.8,44,95.7,40.1z M115,9.7h-8.1c0,1.5,0,3,0,4.6h8.2C115,12.7,115,11.1,115,9.7z M106.8,16.3
	c0,1.6,0,3.3,0,5h8.1c0-1.7,0-3.4,0.1-5H106.8z"/>
<path d="M163.6,50.9c0,0.6-0.5,0.8-0.9,0.6c-4.3-1.8-8.1-5.3-9.3-12c-2,7-7.6,11.3-15.6,12.1c-0.8,0.1-1-0.9-0.4-1.2
	c5.5-3.1,7.8-6.5,9.4-10.7c0.5-1.2,0.8-2.6,1.1-4.1h-1.6c0,0.1,0,0.6,0,0.7c0,1.5-0.9,2-2.9,2.2c-1.9,0.2-3.2-0.3-3.1-1.8
	c0.2-2.7,0.3-5.7,0.3-8.5c-0.8,2.9-3.8,2.9-4-0.2c-0.2-2.7,1.3-3.6-0.6-7.6c0,9.3,0,20.9,0.2,29.3c0,1.3-1.2,1.9-3.3,2
	c-2.2,0.1-3.2-0.2-3.2-1.9c0.1-4.4,0.2-10.2,0.3-16.2c-1.6,2.7-2.9,4.4-4.4,6c-0.5,0.5-0.9,0.1-0.7-0.6c2.2-6.9,3.5-13.4,4.7-22.9
	c-1,0.1-2.2,0.2-3,0.5c-0.4,0.2-0.7,0-0.9-0.5c-0.2-0.6-0.5-1.4-0.6-2.2c-0.1-0.6,0-0.7,0.5-0.5c1.3,0.5,3.1,0.7,4.4,0.7
	c0-5.6-0.1-9.8-0.3-10.8c-0.2-1.5-0.2-1.6,0.5-1.5c1.8,0.2,4.6,0.7,6.7,1.2c1,0.3,1.2,1.6,0,2c-0.8,0.3-0.9,0.6-0.9,1.2
	c0,1.5,0,4.3-0.1,7.7c0.5-1.2,1.2-3.1,1.7-4.2c0.2-0.3,0.7-0.5,0.9,0c0.7,1.4,1.9,3.5,2.5,5c2.8-4,4.7-8.6,5.2-12.5
	c0.1-0.7,0.4-0.8,1.1-0.6c2,0.5,5.1,1.1,7.4,1.8c1.1,0.3,1.4,1.9-0.4,2.2c-0.4,0.1-0.7,0.1-1,0.2c3.3,3.3,7.5,4.1,12,4.1
	c0.4-0.1,0.5,0.9,0,1.3c-1.5,1.3-1.9,3-2,7.8c0,0.6-0.5,0.9-0.9,0.7c-3.9-1.6-8.1-6.1-10-12.2c-1.6,3.4-3.8,6.2-6.5,8.3
	c1.2,0.3,2.4,0.4,3.4,0.4h1c0.2,0,0.5-0.1,0.7-0.4c0.6-0.9,1.4-2.2,2.1-3.2c0.2-0.3,0.6-0.4,1,0c1,1.1,2.4,2.8,3.5,4.4
	c0.4,0.5,0.3,1.2-0.4,1.2h-2.8c0,1.5,0,3,0,4.4h1.2c0.4,0,0.6-0.1,0.8-0.3c0.7-1,1.3-1.8,2-2.6c0.3-0.3,0.7-0.3,1.1,0
	c1.2,0.8,2.9,2.1,4.2,3.3c0.5,0.6,0.7,1.6-0.1,2.3c-0.8,0.6-1.1,0.7-1.1,1.5c0,2.2,0,5.3,0.1,8.7c0,1.6-1,2.2-3.3,2.4
	c-1.8,0.2-2.8-0.1-2.8-1.5c0-0.1,0-0.6,0-0.7h-2.6c1.9,4.8,6.8,6.3,11.5,6.3c0.6,0,0.8,1,0,1.4C164.2,44.3,164,46.1,163.6,50.9z
	 M148.5,18.1c-0.9,0.1-1.9,0.2-2.4,0.4c-0.4,0.1-0.7-0.1-0.9-0.5c-0.1-0.3-0.3-0.8-0.4-1.3c-1.9,1.2-4,2.1-6.3,2.8
	c-0.6,0.1-0.8-0.5-0.4-1c0.8-0.8,1.5-1.6,2.2-2.5h-4.2c0,0.8,0,1.6,0,2.6c2.4,1.5,4,3.6,4.5,6c0-1.6-0.1-2.9-0.3-3.7
	c-0.2-1.4,0-1.5,0.5-1.3c3,1.2,6,3,6,3h1.7C148.6,21.1,148.5,19.7,148.5,18.1z M146.4,24.5c-0.1,2.8-0.1,5.7,0,9.1h1.9
	c0.3-2.7,0.4-5.7,0.4-9.1H146.4z M154.6,24.5c0,3.3-0.1,6.3-0.3,9.1h2.6c0.1-3.2,0.1-6.2,0-9.1H154.6z"/>
<path d="M207,49.8H173c-1.8,0-3.6,0.1-4.5,0.5c-0.4,0.1-0.8-0.1-1-0.5c-0.2-0.5-0.5-1.6-0.6-2.3c-0.1-0.6,0.1-0.7,0.6-0.5
	c1.4,0.5,3.5,0.7,5.4,0.7h1.2c0.2-7.5,0.4-20.4-0.1-23.7c-2,1-4.1,1.6-6.4,2.2c-0.8,0.2-0.9-0.7-0.3-1.2c4.8-4.2,8.6-9.4,10.9-15
	h-3.6c-1.8,0-3.6,0.1-4.5,0.5c-0.4,0.1-0.7-0.1-0.9-0.5c-0.2-0.5-0.5-1.6-0.6-2.2c-0.1-0.6,0-0.7,0.6-0.5c1.4,0.5,3.8,0.7,5.5,0.7
	h8.8c0-1.9-0.1-3.5-0.2-4.5c-0.2-1.6-0.4-1.9,0.7-1.8c2.2,0.2,5.2,0.6,7.8,1.1c1.4,0.2,1.2,1.8,0.1,2.2c-0.7,0.2-1.2,0.5-1.2,1.4
	c0,0.6,0,1.1,0,1.7h5.5c0.5,0,0.7-0.1,1-0.5c0.9-1.3,2-2.7,2.9-3.9c0.3-0.4,0.7-0.4,1.2,0c1.5,1.3,3.3,2.9,4.9,4.9
	c0.4,0.5,0.5,1.6-0.4,1.6h-12.8c3.6,4.1,7.9,5.2,14.6,5.4c0.7,0,0.8,1.1,0.2,1.5c-2,1.1-2.3,3.6-2.7,7.5c0,0.5-0.3,1.2-1,0.9
	c-6-2-10.2-6.1-12.8-15.3h-0.5c0,3.6,0.1,7.5,0.2,11.9c0.1,2-1.3,2.5-4,2.7c-2.5,0.2-3.7-0.4-3.6-2.3c0.1-2,0.2-4.3,0.3-6.5
	c-2.2,3.1-4.7,5.6-7.6,7.3c2.8,1.2,6.2,2.8,6.2,2.8h9.6c0.5,0,0.7-0.2,0.9-0.4c0.8-0.8,1.9-1.9,2.7-2.7c0.4-0.4,0.8-0.3,1.4,0
	c1.3,0.9,3.1,2.2,4.4,3.5c0.7,0.6,1.2,2.1,0.1,2.9c-0.9,0.6-1.2,0.9-1.2,2c0,3.6,0,11.8,0,16.6c0.6-1.2,1.7-3.2,2.6-4.9
	c0.3-0.5,0.7-0.5,1.1,0c1.3,1.5,2.9,3.6,4,5.3C208,48.6,208,49.8,207,49.8z M192.8,34.6h-11.4c0,1.6,0,3.3,0,5h11.5
	C192.8,37.9,192.8,36.2,192.8,34.6z M181.4,41.6c0,2.2,0,4.3,0.1,6h11.3c0-1.8,0.1-3.9,0.1-6H181.4z M192.7,27.8h-11.2
	c0,1.1,0,2.8,0,4.7h11.4C192.8,30.6,192.8,29,192.7,27.8z"/>
<path d="M241.4,20.6c-4.5,2.7-11.9,5.4-19.9,6.6c-0.1,3.7-0.2,7.5-0.3,10.8c0,1.7,0.7,2.7,2.2,2.7c4,0.2,8.9,0,12.8-0.6
	c1.8-0.3,3.1-1.2,5.3-1.1c5.1,0.3,5.7,7.3,0.5,8.4c-3.7,0.9-15.3,1.7-20.5,0.6c-4.4-0.9-6.7-4-6.5-10.2c0.2-10.3,0-21.3-0.3-25.9
	c-0.2-3.5-0.5-4.5-2.2-5.2c-1-0.4-1.2-0.8-0.2-1.4c3.7-2.1,10.7,1.2,10.9,4.2c0.1,1.5-0.8,1.5-1,3.4c-0.4,3.8-0.6,8.6-0.8,13.4
	c5.6-3.4,11.3-8.3,14.1-11.6c0.9-1.1,1.2-2.6,0.2-4.1c-0.5-0.9-0.5-1.1,0.4-1.1c4.9,0.1,8.7,7.4,7.9,9.6
	C243.7,20.6,242.6,19.9,241.4,20.6z M244.1,11c-1.2-2.4-2.9-4-4.5-5.2c-0.7-0.6-0.7-0.7,0.1-1c2.5-0.6,5.4,0.2,6.8,2.4
	C249.2,11.1,245.6,13.9,244.1,11z M247.4,5.8c-1.2-1.8-3.2-3.2-5.1-4.2c-0.9-0.5-1-0.6-0.2-1c2.7-1.2,5.6-0.5,7.2,1
	C252.4,4.8,249.5,8.8,247.4,5.8z"/>
<path d="M262.5,25.5c-2.2-2.8-6.1-5.8-9.6-7.4c-0.9-0.4-0.7-0.5,0.3-0.9c4.7-1.8,11.4-0.9,13.9,2.3
	C271.1,24.6,266.4,30.6,262.5,25.5z M264.6,47.7c-2.2,1-1.9,2.2-3.4,2.6c-2.7,0.7-6.9-6-7.1-11.3c0-1.6,0.6-1.7,1.3-0.6
	c1.2,1.9,2.9,2.4,6.2,1.3c8-2.7,21.8-10.8,29.8-21.8c0.8-1.1,1-1,0.5,0.4C285.9,34.4,274.8,43.1,264.6,47.7z M269,14.1
	c-2.4-2.9-5.4-5.4-9.6-7.7c-0.8-0.5-0.7-0.6,0.2-0.9c5.7-1.8,11.2-0.5,13.7,2.4C277.3,12.5,272.4,18.4,269,14.1z M283.8,14.9
	c-1-2.6-2.5-4.5-3.9-6c-0.6-0.7-0.6-0.9,0.2-0.9c2.5-0.1,5.3,1.1,6.5,3.5C288.8,15.9,284.9,18,283.8,14.9z M287.5,10.2
	c-1-1.9-2.8-3.8-4.7-5c-0.9-0.6-0.8-0.7,0-1c2.8-0.8,5.7,0.3,7.1,2.2C292.7,10.1,289.3,13.6,287.5,10.2z"/>
<path d="M323,20.8c-2.1,2.8-4.4,5.4-6.9,7.8c-0.1,11.7,0.7,15,0.4,18.8c-0.5,6-6.5,6.7-7.1-0.9c-0.2-2.3,0.4-3.1,0.5-5
	c0-2.7,0-4,0-7.4c-5,3.9-10.8,7.1-17.4,9.5c-1.1,0.4-1.1-0.1-0.1-0.7c6.4-4.4,12.4-10.1,17.3-16c-0.1-0.9-0.3-1.5-0.7-2
	c-0.5-0.7-0.4-1.1,0.4-1c0.7,0.1,1.6,0.2,2.4,0.3c1.9-2.6,3.5-5.1,4.9-7.5c0.3-0.5,0.1-0.9-0.4-0.7c-2.9,0.9-7.1,2.7-10.8,4.4
	c-1.8,0.8-2.1,2.3-3.4,2.3c-1.6,0-3.9-4.9-3.4-9c0.1-1.1,0.4-1,0.7-0.1c0.9,1.9,2.8,2.3,5.6,1.9c3.7-0.6,7.7-1.5,10.4-2.3
	c3.1-0.9,2.5-1.9,3.9-2.1c2.6-0.3,6.8,6,6.6,7.5C325.8,20.1,324.1,19.5,323,20.8z M310.4,8.7c-1.2-1.7-3.4-4.1-6.5-6.1
	C303,2,303.2,2,304.1,1.8c3.3-0.9,8.3-0.3,10.4,1.4C319.2,6.8,314.3,13.9,310.4,8.7z M327.5,42.6c-3.3-2.2-2.2-8.1-8.6-13.4
	c-0.7-0.6-0.6-0.9,0.4-0.8c4.5,0.5,9.9,3.2,12,6C335.2,39.7,331.3,45.2,327.5,42.6z"/>
<path d="M366.6,44.1c-1.9-4.1-3.6-8.4-8.3-14c-5.3,8.1-12.7,14.2-23.8,18c-1.2,0.4-1.3,0.2-0.1-0.7c11.9-9.3,20.4-21.9,23.4-35.4
	c0.2-0.8-0.1-0.9-0.7-0.7c-3.7,0.7-6.9,1.5-11,2.9c-2,0.7-2.2,2-3.2,2c-2.9,0-4.9-6-3.9-9.5c0.2-0.9,0.4-0.8,0.7,0
	c1,2.5,2.3,2.7,5.7,2.4c2.7-0.2,6-0.6,10.9-1.3c2-0.3,2.4-2,3.5-2.1c2.1-0.1,8.1,4.8,8,6.7c-0.1,1.7-1.8,1.1-2.5,3.3
	c-1.8,4.9-3.9,9.5-6.5,13.5c5.7,1.8,10.7,4.8,12.6,7C377.8,44.4,369.7,50.9,366.6,44.1z"/>
<path d="M382.7,48.7c-1-3-3.4-7.4-6.2-9.8c-0.5-0.5-0.8-1.2,0.4-1c5.2,0.6,9.8,3.6,11.5,6.7C391.5,50.7,384.4,54.2,382.7,48.7z"/>
<path d="M428.5,23.3c-0.2-0.9-0.3-1.8-0.3-2.7c-4.4,2.4-8.6,3.9-12.7,5c-0.4,0.1-0.5,0.3-0.7,0.8c3,1.5,6.2,3.3,6.2,3.3h3.5
	c0.5,0,0.7-0.2,0.9-0.5c0.8-1,1.7-2.3,2.5-3.2c0.3-0.4,0.9-0.4,1.4,0c1.3,1.1,3,2.7,4.4,4c0.7,0.7,1.2,1.8,0,2.7
	c-1,0.8-1.2,0.8-1.2,2.3c0,3.3,0,8.2,0.1,13.8c0,1.9-1.4,2.4-3.7,2.6c-2,0.2-3.5,0.1-3.4-2c0-0.7,0-1.5,0-2.2h-4.9
	c0,0.6,0,1.1,0,1.7c0,1.9-1.1,2.6-3.8,2.7c-2.2,0.2-3.6,0-3.5-2.2c0.4-8.3,0.5-18,0-21.5c-0.1-0.1-0.2-0.3-0.2-0.6
	c-0.5-2.3-0.9-5.1-1.3-7.5c-0.7,6-1.7,11.5-3.2,16c1.3,0.9,2.4,2.1,3.2,3.7c2.7,6-3.3,10-5.3,5c-0.3-0.7-0.5-1.5-0.8-2.2
	c-2.3,3.8-5.5,6.9-10.1,9.1c-0.6,0.3-1-0.6-0.5-1c3.7-4.4,6.2-9.2,7.7-14.3c-0.3-0.3-1-0.7-1.4-1.1c-0.1,0.5-0.1,0.9-0.2,1.4
	c-0.2,1.4-1.5,1.8-3.4,1.5c-2.4-0.3-2.9-1.2-2.6-2.4c1.2-6.3,2.5-14.1,3.1-20.1c-0.8,0-1.5,0.2-2.1,0.4c-0.4,0.1-0.8-0.1-1-0.5
	c-0.2-0.5-0.5-1.6-0.6-2.2c-0.1-0.6,0-0.7,0.6-0.5c0.9,0.3,2,0.6,3.4,0.7c0.5-5,0.8-9,0.7-10.9c-0.1-0.7-0.2-1.1,0.5-1
	c2.2,0.3,4.5,0.9,6.7,1.4c1.1,0.3,1.1,1.7,0,2.2c-1,0.3-1.1,0.5-1.2,1.1c-0.2,1.9-0.5,4.4-0.8,7.3h0.9c0.5,0,0.8-0.1,1-0.3
	c0.6-1,1.4-1.9,2-2.7c0.3-0.3,0.7-0.4,1.3,0.1c1.3,1.1,2.8,2.6,3.9,3.7c0.9,0.9,0.6,2-0.1,2.6c-0.4,0.3-0.6,0.5-0.8,0.6
	c0.7,0.1,1.5,0.1,2.2,0.2c1.6-5,2.8-11.5,2.9-15.1c0-0.6-0.1-1,0.7-0.8c2.5,0.6,5.9,1.5,8.1,2.2c1.4,0.4,1.1,1.9,0,2
	c-0.9,0.1-1.1,0.2-1.5,1c-1.6,3.6-3.9,7.5-7.1,10.9c2.9,0.1,6.3,0,10-0.2c-0.2-2.1-0.8-4.2-2.4-6.7c-0.5-0.7,0-1.5,0.7-1.1
	c4,2.2,8,5.2,9.1,10.2C436.7,27,429.7,29.4,428.5,23.3z M404.2,15.5c-0.7,5.7-1.5,12.1-2.4,17.7c0.5,0.1,1.3,0.2,1.9,0.3
	c1.5-6.2,2-12.2,2.5-18.1H404.2z M420.6,31.8c-0.1,3.6-0.1,8.2,0,13.4h4.9c0.1-5,0.2-9.8,0-13.4H420.6z"/>
<path d="M467,47.8c-1.6-1.8-3.6-3.5-5.6-4.9c0,0.1,0,0.2,0,0.3c-0.5,10.8-22.1,10.1-20.6-2.1c0.8-6.1,7.2-7.7,13.2-7.1
	c0-1.5-0.1-3.2-0.1-4.9c-7-0.2-11.9-2.7-11.9-8.5c0-0.7,0-0.8,0.5-0.2c1.3,1.8,5.2,2.9,11.3,2.9c0-1.8,0-3.6-0.1-5.2
	c-4.5-0.1-10-1.2-10.6-7.2c-0.1-0.7,0-0.8,0.5-0.2c1.4,1.5,5.5,2.1,10,2c0-1.1,0-1.9,0-2.4c0-2.8-0.5-5.7-2.2-6.1
	c-0.8-0.2-0.8-0.6,0-1.2c2.5-2.1,10.7-0.5,10.1,4.1c-0.2,1.2-0.5,0.8-0.9,3.9c0,0.3-0.1,0.6-0.1,0.9c3.3-0.9,4.5-2.1,5.4-2.2
	c4.7-0.8,7.1,3.7,1.1,6.5c-1.7,0.8-4.2,1.4-7.1,1.7c-0.1,1.8-0.1,3.5-0.1,5c1.7-0.3,2.8-0.7,3.5-1c0.8-0.4,1-0.7,0.8-1.2
	c-0.2-0.6-0.7-1.2-1.2-1.9c-0.5-0.9-0.2-0.9,0.5-0.4c3.2,2.1,3.7,1.4,5.2,1.4c2.8,0,4.9,3.7,0.7,6.5c-1.7,1.2-5.5,2.2-9.4,2.7
	c0.2,2.6,0.5,4.8,0.7,6.8c3.4,1.2,7,3.1,9.5,5.4C475,45.3,471.3,52.5,467,47.8z M454.2,39c-5.3-1.9-11-1.5-11.5,2.3
	c-0.8,6.1,11.7,6.1,11.5-0.2C454.3,40.6,454.2,39.9,454.2,39z"/>
<path d="M488.6,52.2c-1,0-1-0.3-0.1-0.7c13.7-4.6,16-14.3,16.3-27.4c0.5-21.3-5.6-16.2-8.3-8.5c-1.8,5-3.2,10.2-3,16.6
	c0.2,8-6.8,8-8.6-0.1c-1.5-7.2-0.3-14,1-21.5c0.5-2.9,0.2-5.3-0.7-6.7c-0.4-0.7-0.5-0.8,0.4-0.9c4.8-0.7,7.9,3.5,7.4,7.1
	c-0.2,1.7-0.8,2.2-1.5,4.9c-1.3,4.7-1.9,8.9-1.5,12.2c0.2,1.5,0.8,1.4,1.1,0c1.2-5.4,2.4-9,3.6-12.4c5.6-15.7,16.8-13.6,17.6,7.4
	C513,38.2,507.9,51.9,488.6,52.2z"/>
<path d="M550.5,47.8c-1.6-1.8-3.6-3.5-5.6-4.9c0,0.1,0,0.2,0,0.3c-0.5,10.8-22.1,10.1-20.6-2.1c0.8-6.1,7.2-7.7,13.2-7.1
	c0-1.5-0.1-3.2-0.1-4.9c-7-0.2-11.9-2.7-11.9-8.5c0-0.7,0-0.8,0.5-0.2c1.3,1.8,5.2,2.9,11.3,2.9c0-1.8,0-3.6-0.1-5.2
	c-4.5-0.1-10-1.2-10.6-7.2c-0.1-0.7,0-0.8,0.5-0.2c1.4,1.5,5.5,2.1,10,2c0-1.1,0-1.9,0-2.4c0-2.8-0.5-5.7-2.2-6.1
	c-0.8-0.2-0.8-0.6,0-1.2c2.5-2.1,10.7-0.5,10.1,4.1c-0.2,1.2-0.5,0.8-0.9,3.9c0,0.3-0.1,0.6-0.1,0.9c3.3-0.9,4.5-2.1,5.4-2.2
	c4.7-0.8,7.1,3.7,1.1,6.5c-1.7,0.8-4.2,1.4-7.1,1.7c-0.1,1.8-0.1,3.5-0.1,5c1.7-0.3,2.8-0.7,3.5-1c0.8-0.4,1-0.7,0.8-1.2
	c-0.2-0.6-0.7-1.2-1.2-1.9c-0.5-0.9-0.2-0.9,0.5-0.4c3.2,2.1,3.7,1.4,5.2,1.4c2.8,0,4.9,3.7,0.7,6.5c-1.7,1.2-5.5,2.2-9.4,2.7
	c0.2,2.6,0.5,4.8,0.7,6.8c3.4,1.2,7,3.1,9.5,5.4C558.5,45.3,554.8,52.5,550.5,47.8z M537.7,39c-5.4-1.9-11-1.5-11.5,2.3
	c-0.8,6.1,11.7,6.1,11.5-0.2C537.7,40.6,537.7,39.9,537.7,39z"/>
<path d="M598.4,17.1c-4.2-1.1-7.2-1.6-11.2-1.6c-0.2,3.6-0.3,6.4-0.2,9c5,11.5-1.6,26-15.8,28.7c-1.2,0.2-1.5,0-0.3-0.8
	c5.4-3.5,8.9-8.4,10.1-14.3c-4.7,1.5-9.8-1.2-9.7-8.7c0.1-7.4,4.9-10.1,9.3-9c0-1-0.1-2.6-0.1-4.4c-3.4,0.3-6.9,1.2-9.7,2.8
	c-2.6,1.5-3.9,2.1-5.8,1.7c-2.1-0.4-4.6-3.7-3.7-8.3c0.2-0.9,0.4-1,1-0.2c1,1.2,1.8,1.6,6.3,1.2c2.7-0.2,7.7-0.7,11.8-1.1
	c0-1.2-0.1-2.3-0.1-3.4c-0.2-3.6-0.5-4.5-2.2-5.2c-0.8-0.3-0.8-0.7-0.1-1.1c4-2.7,11.2,0.4,10.7,4.1c-0.2,1.4-1,1.1-1.2,5
	c1.1-0.1,2-0.2,2.8-0.3c2.3-0.2,2.2-0.7,0.6-2.1c-1-0.9-0.9-1.1,0.4-0.6c1.3,0.6,4.3,1.5,6.3,1.6c1.9,0.1,3.9,1,4.6,2.2
	C604.3,16,602.2,18.1,598.4,17.1z M574.4,27.4c0,2.9,1.2,4.7,3.6,4.5c1.8-0.2,3.2-2.4,2.3-6.5C578.8,21.8,574.5,22.8,574.4,27.4z"/>
</svg>
