<!-- Generator: Adobe Illustrator 19.0.0, SVG Export Plug-In  -->
<svg version="1.1"
	 xmlns="http://www.w3.org/2000/svg" xmlns:xlink="http://www.w3.org/1999/xlink" xmlns:a="http://ns.adobe.com/AdobeSVGViewerExtensions/3.0/"
	 x="0px" y="0px" width="200px" height="44.4px" viewBox="0 0 200 44.4"
	 style="overflow:scroll;enable-background:new 0 0 200 44.4;" xml:space="preserve">
<style type="text/css">
	.st0{opacity:0.8;fill:#FFFFFF;}
	.st1{fill:#231815;}
	.st2{fill:#FF0000;}
</style>
<defs>
</defs>
<g id="XMLID_40_">
	<rect id="XMLID_52_" class="st0" width="200" height="44.4"/>
	<g id="XMLID_41_">
		<g id="XMLID_43_">
			<path id="XMLID_50_" class="st1" d="M41.6,35.4h-1.2L32,14.6v17.2c0,0.6,0.4,2.5,2.7,2.5h0.8v1.1h-8v-1.1h0.7
				c1.1,0,2.7-1.1,2.7-2.5V13.9c0-0.8-0.7-2.2-2.4-2.2h-1.1v-1.1h6.4l8.3,20.2l7.3-20.2h7.3v1.1h-1.1c-1,0-2.2,0.9-2.2,2.2v17.9
				c0,1.7,0.7,2.5,2.2,2.5h1.1v1.1h-10v-1.1h1c0.8,0,2.4-0.7,2.4-2.5V12L41.6,35.4z"/>
			<path id="XMLID_48_" class="st1" d="M69.4,11.7h-0.9c-1.7,0-2.5,0.7-2.5,2.5v13.2c0,4.1,1.9,7.3,6.2,7.3c3.8,0,6-2.8,6-7.3V14.2
				c0-1.8-0.8-2.5-2.5-2.5h-0.9v-1.1h8v1.1h-0.9c-1.8,0-2.5,0.7-2.5,2.5v12.9c0,5.2-2.3,8.9-8.2,8.9c-6.3,0-8.4-3.9-8.4-8.9V14.2
				c0-1.8-0.8-2.5-2.5-2.5h-0.9v-1.1h10.2V11.7z"/>
			<path id="XMLID_46_" class="st1" d="M106,10.5l2.4,6.5l-1.1,0.4c-1.7-2.8-3.4-5.8-6.9-5.8c-0.8,0-2,0.4-2,1.8v18.3
				c0,1.8,0.8,2.5,2.5,2.5h1.3v1.1H91.2v-1.1h1.3c1.8,0,2.5-0.8,2.5-2.5V13.5c0-1.2-0.9-1.8-2-1.8c-3.5,0-5.3,3-6.9,5.8L85.1,17
				l2.4-6.5H106z"/>
			<path id="XMLID_44_" class="st1" d="M129.5,35.4h-18.7v-1.1h1.3c1.6,0,2.1-0.8,2.1-3.2v-17c0-1.5-0.9-2.4-2.3-2.4h-1.1v-1.1H129
				l2.2,5.6l-1,0.5c-0.6-1-1.1-1.8-2.2-2.8c-2-1.7-4.1-2.2-5.8-2.2h-2.5c-1.2,0-2.1,0.8-2.1,2.1V22h3.3c1.6,0,3.8-1.3,3.8-3.5v-0.7
				h1.1v9.6h-1.1v-1c0-1.7-1.5-3.3-3.3-3.3h-3.8v9.2c0,0.9,0.8,2,2.1,2h2.9c1.2,0,3.1-0.5,4.8-1.7c1.8-1.2,2.9-2.9,3.5-3.7l1,0.5
				L129.5,35.4z"/>
		</g>
		<circle id="XMLID_42_" class="st2" cx="161.5" cy="23.3" r="12.5"/>
	</g>
</g>
</svg>
