<!-- Generator: Adobe Illustrator 19.0.0, SVG Export Plug-In  -->
<svg version="1.1"
	 xmlns="http://www.w3.org/2000/svg" xmlns:xlink="http://www.w3.org/1999/xlink" xmlns:a="http://ns.adobe.com/AdobeSVGViewerExtensions/3.0/"
	 x="0px" y="0px" width="65.9px" height="336.2px" viewBox="0 0 65.9 336.2"
	 style="overflow:scroll;enable-background:new 0 0 65.9 336.2;" xml:space="preserve">
<defs>
</defs>
<g>
	<path d="M64.5,57.3H10.1c-2.8,0-5.7,0.2-7.1,0.7c-0.6,0.2-1.2-0.1-1.5-0.8c-0.3-0.7-0.8-2.5-1-3.5c-0.2-0.9,0.1-1.1,1-0.8
		c2.2,0.8,6,1.2,8.7,1.2h16.4c0-2.5,0.1-5.5,0.1-8.7H16.3c-2.8,0-5.7,0.2-7.1,0.7c-0.6,0.3-1.2-0.1-1.5-0.8c-0.3-0.7-0.8-2.5-1-3.5
		c-0.2-1,0.1-1.1,1-0.8c2.2,0.8,6,1.2,8.7,1.2h10.3c0-2.7,0-5.5,0-8.4h-8.2c0,0.4,0,0.6,0,1c0,2.7-2.1,3.3-5.5,3.5
		c-2.8,0.2-6,0.2-5.9-2.5C7.5,25.5,7.7,8.1,6.8,2.2C6.7,1.3,6-0.3,7.8,0.3c5.5,1.9,11.4,5.1,11.4,5.1h25.2c0.6,0,1.1-0.5,1.5-0.8
		c1.6-1.5,3.2-3,4.8-4.3c0.6-0.5,1.3-0.5,2.1,0c2,1.2,4.8,3.5,7.3,5.5c1,0.8,1.3,2.7-0.1,3.8c-2,1.5-2.1,2-2.1,3.8
		c-0.1,4.9-0.1,11.2,0.1,18.6c0.1,3.2-1.7,4.2-6.2,4.2c2.3,1.8,5.1,4.2,7.6,6.5c0.7,0.6,0.9,2.5-0.7,2.5H37.8c0,3.3,0.1,6.3,0.1,8.7
		H48c0.7,0,1.3-0.4,1.7-0.8c1.5-1.7,3.5-4.2,5.2-6c0.4-0.5,1.2-0.6,1.8-0.1c2.5,2.1,5.8,4.8,8.4,7.6C65.9,55.4,66.1,57.3,64.5,57.3z
		 M9.2,79.6c-7.8,2.7-10.3-9.8-4.9-13.5c3.9-2.6,7.3-0.8,9.8-7.1c0.5-1.1,1.5-1.2,1.6,0.3C16.5,68.7,15.8,77.4,9.2,79.6z M26.6,8.6
		h-8.2c0,2.5-0.1,5.7-0.1,9h8.4C26.7,14.2,26.7,11.1,26.6,8.6z M18.3,20.8c0,3.3,0,6.5,0.1,9.7h8.2c0-3.3,0.1-6.6,0.1-9.7H18.3z
		 M20.6,73.9c-0.1-5.5,3.2-6.6,1.6-13.2c-0.2-0.7,0.3-1.5,1.2-1c3.9,2.4,7.8,5.8,8,12.1C31.7,81.1,20.8,81.9,20.6,73.9z M36.5,75.2
		c-1.2-5.3,1.9-8-0.9-13.9c-0.4-0.8,0.1-1.8,1.2-1.3c4.6,1.9,10,4.5,10.3,11.4C47.6,80.4,38.1,81.8,36.5,75.2z M37.7,20.8
		c0,3.1-0.1,6.5,0,9.7h8.7c0.1-3.3,0.2-6.5,0.2-9.7H37.7z M46.6,8.6h-8.7c-0.1,2.5-0.1,5.5-0.1,9h9C46.7,14.4,46.7,11.3,46.6,8.6z
		 M46.4,33.7h-8.7c0,2.8,0,5.6,0.1,8.4h5.7c0.7,0,1.2-0.2,1.7-0.8c1.3-1.5,3.1-3.4,4.6-4.9C47.5,36.3,46.5,35.8,46.4,33.7z
		 M53.1,75.4c-1.5-5.4,0.7-9-4.1-14.5c-0.7-0.7-0.4-2.1,0.8-1.8c6.4,1.8,13.5,4.1,14.6,11.8C65.9,80,55.2,83.7,53.1,75.4z"/>
	<path d="M24.3,140.7c-1.8,5.9,0.5,6,0.2,11.6c-0.3,5.5-5.9,7.5-10,4.5c-9.5-7.1-11.2-28.3-9.7-48c0.6-7.5,0.4-12.5-1.4-15.3
		c-0.7-1.2-0.5-1.6,0.4-1.7c9.5-0.5,14.3,6.3,13.4,12.9c-0.4,3.1-1.8,4.2-3.1,11.2c-1.2,6.5-1.2,17.6,1.6,21.8
		c0.8,1.3,1.2,1.2,2.1,0.1c3-4,8.5-12.5,12-17.8c1.2-1.8,1.7-1.6,0.9,0.5C28.7,126.5,26.4,134,24.3,140.7z M57.4,142.7
		c-3.1,0.5-6.3-1.4-6.7-7c-0.2-3.6-2.1-6.6-3-7.5c-1.2-1.4-1.1-1.5,0.2-1.1c3,0.7,3.9,1.3,4.4-2.4c1-6.8-2.3-17.1-8.7-21.3
		c-1.8-1.2-1.6-1.9,0.3-1.5c13.5,3.2,20.2,15.3,20.2,26.9C64.1,137.2,61.2,142.2,57.4,142.7z"/>
	<path d="M21.7,174.6c-1.5,0.4-2,0.5-2.5,2.5c-0.9,4.1-2.4,8.5-4.3,13.1c1.1,0.4,2.3,0.8,2.8,1c1.7,0.8,1.2,2.5,0.1,3.1
		c-1.4,0.6-1.7,1-1.7,2.5c-0.2,10.6-0.4,31.1,0.1,46c0.1,3-1.6,3.9-5.6,4.3c-4.4,0.3-5.4-1.3-5.3-4.2c0.3-8.6,0.7-25,0.6-36.7
		c-1.4,1.7-3,3.4-4.4,4.8c-1,1-1.9,0.2-1.3-1.4c5.1-15.4,8.2-36.4,7.9-41c-0.1-1.4-0.1-2,1.2-1.6c4,1,8.9,2.5,12.6,3.8
		C23.6,171.5,23.6,174.2,21.7,174.6z M61.1,240.4c-0.1,0.9-0.9,1.7-1.7,1c-8.4-7.9-11.8-18.9-13.7-41.6h-0.8c-1.9,1.5-3.9,3-5.8,4.3
		c6.8,7.6,10.4,19.4,10.2,29.9c-0.2,10.5-4,12.6-12.2,13.2c-1.1,0.1-1.6-0.2-1.7-1.5c-0.4-4.9-0.7-6.4-5.8-9.1
		c-1.4-0.6-0.8-2.5,0.4-2.4c2.3,0.3,4.7,0.6,6.3,0.7c1.5,0.1,2.3-0.5,2.6-2.6c0.1-1,0.3-2.4,0.4-3.8c-6.8,4.5-14.4,7.4-21.6,8.5
		c-1.2,0.2-1.4-1.5-0.3-2.3c8.1-5,15.8-11.7,21.6-18.7c0-0.2-0.1-0.4-0.1-0.6c-5.8,4-12.9,7.4-20.4,8.3c-1.2,0.2-1.5-1.5-0.4-2.2
		c6.3-3.7,12.6-9.3,18-15.4c-5.2,3-10.8,5-16.6,6c-1.1,0.2-1.5-1.4-0.4-2c5-3.2,9.1-6.8,11.9-10.2c-1.2,1.1-2.8,1.4-5.1,1.7
		c-3.1,0.4-5.6,0.6-5.3-2.9c0.4-4.1,0.4-8.9,0.1-11.8c-1,0.4-2.1,0.7-3.1,1c-1,0.3-1.2-1.1-0.4-1.9c5.1-5.4,9.5-14.1,10-17.7
		c0.2-1.2,0.4-1.5,1.4-1.3c3.1,0.5,8.1,1.2,12.4,2.2c1.7,0.4,2.1,2.9-0.7,3.4c-0.9,0.2-1.5,0.1-2.1,1.1c-0.3,0.4-0.6,0.8-0.9,1.2
		h2.5c1,0,1.3-0.3,2-0.8c0.9-0.9,2.5-2.4,3.6-3.4c0.7-0.6,1.2-0.7,2.3-0.1c1.3,0.9,5,3.5,6.7,5c2.1,2,1.2,4.4-1.2,4.2
		c-0.9-0.1-1.9-0.1-2.7,0.5c-2.1,1.5-5.5,3.2-8.4,4.5h7.3c0.7,0,1.1-0.2,1.5-0.5c1-1,2.7-2.5,3.8-3.5c0.6-0.5,1.2-0.5,2.2,0
		c1.3,0.8,4.4,2.9,6.3,4.3c1.3,1,1.7,3.1,0,4.4c-1,0.6-1.5,0.8-1.5,2.3c0,1.1,0,3.4,0.2,6.3c0.2,3.3-2.4,3.5-6,3.9
		c-2.6,0.3-4.6,0.4-4.9-1.7H48c1.2,4.8,2.3,8.7,3.8,12c1.3-3.1,2.5-6.8,2.9-8.8c0.3-1.5,0.7-1.5,1.7-0.8c2.5,1.8,5.5,4.5,7.6,6.4
		c1.5,1.4,0.7,3.4-1.1,3c-0.9-0.2-1.5-0.3-2.3,0.4c-1.7,1.3-4.1,2.7-6.7,4.1c2.9,4.6,6.5,7.4,11.1,9.2c0.7,0.4,1.3,1.8,0.1,2.5
		C62.9,229.2,61.7,233.5,61.1,240.4z M34.4,177.9c-1.8,1.8-3.9,3.5-6.2,5c2.3,0.8,4.1,1.6,4.1,1.6h3.9c1.7-2.3,3.1-4.5,4-6.6H34.4z
		 M36,187.5h-4.6c0,1.3-0.2,5.5-0.1,9.2H36C36,194,36,189.9,36,187.5z M50.7,187.5h-4.9c-0.1,2.5-0.1,6.6,0,9.2h4.9
		C50.8,193.3,50.7,189.5,50.7,187.5z"/>
	<path d="M30.3,245.2h4.9v90.9h-4.9V245.2z"/>
</g>
</svg>
