<!-- Generator: Adobe Illustrator 19.0.0, SVG Export Plug-In  -->
<svg version="1.1"
	 xmlns="http://www.w3.org/2000/svg" xmlns:xlink="http://www.w3.org/1999/xlink" xmlns:a="http://ns.adobe.com/AdobeSVGViewerExtensions/3.0/"
	 x="0px" y="0px" width="66.4px" height="167.8px" viewBox="0 0 66.4 167.8"
	 style="overflow:scroll;enable-background:new 0 0 66.4 167.8;" xml:space="preserve">
<defs>
</defs>
<g>
	<path d="M43.7,21.3c-0.1-3.5-0.1-6.3-0.3-7.4c-0.2-2.1-0.6-2.5,0.9-2.3c1.9,0.2,5.8,0.7,9.7,1.6c1.3,0.3,1.5,2.4,0.1,3.1
		c-1.2,0.5-1.4,1-1.4,2.2c0,0.9,0,1.8,0,2.9h1.5c0.7,0,1.1-0.4,1.4-0.9c0.6-1.3,1.7-3.6,2.5-5.1c0.5-0.9,1.1-0.8,1.8,0
		c1.5,1.7,4,5.3,4.9,6.8c0.9,1.4,0.5,2.4-0.8,2.4H55c2.4,5.2,6,7.5,9.9,8.3c0.7,0.2,1,1.7,0.1,2.2c-1.8,1.2-2.3,3.3-3,10.8
		c-0.1,1.4-1.1,1.4-1.6,0.8c-4.5-4.4-6.5-12.2-7.4-22.1h-0.4c0,5.7,0.1,12.3,0.3,20.5c0.1,2.9-0.6,3.6-4.6,4c-4,0.6-5.1-0.8-5-3.5
		c0.1-2.7,0.1-5.8,0.2-8.9c-2.8,3.4-6.1,6.4-10.1,8.9c-0.8,0.5-1.4-0.6-0.8-1.5c1.5-2.1,2.8-4.3,4-6.5c-1.5,1-3.5,0.6-4.6-1.6
		c-1.2-2.5,0.5-5.2-1.8-7.8c0,5.4,0.1,11.5,0.3,17.5c0.1,3.1-0.9,3.6-4.9,4c-4,0.5-4.8-0.7-4.6-3.5c0.1-2.4,0.1-5.4,0.2-8.6
		c-2.1,2.9-4.6,5.4-7.1,7.4c-0.1,2.6-0.3,5-0.6,7C11.7,66.5,7.9,74.7,1.6,80.9c-0.8,0.8-2,0.8-1.4-1.5C2.2,71.2,3.1,63,3.8,50.9
		C4.5,37.6,4.3,9.8,3.5,4.7C3,1.6,3.3,1.1,4.6,1.8c5,2.1,9.5,4.3,11.3,5.4h31.6c0.7,0,1.2-0.2,1.8-0.8c1.5-1.9,3.5-4,5.3-6
		c0.5-0.6,1.3-0.6,2,0c2.6,2,5.9,4.9,8.5,7.4c1,0.9,1,2.6-0.7,2.6H14.9c0,1.6,0,5.7,0,10.8h6.5c0-3.6-0.1-6.3-0.2-7.4
		c-0.2-2.2-0.5-2.5,0.9-2.3c1.6,0.1,7.5,1.1,9.5,1.6c1.6,0.4,1.8,2.2,0.1,3c-1.1,0.6-1.4,0.8-1.4,2.1c0,0.9,0,2,0,3h0.8
		c0.7,0,1-0.3,1.4-0.9c0.7-1.2,1.8-3.5,2.6-4.9c0.4-0.7,1-0.7,1.7,0c1.2,1.4,3,4,4.1,5.8H43.7z M47.6,59.7c0.6,0,1.1-0.3,1.4-0.9
		c1.1-1.9,2.6-3.9,3.9-5.8c0.5-0.7,1.1-0.7,1.8,0c2.1,2,4.9,5.1,6.6,7.5c0.7,1.1,0.7,2.5-0.7,2.5H45.2c0,4,0,8.2,0.1,12.6h4.2
		c0.6,0,1.2-0.3,1.5-0.9c1.3-2,3.4-4.9,4.9-7.2c0.5-0.7,1.1-0.6,1.8,0c2.6,2.6,5.7,6,7.9,8.9c0.8,1.1,0.7,2.5-0.7,2.5H18.8
		c-2.9,0-5.7,0.2-7.1,0.7c-0.6,0.2-1.1-0.1-1.4-0.8c-0.3-0.7-0.8-2.6-1-3.6c-0.2-1-0.1-1.1,0.8-0.8c2.2,0.8,6,1.2,8.7,1.2
		c0.2-9.6,0.1-17.4-0.2-19.7c-0.4-2.5-0.7-3,1-2.9c3.6,0.4,7.6,1,11,1.8c1.9,0.5,1.8,2.8,0.1,3.5c-0.9,0.4-1.5,0.7-1.5,2
		c-0.1,4.5-0.1,9.3,0,15.2h5.3c0.2-9.9,0.1-22.2-0.2-24.5c-0.4-2.5-0.7-3,1-2.9c3.5,0.3,8.4,1,11.7,1.8c1.5,0.3,1.8,2.6,0.1,3.3
		c-1.3,0.6-1.8,0.9-1.8,2.2c0,1.3,0,2.7-0.1,4H47.6z M14.9,24.5c-0.1,5-0.2,12-0.4,17.2c2.5-5.5,4.4-11.9,5.5-17.2H14.9z M30.3,24.5
		c0,0.4,0,0.7,0,1.1c3.8,0.6,7.5,1.7,8.2,6c0.1,0.7,0.1,1.4,0.1,2c1.3-2.8,2.5-5.9,3.7-9.1H30.3z"/>
	<path d="M61.9,164c-0.1,1.1-0.4,1.7-1.5,1.7c-11.8,0-22.4-2.2-29.8-7.4c-6.5,7.1-17,9.3-29.7,9.6c-1.1,0-1.1-1.7-0.2-2
		c10.4-3.8,17.7-8.8,23.1-16.7c-2.6-4.3-4.4-8.5-6-13.9c-1,5.1-2.9,9.4-4.9,13.1c-0.4,0.6-0.7,2.4-0.5,4.4c0.1,1.9-1.6,3.2-2.5,1.2
		c-1.8-4.1-3.9-9.9-5.4-13.8c-0.3-0.8-0.1-1.4,0.7-1.7c4-1.4,8.6-4,11.6-7.1c1-1,2.1-0.7,2.8,0.6c2,3.9,4.7,7.5,7.3,10
		c0.6-1.9,1-4.3,1.1-7c0.1-1.7,0.2-4.8,0.2-7.3h-8.3c-0.4,2.1-2.8,2.9-6.2,3.2c-4.3,0.4-6-0.2-5.9-3.2c0.6-12.3,1-24-0.1-28.9
		c-0.6-2.3-0.2-2.8,1-2.3c4.9,1.8,12.1,5.4,12.1,5.4h7.5c-0.1-4.8-0.2-9-0.4-11.7c-0.2-2.6-1.3-4,0.7-3.7c4.3,0.5,9.3,1.2,13.5,1.8
		c2.1,0.4,2.1,3,0,4c-1.7,0.7-2.1,1.4-2.1,3c0,2.1,0,4.3,0,6.5h6.6c0.7,0,1.1-0.3,1.5-0.7c1.4-1.7,3-3.5,4.5-5.1
		c0.4-0.5,1.3-0.6,2.1,0c2.1,1.5,5.3,4,7.8,6.3c1,0.9,1.3,2.9,0.1,3.9c-1.8,1.3-2.2,1.4-2.2,3.8c-0.1,5.1-0.1,10.8,0.1,19.2
		c0.1,2.8-2.6,3.8-6.3,4c-4.6,0.4-5.9-0.2-5.9-3.2c0-0.8,0.1-1.7,0.1-2.5h-8.8c-0.1,4.5-0.2,8-0.7,11.7c-0.4,2.8-1.3,6.4-2.1,8.7
		c7.4,2.2,16.6,2.2,28.5,1.3c1.2-0.1,1.6,1.5,0.3,2.6C62.5,154.5,62.2,158.1,61.9,164z M19.8,105.3c-0.2,6.9-0.4,13.3,0,19.1h8.4
		c0.1-5.9,0.2-12.8,0.1-19.1H19.8z M39.9,105.3c0.1,6.3,0.1,12.9-0.1,19.1h8.7c0.1-6.4,0.2-12.7,0.1-19.1H39.9z"/>
</g>
</svg>
