<!-- Generator: Adobe Illustrator 19.0.0, SVG Export Plug-In  -->
<svg version="1.1"
	 xmlns="http://www.w3.org/2000/svg" xmlns:xlink="http://www.w3.org/1999/xlink" xmlns:a="http://ns.adobe.com/AdobeSVGViewerExtensions/3.0/"
	 x="0px" y="0px" width="78.5px" height="193.7px" viewBox="0 0 78.5 193.7"
	 style="overflow:scroll;enable-background:new 0 0 78.5 193.7;" xml:space="preserve">
<defs>
</defs>
<g>
	<path d="M77.2,30.9H45.3c0,9.7,0.2,24.7-1.7,37.5c-2.3,15.5-7,22.3-13.6,27.4c-1.1,0.9-2,0.3-1.4-1.5c3-9.2,4-20,4.5-35
		c0.3-10.2,0.2-20.8,0-27.1c-1.1,1-2.3,2.2-3.5,2.9c-0.1,14,0,31.2,0.3,47.7c0.1,7.4-4.4,10.4-11,11.6c-1.7,0.3-2.2-0.1-2.3-2
		c-0.6-7.9-0.8-9.7-5.7-12.4c-2.3,6.3-5.5,11.5-9.4,15.5c-0.9,0.9-2,0.9-1.4-1.5c2.7-10.2,4.2-22.4,4.4-42.1
		C4.9,31.9,4.8,8.5,4.1,5.2c-1-4.3,0-4,1.2-3.5c4.7,2.2,7.8,4,10.6,5.5h1.2c0.8,0,1.1-0.3,1.5-0.9c1-1.4,2.8-3.7,4-5.2
		c0.5-0.7,1.2-0.8,2.1,0c2.3,1.7,4.9,4,6.8,5.9c1.6,1.5,2.1,3-0.1,5c-1.1,1-1.7,1.7-1.7,2.9c-0.1,4.1-0.1,9.6-0.1,15.4
		c5-9.6,8.6-21.8,8.9-28.7C38.6,0,38.6-0.1,39.7,0c5,0.5,9.9,1.5,14.3,2.4c1.9,0.4,2.2,3-0.1,3.7C52.4,6.6,52,6.8,51.6,8
		c-0.3,0.9-0.7,1.7-1,2.6h3c0.6,0,1.1-0.2,1.7-0.7c1.5-1.6,3.5-3.6,5-4.9c0.8-0.9,1.5-0.7,2.2,0c2.1,1.6,6.1,5.1,7.8,7.1
		c1.7,2,1.5,4.6-1.4,4.9c-1.7,0.2-3,0.8-3.9,1.5c-2.8,2.7-6.7,5.8-10.6,8.5h7.6c0.6,0,1.2-0.3,1.6-0.9c1.7-2.3,3.3-4.2,4.9-6.2
		c0.4-0.7,1.2-0.7,1.9,0c2.2,2.1,5.5,5.3,7.8,8.2C79,29.5,78.4,30.9,77.2,30.9z M15.1,55c-0.3,10.3-1.3,16.4-3.3,22.7
		c1.7,0.2,3.3,0.3,4.7,0.3c1.7,0,2-0.9,2-2.8c0.1-6.1,0.2-13,0.2-20.2H15.1z M18.7,31.5h-3.2c0,7.1-0.1,13.9-0.3,19.6h3.5
		C18.7,44.6,18.7,38,18.7,31.5z M18.5,11.1h-3c0,5.1,0,10.9-0.1,16.5h3.2C18.7,21.7,18.6,16,18.5,11.1z M48.7,14.4
		c-2,3.7-4.5,7.4-7.3,10.4c2.2,0.9,4.7,2.2,4.7,2.2h2.7c2.2-4,4.5-9.2,5.7-12.6H48.7z M72.7,92.7c-3.9,1.5-12.1,1.6-16.8,1
		c-6.5-0.9-9.3-4.2-9-14.2c0.3-14.9,0.6-36-0.3-42.8c-0.3-2.5,0-3,1.1-2.6c4.7,2.1,11,5.7,11,5.7H61c0.6,0,1-0.2,1.4-0.8
		c1-1.3,2.6-3.6,3.9-5.2c0.6-0.8,1.3-0.7,2.2,0c2.2,1.7,4.2,3.8,6.5,6.3c1.6,1.6,1.7,3.3-0.2,4.8c-1.6,1.4-1.9,1.7-2,3.7
		c0,3.6-0.2,9.2-0.5,13.5c-0.7,8.2-3.6,10-9.3,10.9c-1.2,0.2-1.9-0.1-2-1.6c-0.3-6-0.6-8-3.2-9.8c0,5.4,0.1,11.8,0.2,15.9
		c0.1,2.3,0.7,2.6,2.2,3c1.6,0.3,5.6,0.3,7.6-0.1c2.6-0.7,3.2-3.2,5-12.7c0.3-1.6,2-1.8,2,0.3c-0.2,8.4-0.4,9.5,1.5,11.1
		C79.5,81.8,79.8,90.2,72.7,92.7z M57.9,43.4c-0.1,3.7-0.1,9.2-0.1,15c0.8,0,2,0,2.9,0c1.5,0,1.8-0.9,2-3.3C63,52.2,63,46.9,63,43.4
		H57.9z"/>
	<path d="M65.3,165.8c-4.2,1.7-6.1,0-11.5-5c-13.7-12.6-40-9.2-37,7.1c1.7,9.2,13.8,12.6,29.7,9.5c6.4-1.3,11.2,1.7,11.5,7.2
		c0.3,5.9-3.7,8-8.4,8.7c-24.1,3-40.3-6.2-38.7-25.1c1.5-16.5,17-23.3,39.1-17.5c2.3,0.7,2.2,0.3,1-1.6c-3.9-7-7-11.5-9.7-14.9
		c-19.4,6-32.4,2.4-36.1-9.1c-0.6-2-0.6-2.5,1.1-1.1c5.2,4.3,14.2,4.5,26,1.2c-5-3.6-9.6-4.9-11.8-8.2c-2.6-3.7-2.4-10.2,1.4-13.3
		c5.3-4.2,16.3-3.3,19.5,2.4c2.8,4.9,7.4,6.3,15.6,4.3c9-2.2,11.7,5.9,6.5,11.7c-3.6,3.9-8.4,6.6-13.7,8.8
		c6.3,7.2,12.2,14.9,16.1,21.4C69.6,158.6,68.4,164.5,65.3,165.8z M49.4,114c-4.6,0.1-7.9-2.5-10-6c-3.3-5.5-13.7-0.2-6.8,5.7
		c2.8,2.4,5.7,5.2,8.9,8.3c3-1.2,6.3-2.8,8.3-4.3C51.6,116.2,51.2,114,49.4,114z"/>
</g>
</svg>
