<!-- Generator: Adobe Illustrator 19.0.0, SVG Export Plug-In  -->
<svg version="1.1"
	 xmlns="http://www.w3.org/2000/svg" xmlns:xlink="http://www.w3.org/1999/xlink" xmlns:a="http://ns.adobe.com/AdobeSVGViewerExtensions/3.0/"
	 x="0px" y="0px" width="390.8px" height="243.4px" viewBox="0 0 390.8 243.4"
	 style="overflow:scroll;enable-background:new 0 0 390.8 243.4;" xml:space="preserve">
<defs>
</defs>
<g>
	<g>
		<path d="M186.6,239.9c-0.2,3-2.2,3.8-4.2,3c-20.9-8.5-39.3-25.5-45.1-58.2c-9.5,33.8-36.7,54.9-75.4,58.5c-4,0.3-4.6-4.4-2-5.8
			c26.8-14.8,37.6-31.3,45.7-51.9c2.4-6,4-12.6,5.3-19.8h-7.7c0,0.5,0,2.7,0,3.3c0,7.1-4.2,9.6-14.3,10.4
			c-9.2,0.8-15.4-1.4-14.9-8.8c0.9-12.9,1.3-27.7,1.5-41.2c-3.7,14-18.5,14.3-19.3-1.1c-0.9-13.2,6.4-17.3-2.9-36.8
			c0,45.1,0.2,101.4,1.1,141.8c0.2,6.3-5.7,9.3-15.8,9.9c-10.8,0.5-15.6-0.8-15.4-9.3c0.7-21.4,1.1-49.5,1.3-78.3
			c-7.7,13.2-14.1,21.4-21.1,28.8c-2.2,2.2-4.2,0.3-3.3-3c10.5-33.5,17.1-64.8,22.6-111c-5.1,0.3-10.8,0.8-14.7,2.2
			c-1.8,0.8-3.5,0-4.4-2.2c-1.1-2.7-2.2-6.9-2.9-10.7c-0.4-3,0-3.3,2.6-2.5c6.4,2.5,15.2,3.3,21.3,3.3c-0.2-27.2-0.7-47.3-1.3-52.5
			c-0.9-7.4-1.1-7.7,2.6-7.4c8.8,0.8,22.4,3.3,32.5,6c5.1,1.4,5.7,7.7-0.2,9.9c-3.7,1.4-4.4,2.7-4.4,6c-0.2,7.4-0.2,20.6-0.4,37.1
			c2.2-5.8,5.9-14.8,8.4-20.3c0.9-1.6,3.3-2.2,4.4,0c3.5,6.9,9.2,16.8,12.1,24.5c13.4-19.2,22.6-41.8,25.3-60.4c0.4-3.6,2-3.8,5.3-3
			c9.9,2.2,24.8,5.5,36,8.8c5.5,1.6,6.8,9.3-2,10.7c-2,0.3-3.5,0.5-4.6,1.1c15.8,15.9,36.5,19.8,58.2,20.1c2-0.3,2.6,4.1,0,6.3
			c-7.5,6.3-9.2,14.6-9.9,37.6c0,3-2.4,4.1-4.4,3.3c-18.7-7.7-39.3-29.4-48.6-59.1c-7.7,16.5-18.2,29.9-31.6,40.1
			c5.7,1.4,11.9,1.9,16.3,1.9h4.8c1.1,0,2.4-0.3,3.3-1.9c2.9-4.4,6.6-10.4,10.1-15.7c1.1-1.4,2.9-1.9,4.6,0
			c5.1,5.2,11.4,13.7,17.1,21.2c2,2.5,1.3,5.8-1.8,5.8h-13.6c0,7.4,0,14.6,0,21.4h5.9c2,0,3.1-0.5,4-1.6c3.3-4.7,6.2-8.8,9.5-12.6
			c1.3-1.4,3.5-1.4,5.5,0c5.7,3.8,14.1,10.2,20.4,16.2c2.6,2.7,3.5,7.7-0.4,11c-3.7,3-5.3,3.3-5.3,7.4c0,10.7,0,25.8,0.4,42.3
			c0.2,8-5.1,10.4-16,11.5c-8.8,0.8-13.4-0.5-13.4-7.1c0-0.5,0-2.7,0-3.3h-12.7c9.2,23.1,33.2,30.5,55.8,30.8c2.9,0,3.7,4.7,0.2,6.9
			C189.7,207.8,188.3,216.6,186.6,239.9z M113.4,80.9c-4.4,0.3-9,0.8-11.9,1.9c-1.8,0.5-3.3-0.3-4.2-2.5c-0.7-1.4-1.3-3.8-2-6.3
			c-9,5.8-19.3,10.2-30.8,13.5c-2.9,0.5-4-2.5-1.8-4.9c3.7-3.8,7.3-7.7,10.8-12.1H53.4c0,3.8,0,8,0,12.4c11.4,7.1,19.6,17.3,22,28.8
			c-0.2-7.7-0.7-14-1.3-17.9c-1.1-6.6,0-7.4,2.6-6.3c14.7,6,29,14.6,29,14.6h8.4C114.1,95.4,113.4,88.3,113.4,80.9z M103.3,111.9
			c-0.4,13.7-0.4,27.7-0.2,44h9.2c1.5-12.9,1.8-27.7,1.8-44H103.3z M143.1,111.9c0,16.2-0.4,30.8-1.5,44h12.5
			c0.4-15.4,0.7-30.2,0.2-44H143.1z"/>
		<path d="M382.8,157.8c-0.7,17-0.7,46.2,0,73.1c0.2,6.3-5.1,11-18.5,12.1c-11,1.1-17.1-1.9-16.7-8.5c0.2-3.6,0.4-7.1,0.4-11h-94.5
			c0,3,0.2,5.8,0.2,8.5c0.2,6.3-6.2,10.4-17.6,11.3c-11.6,0.8-17.8-1.6-17.6-8.2c1.8-38.5,1.8-82.1-0.4-92.6c-1.5-6.9-1.5-8,2.6-7.7
			c11.2,1.1,27.7,3.6,38.5,5.5c4.2,0.8,5.1,8.2-0.2,10.2c-3.7,1.4-5.1,2.5-5.3,6.3c-0.4,15.4-0.7,35.7-0.4,55.8h28.1
			c0.7-27.7,1.3-66.8,1.3-103.6h-24.4c0,1.9,0.2,3.6,0.2,5.5c0.2,6.3-5.9,10.4-17.4,11.3c-10.5,0.8-17.4-1.6-17.1-8.2
			c1.3-35.2,0.9-77.2-1.1-87.4c-1.3-6.9-1.3-8,2.6-7.7c10.5,0.8,27.5,3,38.5,5.5c4.6,0.8,5.1,8,0.2,9.6c-4.8,1.6-5.5,3.3-5.7,7.1
			c-0.4,13.7-0.7,32.7-0.2,53.3h24.4c0-43.1-0.7-80.5-2-88.7c-1.3-8-2.2-9.1,3.1-8.5c11.4,1.1,27,3.3,39.6,6c5.3,1.1,6.2,8,0.2,10.2
			c-4.8,1.6-5.5,4.1-5.7,8c-0.4,12.1-0.7,40.1-0.7,73.1h25.7c1.1-29.4,0.7-59.6-1.1-68.7c-1.3-6.9-1.3-8.2,2.6-7.7
			c10.1,1.1,26.8,4.4,38,7.1c4.6,1.1,4,8,0.4,9.6c-4.4,1.9-5.3,3.3-5.5,7.1c-0.7,15.1-0.7,37.4,0,68.4c0,6.3-6.2,11-18.5,11.8
			c-11.2,0.8-17.1-2.2-16.7-8.8c0.2-2.7,0.2-5.2,0.4-8h-25.5c0,34.6,0,73.4,0.7,103.6h30.5c0.9-29.4,0.7-61.5-1.3-70.9
			c-1.5-6.9-2-8.2,2.6-7.7c10.8,1.6,26.2,4.4,36.9,7.1c5.3,1.4,5.3,8,0.4,10.2C383.5,152.9,383.1,154,382.8,157.8z"/>
	</g>
</g>
</svg>
