<!-- Generator: Adobe Illustrator 19.0.0, SVG Export Plug-In  -->
<svg version="1.1"
	 xmlns="http://www.w3.org/2000/svg" xmlns:xlink="http://www.w3.org/1999/xlink" xmlns:a="http://ns.adobe.com/AdobeSVGViewerExtensions/3.0/"
	 x="0px" y="0px" width="1700px" height="400px" viewBox="0 0 1700 400"
	 style="overflow:scroll;enable-background:new 0 0 1700 400;" xml:space="preserve">
<style type="text/css">
	.st0{opacity:0.8;fill:#FFFFFF;}
	.st1{fill:#FF0000;}
</style>
<defs>
</defs>
<rect class="st0" width="1700" height="400"/>
<rect class="st1" width="1700" height="400"/>
<g>
	<polygon points="30,75 0,75 55.1,0 85.1,0 	"/>
	<polygon points="90,75 60,75 115.1,0 145.1,0 	"/>
	<polygon points="150,75 120,75 175.1,0 205.1,0 	"/>
	<polygon points="210,75 180,75 235.1,0 265.1,0 	"/>
	<polygon points="270,75 240,75 295.1,0 325.1,0 	"/>
	<polygon points="330,75 300,75 355.1,0 385.1,0 	"/>
	<polygon points="390,75 360,75 415.1,0 445.1,0 	"/>
	<polygon points="450,75 420,75 475.1,0 505.1,0 	"/>
	<polygon points="510,75 480,75 535.1,0 565.1,0 	"/>
</g>
<g>
	<polygon points="1164.9,75 1134.9,75 1190,0 1220,0 	"/>
	<polygon points="1224.9,75 1194.9,75 1250,0 1280,0 	"/>
	<polygon points="1284.9,75 1254.9,75 1310,0 1340,0 	"/>
	<polygon points="1344.9,75 1314.9,75 1370,0 1400,0 	"/>
	<polygon points="1404.9,75 1374.9,75 1430,0 1460,0 	"/>
	<polygon points="1464.9,75 1434.9,75 1490,0 1520,0 	"/>
	<polygon points="1524.9,75 1494.9,75 1550,0 1580,0 	"/>
	<polygon points="1584.9,75 1554.9,75 1610,0 1640,0 	"/>
	<polygon points="1644.9,75 1614.9,75 1670,0 1700,0 	"/>
</g>
<g>
	<polygon points="30,400 0,400 55.1,325 85.1,325 	"/>
	<polygon points="90,400 60,400 115.1,325 145.1,325 	"/>
	<polygon points="150,400 120,400 175.1,325 205.1,325 	"/>
	<polygon points="210,400 180,400 235.1,325 265.1,325 	"/>
	<polygon points="270,400 240,400 295.1,325 325.1,325 	"/>
	<polygon points="330,400 300,400 355.1,325 385.1,325 	"/>
	<polygon points="390,400 360,400 415.1,325 445.1,325 	"/>
	<polygon points="450,400 420,400 475.1,325 505.1,325 	"/>
	<polygon points="510,400 480,400 535.1,325 565.1,325 	"/>
</g>
<g>
	<polygon points="1164.9,400 1134.9,400 1190,325 1220,325 	"/>
	<polygon points="1224.9,400 1194.9,400 1250,325 1280,325 	"/>
	<polygon points="1284.9,400 1254.9,400 1310,325 1340,325 	"/>
	<polygon points="1344.9,400 1314.9,400 1370,325 1400,325 	"/>
	<polygon points="1404.9,400 1374.9,400 1430,325 1460,325 	"/>
	<polygon points="1464.9,400 1434.9,400 1490,325 1520,325 	"/>
	<polygon points="1524.9,400 1494.9,400 1550,325 1580,325 	"/>
	<polygon points="1584.9,400 1554.9,400 1610,325 1640,325 	"/>
	<polygon points="1644.9,400 1614.9,400 1670,325 1700,325 	"/>
</g>
<g>
	<g>
		<path d="M592,63.6V20.2h14.2v43.4H592z"/>
		<path d="M610.8,20.2h39.8v11.4h-12.8v32h-14.2v-32h-12.8V20.2z"/>
		<path d="M677,63.6V20.2h14.2v43.4H677z"/>
		<path d="M721.9,32.8c-0.2-1.5-1-2.4-2-3s-2.3-0.8-3.7-0.8c-3.1,0-4.5,0.9-4.5,2.5c0,6.5,24.9,2.5,24.9,18.3
			c0,10.1-8.4,14.9-20.3,14.9c-11.4,0-18.9-6.7-19.2-14.5h13.6c0.3,1.6,1.1,2.7,2.3,3.4c1.1,0.7,2.7,1.1,4,1.1
			c3.6,0,5.9-1.1,5.9-3.2c0-6.6-24.9-2-24.9-18.6c0-9.2,8-13.9,18.8-13.9c12,0,17.5,6.1,18.6,13.7H721.9z"/>
		<path d="M799.8,47h0.1l4.9-26.8h13.7l-10.8,43.4h-14l-5-25.2h-0.1l-4.9,25.2h-14l-10.8-43.4h13.7l4.9,26.8h0.1l5.2-26.8h11.7
			L799.8,47z"/>
		<path d="M865.1,41.7c0,14.8-9.9,23.1-22.8,23.1c-13.6,0-22.7-8.4-22.7-23.2c0-13.6,9.2-22.5,22.7-22.5
			C857.8,19.1,865.1,30.2,865.1,41.7z M833.9,41.7c0,5.5,1.7,12.5,8.5,12.5c6.1,0,8.6-5.3,8.6-12.5c0-5.9-2.4-12.2-8.7-12
			C835.8,29.7,833.9,36.2,833.9,41.7z"/>
		<path d="M885,48.5v15.1h-14.2V20.2h20.5c14.5,0,19.2,3.9,19.2,12.3c0,5-2.2,9.2-7.3,10.6c4.6,1.7,7.3,2.8,7.3,11.5
			c0,5.7-0.2,7.6,1.5,7.6v1.3h-14.4c-0.4-1-0.7-3.7-0.7-7.6c0-5.7-1-7.5-7.6-7.5H885z M885,39h5.6c4.4,0,6.7-1.1,6.7-4.1
			c0-3.1-2.4-4.5-5.7-4.5H885V39z"/>
		<path d="M917.9,20.2h14.2v14l12.5-14h16.7l-15.8,16.3l17.5,27h-17l-10.4-17.3l-3.4,3.6v13.7h-14.2V20.2z"/>
		<path d="M967,63.6V20.2h14.2v43.4H967z"/>
		<path d="M1018,43.9l-0.5-9.9V20.2h13.6v43.4h-13.3L1002.3,40l0.5,9.9v13.7h-13.6V20.2h13.3L1018,43.9z"/>
		<path d="M1080.9,63.7h-9.2l-0.5-4.3c-2.3,2.8-6.3,5.3-13.1,5.3c-11.1,0-21-7.2-21-22.3c0-13.9,8.7-23.4,22.7-23.4
			c10.4,0,18.8,5.4,20.5,16.1h-13.5c-1-3.6-3.6-5.5-7.3-5.5c-5.6,0-8.3,5.1-8.3,12.7c0,6.1,1.9,11.7,9.1,11.7c2.9,0,6.6-2,7.3-5
			h-6.3v-9.4h19.5V63.7z"/>
		<path d="M1088.5,63.6V51.2h12.8v12.4H1088.5z"/>
	</g>
</g>
<g>
	<path d="M594.2,363.3c-2.8,0-5.3-0.5-7.3-1.1v14.1c0,1.5,1.1,2,4.4,2.3c0.3,0.1,0.6,0.2,0.6,0.6s-0.2,0.6-0.6,0.6h-17.6
		c-0.3,0-0.6-0.1-0.6-0.6s0.2-0.6,0.6-0.6c3.2-0.3,4.1-0.8,4.1-2.3v-35.1c0-1.6-1-2-4.1-2.4c-0.3-0.1-0.6-0.1-0.6-0.6
		c0-0.5,0.3-0.6,0.6-0.6c10.8,0,17.7-0.2,20.2-0.2c10.9-0.1,15.7,5.6,15.7,12.4C609.6,359.3,603.9,363.3,594.2,363.3z M592,339.4
		c-1.2,0-4.5,0.2-5,0.3v18.9c0,1.1,2.8,2,5.8,2c4.4,0,7.6-3.5,7.6-10.6C600.4,343.9,596.9,339.4,592,339.4z"/>
	<path d="M627.9,379.8h-16c-0.5,0-0.6-0.1-0.6-0.6s0.2-0.6,0.6-0.6c3-0.3,3.6-0.9,3.6-2.5v-33.8c0-1.5,0-1.6-2.9-1.6
		c-0.9,0-1-1.2-0.2-1.4c3.6-0.6,8-1.7,11.5-2.7c0.4-0.1,0.6,0.2,0.6,0.7v38.8c0,1.6,0.6,2.2,3.6,2.5c0.3,0.1,0.6,0.2,0.6,0.6
		S628.4,379.8,627.9,379.8z"/>
	<path d="M658.9,365.3l-19.6,1.5c1,7.5,5.2,10.4,9.4,10.4c3.1,0,6.3-1.5,8.3-4.6c0.2-0.4,0.7-0.5,1.2-0.1c0.3,0.3,0.3,0.7,0.2,1.1
		c-1.8,4.5-6,7-12.3,7c-9.9,0-15.6-6.3-15.6-15.3c0-9.4,6.5-15.2,15.1-15.2c8.4,0,13.9,6.3,13.9,13.4
		C659.6,364.8,659.5,365.2,658.9,365.3z M645.3,353c-3.9,0-6.3,2.7-6.3,9.9c0,0.5,0,0.9,0.1,1.4l12.1-1.2c0.6-0.1,0.5-0.5,0.5-0.7
		C651.7,358,648.9,353,645.3,353z"/>
	<path d="M694.7,378.2c-1.6,1.5-4.2,2.4-6.8,2.4c-3.6,0-5.2-1.4-5.7-4.3c-1.9,2.7-5.9,4.3-10.7,4.3c-4.9,0-8-3-8-7.5
		c0-5.8,3.2-8.8,11.2-10.3c1.9-0.3,4.5-0.9,6.7-1.5c0-6.1-2.7-8.2-6.1-8.2c-3.2,0-4.5,1.1-4.5,2.7c0,1.3,0.7,1.5,0.7,3.1
		c0,1.9-1.3,2.9-3.6,2.9c-2.2,0-3.6-1.5-3.6-3.7c0-4.4,4.8-8,13-8c9.1,0,12.9,4.5,12.9,11.3v12.3c0,2.6,0.3,3.7,1.8,3.7
		c0.7,0,1.4-0.3,1.9-0.6c0.5-0.3,0.6-0.3,0.9,0.1C695.2,377.4,695.2,377.8,694.7,378.2z M681.6,364.3c-1.7,0.6-3.6,0.8-5.3,1.3
		c-3.3,0.9-4.8,2.6-4.8,6c0,2.7,2,4.2,4.9,4.1c2,0,4.3-1,5.2-2.6V364.3z"/>
	<path d="M709.6,380.6c-4.1,0-7.9-1.2-10.1-2.2c-0.4-0.2-0.7-0.3-0.7-0.7c-0.2-1.9-0.6-5.4-1-8.1c-0.1-0.3,0.1-0.5,0.3-0.6
		c0.5-0.1,0.7,0.1,0.9,0.3c2.3,6,5.5,8.8,9.6,8.8c4,0,5.6-1.5,5.6-3.6c0-2.9-1.6-4.4-8.3-6.7c-5.2-1.8-7.8-4.4-7.8-8.9
		c0-4.8,4.1-8.7,10.7-8.7c3.5,0,6.4,0.2,8.2,0.7c1.3,0.3,2.2,0.3,2.9-0.1c0.5-0.3,0.8-0.1,0.9,0.5c0.2,2.5,0.5,5.3,0.9,7.9
		c0,0.3-0.1,0.6-0.4,0.6c-0.6,0.1-0.8-0.1-1-0.4c-2.7-5.7-6-6.9-9.6-6.9c-3,0-4.9,1.2-4.9,3.7c0,2.2,1.4,3.2,7.3,5.2
		c7.1,2.5,10.2,5.2,10.2,10.2C723.4,377.7,719.7,380.6,709.6,380.6z"/>
	<path d="M755.6,365.3l-19.6,1.5c1,7.5,5.2,10.4,9.4,10.4c3.1,0,6.3-1.5,8.3-4.6c0.2-0.4,0.7-0.5,1.2-0.1c0.3,0.3,0.3,0.7,0.2,1.1
		c-1.8,4.5-6,7-12.3,7c-9.9,0-15.6-6.3-15.6-15.3c0-9.4,6.5-15.2,15.1-15.2c8.4,0,13.9,6.3,13.9,13.4
		C756.3,364.8,756.2,365.2,755.6,365.3z M742.1,353c-3.9,0-6.3,2.7-6.3,9.9c0,0.5,0,0.9,0.1,1.4l12.1-1.2c0.6-0.1,0.5-0.5,0.5-0.7
		C748.4,358,745.6,353,742.1,353z"/>
	<path d="M837.7,338.7c-2.4,0.7-4.5,2.7-5.2,5.2l-9.9,36c-0.2,0.7-1.3,0.9-2.2,0.9c-0.7,0-1.8-0.2-2-1l-9.7-32.2l-9,32.3
		c-0.2,0.7-1.3,0.9-2.2,0.9c-0.6,0-1.7-0.2-2-1l-12.6-39c-0.5-1.4-2-1.6-4-2c-0.3-0.1-0.5-0.2-0.5-0.6c0-0.5,0.1-0.6,0.5-0.6h16.5
		c0.5,0,0.6,0.2,0.6,0.5c0,0.5-0.1,0.6-0.6,0.7c-2.4,0.5-3.6,0.7-3.3,1.7l8,27.2l6.5-23.4c0.8-3.1-0.5-4.9-4.1-5.6
		c-0.3-0.1-0.5-0.2-0.5-0.6c0-0.5,0.1-0.6,0.5-0.6h15.8c0.4,0,0.6,0.2,0.6,0.5c0,0.5-0.1,0.6-0.6,0.7c-2.3,0.5-3.3,0.7-3.1,1.7
		l7.8,27.2l6.6-23.9c0.9-2.9-1.1-4.1-4-5c-0.5-0.2-0.7-0.3-0.7-0.7c0-0.5,0.2-0.5,0.7-0.5h11.9c0.5,0,0.6,0.1,0.6,0.5
		C838.3,338.4,838.2,338.6,837.7,338.7z"/>
	<path d="M866.6,378.2c-1.6,1.5-4.2,2.4-6.8,2.4c-3.6,0-5.2-1.4-5.7-4.3c-1.9,2.7-5.9,4.3-10.7,4.3c-4.9,0-8-3-8-7.5
		c0-5.8,3.2-8.8,11.2-10.3c1.9-0.3,4.5-0.9,6.7-1.5c0-6.1-2.7-8.2-6.1-8.2c-3.2,0-4.5,1.1-4.5,2.7c0,1.3,0.7,1.5,0.7,3.1
		c0,1.9-1.3,2.9-3.6,2.9c-2.2,0-3.6-1.5-3.6-3.7c0-4.4,4.8-8,13-8c9.1,0,12.9,4.5,12.9,11.3v12.3c0,2.6,0.3,3.7,1.8,3.7
		c0.7,0,1.4-0.3,1.9-0.6c0.5-0.3,0.6-0.3,0.9,0.1C867.1,377.4,867.1,377.8,866.6,378.2z M853.5,364.3c-1.7,0.6-3.6,0.8-5.3,1.3
		c-3.3,0.9-4.8,2.6-4.8,6c0,2.7,2,4.2,4.9,4.1c2,0,4.3-1,5.2-2.6V364.3z"/>
	<path d="M886.2,379.8h-16c-0.5,0-0.6-0.1-0.6-0.6s0.3-0.6,0.6-0.6c3-0.3,3.6-0.9,3.6-2.5v-20.1c0-1.5,0-1.6-2.9-1.6
		c-0.9,0-1-1.2-0.2-1.4c3.8-0.7,7.9-1.7,11.3-2.7c0.4-0.1,0.6,0.2,0.6,0.7v25.2c0,1.6,0.6,2.2,3.6,2.5c0.3,0.1,0.6,0.2,0.6,0.6
		S886.6,379.8,886.2,379.8z M878.1,346.8c-2.7,0-5-2.5-5-5.2c0-2.7,2.3-5.1,5-5.1c2.7,0,5,2.4,5,5.1
		C883.1,344.3,880.8,346.8,878.1,346.8z"/>
	<path d="M908.9,377c-1.9,2.3-4.4,3.6-7.7,3.6c-5.8,0-9.2-2.6-9.2-8.2v-19h-3.6c-0.5,0-0.8-0.3-0.9-1c-0.1-0.6,0-1,1.1-1.2
		c3.9-0.5,8.8-4.6,10.3-9.4c0.2-0.6,0.6-0.7,1.2-0.7c0.5,0,0.7,0.3,0.7,1c0,0,0,6.6,0,8.7h6.2c0.6,0,0.7,0.4,0.7,1.2
		c0,0.8-0.1,1.2-0.7,1.2h-6.1v19c0,3.2,1.5,4.7,3.7,4.7c1.4,0,2.9-0.6,3.8-1.3c0.3-0.3,0.6-0.5,0.9-0.1
		C909.5,376.2,909.3,376.5,908.9,377z"/>
</g>
<g>
	<path d="M753,306.2c-0.2,2.8-2,3.6-3.9,2.8c-19.4-7.9-36.5-23.7-41.8-54.1c-8.8,31.4-34.1,51-70,54.3c-3.7,0.3-4.3-4.1-1.8-5.4
		c24.9-13.8,34.9-29.1,42.5-48.2c2.2-5.6,3.7-11.7,4.9-18.4h-7.1c0,0.5,0,2.6,0,3.1c0,6.6-3.9,8.9-13.3,9.7
		c-8.6,0.8-14.3-1.3-13.9-8.2c0.8-12,1.2-25.8,1.4-38.3c-3.5,13-17.1,13.3-18-1c-0.8-12.2,5.9-16.1-2.7-34.2
		c0,41.8,0.2,94.1,1,131.6c0.2,5.9-5.3,8.7-14.7,9.2c-10,0.5-14.5-0.8-14.3-8.7c0.6-19.9,1-45.9,1.2-72.7
		c-7.1,12.2-13.1,19.9-19.6,26.8c-2,2-3.9,0.3-3.1-2.8c9.8-31.1,15.9-60.2,21-103.1c-4.7,0.3-10,0.8-13.7,2c-1.6,0.8-3.3,0-4.1-2
		c-1-2.6-2-6.4-2.7-9.9c-0.4-2.8,0-3.1,2.4-2.3c5.9,2.3,14.1,3.1,19.8,3.1c-0.2-25.3-0.6-43.9-1.2-48.7c-0.8-6.9-1-7.1,2.4-6.9
		c8.2,0.8,20.8,3.1,30.2,5.6c4.7,1.3,5.3,7.1-0.2,9.2c-3.5,1.3-4.1,2.6-4.1,5.6c-0.2,6.9-0.2,19.1-0.4,34.4c2-5.4,5.5-13.8,7.8-18.9
		c0.8-1.5,3.1-2,4.1,0c3.3,6.4,8.6,15.6,11.2,22.7c12.5-17.9,21-38.8,23.5-56.1c0.4-3.3,1.8-3.6,4.9-2.8c9.2,2,23.1,5.1,33.5,8.2
		c5.1,1.5,6.3,8.7-1.8,9.9c-1.8,0.3-3.3,0.5-4.3,1c14.7,14.8,33.9,18.4,54.1,18.6c1.8-0.3,2.4,3.8,0,5.9c-6.9,5.9-8.6,13.5-9.2,35
		c0,2.8-2.2,3.8-4.1,3.1c-17.3-7.1-36.5-27.3-45.1-54.8c-7.1,15.3-16.9,27.8-29.4,37.2c5.3,1.3,11,1.8,15.1,1.8h4.5
		c1,0,2.2-0.3,3.1-1.8c2.7-4.1,6.1-9.7,9.4-14.5c1-1.3,2.7-1.8,4.3,0c4.7,4.8,10.6,12.8,15.9,19.6c1.8,2.3,1.2,5.4-1.6,5.4h-12.7
		c0,6.9,0,13.5,0,19.9h5.5c1.8,0,2.9-0.5,3.7-1.5c3.1-4.3,5.7-8.2,8.8-11.7c1.2-1.3,3.3-1.3,5.1,0c5.3,3.6,13.1,9.4,19,15.1
		c2.4,2.6,3.3,7.1-0.4,10.2c-3.5,2.8-4.9,3.1-4.9,6.9c0,9.9,0,24,0.4,39.3c0.2,7.4-4.7,9.7-14.9,10.7c-8.2,0.8-12.5-0.5-12.5-6.6
		c0-0.5,0-2.6,0-3.1h-11.8c8.6,21.4,30.8,28.3,51.8,28.6c2.7,0,3.5,4.3,0.2,6.4C755.8,276.4,754.6,284.5,753,306.2z M685,158.5
		c-4.1,0.3-8.4,0.8-11,1.8c-1.6,0.5-3.1-0.3-3.9-2.3c-0.6-1.3-1.2-3.6-1.8-5.9c-8.4,5.4-18,9.4-28.6,12.5c-2.7,0.5-3.7-2.3-1.6-4.6
		c3.5-3.6,6.7-7.1,10-11.2h-18.8c0,3.6,0,7.4,0,11.5c10.6,6.6,18.2,16.1,20.4,26.8c-0.2-7.1-0.6-13-1.2-16.6c-1-6.1,0-6.9,2.4-5.9
		c13.7,5.6,26.9,13.5,26.9,13.5h7.8C685.6,172,685,165.4,685,158.5z M675.6,187.3c-0.4,12.8-0.4,25.8-0.2,40.8h8.6
		c1.4-12,1.6-25.8,1.6-40.8H675.6z M712.6,187.3c0,15.1-0.4,28.6-1.4,40.8h11.6c0.4-14.3,0.6-28.1,0.2-40.8H712.6z"/>
	<path d="M945,300.9H791.7c-8,0-16.1,0.5-20.2,2c-1.6,0.5-3.5-0.3-4.3-2.3c-0.8-2-2.2-7.4-2.9-10.2c-0.6-2.8,0.4-3.1,2.9-2.3
		c6.1,2.3,15.7,3.3,24.5,3.3h5.3c1-33.7,1.8-91.6-0.4-106.6c-9,4.3-18.6,7.4-28.8,9.7c-3.5,0.8-4.1-3.3-1.4-5.6
		c21.6-18.9,38.8-42.1,49.2-67.3h-16.3c-8,0-16.3,0.5-20.4,2c-1.6,0.5-3.3-0.3-4.1-2.3c-0.8-2-2.2-7.1-2.9-9.9
		c-0.6-2.8,0.2-3.1,2.7-2.3c6.1,2.3,17.1,3.3,24.7,3.3h39.4c-0.2-8.7-0.4-15.8-1-20.4c-0.8-7.4-1.8-8.4,3.1-7.9
		c9.8,1,23.5,2.6,34.9,4.8c6.1,1,5.3,8.2,0.4,9.7c-3.1,1-5.5,2.3-5.5,6.1c0,2.6,0,5.1-0.2,7.7h24.9c2,0,3.1-0.5,4.5-2.3
		c3.9-5.9,9-12.2,13.1-17.6c1.2-1.8,3.3-1.8,5.3,0c6.9,5.9,14.9,13.3,22.2,21.9c1.8,2.3,2.2,7.1-1.8,7.1h-57.8
		c16.3,18.6,35.7,23.2,65.5,24.2c3.1,0,3.7,4.8,0.8,6.6c-8.8,5.1-10.4,16.3-12.2,33.9c-0.2,2-1.2,5.4-4.7,4.1
		c-26.9-8.9-46.1-27.6-57.8-68.9h-2c0,16.1,0.4,33.7,1,53.6c0.4,8.9-5.7,11.2-18,12c-11.2,0.8-16.5-1.8-16.1-10.5
		c0.4-8.9,0.8-19.1,1.2-29.1c-9.8,14-21.2,25-34.3,32.9c12.5,5.6,28,12.5,28,12.5h43.3c2.2,0,3.1-0.8,4.1-1.8
		c3.5-3.6,8.6-8.7,12.2-12.2c1.8-1.8,3.7-1.5,6.1,0c5.7,3.8,13.9,9.9,20,15.6c3.3,2.8,5.5,9.4,0.4,13c-3.9,2.8-5.5,4.1-5.5,9.2
		c-0.2,16.3-0.2,53.3,0.2,74.7c2.9-5.4,7.6-14.3,11.6-21.9c1.2-2,3.3-2,5.1,0c5.9,6.6,12.9,16.3,18,24
		C949.3,295.8,949.3,300.9,945,300.9z M880.9,232.5h-51.4c0,7.4,0,15.1,0,22.7h51.6C881.1,247.5,881.1,239.9,880.9,232.5z
		 M829.5,264.4c0,9.7,0.2,19.1,0.4,27h50.8c0.2-7.9,0.4-17.3,0.4-27H829.5z M880.5,202.1h-50.6c0,5.1-0.2,12.5-0.2,21.2h51.2
		C880.7,214.9,880.7,207.5,880.5,202.1z"/>
	<path d="M1124.6,145c-4.1,3.1-4.9,3.8-5.1,9.4c-0.2,19.1,0,46.9,0.6,76.3c0.2,8.9-5.1,11.7-17.3,12.5c-10.6,0.8-17.6-0.3-17.3-10.2
		c0-3.3,0.2-6.4,0.2-9.7h-30.2c0,25.3,0.4,50.8,1,73.5c0.2,8.9-4.5,11.5-18.2,12.5c-13.7,1-19.2-1.5-18.8-12.2
		c0.8-19.6,1.2-46.2,1.6-73.7h-29.4c0,3.8,0,7.9,0.2,11.7c0.2,8.9-5.5,11.2-17.6,12.2c-11.4,1-18,0.3-17.6-9.7
		c1.6-42.6,2.2-102.3-0.4-116.6c-1.2-8.7-0.2-8.7,3.5-6.9c13.9,6.6,34.9,17.6,34.9,17.6h26.7c-0.4-19.6-0.8-34.2-1.6-39.8
		c-1.2-7.7-2.2-8.9,2.9-8.2c8.8,1,28.4,3.8,37.6,5.9c5.9,1.3,5.9,7.9,0.4,10.2c-3.9,1.5-5.1,3.3-5.1,6.9c0,7.1-0.2,15.6-0.2,25h24.5
		c2,0,3.1-0.8,4.1-2c4.5-5.6,10.2-12.2,14.1-16.1c1.8-1.5,3.9-1.8,6.1,0c6.1,4.8,15.3,13,20.8,18.9
		C1128.5,136.3,1130.2,141.2,1124.6,145z M991.6,141.2c-0.4,23.5-0.4,47.2,0,72.7h29.8c0.2-25.5,0.4-51.3,0.2-72.7H991.6z
		 M1085.9,141.2h-30.4c0,21.2-0.2,46.7,0,72.7h30.4C1086.3,189.1,1086.3,165.6,1085.9,141.2z"/>
</g>
<g>
	<path d="M928,357.4h-8.4c-0.2,0-0.3,0-0.3-0.3c0-0.2,0.1-0.2,0.3-0.3c1.4-0.1,1.8-0.3,1.8-1v-15.5c0-0.7-0.4-0.9-1.8-1
		c-0.2,0-0.3,0-0.3-0.3c0-0.2,0.1-0.3,0.3-0.3c3.4,0,5.4-0.1,8.6-0.1c5.5,0,9,3.3,9,9.4C937.2,354.3,933.7,357.4,928,357.4z
		 M927.5,339.7c-0.7,0-2,0.1-2,0.1v15.6c0,0.7,0.9,1,2.2,1c2.1,0,5.2-1,5.2-7.7C932.9,342.9,930.2,339.7,927.5,339.7z"/>
	<path d="M951.7,356.7c-0.7,0.6-1.8,1.1-3,1.1c-1.6,0-2.3-0.6-2.5-1.9c-0.8,1.2-2.6,1.9-4.7,1.9c-2.2,0-3.5-1.3-3.5-3.3
		c0-2.5,1.4-3.9,4.9-4.5c0.8-0.1,2-0.4,2.9-0.7c0-2.7-1.2-3.6-2.7-3.6c-1.4,0-2,0.5-2,1.2c0,0.6,0.3,0.6,0.3,1.4
		c0,0.8-0.6,1.3-1.6,1.3c-1,0-1.6-0.7-1.6-1.6c0-1.9,2.1-3.5,5.7-3.5c4,0,5.7,2,5.7,5v5.4c0,1.1,0.1,1.6,0.8,1.6
		c0.3,0,0.6-0.1,0.8-0.3c0.2-0.1,0.3-0.1,0.4,0C951.9,356.3,951.9,356.5,951.7,356.7z M945.9,350.5c-0.7,0.3-1.6,0.4-2.3,0.6
		c-1.4,0.4-2.1,1.1-2.1,2.6c0,1.2,0.9,1.8,2.1,1.8c0.9,0,1.9-0.4,2.3-1.1V350.5z"/>
	<path d="M959,357.4h-7c-0.2,0-0.3,0-0.3-0.3c0-0.2,0.1-0.2,0.2-0.3c1.3-0.1,1.6-0.4,1.6-1.1v-8.9c0-0.7,0-0.7-1.3-0.7
		c-0.4,0-0.5-0.5-0.1-0.6c1.7-0.3,3.5-0.7,5-1.2c0.2,0,0.3,0.1,0.3,0.3v11.1c0,0.7,0.2,1,1.6,1.1c0.1,0,0.3,0.1,0.3,0.3
		C959.3,357.3,959.2,357.4,959,357.4z M955.5,342.8c-1.2,0-2.2-1.1-2.2-2.3c0-1.2,1-2.2,2.2-2.2c1.2,0,2.2,1.1,2.2,2.2
		C957.7,341.7,956.7,342.8,955.5,342.8z"/>
	<path d="M968.8,357.7c-0.2,0-0.2,0-0.3-0.3l-0.1-1.1c-0.6,0.9-2,1.4-3.6,1.4c-3.7,0-5.8-2.8-5.8-6.7c0-3.9,2.2-6.7,5.8-6.7
		c1.4,0,2.6,0.5,3.3,1.1v-4.6c0-0.6,0-0.7-1.3-0.7c-0.4,0-0.4-0.5-0.1-0.6c1.6-0.3,3.4-0.7,4.9-1.2c0.2,0,0.3,0.1,0.3,0.3V355
		c0,0.8,0.2,0.9,1.4,0.6c0.4-0.1,0.4,0.6,0.1,0.7C972,356.9,970.6,357.4,968.8,357.7z M968.3,349.3c0-2.1-1.3-3.6-2.8-3.6
		c-1.5,0-2.5,1.2-2.5,4.1c0,4.4,1.6,6.2,3.5,6.2c0.8,0,1.5-0.5,1.9-1.2V349.3z"/>
	<path d="M980.4,357.7c-4.4,0-6.9-2.9-6.9-6.7c0-3.8,2.5-6.7,6.9-6.7c4.4,0,6.9,2.9,6.9,6.7C987.4,354.8,984.9,357.7,980.4,357.7z
		 M980,345.7c-1.7,0-2.5,1.4-2.5,4.2c0,4.4,1.5,6.5,3.5,6.5c1.7,0,2.5-1.4,2.5-4.3C983.5,348.2,982,345.7,980,345.7z"/>
	<path d="M1012.5,356.2c0,0.2-0.1,0.3-0.4,0.4c-1.4,0.6-3.8,1.2-6.2,1.2c-6.3,0-9.6-4-9.6-9.7c0-5.6,3.3-9.8,9.3-9.8
		c1.1,0,3.1,0.2,4.2,0.6c0.3,0.1,1,0.3,1.4,0.2c0.5,0,0.7-0.1,0.7,0.3c0.1,1.1,0.4,3.4,0.6,4.6c0,0.2,0,0.3-0.1,0.3
		c-0.3,0.1-0.3-0.1-0.4-0.2c-1.5-3.5-3.5-4.6-6.3-4.6c-3,0-5,2.5-5,7.3c0,6.6,2.7,9.7,6.2,9.7c2.3,0,4.1-1,5.4-5.2
		c0-0.1,0.1-0.2,0.3-0.2c0.1,0,0.2,0.1,0.2,0.3C1012.6,352.9,1012.5,355.2,1012.5,356.2z"/>
	<path d="M1027.2,356.7c-0.7,0.6-1.8,1.1-3,1.1c-1.6,0-2.3-0.6-2.5-1.9c-0.8,1.2-2.6,1.9-4.7,1.9c-2.2,0-3.5-1.3-3.5-3.3
		c0-2.5,1.4-3.9,4.9-4.5c0.8-0.1,2-0.4,2.9-0.7c0-2.7-1.2-3.6-2.7-3.6c-1.4,0-2,0.5-2,1.2c0,0.6,0.3,0.6,0.3,1.4
		c0,0.8-0.6,1.3-1.6,1.3c-1,0-1.6-0.7-1.6-1.6c0-1.9,2.1-3.5,5.7-3.5c4,0,5.7,2,5.7,5v5.4c0,1.1,0.1,1.6,0.8,1.6
		c0.3,0,0.6-0.1,0.8-0.3c0.2-0.1,0.3-0.1,0.4,0C1027.4,356.3,1027.4,356.5,1027.2,356.7z M1021.5,350.5c-0.7,0.3-1.6,0.4-2.3,0.6
		c-1.4,0.4-2.1,1.1-2.1,2.6c0,1.2,0.9,1.8,2.1,1.8c0.9,0,1.9-0.4,2.3-1.1V350.5z"/>
	<path d="M1032.5,357.7c-1.8,0-3.5-0.5-4.4-1c-0.2-0.1-0.3-0.1-0.3-0.3c-0.1-0.8-0.3-2.4-0.4-3.6c0-0.2,0-0.2,0.2-0.3
		c0.2,0,0.3,0,0.4,0.1c1,2.6,2.4,3.9,4.2,3.9c1.7,0,2.5-0.6,2.5-1.6c0-1.3-0.7-1.9-3.7-2.9c-2.3-0.8-3.4-1.9-3.4-3.9
		c0-2.1,1.8-3.8,4.7-3.8c1.5,0,2.8,0.1,3.6,0.3c0.6,0.1,1,0.1,1.3,0c0.2-0.1,0.3,0,0.4,0.2c0.1,1.1,0.2,2.3,0.4,3.5
		c0,0.2,0,0.3-0.2,0.3c-0.2,0.1-0.3,0-0.4-0.2c-1.2-2.5-2.6-3-4.2-3c-1.3,0-2.1,0.5-2.1,1.6c0,0.9,0.6,1.4,3.2,2.3
		c3.1,1.1,4.5,2.3,4.5,4.5C1038.6,356.5,1036.9,357.7,1032.5,357.7z"/>
	<path d="M1047.7,356.2c-0.8,1-1.9,1.6-3.4,1.6c-2.6,0-4.1-1.1-4.1-3.6v-8.4h-1.6c-0.2,0-0.3-0.1-0.4-0.4c0-0.2,0-0.4,0.5-0.5
		c1.7-0.2,3.9-2,4.5-4.1c0.1-0.3,0.2-0.3,0.5-0.3c0.2,0,0.3,0.1,0.3,0.4c0,0,0,2.9,0,3.8h2.7c0.3,0,0.3,0.2,0.3,0.5s0,0.5-0.3,0.5
		h-2.7v8.4c0,1.4,0.7,2.1,1.6,2.1c0.6,0,1.3-0.3,1.7-0.6c0.1-0.1,0.2-0.2,0.4,0C1047.9,355.8,1047.9,355.9,1047.7,356.2z"/>
	<path d="M1054.8,357.4h-7c-0.2,0-0.3,0-0.3-0.3c0-0.2,0.1-0.2,0.2-0.3c1.3-0.1,1.6-0.4,1.6-1.1v-8.9c0-0.7,0-0.7-1.3-0.7
		c-0.4,0-0.5-0.5-0.1-0.6c1.7-0.3,3.5-0.7,5-1.2c0.2,0,0.3,0.1,0.3,0.3v11.1c0,0.7,0.2,1,1.6,1.1c0.1,0,0.3,0.1,0.3,0.3
		C1055.1,357.3,1055,357.4,1054.8,357.4z M1051.2,342.8c-1.2,0-2.2-1.1-2.2-2.3c0-1.2,1-2.2,2.2-2.2c1.2,0,2.2,1.1,2.2,2.2
		C1053.4,341.7,1052.4,342.8,1051.2,342.8z"/>
	<path d="M1070.6,357.4h-6.4c-0.2,0-0.3,0-0.3-0.3c0-0.2,0.1-0.2,0.2-0.3c1-0.1,1.2-0.4,1.2-1.1v-5.7c0-2.8-1-3.8-2.1-3.8
		c-1,0-1.8,0.6-2.4,1.3v8.2c0,0.7,0.2,1,1.2,1.1c0.1,0,0.3,0.1,0.3,0.3c0,0.2-0.1,0.3-0.3,0.3h-6.4c-0.2,0-0.3,0-0.3-0.3
		c0-0.2,0.1-0.2,0.3-0.3c1-0.1,1.4-0.4,1.4-1.1v-8.8c0-0.7,0-0.7-1.3-0.7c-0.4,0-0.4-0.6-0.1-0.6c1.6-0.3,3.4-0.7,4.9-1.2
		c0.2,0,0.3,0.1,0.3,0.3v1.3c1.1-1.1,2.7-1.7,4.2-1.7c2.7,0,4.2,1.8,4.2,5.3v6.1c0,0.7,0.4,1,1.4,1.1c0.1,0,0.3,0.1,0.3,0.3
		C1070.8,357.3,1070.8,357.4,1070.6,357.4z"/>
	<path d="M1083.7,346.9c-1.6,0-0.5-1.2-2.1-1.2c-0.2,0-0.4,0-0.6,0.1c0.7,0.7,1.1,1.7,1.1,2.8c0,2.3-1.8,4.2-5.5,4.2
		c-0.5,0-1,0-1.5-0.1c-0.7,0.3-1,0.6-1.1,1c0,0.4,0.6,0.6,1.9,0.6c6.2,0,8.2,0.9,8.2,3.7c0,2.9-3.4,4.5-7.9,4.5
		c-4.3,0-5.7-1.2-5.7-2.8c0-1.3,0.7-2.5,2-3.1c-1.1-0.2-1.4-0.9-1.4-1.7c0-1,1.4-2,2.7-2.5c-1.8-0.7-2.7-2.1-2.7-3.8
		c0-2.3,1.8-4.3,5.5-4.3c1.5,0,2.7,0.3,3.6,0.9c0.8-0.6,1.8-0.9,2.6-0.9c1.3,0,2,0.5,2,1.3C1084.9,346.5,1084.5,346.9,1083.7,346.9z
		 M1074,356.9c-0.9,0.4-1.4,1.5-1.4,2.2c0,1.4,1.1,2.3,3.8,2.3c2.7,0,4.1-1.3,4.1-2.4C1080.5,357.3,1078.6,356.9,1074,356.9z
		 M1076.3,345.4c-1.3,0-1.8,0.9-1.8,2.6c0,2.4,1.1,3.8,2.5,3.8c1.3,0,1.8-0.9,1.8-2.6C1078.8,347.1,1077.9,345.4,1076.3,345.4z"/>
	<path d="M1089.8,357.7c-1.8,0-3.5-0.5-4.4-1c-0.2-0.1-0.3-0.1-0.3-0.3c-0.1-0.8-0.3-2.4-0.4-3.6c0-0.2,0-0.2,0.2-0.3
		c0.2,0,0.3,0,0.4,0.1c1,2.6,2.4,3.9,4.2,3.9c1.7,0,2.5-0.6,2.5-1.6c0-1.3-0.7-1.9-3.7-2.9c-2.3-0.8-3.4-1.9-3.4-3.9
		c0-2.1,1.8-3.8,4.7-3.8c1.5,0,2.8,0.1,3.6,0.3c0.6,0.1,1,0.1,1.3,0c0.2-0.1,0.3,0,0.4,0.2c0.1,1.1,0.2,2.3,0.4,3.5
		c0,0.2,0,0.3-0.2,0.3c-0.3,0.1-0.3,0-0.4-0.2c-1.2-2.5-2.6-3-4.2-3c-1.3,0-2.1,0.5-2.1,1.6c0,0.9,0.6,1.4,3.2,2.3
		c3.1,1.1,4.5,2.3,4.5,4.5C1095.8,356.5,1094.2,357.7,1089.8,357.7z"/>
	<path d="M933.9,382c0,0.4-0.1,0.4-0.4,0.4c-2,0-5.1-0.1-6.5-0.1h-7.4c-0.2,0-0.3,0-0.3-0.3c0-0.2,0.1-0.2,0.2-0.3
		c1.5-0.1,1.9-0.3,1.9-1v-15.5c0-0.7-0.3-0.9-1.9-1c-0.1,0-0.2,0-0.2-0.3c0-0.2,0.1-0.3,0.3-0.3h7.8c0.2,0,0.3,0,0.3,0.3
		c0,0.2-0.1,0.2-0.3,0.3c-1.6,0.2-1.9,0.3-1.9,1v15.1c0,0.6,0.4,0.8,0.9,0.9c0.8,0,2.6,0,3.5-0.3c1.6-0.6,3.2-2.7,4.1-4.7
		c0.1-0.2,0.2-0.3,0.5-0.2c0.2,0,0.2,0.1,0.2,0.3C934.5,378,934,381,933.9,382z"/>
	<path d="M941.9,382.3h-7c-0.2,0-0.3,0-0.3-0.3c0-0.2,0.1-0.2,0.2-0.3c1.3-0.1,1.6-0.4,1.6-1.1v-8.9c0-0.7,0-0.7-1.3-0.7
		c-0.4,0-0.5-0.5-0.1-0.6c1.7-0.3,3.5-0.7,5-1.2c0.2,0,0.3,0.1,0.3,0.3v11.1c0,0.7,0.2,1,1.6,1.1c0.1,0,0.3,0.1,0.3,0.3
		C942.2,382.3,942.1,382.3,941.9,382.3z M938.4,367.8c-1.2,0-2.2-1.1-2.2-2.3c0-1.2,1-2.2,2.2-2.2c1.2,0,2.2,1.1,2.2,2.2
		C940.6,366.7,939.6,367.8,938.4,367.8z"/>
	<path d="M957.7,382.3h-6.4c-0.2,0-0.3,0-0.3-0.3c0-0.2,0.1-0.2,0.2-0.3c1-0.1,1.2-0.4,1.2-1.1V375c0-2.8-1-3.8-2.1-3.8
		c-1,0-1.8,0.6-2.4,1.3v8.2c0,0.7,0.2,1,1.2,1.1c0.1,0,0.3,0.1,0.3,0.3c0,0.2-0.1,0.3-0.3,0.3h-6.4c-0.2,0-0.3,0-0.3-0.3
		c0-0.2,0.1-0.2,0.3-0.3c1-0.1,1.4-0.4,1.4-1.1v-8.8c0-0.7,0-0.7-1.3-0.7c-0.4,0-0.4-0.6-0.1-0.6c1.6-0.3,3.4-0.7,4.9-1.2
		c0.2,0,0.3,0.1,0.3,0.3v1.3c1.1-1.1,2.7-1.7,4.2-1.7c2.7,0,4.2,1.8,4.2,5.3v6.1c0,0.7,0.4,1,1.4,1.1c0.1,0,0.3,0.1,0.3,0.3
		C958,382.3,957.9,382.3,957.7,382.3z"/>
	<path d="M970.2,376l-8.6,0.7c0.4,3.3,2.3,4.6,4.1,4.6c1.3,0,2.8-0.7,3.7-2c0.1-0.2,0.3-0.2,0.5,0c0.2,0.1,0.2,0.3,0.1,0.5
		c-0.8,2-2.6,3.1-5.4,3.1c-4.4,0-6.9-2.8-6.9-6.7c0-4.1,2.9-6.7,6.6-6.7c3.7,0,6.1,2.8,6.1,5.9C970.5,375.7,970.4,375.9,970.2,376z
		 M964.2,370.5c-1.7,0-2.8,1.2-2.8,4.4c0,0.2,0,0.4,0,0.6l5.3-0.5c0.3,0,0.2-0.2,0.2-0.3C967,372.8,965.8,370.5,964.2,370.5z"/>
	<path d="M984.7,381.6c-0.7,0.6-1.8,1.1-3,1.1c-1.6,0-2.3-0.6-2.5-1.9c-0.8,1.2-2.6,1.9-4.7,1.9c-2.2,0-3.5-1.3-3.5-3.3
		c0-2.5,1.4-3.9,4.9-4.5c0.8-0.1,2-0.4,2.9-0.7c0-2.7-1.2-3.6-2.7-3.6c-1.4,0-2,0.5-2,1.2c0,0.6,0.3,0.6,0.3,1.4
		c0,0.8-0.6,1.3-1.6,1.3c-1,0-1.6-0.7-1.6-1.6c0-1.9,2.1-3.5,5.7-3.5c4,0,5.7,2,5.7,5v5.4c0,1.1,0.1,1.6,0.8,1.6
		c0.3,0,0.6-0.1,0.8-0.3c0.2-0.1,0.3-0.1,0.4,0C984.9,381.3,984.9,381.5,984.7,381.6z M978.9,375.5c-0.7,0.3-1.6,0.4-2.3,0.6
		c-1.4,0.4-2.1,1.1-2.1,2.6c0,1.2,0.9,1.8,2.1,1.8c0.9,0,1.9-0.5,2.3-1.1V375.5z"/>
	<path d="M995.4,373.4c-2.3,0-0.4-2.3-2.7-2.3c-1.1,0-2.3,0.8-2.3,2.2v7.4c0,0.7,0.4,1,1.4,1.1c0.2,0,0.3,0.1,0.3,0.3
		c0,0.2-0.1,0.3-0.3,0.3h-6.6c-0.2,0-0.3,0-0.3-0.3c0-0.2,0.1-0.2,0.3-0.3c1-0.1,1.4-0.4,1.4-1.1v-8.8c0-0.7-0.1-0.7-1.3-0.7
		c-0.4,0-0.4-0.5-0.1-0.6c1.6-0.3,3.4-0.7,4.9-1.2c0.2,0,0.3,0.1,0.3,0.3v1.4c1.1-1.2,2.6-1.7,3.9-1.7c1.5,0,2.6,1.1,2.6,2.4
		C996.8,372.9,996.3,373.4,995.4,373.4z"/>
	<path d="M1021.7,382.3h-8c-0.2,0-0.3-0.1-0.3-0.2c0-0.2,0-0.3,0.4-0.3c1.2-0.2,1.5-0.3,1.3-0.8l-1.5-3.9h-6.3l-1,2.6
		c-0.4,1.1,0,1.7,2.1,2.1c0.2,0,0.3,0.1,0.3,0.3c0,0.2-0.1,0.2-0.4,0.2h-5.8c-0.3,0-0.4,0-0.4-0.2c0-0.2,0-0.3,0.3-0.3
		c1.4-0.3,2-1,2.5-2.2l6-15.8c0.1-0.4,0.3-0.5,0.7-0.5s0.6,0.1,0.7,0.5l7.1,16.8c0.3,0.6,1,1,2,1.2c0.2,0,0.3,0.1,0.3,0.3
		C1022,382.3,1021.9,382.3,1021.7,382.3z M1010.5,368.8l-2.7,7.2h5.5L1010.5,368.8z"/>
	<path d="M1031.3,374.7c-1,0-1.6-0.8-1.6-1.5c0-1.6-1.1-2.6-2.5-2.6c-1.6,0-2.7,1.1-2.7,4.3c0,4.6,2,6.2,4.1,6.2
		c1.3,0,2.7-0.6,3.6-2c0.1-0.2,0.3-0.2,0.5,0c0.2,0.2,0.2,0.3,0.1,0.5c-0.6,1.9-2.6,3.1-5.3,3.1c-4.4,0-6.9-2.8-6.9-6.7
		c0-4.1,2.9-6.7,6.7-6.7c3.8,0,5.7,1.9,5.7,3.7C1033,374.1,1032.4,374.7,1031.3,374.7z"/>
	<path d="M1044.2,374.7c-1,0-1.6-0.8-1.6-1.5c0-1.6-1.1-2.6-2.5-2.6c-1.6,0-2.7,1.1-2.7,4.3c0,4.6,2,6.2,4.1,6.2
		c1.3,0,2.7-0.6,3.6-2c0.1-0.2,0.3-0.2,0.5,0c0.2,0.2,0.2,0.3,0.1,0.5c-0.6,1.9-2.6,3.1-5.3,3.1c-4.4,0-6.9-2.8-6.9-6.7
		c0-4.1,2.9-6.7,6.7-6.7s5.7,1.9,5.7,3.7C1045.8,374.1,1045.2,374.7,1044.2,374.7z"/>
	<path d="M1058.7,376l-8.6,0.7c0.4,3.3,2.3,4.6,4.1,4.6c1.3,0,2.8-0.7,3.7-2c0.1-0.2,0.3-0.2,0.5,0c0.2,0.1,0.2,0.3,0.1,0.5
		c-0.8,2-2.6,3.1-5.4,3.1c-4.4,0-6.9-2.8-6.9-6.7c0-4.1,2.9-6.7,6.6-6.7c3.7,0,6.1,2.8,6.1,5.9C1059,375.7,1058.9,375.9,1058.7,376z
		 M1052.7,370.5c-1.7,0-2.8,1.2-2.8,4.4c0,0.2,0,0.4,0,0.6l5.3-0.5c0.2,0,0.2-0.2,0.2-0.3C1055.5,372.8,1054.3,370.5,1052.7,370.5z"
		/>
	<path d="M1066,382.3h-7.1c-0.2,0-0.3,0-0.3-0.3c0-0.2,0.1-0.2,0.3-0.3c1.3-0.1,1.6-0.4,1.6-1.1v-14.9c0-0.6,0-0.7-1.3-0.7
		c-0.4,0-0.4-0.5-0.1-0.6c1.6-0.3,3.5-0.7,5-1.2c0.2,0,0.2,0.1,0.2,0.3v17.1c0,0.7,0.3,1,1.6,1.1c0.1,0,0.3,0.1,0.3,0.3
		C1066.2,382.3,1066.2,382.3,1066,382.3z"/>
	<path d="M1078.3,376l-8.6,0.7c0.4,3.3,2.3,4.6,4.1,4.6c1.3,0,2.8-0.7,3.7-2c0.1-0.2,0.3-0.2,0.5,0c0.2,0.1,0.2,0.3,0.1,0.5
		c-0.8,2-2.6,3.1-5.4,3.1c-4.4,0-6.9-2.8-6.9-6.7c0-4.1,2.9-6.7,6.6-6.7c3.7,0,6.1,2.8,6.1,5.9
		C1078.6,375.7,1078.6,375.9,1078.3,376z M1072.4,370.5c-1.7,0-2.8,1.2-2.8,4.4c0,0.2,0,0.4,0,0.6l5.3-0.5c0.3,0,0.2-0.2,0.2-0.3
		C1075.2,372.8,1074,370.5,1072.4,370.5z"/>
	<path d="M1089.2,373.4c-2.3,0-0.4-2.3-2.7-2.3c-1.1,0-2.3,0.8-2.3,2.2v7.4c0,0.7,0.4,1,1.4,1.1c0.2,0,0.3,0.1,0.3,0.3
		c0,0.2-0.1,0.3-0.3,0.3h-6.6c-0.2,0-0.3,0-0.3-0.3c0-0.2,0.1-0.2,0.3-0.3c1-0.1,1.4-0.4,1.4-1.1v-8.8c0-0.7-0.1-0.7-1.3-0.7
		c-0.4,0-0.4-0.5-0.1-0.6c1.6-0.3,3.4-0.7,4.9-1.2c0.2,0,0.3,0.1,0.3,0.3v1.4c1.1-1.2,2.6-1.7,3.9-1.7c1.5,0,2.6,1.1,2.6,2.4
		C1090.6,372.9,1090.1,373.4,1089.2,373.4z"/>
	<path d="M1104.2,381.6c-0.7,0.6-1.8,1.1-3,1.1c-1.6,0-2.3-0.6-2.5-1.9c-0.8,1.2-2.6,1.9-4.7,1.9c-2.2,0-3.5-1.3-3.5-3.3
		c0-2.5,1.4-3.9,4.9-4.5c0.8-0.1,2-0.4,2.9-0.7c0-2.7-1.2-3.6-2.7-3.6c-1.4,0-2,0.5-2,1.2c0,0.6,0.3,0.6,0.3,1.4
		c0,0.8-0.6,1.3-1.6,1.3c-1,0-1.6-0.7-1.6-1.6c0-1.9,2.1-3.5,5.7-3.5c4,0,5.7,2,5.7,5v5.4c0,1.1,0.1,1.6,0.8,1.6
		c0.3,0,0.6-0.1,0.8-0.3c0.2-0.1,0.3-0.1,0.4,0C1104.4,381.3,1104.4,381.5,1104.2,381.6z M1098.4,375.5c-0.7,0.3-1.6,0.4-2.3,0.6
		c-1.4,0.4-2.1,1.1-2.1,2.6c0,1.2,0.9,1.8,2.1,1.8c0.9,0,1.9-0.5,2.3-1.1V375.5z"/>
	<path d="M1112.4,381.1c-0.8,1-1.9,1.6-3.4,1.6c-2.6,0-4.1-1.1-4.1-3.6v-8.4h-1.6c-0.2,0-0.3-0.1-0.4-0.4c0-0.2,0-0.4,0.5-0.5
		c1.7-0.2,3.9-2,4.5-4.1c0.1-0.3,0.3-0.3,0.5-0.3c0.2,0,0.3,0.1,0.3,0.4c0,0,0,2.9,0,3.8h2.7c0.3,0,0.3,0.2,0.3,0.5
		c0,0.3,0,0.5-0.3,0.5h-2.7v8.4c0,1.4,0.7,2.1,1.6,2.1c0.6,0,1.3-0.3,1.7-0.6c0.1-0.1,0.3-0.2,0.4,0
		C1112.6,380.8,1112.6,380.9,1112.4,381.1z"/>
	<path d="M1118.9,382.7c-4.4,0-6.9-2.9-6.9-6.7c0-3.8,2.5-6.7,6.9-6.7c4.4,0,6.9,2.9,6.9,6.7
		C1125.8,379.8,1123.3,382.7,1118.9,382.7z M1118.4,370.6c-1.7,0-2.5,1.4-2.5,4.2c0,4.4,1.5,6.5,3.5,6.5c1.7,0,2.5-1.4,2.5-4.3
		C1121.9,373.2,1120.5,370.6,1118.4,370.6z"/>
	<path d="M1136.3,373.4c-2.3,0-0.4-2.3-2.7-2.3c-1.1,0-2.3,0.8-2.3,2.2v7.4c0,0.7,0.4,1,1.4,1.1c0.2,0,0.3,0.1,0.3,0.3
		c0,0.2-0.1,0.3-0.3,0.3h-6.6c-0.2,0-0.3,0-0.3-0.3c0-0.2,0.1-0.2,0.3-0.3c1-0.1,1.4-0.4,1.4-1.1v-8.8c0-0.7-0.1-0.7-1.3-0.7
		c-0.4,0-0.4-0.5-0.1-0.6c1.6-0.3,3.4-0.7,4.9-1.2c0.2,0,0.3,0.1,0.3,0.3v1.4c1.1-1.2,2.6-1.7,3.9-1.7c1.5,0,2.6,1.1,2.6,2.4
		C1137.7,372.9,1137.3,373.4,1136.3,373.4z"/>
</g>
</svg>
