<!-- Generator: Adobe Illustrator 19.0.0, SVG Export Plug-In  -->
<svg version="1.1"
	 xmlns="http://www.w3.org/2000/svg" xmlns:xlink="http://www.w3.org/1999/xlink" xmlns:a="http://ns.adobe.com/AdobeSVGViewerExtensions/3.0/"
	 x="0px" y="0px" width="133.5px" height="332.8px" viewBox="0 0 133.5 332.8"
	 style="overflow:scroll;enable-background:new 0 0 133.5 332.8;" xml:space="preserve">
<defs>
</defs>
<g>
	<path d="M123.8,81.3c-0.1,2.8-2.1,2.8-3.5,2.2c-22.6-7.6-41.2-24.7-52.4-53.3C62.1,42.9,55.7,52.9,47.9,61h10.5
		c1.5,0,2.5-0.4,3.4-1.7c2.4-3.1,5.2-7.2,7.7-10.5c1-1.5,2.2-1.3,3.5-0.2c4,3.9,7.8,8.1,12.5,13.8c1.6,2,1.5,5.2-1.3,5.2H40.5
		c-2.7,2.2-5.8,4.2-8.9,6.1c8.6,3.5,17.9,7.4,17.9,7.4h29.1c1.8,0,2.5-0.4,3.4-1.1c2.5-2,5.6-5.3,8.6-7.9c1.2-0.9,2.5-1.1,4.3,0
		c4.6,3,9.9,7.2,14.8,11.4c2.5,2.2,3.5,6.3-0.3,8.7c-2.7,1.7-3.2,2.4-3.4,5.9c-0.1,4.2,0,9,0.1,13.3c0.3,7.2-3.8,8.7-12,9.2
		c-6.5,0.4-10.6-0.6-11.4-4.8H46c-1.8,2.6-5.8,3.3-11.7,3.9c-6.5,0.4-12.2-0.4-11.8-6.1c1-13.5,1.3-27.3,0.3-35.2
		c-6.3,2.8-13.1,5-20.8,6.8c-1.9,0.4-3-2.2-0.9-3.7c12.5-9,22.1-18.1,29.8-29.1c-3.7,1.5-8,0.6-11.2-3.9C15,41.8,20,33,10.4,26.9
		c-1.8-1.1-1.2-4.1,1-4.1c13-0.2,26.4,1.5,27.7,15.1c3.1-6.3,5.8-13.3,8-21h-18c-5.8,0-11.8,0.4-14.8,1.5c-1.2,0.4-2.2-0.2-2.8-1.7
		c-0.6-1.5-1.5-5.2-1.9-7.2c-0.4-2-0.1-2.2,1.6-1.7c4.4,1.7,12.1,2.4,17.6,2.4h15.5c1.2,0,1.9-0.6,2.8-1.3c2.2-2.2,6.6-5.7,9.6-8.3
		c1-0.9,2.7-0.9,4,0c4.4,2.8,10.8,7.4,15.3,11.3c4.3,3.5,2.8,8.3-1.3,9c-2.2,0.4-3.2,1.1-4,2.4c1.6,2.4,3.4,4.6,5.2,6.6
		c4.4-9.4,6.6-20.1,7.5-26.6c0.3-2.6-0.3-3.5,2.8-2.4c6.8,2.4,14.6,4.8,21.5,8.5c3.5,1.7,3.1,5.7-0.1,6.3c5.9,2.8,13.7,6.3,20.2,9.8
		c3.7,2,2.7,7.2-1,6.6c-2.7-0.4-3.2-0.2-4.4,0.7c-6.6,5.2-13.1,9.8-22,13.5c8.6,2.6,18.4,3.7,30.3,4.1c3.5,0,3,3.5,0.4,5.2
		C125.5,59.2,124.6,65.2,123.8,81.3z M130.7,156.4h-111c-5.8,0-11.5,0.4-14.5,1.5c-1.2,0.4-2.5-0.2-3.1-1.7
		c-0.6-1.5-1.5-5.2-1.9-7.2c-0.4-2,0.3-2.2,2.1-1.7c4.4,1.7,11.2,2.4,17.4,2.4h21c-1.6-0.9-3-2.4-3.8-4.2c-3.8-7.9,0.4-14.2-9-21.2
		c-2.2-1.7-0.9-3.9,1.2-3.7c12.7,0.2,26.7,2.2,28.8,14.2c1.3,7.6-1.8,12.5-6,14.9h17c2.7-9.2,4.4-20.3,4.9-27.7
		c0.1-3.1,0.1-3.5,2.1-3.1c7.5,1.5,17.3,4.2,25.5,6.6c4.4,1.5,3.8,5.9-0.6,6.6c-2.4,0.4-3.1,1.1-4.7,3c-4.7,5.3-9.6,10.3-15.5,14.6
		h18.3c1.2,0,1.9-0.2,2.8-1.7c3.2-4.8,7.1-9.6,10.5-14.4c0.9-1.5,2.2-1.3,3.7,0c5.2,4.4,11.7,11.3,16.4,17.2
		C133.8,153,133.8,156.4,130.7,156.4z M82.7,87.8H47c-0.3,5.7-0.3,14.6-0.1,21.6h35.9C83,102,82.9,92.2,82.7,87.8z M102.4,18
		c-5.9,6.5-13.4,12-22,16.6c4,3.5,8.3,6.6,12.8,8.9c5.3-9.6,9.4-19.4,10.8-26.9C103.4,16.9,103,17.3,102.4,18z"/>
	<path d="M49.7,226.1H34.3c0,12.7,0,24.9,0.1,40.9c4.1-1.1,7.5-2,13.6-3.7c1.6-0.4,2.8,2,1.3,3.7c-13.6,15.5-26.4,26-36.9,32.6
		c-0.9,0.6-1.8,1.7-1.8,4.6c-0.1,5.2-4.1,5.3-4.7,1.8c-1.6-8.9-4-21.6-5.5-29.9c-0.7-4.4,0.4-3.3,2.1-3.3c3-0.4,6.3-0.7,10.5-1.3
		c0.1-15.1,0.3-30.2,0.3-45.4c-2.8,0-5.6,0.4-7.4,1.1c-1.2,0.4-2.4-0.2-3-1.7c-0.6-1.5-1.3-4.1-1.8-6.5c-0.4-2,0.1-2.2,1.9-1.7
		c2.8,1.1,6.8,1.7,10.2,2c0-20.8-0.3-37.6-0.7-41.7c-0.7-5.7-1.2-6.1,2.4-5.7c7.8,0.9,16.4,2.4,22.9,3.9c4.3,0.9,4.4,5.5,0.3,7
		c-2.2,0.7-3.5,1.3-3.5,3.9c-0.1,11.1-0.3,21.6-0.3,32.5c1.5-4.4,4.1-10.3,5.8-14.6c0.4-1.1,2.1-1.1,2.8,0
		c2.5,4.2,6.1,11.4,8.3,17.2C52,224.3,51.9,226.1,49.7,226.1z M131.4,248.4H79.5c-2.2,4.6-4.4,8.7-6.6,12.4h30.8
		c1.3,0,1.9-0.4,2.8-1.1c1.5-1.7,5-5.5,7.2-7.4c1.2-1.1,2.8-1.1,4.3,0c3.8,2.8,9,7.2,12.5,10.3c3,2.6,4,6.8-0.3,9.6
		c-2.2,1.5-3.5,2.6-3.5,6.6c-0.1,10.1-0.9,22.1-1.6,30.1c-1.6,17.9-6,21.4-22.9,23.8c-3.1,0.4-4-0.9-4.1-3.3
		c-0.9-10.9-1-14.8-9.3-19.6c-1.9-1.1-2.1-4.6,0.6-4.4c4,0.4,6.3,0.6,8.6,0.6c4.1,0,5.6-1.1,6.3-7.2c0.9-6.5,1.8-17,2.2-24.3
		c-12.7,33-39.1,48.3-60.2,54.8c-2.1,0.6-2.7-2.4-1-3.7c18-13.1,35.4-32.5,44-58.3H87c-8.3,19.6-25.2,34.3-42.6,40.9
		c-2.1,0.7-2.4-2.4-1.2-3.5c10.9-11.1,20.1-23.4,25.5-38.2c-7.5,10.1-16.5,16-27.7,22.5c-1.3,0.7-3.8-0.6-1.3-3.7
		c8.4-11.1,14.2-22.9,17.3-36.9c-4.6,0.2-9,0.6-11.4,1.5c-1.2,0.4-2.2-0.2-2.8-1.7c-0.6-1.5-1.5-5-1.9-7c-0.4-2,0-2.2,1.8-1.7
		c4.4,1.7,12.1,2.4,17.6,2.4h43.2c1.2,0,2.2-0.7,3-1.7c1.8-2,3.7-4.2,5.6-6.5c-1.3,0.4-3,0.6-4.7,0.7c-6.6,0.7-10.6-0.6-11.4-5.5
		H74.6c-0.3,5.3-3.5,7.6-11.5,8.3c-6.8,0.7-12.2,0.2-11.5-7c1.6-16.8,1.8-45.4,0.1-54.4c-0.9-5.2-0.6-5.5,2.4-4.4
		c7.7,3,22.1,9.6,22.1,9.6h16.2c1.8,0,2.2-0.4,3-1.1c2.1-2,5.5-5.5,8.4-8.1c1.2-0.9,2.5-1.1,4.3,0c3.5,2.4,9.9,7.6,13.9,10.9
		c2.5,2.2,3.5,5.7-0.3,8.5c-2.1,1.3-3.1,2.4-3.2,6.6c-0.3,6.1-0.3,14.4,0.4,24.9c0.1,3.3-0.1,5.7-1.2,7.4c3.7,3,9.9,8.3,14.8,13.5
		C133.8,245.1,134.1,248.4,131.4,248.4z M96,187.2H74.3c0,3-0.1,7.9-0.1,13.6h22C96.2,194.9,96.2,189.9,96,187.2z M74.2,207.1
		c0.1,5.2,0.1,10.5,0.3,15.5h21.4c0.1-5,0.3-10.3,0.3-15.5H74.2z"/>
</g>
</svg>
