<!-- Generator: Adobe Illustrator 19.0.1, SVG Export Plug-In  -->
<svg version="1.1"
	 xmlns="http://www.w3.org/2000/svg" xmlns:xlink="http://www.w3.org/1999/xlink" xmlns:a="http://ns.adobe.com/AdobeSVGViewerExtensions/3.0/"
	 x="0px" y="0px" width="415.7px" height="50.4px" viewBox="0 0 415.7 50.4"
	 style="overflow:scroll;enable-background:new 0 0 415.7 50.4;" xml:space="preserve">
<defs>
</defs>
<path d="M40.2,30.6H24.5c0,3.9,0,7.9,0.1,11.9c0,5.4-2.4,7-8.3,7.8c-1.4,0.2-1.6,0-1.7-1.1c-0.6-5-0.8-5.5-6.7-8.2
	c-0.5-0.3-0.6-1.5,0.1-1.5c2.4,0.2,5.7,0.4,7.3,0.4c1,0,1.3-0.5,1.3-1.6c0-2.4,0.1-5,0.1-7.7H6.1c-1.8,0-3.6,0.1-4.5,0.5
	c-0.4,0.1-0.8-0.1-1-0.5c-0.2-0.5-0.5-1.6-0.6-2.2c-0.1-0.6,0.1-0.7,0.6-0.5c1.4,0.5,3.7,0.7,5.4,0.7h10.7c0-3,0-6.1,0-9.1H8.5
	c-1.8,0-3.6,0.1-4.5,0.5c-0.4,0.1-0.8-0.1-1-0.5c-0.2-0.5-0.5-1.6-0.6-2.2c-0.1-0.6,0-0.7,0.6-0.5c1.4,0.5,3.7,0.7,5.4,0.7h8.3
	c0-2.4,0-4.8,0-7c-4.2,0.2-8.6,0.2-13.2,0.1c-1.1,0-1.3-1.3-0.1-1.5c9.9-2,19-5.5,23.1-8.4c0.6-0.5,0.6-0.6,1.2-0.2
	c2.4,1.6,5.4,3.7,7.8,5.6c1.2,1,0.8,2.6-0.7,2.2c-1.5-0.4-1.7-0.3-2.3-0.1c-2.5,0.7-5.2,1.2-8.1,1.6c0,2.5,0,5.1,0,7.8h3.6
	c0.4,0,0.7-0.2,1-0.5c1-1.5,2.1-3.1,3.2-4.6c0.3-0.4,0.8-0.4,1.1,0c1.6,1.6,3.4,3.6,5.1,5.6c0.5,0.6,0.4,1.6-0.4,1.6H24.5
	c0,2.9,0,6,0,9.1H30c0.4,0,0.7-0.2,1-0.5c1-1.5,2.2-3.4,3.3-5c0.3-0.5,0.8-0.3,1.1,0c1.5,1.5,3.7,3.9,5.3,6
	C41,29.5,41.1,30.6,40.2,30.6z"/>
<path d="M53.1,41.9c1.4,6.1-3.8,8.2-6.5,2.4c-3-6.5-2.6-17.4,0-31c0.5-2.8,1.2-5.7,0.6-7.4c-0.3-1.1-0.4-1.2,0.5-1
	c3.3,0.9,6,4.5,5.6,7.9c-0.3,2.5-1.8,4.8-2.7,8.1c-0.9,3.3-2.4,11.1-1.1,14.7c0.3,0.8,0.6,0.7,1-0.1c1.4-3.3,3-7.7,4.7-11.7
	c0.3-0.8,0.5-0.7,0.4,0.3C53.1,36.8,52.6,39.4,53.1,41.9z M75.9,45.9c-3.4,0.7-7.9,0.6-10.7-0.1C56.5,44,55,36.1,58.7,28.4
	c0.5-1,0.8-0.9,0.5,0.5c-1.1,4.5-0.3,9.5,6.9,9.6c4.7,0.1,7.8-1.4,9.2-1.6c2.4-0.5,5,1.6,5.1,3.9C80.4,44.1,78.5,45.5,75.9,45.9z
	 M74.7,14.9c-2.2,0.3-3.6,1.2-8,4.1c-0.8,0.5-0.8,0.3-0.3-0.5c0.9-1.2,2.1-3,2.9-4.1c0.4-0.6,0.3-0.5-0.3-0.6
	c-5.7-0.2-8.2-1.2-9.4-4.9c-0.2-0.7-0.1-0.8,0.4-0.6c3.8,2.1,8.9-1.6,13.2-1.4c2.4,0.2,5,1.6,5.1,4.3C78.5,14.4,76.9,14.7,74.7,14.9
	z"/>
<path d="M96.4,48c-8.4-4.4-4.8-19.3-4.7-37.8c0-2.5-0.3-4.7-1.7-5.6c-1.3-0.7-1.2-1.2,0-1.5c4.4-1.1,8.8,1.1,9.5,4.3
	c0.5,2.3-0.8,4.8-0.9,7c-0.3,9.7-4.1,23.6,2.1,27.3c6.4,3.7,16.9-2.2,21.7-10.7c0.7-1.3,1-1,0.6,0.5C118.9,46.5,106.5,53.3,96.4,48z
	"/>
<path d="M140.5,18.9c-1.5,7.3-3.5,16.7-5.9,25.1c-1.1,4.1-3.8,5.7-5.2,4.4c-2.4-2.1-2.4-6.1-0.8-9.2c1.8-3.4,4.6-10.4,6.7-20.2
	c-3.4-0.5-6.3-2.3-7.1-6.1c-0.2-1.1-0.1-1.3,0.7-0.7c1.8,1.2,4.1,1.8,7.4,1.7c0.3-1.8,0.6-3.9,0.8-6.1c0.3-2.7,0.2-4.6-1-5.3
	c-0.9-0.6-0.8-0.7,0.1-1.2c2.9-1.5,8.3,0.1,8.3,3.2c0,1.9-1,1-1.9,4.8c-0.2,1.1-0.5,2.4-0.8,3.9c1.4-0.3,2.7-0.7,3.7-1.3
	c0.7-0.4,0.6-1,0.2-1.4c-0.4-0.4-0.6-0.6-1.1-1c-0.4-0.4-0.5-0.6,0.2-0.4c2.4,0.5,3.8-0.1,4.7-0.1c3.4-0.2,4.6,4.2,1.2,6.8
	C148.5,17.4,144.8,18.4,140.5,18.9z M144.6,44.8c-2.6-3.5-2.2-9.5,1.3-12.8c0.8-0.8,1-0.4,0.5,0.5c-1.1,2.3-1,5.3,0.2,6.4
	c3,2.6,7.2,1.9,12.2,0.8c5.8-1.2,7.1,7.1,1.8,8.4C156.9,49,148.2,49.5,144.6,44.8z M160.6,26.2c-1.4-0.7-3.7-0.3-7.8,1
	c-0.8,0.2-0.7-0.1-0.2-0.5c1.3-1.1,2.4-2.1,3.4-3.1c0.6-0.6,0.6-0.9,0-1.6c-1-1.2-3.6-2-6.7-1.4c-0.7,0.1-0.8-0.1-0.3-0.6
	c4.3-5.4,11.7-3.9,13.9-0.5C165.4,23.4,163.5,27.8,160.6,26.2z"/>
<path d="M183.9,46.3c-1.2-0.1-1.1-0.3-0.1-0.6c11.9-2.6,16.5-11.2,16.6-21.1C200.6,13,193.7,6.6,185.8,8c2,1.9,2.7,4.4,2.6,7.3
	c-0.1,8.8-3.9,18-8.5,24.1c-4.6,6.1-9.8,6.6-11.7-1.6c-3.7-15.9,5.6-29.9,17-32.2c13.8-2.8,22.2,7.4,22.3,19.7
	C207.6,38.7,199.3,47.5,183.9,46.3z M185.1,8.2c-9.1,2.3-14.1,14.5-12.7,23.4c0.7,4.4,2.9,4.6,6,1c3.4-4,6.2-10.5,7.7-18
	C186.4,12.5,185.9,9.7,185.1,8.2z"/>
<path d="M220.1,43.1c0.9,5.7-4.2,7.8-6.8,1.9c-3.5-7.8-2.7-19.8-0.8-30.9c0.6-3.7,1.5-7.9,0.9-10c-0.3-1.1-0.4-1.3,0.5-1.1
	c4,1,6,4.7,5.9,8.6c0,1.9-0.8,2.3-1.9,5.2c-2.8,7.9-3,14.2-2.1,18.9c0.3,1.5,0.8,1.5,1.3,0.2c1.3-3.4,3.1-8,4.4-11.5
	c0.4-1.1,0.7-0.9,0.5,0.2C219.8,37.2,219.3,38.2,220.1,43.1z M241.9,45.4c-0.6-1-1.3-2-2-2.9c-2.2,9.5-17.8,7.3-16.2-3.2
	c0.7-4.6,4.7-6.6,10.1-5.9c0-3.5-0.1-7.9-0.2-12.1c-6-0.1-9.8-2.4-10-6.9c0-1.1,0-1.2,0.5-0.2c0.9,1.7,4.4,2.5,9.4,2.1
	c-0.1-2.6-0.2-4.9-0.4-6.8c-0.1-2.2-0.6-4.4-2.4-4.8c-0.7-0.2-0.9-0.7,0.1-1.2c4-2.2,9.4,0.2,9.7,3.1c0.1,1.6-1,2.9-1,4.9
	c0,1.2,0,2.4,0,3.8c0.5-0.2,0.9-0.4,1.3-0.6c0.5-0.3,0.7-0.9,0.4-1.5c-0.2-0.5-0.6-1.2-1-1.8c-0.2-0.3-0.2-0.4,0.1-0.3
	c2.5,1.1,2.9,1.1,4.1,1c3-0.1,5.1,4.6,0.9,6.9c-1.5,0.9-3.4,1.5-5.8,1.9c0,4.6,0.2,9.6,0.5,14.2c2.8,1.2,5.1,2.9,6.6,5
	C250.1,45.3,244.4,49.9,241.9,45.4z M225.4,39.9c-0.7,4.9,8.7,6.8,8.4-2C229.1,35.7,225.9,37.2,225.4,39.9z"/>
<path d="M288.8,48c-0.1,0.8-0.1,1.2-0.8,1.2c-5.4,0-13.5,0.1-18.7-0.7c-3.7-0.5-6.9-2.4-8.7-7.6c-1.9,2.8-4.1,5.2-5.6,6.6
	c-0.4,0.4-0.8,0.7-0.8,1.8c0,1-1,1.7-1.5,0.2c-0.8-2.7-1.6-6.3-2.2-9c-0.3-1-0.2-1.2,0.3-1.2c1,0,2.4-0.3,4.1-0.9
	c0.1-4.8,0.1-10.4,0-14.6h-0.4c-0.8,0-1.6,0.2-2.6,0.5c-0.4,0.1-0.7,0-0.9-0.5c-0.2-0.5-0.4-1.5-0.5-2.1c-0.1-0.6,0-0.8,0.6-0.5
	c1.1,0.5,2,0.7,2.7,0.7h0.4c0.4,0,0.5-0.3,0.7-0.5c0.8-1.1,1.8-2.3,2.5-3.2c0.3-0.4,0.8-0.5,1.3-0.1c1.5,1.1,2.9,2.4,4.2,3.6
	c0.9,0.9,0.9,1.8,0,2.6c-0.8,0.8-1.3,1-1.3,2c-0.1,2.7-0.1,7.7,0,11.4c0.4,0.4,0.7,0.8,1.1,1.1c3.3-3.9,5-8.5,5.2-16
	c-1.1,0.1-1.8,0.2-2.4,0.4c-0.4,0.1-0.7-0.1-0.9-0.5c-0.2-0.5-0.5-1.5-0.6-2.1c-0.1-0.6,0-0.7,0.5-0.5c1.4,0.5,3.7,0.7,5.4,0.7h6.8
	c0.5,0,0.7-0.2,1-0.5c0.6-0.5,1.4-1.2,2-1.8c0.3-0.3,0.7-0.3,1.3,0c0.8,0.5,2.5,1.7,3.4,2.5c1,0.8,0.9,1.9-0.2,2.4
	c-0.6,0.3-1,0.5-1,1.1c-0.1,0.5-0.2,1.2-0.4,1.9c0.3-0.1,0.5-0.2,0.6-0.3c0.5-0.6,1.1-1.2,1.7-1.8c0.4-0.4,0.8-0.5,1.4,0
	c0.8,0.6,2.5,1.8,3.4,2.7c0.7,0.7,0.9,1.9-0.1,2.5c-0.7,0.4-0.9,0.6-1,1.4c-0.1,1-0.3,3.2-0.7,4.8c-0.6,2.8-2.7,3.6-6.9,4
	c-1,0.1-1.3-0.2-1.3-0.9c-0.2-3.3-0.5-4.1-4.2-5.7c-0.5-0.2-0.6-1.4,0.2-1.3c1.9,0.2,3.7,0.5,4.8,0.5c0.7,0,1.2-0.2,1.4-1
	c0.2-1,0.3-1.9,0.5-3H282c-0.5,0.9-1.6,1.1-3.4,1c-2-0.1-3.1-0.6-2.6-2.2c0.4-1.3,0.9-3.1,1.1-4.4h-2.3c-0.9,10.6-4.3,15.1-11,16.8
	c1.5,0.7,3.6,1,6.6,1.2c7.2,0.4,13.6,0.1,20.1-0.7c1-0.1,1.2,0.7,0.3,1.5C289,43.2,289.1,44.8,288.8,48z M255.4,11.4
	c-1.2-3.5-0.3-5.9-2.9-8.7c-0.5-0.5-0.3-1.2,0.4-1.1c4.2,0.5,8.4,1.9,9.1,6.5C263,13.8,256.9,15.9,255.4,11.4z M288.9,21
	c0,0.7-0.5,1-0.9,0.8c-3.4-1.2-6.8-4.3-8.7-10.5h-0.4c0,2,0.1,4.1,0.2,5.9c0,1.8-1,2.3-3.5,2.4c-2.9,0.2-3.5-0.5-3.4-2.2
	c0-0.7,0.1-1.5,0.1-2.2c-2.9,2.6-6.3,4-10.2,5.1c-0.7,0.2-1-0.5-0.4-1.1c2.5-2.3,5-5.2,6.6-7.9c-1.6,0-3,0.2-3.9,0.5
	c-0.4,0.1-0.7-0.1-0.9-0.5c-0.2-0.5-0.5-1.5-0.6-2.1c-0.1-0.6,0-0.7,0.5-0.5c1.4,0.5,3.7,0.7,5.4,0.7h3.6c0-0.9,0-1.9,0-2.8
	c-2.6,0.1-5.3,0.1-7.7,0c-0.8,0-1-1.1,0-1.2c7.1-1.5,13.3-3.5,15.6-4.9c0.7-0.4,0.5-0.6,1.2-0.2c1.1,0.7,4.1,2.8,5.1,3.7
	c1,0.8,0.8,2-0.4,1.7c-0.9-0.2-1-0.2-1.7-0.1c-1.3,0.3-3.3,0.5-5.6,0.7c0,1,0,2,0,3.1h3.1c0.5,0,0.7-0.2,1-0.5
	c0.7-0.9,1.5-1.9,2.2-2.6c0.4-0.4,0.7-0.3,1.2,0c0.8,0.6,2.7,2.3,3.9,3.6c0.3,0.3,0.6,1.5-0.4,1.5h-8.2c2.4,2.1,5.9,2.4,9.3,2.6
	c0.5,0,0.6,1,0.1,1.3C289.7,16,289.2,17.7,288.9,21z"/>
<path d="M304.3,30.9c-0.5-2.7,1.4-4-0.9-7.2c0,8.2,0.1,17.3,0.3,23.8c0,1.8-0.9,2.6-3.8,2.8c-2.8,0.2-3.4-0.8-3.4-2.7
	c0.2-5.3,0.3-10,0.3-16c-1.3,1.1-2.8,2.1-4.2,3.1c-0.5,0.3-1-0.2-0.5-1c4.6-8.2,6.8-13.9,8-21.1h-2.5c-1.5,0-2.9,0.1-3.9,0.5
	c-0.4,0.1-0.8-0.1-1-0.5c-0.2-0.5-0.5-1.6-0.6-2.2c-0.1-0.6,0-0.7,0.6-0.5c0.9,0.3,2.4,0.6,3.8,0.7c0.1-3.4,0.1-5.7,0-7.5
	c-0.2-2.9-0.5-2.8,0.6-2.7c2.2,0.2,4.8,0.7,6.9,1.2c1.5,0.3,1,1.8,0.1,2.2c-0.9,0.5-1.2,0.7-1.2,1.5c0,1.2,0,2.9,0,4.3
	c0.5-0.7,1-1.4,1.5-1.9c0.3-0.4,0.7-0.5,1.1,0c1,1,2.3,2.3,3.5,3.8c1,1.2,0.9,2.4-0.5,2.8c-0.8,0.3-1.3,0.6-1.4,1.1
	c-0.9,2.6-1.9,4.9-3,7c3,1.6,5.2,4.2,5.2,7.1C309.4,33.8,305,35.2,304.3,30.9z M329.6,49.1c-2,0.3-4.1,0.3-6,0
	c-2.8-0.5-3.7-1.8-3.6-5.7c0.1-4.6,0.1-8.3,0-12.8h-1.1c-0.2,12.4-3.5,18.2-14.3,19.7c-0.8,0.1-1-0.8-0.4-1.2
	c5.3-3.5,8-7.4,8.3-17.1c-1.6,0.1-3-0.2-2.9-1.9c0.4-9.8,0.5-24.8,0-27.3c-0.4-2.2-0.2-2.2,0.6-1.9c2.8,1.1,6.7,2.9,6.7,2.9h4.9
	c0.5,0,0.7-0.2,0.9-0.4c0.7-0.7,1.9-1.8,2.7-2.6c0.3-0.3,0.8-0.3,1.2,0c1.2,0.9,2.9,2.3,4,3.3c0.9,0.8,0.9,1.7,0,2.5
	c-0.8,0.8-1,1-1,2c0,5.2,0,13.2,0.1,20.5c0,1.8-1,2.3-3.4,2.6c0,0-0.1,0-0.1,0c0,2.9,0,6.2,0,8.8c0,0.9,0.1,1.1,0.5,1.2
	c0.3,0.1,0.6,0.1,1,0c1-0.2,1.2-0.6,2.3-7.8c0.1-1,1-1,1,0.1c0,6.2,0,6.3,0.8,7C333.5,42.5,333.9,48.5,329.6,49.1z M322.9,5.8h-6.4
	c0,1.9,0,3.8,0,5.7h6.5C322.9,9.6,322.9,7.7,322.9,5.8z M316.4,13.4c0,2.1,0,4.2,0,6.3h6.5c0-2.1,0-4.2,0-6.3H316.4z M316.4,21.7
	c0,2.3,0,4.6,0,7h6.3c0-2.4,0.1-4.8,0.1-7H316.4z"/>
<path d="M350.9,46.3c-1.2-0.1-1.1-0.3-0.1-0.6c11.9-2.6,16.5-11.2,16.6-21.1C367.5,13,360.6,6.6,352.7,8c2,1.9,2.7,4.4,2.6,7.3
	c-0.1,8.8-3.9,18-8.5,24.1c-4.6,6.1-9.8,6.6-11.7-1.6c-3.7-15.9,5.6-29.9,17-32.2c13.8-2.8,22.2,7.4,22.3,19.7
	C374.5,38.7,366.2,47.5,350.9,46.3z M352,8.2c-9.1,2.3-14.1,14.5-12.7,23.4c0.7,4.4,2.9,4.6,6,1c3.4-4,6.2-10.5,7.7-18
	C353.3,12.5,352.8,9.7,352,8.2z"/>
<path d="M414.9,15.7c-1.5,1-1.6,1.4-1.6,2.7c0,5.3-0.5,15.1-1.2,21.2c-0.9,8.2-3.2,9.6-9.7,10.3c-0.8,0.1-1.2,0.1-1.3-1
	c-0.3-5.2-1.1-6.1-5.4-8.3c-0.8-0.4-0.6-1.8,0.2-1.6c2.1,0.2,4.5,0.6,6,0.6c1.5,0,2.2-0.2,2.5-2.8c0.6-5.2,1.2-15,1.5-22.4h-8.5
	c-0.4,7.4-1,13.5-2.1,17.2c-3.5,12.5-10.2,16.2-19.1,18.8c-0.7,0.2-0.9-0.9-0.3-1.3c6.6-5.5,10.2-11.7,12-19.4
	c1-4.1,1.5-9.9,1.8-15.3H384c-1.8,0-3.7,0.1-4.6,0.5c-0.4,0.1-0.7-0.1-0.9-0.5c-0.2-0.5-0.5-1.8-0.6-2.5c-0.1-0.6,0-0.7,0.6-0.5
	c1.4,0.5,3.8,0.7,5.5,0.7h5.8c0.1-3.9,0-7.3-0.1-9.3c-0.1-1.6-0.9-2.4,0.4-2.3c3.1,0.2,6.3,0.6,9.1,1.2c1.3,0.3,1.3,1.7,0,2.3
	c-1.1,0.6-1.4,0.8-1.4,1.6c0,2.2-0.1,4.4-0.2,6.5h7c0.5,0,0.7-0.1,1-0.3c1-1.1,2.4-2.3,3.4-3.3c0.4-0.3,0.8-0.3,1.4,0
	c1.6,1.1,3.4,2.8,4.7,4.1C415.9,13.3,416.1,14.9,414.9,15.7z"/>
</svg>
