<!-- Generator: Adobe Illustrator 19.0.1, SVG Export Plug-In  -->
<svg version="1.1"
	 xmlns="http://www.w3.org/2000/svg" xmlns:xlink="http://www.w3.org/1999/xlink" xmlns:a="http://ns.adobe.com/AdobeSVGViewerExtensions/3.0/"
	 x="0px" y="0px" width="274.2px" height="50.5px" viewBox="0 0 274.2 50.5"
	 style="overflow:scroll;enable-background:new 0 0 274.2 50.5;" xml:space="preserve">
<style type="text/css">
	.st0{fill:#FFFFFF;}
</style>
<defs>
</defs>
<g>
	<path class="st0" d="M34.1,46.5H20c-0.4,0-0.5-0.4-0.5-0.7c0-0.4,0.1-0.7,0.6-0.8c2.2-0.5,2.6-0.9,2.2-1.8l-7.1-14.4L9.3,40.2
		c-1.1,2.2,0.3,3.8,2.6,4.7c0.4,0.2,0.6,0.5,0.6,0.9c0,0.5-0.2,0.7-0.7,0.7H0.6c-0.5,0-0.6-0.3-0.6-0.7c0-0.4,0.1-0.7,0.5-0.8
		c2-0.6,4.6-2.3,5.8-4.5L13.8,26L4.2,6.7c-0.5-1-1.6-1.4-2.6-1.6C1.2,5,1.1,4.7,1.1,4.3c0-0.5,0.1-0.8,0.5-0.8h13.3
		c0.4,0,0.5,0.3,0.5,0.7c0,0.5-0.1,0.7-0.6,0.8c-1.9,0.4-2.6,0.8-2.1,1.7l5.8,11.4l4.4-8.8c1-2,0-3.6-2.4-4.3
		C20,5,19.9,4.6,19.9,4.2c0-0.5,0.2-0.7,0.6-0.7h10.1c0.5,0,0.6,0.2,0.6,0.7c0,0.4-0.1,0.7-0.5,0.8c-2.7,0.7-4.1,2-5.2,4.2
		l-5.9,11.6l11.2,21.9c0.7,1.3,2.4,1.9,3.4,2.2c0.3,0.1,0.4,0.4,0.4,0.8C34.6,46.2,34.5,46.5,34.1,46.5z"/>
	<path class="st0" d="M75.1,46.1c0,0.6-0.7,0.6-1,0.3c-4.5-3.6-6-10.3-6.8-17.7c0,5.4,0,11.5,0.1,14.9c0.1,5.1-1.8,6.1-6.1,6.7
		c-0.9,0.1-1.2,0-1.2-0.8c-0.3-4.4-0.5-5.2-3.2-6.7c-0.5-0.3-0.5-1.4,0.1-1.3c0.8,0.1,1.8,0.2,3,0.2c0.9,0,1-0.2,1-1.5
		c0.1-2.2,0.1-6,0.1-9.8c-0.3,0.3-0.5,0.6-0.5,1c-1.2,6.7-4.1,12.4-10.1,15.1c-0.7,0.3-0.9-0.3-0.4-1c3.1-4.8,4.5-10.8,5-15.8h-0.8
		c-0.9,0-1.4,0-2.2,0.3c-0.4,0.1-0.7-0.1-0.9-0.5c-0.1-0.3-0.3-0.9-0.5-1.5c-0.8,0-1.6-0.5-2-1.7c-0.2-0.6-0.2-1.1-0.3-1.6
		c-0.1,0.1-0.3,0.2-0.4,0.2c0,8.1,0,16.6,0.2,22.8c0,1.9-0.6,2.6-3.4,2.8c-2.4,0.2-3.1-0.6-3-2.4c0.1-3.5,0.2-7.4,0.2-11.3
		c-1,3.9-2.4,7.8-4.6,11c-0.4,0.6-0.9,0.4-0.8-0.5c1-5.3,1.5-11.5,1.4-15.6c0-0.8-0.3-1.2,0.4-1.1c1.2,0.2,2.7,0.6,3.7,1
		c0-1.4,0-2.7,0-4c-1,0.3-1.4,0.5-2.1,0.7c-0.5,0.1-0.7,0.3-0.9,1c-0.2,1-1,1.2-1.3,0.2c-0.5-2-1-4.9-1.3-6.9
		c-0.2-1.2,0.1-0.9,0.8-0.8c0.9,0.1,1.8,0.2,2.9,0.3c0.7-1.2,1.4-2.6,2-3.8c-1.1,0.5-2.4,0.3-2.9-1c-1.5-2.9,0.5-5.2-2.1-8.6
		c-0.4-0.5-0.1-1.1,0.4-1c0.9,0.2,1.7,0.5,2.4,0.8c0.5-2.3,1-5.3,1-7.1c0-0.7-0.2-1,0.8-0.9c2,0.4,4.7,1,6.7,1.6
		c1.2,0.3,1.1,1.6,0,1.9c-0.7,0.2-0.9,0.1-1.1,0.4C46.2,6,44.2,8,42.2,9.4c1.3,1,2.1,2.3,2.3,3.9C45.4,11,46,9,46.3,7.4
		c0.1-1,0.1-1.1,0.6-1c2,0.7,4.3,1.6,6.1,2.6c1,0.6,1,1.9-0.2,2c-0.8,0.1-1,0.1-1.2,0.5c-2,3.9-4.8,7.4-8.3,10.4
		c1.8,0.1,3.7,0.1,5.5-0.1c0-1.1-0.2-2.3-1.1-3.5c-0.3-0.4,0-1,0.5-0.7c2.6,1.1,5.4,3.4,5.3,7.1c0,1.1-0.5,2-1,2.6
		c0.6,0.2,1.2,0.3,1.8,0.3h0.3c0.3,0,0.5-0.2,0.7-0.5c0.6-0.7,1.5-1.8,2.1-2.4c0.3-0.3,0.8-0.2,1.1,0c0.8,0.6,1.9,1.4,2.8,2.4
		c0-1.9,0-3.5-0.1-5.5H60c-0.4,2-1.7,1.9-3.3,2c-1.8,0.1-3.3,0.1-3.2-1.8c0.4-6.6,0.5-14.5,0-17c-0.4-1.5-0.2-1.6,0.6-1.3
		c1.9,0.8,4.2,1.8,5.7,2.4c0.1-2,0.1-3.7,0-4.8c-0.1-0.7-0.2-1,0.7-0.9c2.1,0.2,4.7,0.5,7.5,1c1.4,0.2,1.2,1.7,0,1.9
		c-0.9,0.2-1,0.5-1.4,0.8c-1,0.9-2.5,1.7-3.6,2.7h4c0.5,0,0.6-0.2,0.8-0.4c0.8-0.8,1.7-1.8,2.7-2.7c0.3-0.3,0.8-0.4,1.2,0
		c1.2,0.9,2.8,2,4.1,3.3c0.6,0.6,0.7,1.6-0.1,2.3c-0.6,0.6-1,0.7-1,1.8c0,2.8,0,6,0.1,9.5c0.1,2.3-1.4,2.4-3.3,2.6
		c-1.7,0.2-3,0.6-3.3-1.4h-0.8c0,0,0,1.1,0,1.1c1,2.7,1.1,4.9,2.1,6.9c0.6-1.5,1.1-3.6,1.2-5.4c0-0.7,0.4-0.9,0.9-0.5
		c1.4,1.1,3.6,3.3,5.1,4.8c0.7,0.7,0.5,2-0.5,1.8c-0.8-0.2-1-0.2-1.6,0.2C73.4,31,72.1,31.6,71,32c1.5,2.1,3.4,3.6,6.2,4.6
		c0.4,0.2,0.5,0.9,0,1.3C75.7,39.1,75.3,41,75.1,46.1z M48.9,38.8c-0.1-3,1.2-4.5-0.3-8.4c-0.2-0.5,0.2-1,0.7-0.6
		c2.6,2.4,4.2,5.3,4,8.3C53,42,49.1,42.7,48.9,38.8z M68.2,8.5h-8.1c0,1,0,3,0,4h8.2C68.3,11.5,68.3,9.5,68.2,8.5z M60.1,14.5
		c0,2,0,4,0,5h8.1c0-1,0-3,0.1-5H60.1z"/>
	<path class="st0" d="M119.8,48c-0.1,0.8-0.1,1.2-0.8,1.2c-5.4,0-13.5,0.1-18.7-0.7c-3.7-0.5-6.9-2.4-8.7-7.6
		c-2,2.8-4.1,5.2-5.6,6.6c-0.4,0.4-0.8,0.7-0.8,1.8c0,1-1,1.7-1.5,0.2c-0.8-2.7-1.6-6.3-2.2-9c-0.3-1-0.2-1.2,0.3-1.2
		c1,0,2.4-0.5,4.1-1c0.1-4.8,0.1-10.8,0-14.8h-0.4c-0.8,0-1.6,0.3-2.6,0.6c-0.4,0.1-0.7,0.1-0.9-0.4c-0.2-0.5-0.4-1.4-0.5-2.1
		c-0.1-0.6,0-0.9,0.6-0.7c1.1,0.5,2,0.5,2.7,0.5h0.4c0.4,0,0.5-0.1,0.7-0.3c0.8-1.1,1.8-2.2,2.5-3.2c0.3-0.4,0.8-0.4,1.3,0
		c1.5,1.1,2.9,2.5,4.2,3.6c0.9,0.9,0.9,1.8,0,2.6c-0.8,0.8-1.3,1-1.3,2c-0.1,2.7-0.1,7.7,0,11.4c0.4,0.4,0.7,0.8,1.1,1.1
		c3.3-3.9,5-8.5,5.2-16c-1.1,0.1-1.8,0.2-2.4,0.4c-0.4,0.1-0.7-0.1-0.9-0.5c-0.2-0.5-0.5-1.5-0.6-2.1c-0.1-0.6,0-0.9,0.5-0.7
		c1.4,0.5,3.7,0.6,5.4,0.6h6.8c0.5,0,0.7,0,1-0.3c0.6-0.5,1.4-1.2,2-1.7c0.3-0.3,0.7-0.3,1.3,0c0.8,0.5,2.5,1.7,3.4,2.5
		c1,0.8,0.9,1.9-0.2,2.4c-0.6,0.3-1,0.5-1,1.1c-0.1,0.5-0.2,1.2-0.4,1.9c0.3-0.1,0.5-0.2,0.6-0.3c0.5-0.6,1.1-1.2,1.7-1.8
		c0.4-0.4,0.8-0.5,1.4,0c0.8,0.6,2.5,1.8,3.4,2.7c0.7,0.7,0.9,1.9-0.1,2.5c-0.7,0.4-0.9,0.6-1,1.4c-0.1,1-0.3,3.2-0.7,4.8
		c-0.6,2.8-2.7,3.6-6.9,4c-1,0.1-1.3-0.2-1.3-0.9c-0.2-3.3-0.5-4.1-4.2-5.7c-0.5-0.2-0.6-1.4,0.2-1.3c1.9,0.2,3.7,0.5,4.8,0.5
		c0.7,0,1.2-0.2,1.4-0.9c0.2-1,0.3-2,0.5-3H113c-0.5,1-1.6,1.1-3.4,0.9c-2-0.1-3.1-0.7-2.6-2.4c0.4-1.3,0.9-2.6,1.1-4.6h-2.3
		c-0.9,11-4.3,15.3-11,16.9c1.5,0.7,3.6,1.1,6.6,1.3c7.2,0.4,13.6,0.1,20.1-0.7c1-0.1,1.2,0.8,0.3,1.5C120,43.2,120.1,44.8,119.8,48
		z M86.4,11.4c-1.2-3.5-0.3-5.9-2.9-8.7c-0.5-0.5-0.3-1.2,0.4-1.1c4.2,0.5,8.4,1.9,9.1,6.5C94,13.8,87.9,15.9,86.4,11.4z M119.9,21
		c0,0.7-0.5,1.1-0.9,0.9c-3.4-1.2-6.8-4.4-8.7-10.4h-0.4c0,2,0.1,3.9,0.2,5.8c0,1.8-1,2.2-3.5,2.4c-2.9,0.2-3.5-0.5-3.4-2.2
		c0-0.7,0.1-1.5,0.1-2.2c-2.9,2.6-6.3,4-10.2,5.1c-0.7,0.2-1-0.5-0.4-1.1c2.5-2.3,5-5.2,6.6-7.9c-1.6,0-3,0.2-3.9,0.5
		c-0.4,0.1-0.7-0.1-0.9-0.5c-0.2-0.5-0.5-1.5-0.6-2.1c-0.1-0.6,0-0.6,0.5-0.4c1.4,0.5,3.7,0.8,5.4,0.8h3.7c0-1,0-2.1,0-3
		c-3,0.1-5.3,0.1-7.7,0c-0.8,0-1-1.1-0.1-1.2c7.1-1.5,13.3-3.5,15.6-4.9c0.7-0.4,0.5-0.6,1.2-0.2c1.1,0.7,4.1,2.8,5.1,3.7
		c1,0.8,0.8,2-0.4,1.7c-0.9-0.2-1-0.2-1.7-0.1c-1.3,0.3-3.3,0.6-5.6,0.8c0,1,0,2.2,0,3.2h3.1c0.5,0,0.7-0.3,1-0.6
		c0.7-0.9,1.5-1.9,2.2-2.7c0.4-0.4,0.7-0.4,1.2,0c0.8,0.6,2.7,2.5,3.9,3.7c0.3,0.3,0.6,1.6-0.4,1.6h-8.2c2.4,2,5.9,2.3,9.3,2.4
		c0.5,0,0.6,0.9,0.1,1.2C120.7,16.1,120.2,17.7,119.9,21z"/>
	<path class="st0" d="M165,48c-0.1,0.8-0.1,1.2-0.8,1.2c-5.4,0-14,0.1-19.2-0.7c-3.7-0.5-7-2.6-8.8-7.7c-1.8,2.7-3.8,5.2-5.3,6.6
		c-0.4,0.3-0.4,0.9-0.5,1.8c-0.1,1.6-1.2,1.7-1.6,0.3c-0.8-2.7-1.7-5.9-2.3-8.7c-0.2-1.1-0.1-1.2,0.4-1.2c0.9,0,2.4-0.3,3.9-0.8
		c0.1-5,0.1-10.3,0-15.3h-0.3c-0.7,0-1.7,0.3-2.5,0.6c-0.4,0.1-0.7,0.1-0.9-0.4c-0.2-0.5-0.5-1.4-0.6-2.1c-0.1-0.6,0.1-0.9,0.6-0.7
		c1,0.4,1.8,0.5,2.8,0.5h0.2c0.3,0,0.6-0.1,0.7-0.3c0.7-1.1,1.7-2.2,2.4-3.2c0.3-0.4,0.8-0.4,1.3,0c1.4,1.1,2.8,2.4,3.9,3.6
		c0.9,0.9,1,1.9,0,2.6c-1,0.8-1.2,1-1.3,2c-0.1,2.7-0.1,7.7-0.1,11.4c1.7,2.2,4,2.9,8.9,3.2c7.2,0.4,14.1,0.1,20.6-0.8
		c1-0.1,1.2,0.8,0.3,1.6C165.2,43.5,165.3,44.8,165,48z M131.4,11.6c-1.4-3.3,0.2-5.7-3.1-8.9c-0.5-0.5-0.4-1.2,0.4-1.1
		c4.9,0.7,8.7,2.4,9.2,6.7C138.6,13.7,133,15.7,131.4,11.6z M166.3,20.7c-0.7,0.5-1.1,0.8-1.2,1.5c-0.1,3.3-0.1,8.3,0,11.8
		c0.1,3.6-1,5.7-5.7,6.2c-0.5,0.1-1,0-1-1.1c0-2.5-0.1-3.6-0.7-4.1c-0.4,0.7-1.3,1-2.4,1.2c-1.7,0.3-2.4,0.3-2.4-1.7h-1.5
		c0,0,0,0.7,0,1c0,1.8-0.9,2-2.6,2.2c-1.3,0.1-2.5,0.1-2.4-1.7c0.3-3.7,0.4-11,0-13.6c-0.2-1.8,0-1.3,0.6-1.1
		c1.9,0.7,4.6,2.1,4.6,2.1h0.9c0.2,0,0.5-0.3,0.6-0.6c0.4-0.5,0.9-1.4,1.4-1.9c0.2-0.3,0.5-0.3,1-0.1c1,0.6,2.2,1.6,3,2.4
		c0.5,0.5,0.5,1.3,0,1.9c-0.7,0.6-0.8,0.8-0.8,1.5c0,1.1,0,4.1,0,6.1c0.8,0.1,1.3-0.3,1.3-1.2c0.2-3.6,0.1-8.3,0-12.3h-14.1
		c0,5-0.1,12.8,0,17.5c0,2-0.7,2.5-3.2,2.7c-2,0.1-2.9,0-2.9-2.1c0.3-7,0.5-18.2,0.1-21.1c-0.3-1.5-0.2-1.8,0.7-1.4
		c0.8,0.3,1.6,0.8,2.4,1.2c0-5.8,0.1-11.6-0.2-13.7c-0.4-2.5-0.1-2.2,0.7-1.9c2.4,1,5.8,2.7,5.8,2.7h5.9c0.5,0,0.6-0.2,0.9-0.4
		c0.7-0.8,1.5-1.9,2.3-2.6c0.3-0.3,0.8-0.4,1.3,0c1,0.8,2.7,2.3,3.9,3.3c0.8,0.7,1,2-0.2,2.8c-0.6,0.4-1,0.9-1.1,1.8
		c-0.1,1.4,0,5.1,0,7.8c0.3-0.4,0.6-0.9,0.9-1.2c0.3-0.4,0.7-0.5,1.2,0c0.9,1,1.9,2.2,2.8,3.3C167.1,19.3,167,20.2,166.3,20.7z
		 M155.6,5.5H148c0,2,0,7,0,12h1.4c0.1-3,0.1-7.8-0.1-9.8c-0.1-1.4,0-1.6,0.5-1.4c2.2,1,4.8,2.1,4.8,2.1h1
		C155.7,7.5,155.7,6.5,155.6,5.5z M151.5,24.5c0,2,0,5,0,8h1.5c0-3,0.1-6,0.1-8H151.5z M154.1,10.5c0,3,0,5,0,7h1.6c0-2,0-4,0-7
		H154.1z"/>
	<path class="st0" d="M208.8,49c-0.1,0.9-0.4,1.3-1,1.1c-4.1-1.1-7.4-3.3-10.1-6.5c-3.8,3.5-8.7,5.9-14.2,6.7
		c-0.9,0.1-1-0.7-0.3-1.2c4.1-2.8,7.4-5.7,11-10.5c-2-4.3-3.1-8.8-3.8-15.8c-0.8,0.1-1.5,0.2-2,0.3c-0.4,0.1-0.8-0.1-1-0.5
		c0-0.1-0.1-0.3-0.2-0.5c-1.1,1.2-2.2,2.3-3.3,3.3c0,6.6,0.1,13.3,0.1,18.4c0,3.8-1.3,5.6-6.6,6.5c-1.4,0.2-1.4-0.1-1.5-1
		c-0.3-4-0.6-5.5-3.7-6.9c-0.7-0.3-0.7-1.6,0.1-1.5c1,0.2,2.4,0.2,3.4,0.2c1,0.1,1.2-0.4,1.2-1.5c0-2.2,0.1-5.2,0.1-8.4
		c-0.6,0.4-1.3,0.7-1.9,1.1c-0.4,0.2-0.6,0.5-0.7,1.5c-0.1,1.2-1.2,1.4-1.5,0.2c-0.6-2.9-1.1-6.5-1.5-9.3c-0.1-1-0.3-1,1-1.1
		c1.3-0.2,2.8-0.3,4.8-0.6c0-2.9,0-5.3,0-8.3h-0.9c-1.3,0-2.4,0-3.3,0.3c-0.4,0.1-0.7-0.1-0.9-0.6c-0.2-0.5-0.5-1.5-0.6-2.1
		c-0.1-0.6,0-0.6,0.6-0.4c1.3,0.5,2.8,0.8,4.2,0.8h0.8c0-5,0-9.3-0.2-10.2c-0.2-1.9-0.5-2.1,0.6-2c2.4,0.2,5.2,0.7,7.5,1.2
		c1.4,0.3,1.3,1.9,0,2.3c-0.8,0.3-1.2,0.6-1.2,1.4c0,1.9,0,4.1-0.1,6.7c0.4-1,0.9-1.9,1.4-2.8c0.2-0.5,0.6-0.5,0.9,0
		c0.8,1.2,1.8,2.9,2.4,4.1c0.4,0.6,0.2,1.4-0.5,1.4h-3.9c0,2,0,4.4,0,6.9c1-0.2,1.7-0.5,2.7-0.9c-0.2-0.5-0.1-0.9,0.4-0.7
		c1.5,0.6,3.6,0.7,5.3,0.7h0.9c0-3,0.1-6,0.1-9h-0.5c-1.8,0-3.5,0-4.4,0.3c-0.4,0.1-0.8-0.1-1-0.6c-0.2-0.5-0.5-1.6-0.6-2.2
		c-0.1-0.6,0-0.6,0.5-0.4c1.4,0.5,3.7,0.9,5.4,0.9h0.6c0-4-0.1-6.5-0.2-7.2c-0.3-2-0.5-2,0.6-1.9c2.3,0.2,5.2,0.6,7.6,1.1
		c1.3,0.3,1.4,1.9,0.1,2.2c-0.7,0.2-1.1,0.6-1.1,1.4c0,1.1,0,2.3,0,4.3h1.2c0.5,0,0.6-0.2,1-0.7c0.7-1,1.9-2.8,2.8-4.1
		c0.3-0.4,0.6-0.5,1,0c1.4,1.4,3.1,3.5,4.6,5.2c0.3,0.3,0.6,1.6-0.4,1.6h-10.2c0,3,0,6.4,0,9.2c0.1-0.1,0.2-0.2,0.3-0.4
		c0.6-0.9,1.6-2.1,2.4-3c0.3-0.4,0.8-0.4,1.2-0.1c1.4,1.1,3.5,3,4.7,4.2c1.2,1.2,1,2.5-0.3,3.2c-0.5,0.2-1.2,0.7-1.4,1.3
		c-1.3,4.3-2.8,8.4-4.9,11.4c2.6,1.2,5.6,2,8.8,2.4c0.9,0.1,0.8,1.1,0.1,1.5C209.6,42.6,209.3,44.8,208.8,49z M192.9,22.5
		c-0.4,0-0.8,0-1.2,0c1.5,5,3.2,8.6,5.5,11.1c1.7-2.9,2.9-7.1,3.7-11.1H192.9z"/>
	<path class="st0" d="M227.6,16.8c-1,0.1-1.1,0.2-1.4,0.9c-0.3,0.8-0.6,1.6-1,2.4c0,9.9,0,19.6,0.1,28.2c0,1.3-1.5,2-3.4,2.1
		c-2.1,0.1-3.5-0.2-3.5-1.9c0.2-6.2,0.2-13.2,0.2-19.3c-0.9,0.9-1.9,1.6-2.9,2.4c-0.6,0.5-1,0-0.6-0.9c2.5-5.7,4.3-12,4.9-17.9
		c-1.1,1.1-2.4,2.2-3.9,3.1c-0.9,0.6-1.1-0.1-0.7-1c2-4.4,3.7-9.9,4.1-13.8c0.1-0.5,0-1,0.6-0.9c2.7,0.6,5.4,1.2,7.6,1.9
		c1.1,0.4,1.1,1.9-0.1,2.1c-0.9,0.2-1.1,0.2-1.5,0.8c-1.2,2.2-2.8,4.4-4.8,6.6c2.1,1,4.4,2,6.4,3.1
		C228.9,15.3,228.7,16.6,227.6,16.8z M255.1,7.5h-9.6c-0.2,1-1,2.1-2,2.4c0.8,0.8,1.7,1.6,2.4,2.6c0.5,0.6,0.2,1.1-0.4,1.1h-6.6
		c0,10,0,24.4,0.2,34.3c0,1.4-1.1,2.1-3.6,2.4c-2.4,0.3-3.3-0.2-3.2-1.9c0.2-7,0.3-17.1,0.3-26.2c0,0.1-0.3,0.2-0.3,0.3
		c-0.5,9.1-2.4,16.7-5.6,21.5c-0.4,0.5-0.9,0.2-0.8-0.5c1.4-8.3,1.5-20.1,1.1-24.4c-0.1-0.9-0.1-1,0.5-0.8c1.4,0.3,3.9,0.7,4.9,1.1
		c0-1.9,0-3.8,0-5.8h-0.7c-1.4,0-3.1,0.2-4,0.6c-0.4,0.1-0.7,0-0.9-0.4c-0.2-0.6-0.5-1.4-0.6-2.1c-0.1-0.6,0-0.8,0.5-0.7
		c1.4,0.5,3.6,0.5,5,0.5h0.8c0-5-0.1-8.9-0.3-9.9c-0.2-1.5-0.2-1.5,0.5-1.4c2.1,0.2,4.9,0.8,7.2,1.3c0.3,0.1,0.5,0.4,0.7,0.6
		c2.1,0.6,3.9,1.5,4.5,3.5h2.2c0.3,0,0.6-0.2,0.8-0.6c0.6-1.1,1.5-2.8,2.4-4.1c0.2-0.3,0.7-0.4,1,0c1.2,1.4,2.5,3.2,3.9,5.2
		C255.9,6.5,255.8,7.5,255.1,7.5z M241.2,8.5c-1-1.9,0.3-3.4-0.7-5.2c-0.1,0.1-0.3,0.2-0.5,0.3c-0.7,0.2-1,0.4-1,1.1
		c0,1.5-0.1,3.9-0.1,6.9h0.2c0.4,0,0.7,0,0.9-0.3c0.4-0.6,1.1-1.5,1.6-2.2C241.5,8.9,241.3,8.8,241.2,8.5z M240.1,35.5
		c0-3.7,1.3-9.2-0.5-16.3c-0.2-0.6,0.4-1.1,0.9-0.6c3.9,4.8,5.3,11.1,5.3,15.1C245.6,40,240.1,39.9,240.1,35.5z M255.5,18.5h-2.1
		c0,8,0,17.3,0.1,24.6c0,4-0.5,6.1-6.3,7.1c-1.1,0.2-1.2,0.1-1.3-1c-0.3-4.5-0.6-5.1-4-6.8c-0.5-0.3-0.6-1.4,0.1-1.4
		c1.3,0.1,2.7,0.3,3.9,0.2c0.9,0,1-0.4,1-1.4c0.2-5.7,0.2-13.2,0.1-21.1c-1.2,0.1-2.9,0.2-3.6,0.5c-0.4,0.1-0.7-0.1-0.9-0.5
		c-0.2-0.5-0.5-1.5-0.6-2.1c-0.1-0.6,0.1-0.8,0.6-0.6c1.4,0.5,3.8,0.6,4.8,0.6h0.3c0.3,0,0.6,0.1,0.8-0.3c0.7-1.3,1.7-3,2.5-4.3
		c0.2-0.3,0.7-0.4,1,0c1.2,1.3,2.6,3.1,4,5.2C256.3,17.7,256.2,18.5,255.5,18.5z"/>
	<path class="st0" d="M267.8,47.4c-1-3-3.4-7.4-6.2-9.8c-0.5-0.5-0.8-1.2,0.4-1c5.2,0.6,9.8,3.6,11.5,6.7
		C276.5,49.4,269.4,52.9,267.8,47.4z"/>
</g>
</svg>
