<!-- Generator: Adobe Illustrator 19.0.0, SVG Export Plug-In  -->
<svg version="1.1"
	 xmlns="http://www.w3.org/2000/svg" xmlns:xlink="http://www.w3.org/1999/xlink" xmlns:a="http://ns.adobe.com/AdobeSVGViewerExtensions/3.0/"
	 x="0px" y="0px" width="509px" height="205.3px" viewBox="0 0 509 205.3"
	 style="overflow:scroll;enable-background:new 0 0 509 205.3;" xml:space="preserve">
<defs>
</defs>
<g>
	<path d="M81.5,50H42.7c0,8.8,0,18.1-0.4,27.6h5c2,0,2.6-0.9,3.5-2.1c2.6-3.5,6.7-8.4,9.3-11.4c1.3-1.4,3.3-1.6,5.2,0
		C70,67.6,76.7,74.6,80,77.8c3.3,3.2,3,8.6-0.4,11.8c-2.4,2.3-3.5,4.2-3.7,9.3c-0.2,19.7-1.3,46.6-3,65.4
		c-2,25.5-4.3,33.9-27.7,38.1c-3.9,0.7-4.1-0.7-4.5-3.7c-1.9-19.3-2-21.8-12.3-28.5c-6.5,15.3-15.6,26.5-25.4,33.9
		c-2.4,1.9-3.9,0.5-2.8-2.8c6.5-20.9,10-41.3,12.6-66.1c2.4-23.2,3.3-52.9,3.3-84.9c-3.7,0.2-7.4,0.7-9.7,1.6
		c-1.5,0.5-3-0.2-3.7-2.1c-0.7-1.9-1.9-6.3-2.4-8.6c-0.6-2.8,0.2-3,2.4-2.1c5.4,1.9,14.1,2.8,19.9,2.8h1.7
		c0.4-14.6,0.4-26.5-0.6-32.7c-1.3-9.3-1.9-9.3,2.6-9c9.8,1.2,21.2,2.6,31,4.4c5.6,0.9,4.6,7.7,0.4,9.5c-3.5,1.4-4.5,2.3-4.6,5.6
		c-0.2,6.3,0,15.5,0,22.3c1.3,0,2.2-0.7,3-2.1c2-3.9,5-8.8,8.9-14.2c1.1-1.6,2.6-1.6,4.1,0c5.2,5.6,9.3,10.9,14.5,18.1
		C85.4,46.3,85.4,50,81.5,50z M42.1,85.9c-0.9,25.3-3.2,50.8-7.8,68c-1.1,3.9-2.2,7.7-3.7,11.1c2.4,0.2,5.8,0.5,8.4,0.7
		c6.1,0.5,7.2-0.7,8.2-8.6c2.2-19,3.9-51.3,3.9-71.2H42.1z M165,171.3c-7.8,4.2-8.5,12.1-11.1,31.1c-0.4,3-3,3.2-5.4,1.6
		c-12.1-8.4-22.5-18.6-31-32.3c-13.4,16-30.1,26.7-50.9,33.2c-4.6,1.4-4.5-3.2-1.9-5.6c17.4-16,30.6-33.9,40.1-54.8
		c-4.8-14.2-7.4-32-9.3-52c-3.9,7.2-8.7,13.9-13.2,19c-2.4,3-5,2.6-4.1-1.4C86.5,77.4,90.2,36.7,89.5,4.7c-0.2-3.5-1.3-4.6,2.4-3.9
		c11,1.2,21,2.6,33.2,5.3c3.5,0.7,4.6,6.5,0.2,8.6c-4.6,1.4-5.2,2.6-5.6,5.1c-1.5,9.7-3.7,19.3-6.3,28.3h15.8c1.7,0,3-0.5,3.9-2.1
		c3-5.1,6.7-11.4,10.4-16.7c1.1-1.9,3-1.9,4.6,0c5.9,6.3,11.1,12.5,17.3,20.7c1.5,2.1,2,6.5-1.7,6.5h-10
		c-4.1,37.8-10.4,67.3-20.2,90c9.3,8.8,19.9,14.4,31.9,18.1C167.3,165.1,167.8,169.7,165,171.3z M110.8,56.5
		c-2.8,8.8-6.1,17.2-9.7,25.1c3.3,15.1,7.6,27.8,12.8,38.3c5.4-18.8,8.5-39.7,9.8-63.3H110.8z"/>
	<path d="M255.6,114.3c-2.2-0.9-3.7-1.2-4.8-0.5c0,20.2,0.2,42.5,0.6,66.4c0.2,13.7-5.8,21.3-26.7,24.8c-4.1,0.7-5.4,0-5.8-3.9
		c-1.3-16.2-3.3-20.9-16.5-27.6c-3.2-1.6-2.2-5.3,0.6-5.1c7.1,0.7,12.4,0.9,17.8,0.9c3.7,0,4.3-1.9,4.3-6c0.2-5.1,0.2-10.2,0.2-15.5
		c-14.1,14.6-31.4,27.1-52,36.2c-2.2,0.9-3.7-2.8-1.7-4.9c17.4-18.3,35.1-40.4,48.8-62.9c-11.7,8.1-23.4,13.9-35.1,18.1
		c-1.5,0.7-2,1.6-2.4,5.1c-0.6,5.1-4.6,5.6-5.8,0.7c-2.4-11.4-4.5-23.2-5.6-32.9c-0.4-4.2-0.9-4.2,3.9-4.2c1.9,0,3.9,0,6.1,0
		c0.2-27.6,0.6-68.5-0.9-77c-1.7-8.8-0.7-8.4,2.6-7c5.8,2.3,12.4,5.3,17.4,7.7c0.4-8.8,0.4-17.4,0-23c-0.4-2.6-0.7-3.7,3.2-3.2
		c9.1,0.9,19.5,2.3,28.8,3.9c4.1,0.7,4.1,6.5-0.2,7.4c-3.5,0.7-4.1,1.2-5.2,2.6c-5,6.3-9.8,11.4-15,16h8.4c1.5,0,2.8-0.7,3.5-1.4
		c3.2-3.2,6.9-7.2,10.4-10.9c1.3-1.2,3.2-1.2,4.8,0c5,3.7,11.3,8.4,16.1,12.8c3.3,3,4.1,7.2-0.7,10.4c-2.4,1.9-3.5,3-3.5,6.3
		c-0.2,10.2-0.2,21.8-0.4,35c3.3,8.6,6.3,17.2,8.2,23.7C261.2,113.3,259.1,115.6,255.6,114.3z M225,38.6h-18.2
		c0,3.7-0.2,8.1-0.2,13.2h18.7C225.2,47.4,225.2,43,225,38.6z M225.4,60.2h-18.7c0,4.9,0,9.7,0,14.9h18.9
		C225.5,69.9,225.4,65.1,225.4,60.2z M225.5,83.2h-18.9c0.2,6,0.2,12.1,0.2,17.9c5.9-0.5,12.6-1.2,18.7-2.3
		C225.5,93.6,225.5,88.3,225.5,83.2z M336.7,57.4h-19.1c0,40.8,0.2,89.8,0.6,120.9c0.2,15.5-7.6,24.4-31.7,26.7
		c-2.8,0.2-4.3-0.7-4.5-2.8c-1.9-23-4.6-26-21.5-35.3c-2.2-1.2-2.6-5.6,0.6-5.1c9.5,1.2,18.7,1.9,23.9,1.9c3.3,0,4.5-2.8,4.5-6.3
		c0.4-19.3,0.7-64.3,0.6-100h-13.4c-7.2,0-14.7,0.5-18.4,1.9c-1.5,0.5-3.2-0.2-3.9-2.1c-0.7-1.9-1.9-6.5-2.4-9
		c-0.6-2.6,0.2-2.8,2.4-2.1c5.6,2.1,15.2,3,22.1,3H290c-0.2-20-0.4-35.7-0.9-39.9c-0.9-8.4-1.9-9.5,2-9c10.2,1.2,21.3,2.8,31,4.6
		c4.3,0.9,4.8,6.7-0.2,8.6c-3,1.2-4.1,3-4.1,5.1c0,7.9-0.2,16.5-0.2,26c1.9-4.9,3.7-10,6.1-15.1c0.7-1.6,3.2-1.6,4.3,0
		c3.3,5.3,7.2,13.7,10.2,22C339,53.5,339.7,57.4,336.7,57.4z M261,116.8c-2.6-17.4,5.9-23.2-2.4-42.7c-0.9-2.3,0.6-4.6,3-3.2
		c16,8.6,27.3,21.3,26.7,40.4C287.7,132.6,263.8,135.8,261,116.8z"/>
	<path d="M498.8,187.8c-0.2,2.3-2.8,2.3-3.9,1.4c-18.6-14.6-24.7-42-27.7-72.4c0,22,0.2,46.9,0.6,60.8c0.4,20.9-7.2,25.1-24.9,27.4
		c-3.5,0.5-4.8,0-5-3.5c-1.1-17.9-2-21.1-13-27.6c-2.2-1.4-2.2-5.8,0.6-5.3c3.3,0.5,7.4,0.7,12.3,0.9c3.5,0,4.1-0.9,4.3-6
		c0.4-8.8,0.4-24.4,0.4-40.1c-1.3,1.2-2,2.3-2.2,3.9c-5,27.4-16.9,50.6-41.2,61.7c-2.8,1.4-3.5-1.6-1.7-4.4
		c12.8-19.7,18.4-44.8,20.6-65h-3.3c-3.5,0-5.8,0.2-9.1,1.6c-1.5,0.5-3-0.2-3.7-2.1c-0.6-1.4-1.3-3.7-1.9-6c-3.3,0-6.7-2.1-8-6.7
		c-0.7-2.3-0.9-4.6-1.1-6.7c-0.6,0.2-1.1,0.7-1.7,0.9c-0.2,33.2,0,68,0.7,93.3c0.2,7.9-2.6,10.7-13.7,11.4
		c-9.7,0.7-12.6-2.3-12.3-10c0.6-14.4,0.9-30.2,0.9-46.2c-4.1,16-9.8,32-18.9,45c-1.7,2.6-3.7,1.6-3.3-2.1c4.1-21.6,6.1-47.1,5.8-64
		c0-3.2-1.3-4.9,1.7-4.4c4.8,0.9,10,2.3,15,3.9c0-5.6,0-10.9,0-16.2c-3.2,1.2-5.9,2.1-8.5,2.8c-2,0.5-3,1.2-3.5,3.9
		c-0.7,4.2-4.3,4.9-5.4,0.7c-2.2-8.1-4.1-20.2-5.2-28.3c-0.7-5.1,0.6-3.7,3.2-3.2c3.5,0.5,7.4,0.9,11.9,1.2c3-5.1,5.6-10.4,8-15.5
		c-4.5,2.1-9.7,1.2-12.1-3.9c-5.9-11.8,2.2-21.3-8.5-35c-1.5-2.1-0.4-4.6,1.7-3.9c3.5,0.9,6.9,2.1,9.7,3.2
		c2.2-9.3,3.9-21.6,3.9-29.2c0.2-3-0.7-4.2,3.3-3.5c8.4,1.6,19.3,3.9,27.3,6.5c4.8,1.4,4.6,6.7-0.2,7.9c-3,0.7-3.5,0.5-4.5,1.6
		c-5.6,7.7-13.6,15.5-21.7,21.3c5.4,4.2,8.5,9.3,9.3,16c3.5-9.3,5.9-17.6,7.2-24.1c0.6-3.9,0.6-4.6,2.4-3.9
		c8.2,3,17.6,6.7,25.1,10.4c4.3,2.3,4.1,7.7-0.7,8.4c-3.3,0.5-4.1,0.2-5,1.9c-8.2,15.8-19.7,30.2-34,42.5c7.4,0.2,15.2,0.2,22.6-0.2
		c0-4.6-0.7-9.3-4.5-14.4c-1.1-1.6-0.2-3.9,2-3c10.8,4.6,22.1,13.9,21.7,29c-0.2,4.4-1.9,7.9-4.3,10.2c2.6,0.7,5,1.2,7.2,1.2h1.1
		c1.1,0,2-0.5,3-1.6c2.4-3,6.1-7.4,8.7-9.7c1.3-1.2,3.2-0.9,4.6,0c3.3,2.6,7.8,6.7,11.5,10.7c-0.2-7.7-0.2-15.5-0.4-21.6h-5.2
		c-1.5,4.9-6.9,6.7-13.4,7.2c-7.2,0.5-13.6,0-13-7.9c1.5-27.1,2-59.6-0.2-69.6c-1.5-6.3-0.7-6.5,2.6-5.3c7.8,3.2,17.3,7.2,23.2,9.7
		c0.6-8.1,0.6-15.1,0-19.5c-0.4-2.8-0.9-3.9,3-3.7c8.5,0.9,19.1,2.1,30.8,3.9c5.6,0.9,5,7,0,7.9c-3.5,0.7-4.3,1.9-5.8,3
		c-4.3,3.7-10.2,7.9-14.8,10.7h16.3c1.9,0,2.4-0.5,3.3-1.4c3.2-3.2,7.1-7.4,11-11.1c1.3-1.4,3.2-1.4,5,0c5,3.7,11.3,8.4,16.7,13.7
		c2.6,2.6,2.8,6.7-0.6,9.5c-2.6,2.3-3.9,2.8-4.1,7.2c-0.2,11.6-0.2,24.4,0.4,39c0.6,9.3-5.8,10.9-13.6,11.6
		c-7.1,0.7-12.3,0.2-13.4-4.9h-3c0,0,0,2.6,0,2.8c2,11.1,4.5,20,8.4,28.3c2.4-6.3,4.5-14.9,5-22.3c0.2-3,1.5-3.7,3.5-2.1
		c5.6,4.6,14.9,13.5,20.8,19.5c2.8,2.8,1.9,8.4-2,7.2c-3.2-0.9-4.3-0.7-6.5,0.7c-4.6,2.8-10,5.1-14.5,6.7
		c6.3,8.6,14.1,14.6,25.4,18.8c1.7,0.7,2.2,3.7,0,5.3C501.4,159.3,499.7,166.9,498.8,187.8z M391.5,158.1c-0.6-12.3,5-18.6-1.3-34.6
		c-0.7-2.1,0.9-4.2,2.8-2.3c10.6,9.7,17.1,21.6,16.3,34.1C408.4,171.3,392.2,173.9,391.5,158.1z M470.6,33.5h-33.2
		c-0.2,6-0.2,12.3-0.2,19h33.6C470.8,45.8,470.8,39.3,470.6,33.5z M437.2,60.4c0,6.7,0,13.5,0.2,20.7h33c0.2-7,0.2-13.9,0.4-20.7
		H437.2z"/>
</g>
</svg>
