<!-- Generator: Adobe Illustrator 19.0.0, SVG Export Plug-In  -->
<svg version="1.1"
	 xmlns="http://www.w3.org/2000/svg" xmlns:xlink="http://www.w3.org/1999/xlink" xmlns:a="http://ns.adobe.com/AdobeSVGViewerExtensions/3.0/"
	 x="0px" y="0px" width="603px" height="108.7px" viewBox="0 0 603 108.7"
	 style="overflow:scroll;enable-background:new 0 0 603 108.7;" xml:space="preserve">
<defs>
</defs>
<g>
	<path d="M133.2,30.6h-15.7c0,3.9,0,7.9,0.1,11.9c0,5.4-2.4,7-8.3,7.8c-1.4,0.2-1.6,0-1.7-1.1c-0.6-5-0.8-5.5-6.7-8.2
		c-0.5-0.3-0.6-1.5,0.1-1.5c2.4,0.2,5.7,0.4,7.3,0.4c1,0,1.3-0.5,1.3-1.6c0-2.4,0.1-5,0.1-7.7H99.1c-1.8,0-3.6,0.1-4.5,0.5
		c-0.4,0.1-0.8-0.1-1-0.5c-0.2-0.5-0.5-1.6-0.6-2.2c-0.1-0.6,0.1-0.7,0.6-0.5c1.4,0.5,3.7,0.7,5.4,0.7h10.7c0-3,0-6.1,0-9.1h-8.3
		c-1.8,0-3.6,0.1-4.5,0.5c-0.4,0.1-0.8-0.1-1-0.5c-0.2-0.5-0.5-1.6-0.6-2.2c-0.1-0.6,0-0.7,0.6-0.5c1.4,0.5,3.7,0.7,5.4,0.7h8.3
		c0-2.4,0-4.8,0-7c-4.2,0.2-8.6,0.2-13.2,0.1c-1.1,0-1.3-1.3-0.1-1.5c9.9-2,19-5.5,23.1-8.4c0.6-0.5,0.6-0.6,1.2-0.2
		c2.4,1.6,5.4,3.7,7.8,5.6c1.2,1,0.8,2.6-0.7,2.2c-1.5-0.4-1.7-0.3-2.3-0.1c-2.5,0.7-5.2,1.2-8.1,1.6c0,2.5,0,5.1,0,7.8h3.6
		c0.4,0,0.7-0.2,1-0.5c1-1.5,2.1-3.1,3.2-4.6c0.3-0.4,0.8-0.4,1.1,0c1.6,1.6,3.4,3.6,5.1,5.6c0.5,0.6,0.4,1.6-0.4,1.6h-13.6
		c0,2.9,0,6,0,9.1h5.5c0.4,0,0.7-0.2,1-0.5c1-1.5,2.2-3.4,3.3-5c0.3-0.5,0.8-0.3,1.1,0c1.5,1.5,3.7,3.9,5.3,6
		C134,29.5,134.1,30.6,133.2,30.6z"/>
	<path d="M146.1,41.9c1.4,6.1-3.8,8.2-6.5,2.4c-3-6.5-2.6-17.4,0-31c0.5-2.8,1.2-5.7,0.6-7.4c-0.3-1.1-0.4-1.2,0.5-1
		c3.3,0.9,6,4.5,5.6,7.9c-0.3,2.5-1.8,4.8-2.7,8.1c-0.9,3.3-2.4,11.1-1.1,14.7c0.3,0.8,0.6,0.7,1-0.1c1.4-3.3,3-7.7,4.7-11.7
		c0.3-0.8,0.5-0.7,0.4,0.3C146.1,36.8,145.5,39.4,146.1,41.9z M168.9,45.9c-3.4,0.7-7.9,0.6-10.7-0.1c-8.8-1.8-10.2-9.7-6.5-17.4
		c0.5-1,0.8-0.9,0.5,0.5c-1.1,4.5-0.3,9.5,6.9,9.6c4.7,0.1,7.8-1.4,9.2-1.6c2.4-0.5,5,1.6,5.1,3.9C173.4,44.1,171.4,45.5,168.9,45.9
		z M167.7,14.9c-2.2,0.3-3.6,1.2-8,4.1c-0.8,0.5-0.8,0.3-0.3-0.5c0.9-1.2,2.1-3,2.9-4.1c0.4-0.6,0.3-0.5-0.3-0.6
		c-5.7-0.2-8.2-1.2-9.4-4.9c-0.2-0.7-0.1-0.8,0.4-0.6c3.8,2.1,8.9-1.6,13.2-1.4c2.4,0.2,5,1.6,5.1,4.3
		C171.4,14.4,169.8,14.7,167.7,14.9z"/>
	<path d="M189.4,48c-8.4-4.4-4.8-19.3-4.7-37.8c0-2.5-0.3-4.7-1.7-5.6c-1.3-0.7-1.2-1.2,0-1.5c4.4-1.1,8.8,1.1,9.5,4.3
		c0.5,2.3-0.8,4.8-0.9,7c-0.3,9.7-4.1,23.6,2.1,27.3c6.4,3.7,16.9-2.2,21.7-10.7c0.7-1.3,1-1,0.6,0.5
		C211.8,46.5,199.4,53.3,189.4,48z"/>
	<path d="M233.4,18.9c-1.5,7.3-3.5,16.7-5.9,25.1c-1.1,4.1-3.8,5.7-5.2,4.4c-2.4-2.1-2.4-6.1-0.8-9.2c1.8-3.4,4.6-10.4,6.7-20.2
		c-3.4-0.5-6.3-2.3-7.1-6.1c-0.2-1.1-0.1-1.3,0.7-0.7c1.8,1.2,4.1,1.8,7.4,1.7c0.3-1.8,0.6-3.9,0.8-6.1c0.3-2.7,0.2-4.6-1-5.3
		c-0.9-0.6-0.8-0.7,0.1-1.2c2.9-1.5,8.3,0.1,8.3,3.2c0,1.9-1,1-1.9,4.8c-0.2,1.1-0.5,2.4-0.8,3.9c1.4-0.3,2.7-0.7,3.7-1.3
		c0.7-0.4,0.6-1,0.2-1.4c-0.4-0.4-0.6-0.6-1.1-1c-0.4-0.4-0.5-0.6,0.2-0.4c2.4,0.5,3.8-0.1,4.7-0.1c3.4-0.2,4.6,4.2,1.2,6.8
		C241.4,17.4,237.7,18.4,233.4,18.9z M237.5,44.8c-2.6-3.5-2.2-9.5,1.3-12.8c0.8-0.8,1-0.4,0.5,0.5c-1.1,2.3-1,5.3,0.2,6.4
		c3,2.6,7.2,1.9,12.2,0.8c5.8-1.2,7.1,7.1,1.8,8.4C249.9,49,241.1,49.5,237.5,44.8z M253.5,26.2c-1.4-0.7-3.7-0.3-7.8,1
		c-0.8,0.2-0.7-0.1-0.2-0.5c1.3-1.1,2.4-2.1,3.4-3.1c0.6-0.6,0.6-0.9,0-1.6c-1-1.2-3.6-2-6.7-1.4c-0.7,0.1-0.8-0.1-0.3-0.6
		c4.3-5.4,11.7-3.9,13.9-0.5C258.3,23.4,256.4,27.8,253.5,26.2z"/>
	<path d="M276.9,46.3c-1.2-0.1-1.1-0.3-0.1-0.6c11.9-2.6,16.5-11.2,16.6-21.1C293.5,13,286.7,6.6,278.7,8c2,1.9,2.7,4.4,2.6,7.3
		c-0.1,8.8-3.9,18-8.5,24.1c-4.6,6.1-9.8,6.6-11.7-1.6c-3.7-15.9,5.6-29.9,17-32.2c13.8-2.8,22.2,7.4,22.3,19.7
		C300.5,38.7,292.3,47.5,276.9,46.3z M278,8.2c-9.1,2.3-14.1,14.5-12.7,23.4c0.7,4.4,2.9,4.6,6,1c3.4-4,6.2-10.5,7.7-18
		C279.3,12.5,278.9,9.7,278,8.2z"/>
	<path d="M313,43.1c0.9,5.7-4.2,7.8-6.8,1.9c-3.5-7.8-2.7-19.8-0.8-30.9c0.6-3.7,1.5-7.9,0.9-10c-0.3-1.1-0.4-1.3,0.5-1.1
		c4,1,6,4.7,5.9,8.6c0,1.9-0.8,2.3-1.9,5.2c-2.8,7.9-3,14.2-2.1,18.9c0.3,1.5,0.8,1.5,1.3,0.2c1.3-3.4,3.1-8,4.4-11.5
		c0.4-1.1,0.7-0.9,0.5,0.2C312.8,37.2,312.2,38.2,313,43.1z M334.8,45.4c-0.6-1-1.3-2-2-2.9c-2.2,9.5-17.8,7.3-16.2-3.2
		c0.7-4.6,4.7-6.6,10.1-5.9c0-3.5-0.1-7.9-0.2-12.1c-6-0.1-9.8-2.4-10-6.9c0-1.1,0-1.2,0.5-0.2c0.9,1.7,4.4,2.5,9.4,2.1
		c-0.1-2.6-0.2-4.9-0.4-6.8c-0.1-2.2-0.6-4.4-2.4-4.8c-0.7-0.2-0.9-0.7,0.1-1.2c4-2.2,9.4,0.2,9.7,3.1c0.1,1.6-1,2.9-1,4.9
		c0,1.2,0,2.4,0,3.8c0.5-0.2,0.9-0.4,1.3-0.6c0.5-0.3,0.7-0.9,0.4-1.5c-0.2-0.5-0.6-1.2-1-1.8c-0.2-0.3-0.2-0.4,0.1-0.3
		c2.5,1.1,2.9,1.1,4.1,1c3-0.1,5.1,4.6,0.9,6.9c-1.5,0.9-3.4,1.5-5.8,1.9c0,4.6,0.2,9.6,0.5,14.2c2.8,1.2,5.1,2.9,6.6,5
		C343.1,45.3,337.4,49.9,334.8,45.4z M318.4,39.9c-0.7,4.9,8.7,6.8,8.4-2C322,35.7,318.8,37.2,318.4,39.9z"/>
	<path d="M381.7,48c-0.1,0.8-0.1,1.2-0.8,1.2c-5.4,0-13.5,0.1-18.7-0.7c-3.7-0.5-6.9-2.4-8.7-7.6c-1.9,2.8-4.1,5.2-5.6,6.6
		c-0.4,0.4-0.8,0.7-0.8,1.8c0,1-1,1.7-1.5,0.2c-0.8-2.7-1.6-6.3-2.2-9c-0.3-1-0.2-1.2,0.3-1.2c1,0,2.4-0.3,4.1-0.9
		c0.1-4.8,0.1-10.4,0-14.6h-0.4c-0.8,0-1.6,0.2-2.6,0.5c-0.4,0.1-0.7,0-0.9-0.5c-0.2-0.5-0.4-1.5-0.5-2.1c-0.1-0.6,0-0.8,0.6-0.5
		c1.1,0.5,2,0.7,2.7,0.7h0.4c0.4,0,0.5-0.3,0.7-0.5c0.8-1.1,1.8-2.3,2.5-3.2c0.3-0.4,0.8-0.5,1.3-0.1c1.5,1.1,2.9,2.4,4.2,3.6
		c0.9,0.9,0.9,1.8,0,2.6c-0.8,0.8-1.3,1-1.3,2c-0.1,2.7-0.1,7.7,0,11.4c0.4,0.4,0.7,0.8,1.1,1.1c3.3-3.9,5-8.5,5.2-16
		c-1.1,0.1-1.8,0.2-2.4,0.4c-0.4,0.1-0.7-0.1-0.9-0.5c-0.2-0.5-0.5-1.5-0.6-2.1c-0.1-0.6,0-0.7,0.5-0.5c1.4,0.5,3.7,0.7,5.4,0.7h6.8
		c0.5,0,0.7-0.2,1-0.5c0.6-0.5,1.4-1.2,2-1.8c0.3-0.3,0.7-0.3,1.3,0c0.8,0.5,2.5,1.7,3.4,2.5c1,0.8,0.9,1.9-0.2,2.4
		c-0.6,0.3-1,0.5-1,1.1c-0.1,0.5-0.2,1.2-0.4,1.9c0.3-0.1,0.5-0.2,0.6-0.3c0.5-0.6,1.1-1.2,1.7-1.8c0.4-0.4,0.8-0.5,1.4,0
		c0.8,0.6,2.5,1.8,3.4,2.7c0.7,0.7,0.9,1.9-0.1,2.5c-0.7,0.4-0.9,0.6-1,1.4c-0.1,1-0.3,3.2-0.7,4.8c-0.6,2.8-2.7,3.6-6.9,4
		c-1,0.1-1.3-0.2-1.3-0.9c-0.2-3.3-0.5-4.1-4.2-5.7c-0.5-0.2-0.6-1.4,0.2-1.3c1.9,0.2,3.7,0.5,4.8,0.5c0.7,0,1.2-0.2,1.4-1
		c0.2-1,0.3-1.9,0.5-3h-0.3c-0.5,0.9-1.6,1.1-3.4,1c-2-0.1-3.1-0.6-2.6-2.2c0.4-1.3,0.9-3.1,1.1-4.4h-2.3
		c-0.9,10.6-4.3,15.1-11,16.8c1.5,0.7,3.6,1,6.6,1.2c7.2,0.4,13.6,0.1,20.1-0.7c1-0.1,1.2,0.7,0.3,1.5C382,43.2,382,44.8,381.7,48z
		 M348.4,11.4c-1.2-3.5-0.3-5.9-2.9-8.7c-0.5-0.5-0.3-1.2,0.4-1.1c4.2,0.5,8.4,1.9,9.1,6.5C355.9,13.8,349.9,15.9,348.4,11.4z
		 M381.8,21c0,0.7-0.5,1-0.9,0.8c-3.4-1.2-6.8-4.3-8.7-10.5h-0.4c0,2,0.1,4.1,0.2,5.9c0,1.8-1,2.3-3.5,2.4c-2.9,0.2-3.5-0.5-3.4-2.2
		c0-0.7,0.1-1.5,0.1-2.2c-2.9,2.6-6.3,4-10.2,5.1c-0.7,0.2-1-0.5-0.4-1.1c2.5-2.3,5-5.2,6.6-7.9c-1.6,0-3,0.2-3.9,0.5
		c-0.4,0.1-0.7-0.1-0.9-0.5c-0.2-0.5-0.5-1.5-0.6-2.1c-0.1-0.6,0-0.7,0.5-0.5c1.4,0.5,3.7,0.7,5.4,0.7h3.6c0-0.9,0-1.9,0-2.8
		c-2.6,0.1-5.3,0.1-7.7,0c-0.8,0-1-1.1,0-1.2c7.1-1.5,13.3-3.5,15.6-4.9c0.7-0.4,0.5-0.6,1.2-0.2c1.1,0.7,4.1,2.8,5.1,3.7
		c1,0.8,0.8,2-0.4,1.7c-0.9-0.2-1-0.2-1.7-0.1c-1.3,0.3-3.3,0.5-5.6,0.7c0,1,0,2,0,3.1h3.1c0.5,0,0.7-0.2,1-0.5
		c0.7-0.9,1.5-1.9,2.2-2.6c0.4-0.4,0.7-0.3,1.2,0c0.8,0.6,2.7,2.3,3.9,3.6c0.3,0.3,0.6,1.5-0.4,1.5h-8.2c2.4,2.1,5.9,2.4,9.3,2.6
		c0.5,0,0.6,1,0.1,1.3C382.6,16,382.1,17.7,381.8,21z"/>
	<path d="M397.2,30.9c-0.5-2.7,1.4-4-0.9-7.2c0,8.2,0.1,17.3,0.3,23.8c0,1.8-0.9,2.6-3.8,2.8c-2.8,0.2-3.4-0.8-3.4-2.7
		c0.2-5.3,0.3-10,0.3-16c-1.3,1.1-2.8,2.1-4.2,3.1c-0.5,0.3-1-0.2-0.5-1c4.6-8.2,6.8-13.9,8-21.1h-2.5c-1.5,0-2.9,0.1-3.9,0.5
		c-0.4,0.1-0.8-0.1-1-0.5c-0.2-0.5-0.5-1.6-0.6-2.2c-0.1-0.6,0-0.7,0.6-0.5c0.9,0.3,2.4,0.6,3.8,0.7c0.1-3.4,0.1-5.7,0-7.5
		c-0.2-2.9-0.5-2.8,0.6-2.7c2.2,0.2,4.8,0.7,6.9,1.2c1.5,0.3,1,1.8,0.1,2.2c-0.9,0.5-1.2,0.7-1.2,1.5c0,1.2,0,2.9,0,4.3
		c0.5-0.7,1-1.4,1.5-1.9c0.3-0.4,0.7-0.5,1.1,0c1,1,2.3,2.3,3.5,3.8c1,1.2,0.9,2.4-0.5,2.8c-0.8,0.3-1.3,0.6-1.4,1.1
		c-0.9,2.6-1.9,4.9-3,7c3,1.6,5.2,4.2,5.2,7.1C402.3,33.8,397.9,35.2,397.2,30.9z M422.5,49.1c-2,0.3-4.1,0.3-6,0
		c-2.8-0.5-3.7-1.8-3.6-5.7c0.1-4.6,0.1-8.3,0-12.8h-1.1c-0.2,12.4-3.5,18.2-14.3,19.7c-0.8,0.1-1-0.8-0.4-1.2
		c5.3-3.5,8-7.4,8.3-17.1c-1.6,0.1-3-0.2-2.9-1.9c0.4-9.8,0.5-24.8,0-27.3c-0.4-2.2-0.2-2.2,0.6-1.9c2.8,1.1,6.7,2.9,6.7,2.9h4.9
		c0.5,0,0.7-0.2,0.9-0.4c0.7-0.7,1.9-1.8,2.7-2.6c0.3-0.3,0.8-0.3,1.2,0c1.2,0.9,2.9,2.3,4,3.3c0.9,0.8,0.9,1.7,0,2.5
		c-0.8,0.8-1,1-1,2c0,5.2,0,13.2,0.1,20.5c0,1.8-1,2.3-3.4,2.6c0,0-0.1,0-0.1,0c0,2.9,0,6.2,0,8.8c0,0.9,0.1,1.1,0.5,1.2
		c0.3,0.1,0.6,0.1,1,0c1-0.2,1.2-0.6,2.3-7.8c0.1-1,1-1,1,0.1c0,6.2,0,6.3,0.8,7C426.4,42.5,426.9,48.5,422.5,49.1z M415.8,5.8h-6.4
		c0,1.9,0,3.8,0,5.7h6.5C415.9,9.6,415.9,7.7,415.8,5.8z M409.3,13.4c0,2.1,0,4.2,0,6.3h6.5c0-2.1,0-4.2,0-6.3H409.3z M409.3,21.7
		c0,2.3,0,4.6,0,7h6.3c0-2.4,0.1-4.8,0.1-7H409.3z"/>
	<path d="M443.8,46.3c-1.2-0.1-1.1-0.3-0.1-0.6c11.9-2.6,16.5-11.2,16.6-21.1C460.4,13,453.6,6.6,445.7,8c2,1.9,2.7,4.4,2.6,7.3
		c-0.1,8.8-3.9,18-8.5,24.1c-4.6,6.1-9.8,6.6-11.7-1.6c-3.7-15.9,5.6-29.9,17-32.2c13.8-2.8,22.2,7.4,22.3,19.7
		C467.4,38.7,459.2,47.5,443.8,46.3z M444.9,8.2c-9.1,2.3-14.1,14.5-12.7,23.4c0.7,4.4,2.9,4.6,6,1c3.4-4,6.2-10.5,7.7-18
		C446.2,12.5,445.8,9.7,444.9,8.2z"/>
	<path d="M507.8,15.7c-1.5,1-1.6,1.4-1.6,2.7c0,5.3-0.5,15.1-1.2,21.2c-0.9,8.2-3.2,9.6-9.7,10.3c-0.8,0.1-1.2,0.1-1.3-1
		c-0.3-5.2-1.1-6.1-5.4-8.3c-0.8-0.4-0.6-1.8,0.2-1.6c2.1,0.2,4.5,0.6,6,0.6c1.5,0,2.2-0.2,2.5-2.8c0.6-5.2,1.2-15,1.5-22.4h-8.5
		c-0.4,7.4-1,13.5-2.1,17.2C484.7,44,478,47.7,469.1,50.3c-0.7,0.2-0.9-0.9-0.3-1.3c6.6-5.5,10.2-11.7,12-19.4
		c1-4.1,1.5-9.9,1.8-15.3h-5.7c-1.8,0-3.7,0.1-4.6,0.5c-0.4,0.1-0.7-0.1-0.9-0.5c-0.2-0.5-0.5-1.8-0.6-2.5c-0.1-0.6,0-0.7,0.6-0.5
		c1.4,0.5,3.8,0.7,5.5,0.7h5.8c0.1-3.9,0-7.3-0.1-9.3c-0.1-1.6-0.9-2.4,0.4-2.3c3.1,0.2,6.3,0.6,9.1,1.2c1.3,0.3,1.3,1.7,0,2.3
		c-1.1,0.6-1.4,0.8-1.4,1.6c0,2.2-0.1,4.4-0.2,6.5h7c0.5,0,0.7-0.1,1-0.3c1-1.1,2.4-2.3,3.4-3.3c0.4-0.3,0.8-0.3,1.4,0
		c1.6,1.1,3.4,2.8,4.7,4.1C508.8,13.3,509,14.9,507.8,15.7z"/>
	<path d="M19.9,69.1h-9.5c0,2.2,0,4.4-0.1,6.7h1.2c0.5,0,0.6-0.2,0.9-0.5c0.6-0.9,1.6-2,2.3-2.8c0.3-0.3,0.8-0.4,1.3,0
		c1.1,0.9,2.8,2.6,3.6,3.3c0.8,0.8,0.7,2.1-0.1,2.9c-0.6,0.6-0.9,1-0.9,2.3c0,4.8-0.3,11.4-0.7,16c-0.5,6.2-1,8.3-6.8,9.3
		c-1,0.2-1-0.2-1.1-0.9c-0.5-4.7-0.5-5.3-3-7c-1.6,3.7-3.8,6.5-6.2,8.3c-0.6,0.5-1,0.1-0.7-0.7c1.6-5.1,2.4-10.1,3.1-16.2
		C3.8,84.2,4,77,4,69.1c-0.9,0.1-1.8,0.2-2.4,0.4c-0.4,0.1-0.7-0.1-0.9-0.5c-0.2-0.5-0.5-1.5-0.6-2.1c-0.1-0.7,0-0.7,0.6-0.5
		c1.3,0.5,3.4,0.7,4.9,0.7H6c0.1-3.6,0.1-6.5-0.1-8c-0.3-2.3-0.5-2.3,0.6-2.2c2.4,0.3,5.2,0.6,7.6,1.1c1.4,0.2,1.1,1.9,0.1,2.3
		c-0.9,0.3-1.1,0.6-1.1,1.4c0,1.5,0,3.8,0,5.4c0.3,0,0.5-0.2,0.7-0.5c0.5-1,1.2-2.2,2.2-3.5c0.3-0.4,0.6-0.4,1,0
		c1.3,1.4,2.3,2.7,3.5,4.4C20.9,68.2,20.9,69.1,19.9,69.1z M10.3,77.9c-0.2,6.2-0.8,12.4-1.9,16.6c-0.3,1-0.5,1.9-0.9,2.7
		c0.6,0.1,1.4,0.1,2,0.2c1.5,0.1,1.8-0.2,2-2.1c0.5-4.6,1-12.5,1-17.4H10.3z M40.3,98.7c-1.9,1-2.1,2.9-2.7,7.6
		c-0.1,0.7-0.7,0.8-1.3,0.4c-2.9-2-5.5-4.5-7.6-7.9c-3.3,3.9-7.3,6.5-12.4,8.1c-1.1,0.3-1.1-0.8-0.5-1.4c4.3-3.9,7.5-8.3,9.8-13.4
		c-1.2-3.5-1.8-7.8-2.3-12.7c-1,1.8-2.1,3.4-3.2,4.6c-0.6,0.7-1.2,0.6-1-0.3c2-8,2.9-18,2.7-25.8c0-0.9-0.3-1.1,0.6-1
		c2.7,0.3,5.1,0.6,8.1,1.3c0.9,0.2,1.1,1.6,0,2.1c-1.1,0.3-1.3,0.6-1.4,1.2c-0.4,2.4-0.9,4.7-1.5,6.9h3.9c0.4,0,0.7-0.1,1-0.5
		c0.7-1.2,1.6-2.8,2.5-4.1c0.3-0.5,0.7-0.5,1.1,0c1.5,1.5,2.7,3.1,4.2,5c0.4,0.5,0.5,1.6-0.4,1.6h-2.4c-1,9.2-2.5,16.4-4.9,22
		c2.3,2.2,4.9,3.5,7.8,4.4C40.9,97.2,41,98.3,40.3,98.7z M27.1,70.7c-0.7,2.2-1.5,4.2-2.4,6.1c0.8,3.7,1.9,6.8,3.1,9.4
		c1.3-4.6,2.1-9.7,2.4-15.5H27.1z"/>
	<path d="M62.5,84.8c-0.5-0.2-0.9-0.3-1.2-0.1c0,4.9,0,10.4,0.1,16.2c0,3.3-1.4,5.2-6.5,6.1c-1,0.2-1.3,0-1.4-1
		c-0.3-4-0.8-5.1-4-6.7c-0.8-0.4-0.5-1.3,0.1-1.2c1.7,0.2,3,0.2,4.4,0.2c0.9,0,1-0.5,1-1.5c0-1.2,0-2.5,0-3.8
		c-3.4,3.6-7.7,6.6-12.7,8.8c-0.5,0.2-0.9-0.7-0.4-1.2c4.3-4.5,8.6-9.9,11.9-15.4c-2.9,2-5.7,3.4-8.6,4.4c-0.4,0.2-0.5,0.4-0.6,1.2
		c-0.1,1.2-1.1,1.4-1.4,0.2c-0.6-2.8-1.1-5.7-1.4-8c-0.1-1-0.2-1,1-1c0.5,0,1,0,1.5,0c0-6.7,0.1-16.7-0.2-18.8
		c-0.4-2.2-0.2-2,0.6-1.7c1.4,0.6,3,1.3,4.3,1.9c0.1-2.2,0.1-4.3,0-5.6c-0.1-0.6-0.2-0.9,0.8-0.8c2.2,0.2,4.8,0.6,7,1
		c1,0.2,1,1.6,0,1.8c-0.9,0.2-1,0.3-1.3,0.6c-1.2,1.5-2.4,2.8-3.7,3.9h2c0.4,0,0.7-0.2,0.9-0.3c0.8-0.8,1.7-1.8,2.5-2.7
		c0.3-0.3,0.8-0.3,1.2,0c1.2,0.9,2.8,2,3.9,3.1c0.8,0.7,1,1.8-0.2,2.6c-0.6,0.5-0.9,0.7-0.9,1.5c0,2.5,0,5.3-0.1,8.6
		c0.8,2.1,1.5,4.2,2,5.8C63.8,84.6,63.3,85.1,62.5,84.8z M55,66.3h-4.4c0,0.9,0,2,0,3.2h4.6C55,68.5,55,67.4,55,66.3z M55.1,71.6
		h-4.6c0,1.2,0,2.4,0,3.6h4.6C55.1,74,55.1,72.8,55.1,71.6z M55.1,77.2h-4.6c0,1.5,0,2.9,0,4.4c1.5-0.1,3.1-0.3,4.6-0.6
		C55.1,79.7,55.1,78.4,55.1,77.2z M82.3,70.9h-4.7c0,10,0,21.9,0.1,29.5c0,3.8-1.9,6-7.8,6.5c-0.7,0.1-1-0.2-1.1-0.7
		c-0.5-5.6-1.1-6.3-5.3-8.6c-0.5-0.3-0.6-1.4,0.1-1.2c2.3,0.3,4.6,0.5,5.9,0.5c0.8,0,1.1-0.7,1.1-1.5c0.1-4.7,0.2-15.7,0.1-24.4
		h-3.3c-1.8,0-3.6,0.1-4.5,0.5c-0.4,0.1-0.8-0.1-1-0.5c-0.2-0.5-0.5-1.6-0.6-2.2c-0.1-0.6,0-0.7,0.6-0.5c1.4,0.5,3.7,0.7,5.4,0.7
		h3.3c0-4.9-0.1-8.7-0.2-9.8c-0.2-2-0.5-2.3,0.5-2.2c2.5,0.3,5.2,0.7,7.6,1.1c1,0.2,1.2,1.6,0,2.1c-0.7,0.3-1,0.7-1,1.2
		c0,1.9,0,4,0,6.3c0.5-1.2,0.9-2.4,1.5-3.7c0.2-0.4,0.8-0.4,1,0c0.8,1.3,1.8,3.3,2.5,5.4C82.8,69.9,83,70.9,82.3,70.9z M63.8,85.4
		c-0.6-4.3,1.5-5.7-0.6-10.4c-0.2-0.6,0.1-1.1,0.7-0.8c3.9,2.1,6.7,5.2,6.5,9.9C70.3,89.3,64.4,90.1,63.8,85.4z"/>
	<path d="M121.9,102.8c0,0.6-0.7,0.6-1,0.3c-4.5-3.6-6-10.3-6.8-17.7c0,5.4,0,11.5,0.1,14.9c0.1,5.1-1.8,6.1-6.1,6.7
		c-0.9,0.1-1.2,0-1.2-0.9c-0.3-4.4-0.5-5.2-3.2-6.7c-0.5-0.3-0.5-1.4,0.1-1.3c0.8,0.1,1.8,0.2,3,0.2c0.9,0,1-0.2,1-1.5
		c0.1-2.2,0.1-6,0.1-9.8c-0.3,0.3-0.5,0.6-0.5,1c-1.2,6.7-4.1,12.4-10.1,15.1c-0.7,0.3-0.9-0.4-0.4-1.1c3.1-4.8,4.5-10.9,5-15.9
		h-0.8c-0.9,0-1.4,0.1-2.2,0.4c-0.4,0.1-0.7-0.1-0.9-0.5c-0.1-0.3-0.3-0.9-0.5-1.5c-0.8,0-1.6-0.5-2-1.6c-0.2-0.6-0.2-1.1-0.3-1.6
		c-0.1,0.1-0.3,0.2-0.4,0.2c0,8.1,0,16.6,0.2,22.8c0,1.9-0.6,2.6-3.4,2.8c-2.4,0.2-3.1-0.6-3-2.4c0.1-3.5,0.2-7.4,0.2-11.3
		c-1,3.9-2.4,7.8-4.6,11c-0.4,0.6-0.9,0.4-0.8-0.5c1-5.3,1.5-11.5,1.4-15.6c0-0.8-0.3-1.2,0.4-1.1c1.2,0.2,2.4,0.6,3.7,1
		c0-1.4,0-2.7,0-4c-0.8,0.3-1.5,0.5-2.1,0.7c-0.5,0.1-0.7,0.3-0.9,1c-0.2,1-1,1.2-1.3,0.2c-0.5-2-1-4.9-1.3-6.9
		c-0.2-1.2,0.1-0.9,0.8-0.8c0.9,0.1,1.8,0.2,2.9,0.3c0.7-1.2,1.4-2.6,2-3.8c-1.1,0.5-2.4,0.3-2.9-1c-1.5-2.9,0.5-5.2-2.1-8.6
		c-0.4-0.5-0.1-1.1,0.4-1c0.9,0.2,1.7,0.5,2.4,0.8c0.5-2.3,1-5.3,1-7.1c0-0.7-0.2-1,0.8-0.9c2,0.4,4.7,1,6.7,1.6
		c1.2,0.3,1.1,1.6,0,1.9c-0.7,0.2-0.9,0.1-1.1,0.4c-1.4,1.9-3.3,3.8-5.3,5.2c1.3,1,2.1,2.3,2.3,3.9c0.9-2.3,1.5-4.3,1.8-5.9
		c0.1-1,0.1-1.1,0.6-1c2,0.7,4.3,1.6,6.1,2.6c1,0.6,1,1.9-0.2,2c-0.8,0.1-1,0.1-1.2,0.5c-2,3.9-4.8,7.4-8.3,10.4
		c1.8,0.1,3.7,0.1,5.5-0.1c0-1.1-0.2-2.3-1.1-3.5c-0.3-0.4,0-1,0.5-0.7c2.6,1.1,5.4,3.4,5.3,7.1c0,1.1-0.5,1.9-1,2.5
		c0.6,0.2,1.2,0.3,1.8,0.3h0.3c0.3,0,0.5-0.1,0.7-0.4c0.6-0.7,1.5-1.8,2.1-2.4c0.3-0.3,0.8-0.2,1.1,0c0.8,0.6,1.9,1.6,2.8,2.6
		c0-1.9,0-3.8-0.1-5.3h-1.3c-0.4,1.2-1.7,1.6-3.3,1.8c-1.8,0.1-3.3,0-3.2-1.9c0.4-6.6,0.5-14.6,0-17c-0.4-1.5-0.2-1.6,0.6-1.3
		c1.9,0.8,4.2,1.8,5.7,2.4c0.1-2,0.1-3.7,0-4.8c-0.1-0.7-0.2-1,0.7-0.9c2.1,0.2,4.7,0.5,7.5,1c1.4,0.2,1.2,1.7,0,1.9
		c-0.9,0.2-1,0.5-1.4,0.7c-1,0.9-2.5,1.9-3.6,2.6h4c0.5,0,0.6-0.1,0.8-0.3c0.8-0.8,1.7-1.8,2.7-2.7c0.3-0.3,0.8-0.3,1.2,0
		c1.2,0.9,2.8,2,4.1,3.3c0.6,0.6,0.7,1.6-0.1,2.3c-0.6,0.6-1,0.7-1,1.8c0,2.8,0,6,0.1,9.5c0.1,2.3-1.4,2.7-3.3,2.8
		c-1.7,0.2-3,0.1-3.3-1.2h-0.7c0,0,0,0.6,0,0.7c0.5,2.7,1.1,4.9,2,6.9c0.6-1.5,1.1-3.6,1.2-5.4c0-0.7,0.4-0.9,0.9-0.5
		c1.4,1.1,3.6,3.3,5.1,4.8c0.7,0.7,0.5,2-0.5,1.8c-0.8-0.2-1-0.2-1.6,0.2c-1.1,0.7-2.4,1.2-3.5,1.6c1.5,2.1,3.4,3.6,6.2,4.6
		c0.4,0.2,0.5,0.9,0,1.3C122.5,95.8,122.1,97.7,121.9,102.8z M95.7,95.5c-0.1-3,1.2-4.5-0.3-8.4c-0.2-0.5,0.2-1,0.7-0.6
		c2.6,2.4,4.2,5.3,4,8.3C99.8,98.7,95.8,99.4,95.7,95.5z M115,65.1h-8.1c0,1.5,0,3,0,4.6h8.2C115,68.1,115,66.5,115,65.1z
		 M106.8,71.6c0,1.6,0,3.3,0,5h8.1c0-1.7,0-3.4,0.1-5H106.8z"/>
	<path d="M163.6,106.3c0,0.6-0.5,0.8-0.9,0.6c-4.3-1.8-8.1-5.3-9.3-12c-2,7-7.6,11.3-15.6,12.1c-0.8,0.1-1-0.9-0.4-1.2
		c5.5-3.1,7.8-6.5,9.4-10.7c0.5-1.2,0.8-2.6,1.1-4.1h-1.6c0,0.1,0,0.6,0,0.7c0,1.5-0.9,2-2.9,2.2c-1.9,0.2-3.2-0.3-3.1-1.8
		c0.2-2.7,0.3-5.7,0.3-8.5c-0.8,2.9-3.8,2.9-4-0.2c-0.2-2.7,1.3-3.6-0.6-7.6c0,9.3,0,20.9,0.2,29.3c0,1.3-1.2,1.9-3.3,2
		c-2.2,0.1-3.2-0.2-3.2-1.9c0.1-4.4,0.2-10.2,0.3-16.2c-1.6,2.7-2.9,4.4-4.4,6c-0.5,0.5-0.9,0.1-0.7-0.6c2.2-6.9,3.5-13.4,4.7-22.9
		c-1,0.1-2.2,0.2-3,0.5c-0.4,0.2-0.7,0-0.9-0.5c-0.2-0.6-0.5-1.4-0.6-2.2c-0.1-0.6,0-0.7,0.5-0.5c1.3,0.5,3.1,0.7,4.4,0.7
		c0-5.6-0.1-9.8-0.3-10.8c-0.2-1.5-0.2-1.6,0.5-1.5c1.8,0.2,4.6,0.7,6.7,1.2c1,0.3,1.2,1.6,0,2c-0.8,0.3-0.9,0.6-0.9,1.2
		c0,1.5,0,4.3-0.1,7.7c0.5-1.2,1.2-3.1,1.7-4.2c0.2-0.3,0.7-0.5,0.9,0c0.7,1.4,1.9,3.5,2.5,5c2.8-4,4.7-8.6,5.2-12.5
		c0.1-0.7,0.4-0.8,1.1-0.6c2,0.5,5.1,1.1,7.4,1.8c1.1,0.3,1.4,1.9-0.4,2.2c-0.4,0.1-0.7,0.1-1,0.2c3.3,3.3,7.5,4.1,12,4.1
		c0.4-0.1,0.5,0.9,0,1.3c-1.5,1.3-1.9,3-2,7.8c0,0.6-0.5,0.9-0.9,0.7c-3.9-1.6-8.1-6.1-10-12.2c-1.6,3.4-3.8,6.2-6.5,8.3
		c1.2,0.3,2.4,0.4,3.4,0.4h1c0.2,0,0.5-0.1,0.7-0.4c0.6-0.9,1.4-2.2,2.1-3.2c0.2-0.3,0.6-0.4,1,0c1,1.1,2.4,2.8,3.5,4.4
		c0.4,0.5,0.3,1.2-0.4,1.2h-2.8c0,1.5,0,3,0,4.4h1.2c0.4,0,0.6-0.1,0.8-0.3c0.7-1,1.3-1.8,2-2.6c0.3-0.3,0.7-0.3,1.1,0
		c1.2,0.8,2.9,2.1,4.2,3.3c0.5,0.6,0.7,1.6-0.1,2.3c-0.8,0.6-1.1,0.7-1.1,1.5c0,2.2,0,5.3,0.1,8.7c0,1.6-1,2.2-3.3,2.4
		c-1.8,0.2-2.8-0.1-2.8-1.5c0-0.1,0-0.6,0-0.7h-2.6c1.9,4.8,6.8,6.3,11.5,6.3c0.6,0,0.8,1,0,1.4C164.2,99.7,164,101.5,163.6,106.3z
		 M148.5,73.5c-0.9,0.1-1.9,0.2-2.4,0.4c-0.4,0.1-0.7-0.1-0.9-0.5c-0.1-0.3-0.3-0.8-0.4-1.3c-1.9,1.2-4,2.1-6.3,2.8
		c-0.6,0.1-0.8-0.5-0.4-1c0.8-0.8,1.5-1.6,2.2-2.5h-4.2c0,0.8,0,1.6,0,2.6c2.4,1.5,4,3.6,4.5,6c0-1.6-0.1-2.9-0.3-3.7
		c-0.2-1.4,0-1.5,0.5-1.3c3,1.2,6,3,6,3h1.7C148.6,76.5,148.5,75,148.5,73.5z M146.4,79.9c-0.1,2.8-0.1,5.7,0,9.1h1.9
		c0.3-2.7,0.4-5.7,0.4-9.1H146.4z M154.6,79.9c0,3.3-0.1,6.3-0.3,9.1h2.6c0.1-3.2,0.1-6.2,0-9.1H154.6z"/>
	<path d="M207,105.1H173c-1.8,0-3.6,0.1-4.5,0.5c-0.4,0.1-0.8-0.1-1-0.5c-0.2-0.5-0.5-1.6-0.6-2.3c-0.1-0.6,0.1-0.7,0.6-0.5
		c1.4,0.5,3.5,0.7,5.4,0.7h1.2c0.2-7.5,0.4-20.4-0.1-23.7c-2,1-4.1,1.6-6.4,2.2c-0.8,0.2-0.9-0.7-0.3-1.2c4.8-4.2,8.6-9.4,10.9-15
		h-3.6c-1.8,0-3.6,0.1-4.5,0.5c-0.4,0.1-0.7-0.1-0.9-0.5c-0.2-0.5-0.5-1.6-0.6-2.2c-0.1-0.6,0-0.7,0.6-0.5c1.4,0.5,3.8,0.7,5.5,0.7
		h8.8c0-1.9-0.1-3.5-0.2-4.5c-0.2-1.6-0.4-1.9,0.7-1.8c2.2,0.2,5.2,0.6,7.8,1.1c1.4,0.2,1.2,1.8,0.1,2.2c-0.7,0.2-1.2,0.5-1.2,1.4
		c0,0.6,0,1.1,0,1.7h5.5c0.5,0,0.7-0.1,1-0.5c0.9-1.3,2-2.7,2.9-3.9c0.3-0.4,0.7-0.4,1.2,0c1.5,1.3,3.3,2.9,4.9,4.9
		c0.4,0.5,0.5,1.6-0.4,1.6h-12.8c3.6,4.1,7.9,5.2,14.6,5.4c0.7,0,0.8,1.1,0.2,1.5c-2,1.1-2.3,3.6-2.7,7.5c0,0.5-0.3,1.2-1,0.9
		c-6-2-10.2-6.1-12.8-15.3h-0.5c0,3.6,0.1,7.5,0.2,11.9c0.1,2-1.3,2.5-4,2.7c-2.5,0.2-3.7-0.4-3.6-2.3c0.1-2,0.2-4.3,0.3-6.5
		c-2.2,3.1-4.7,5.6-7.6,7.3c2.8,1.2,6.2,2.8,6.2,2.8h9.6c0.5,0,0.7-0.2,0.9-0.4c0.8-0.8,1.9-1.9,2.7-2.7c0.4-0.4,0.8-0.3,1.4,0
		c1.3,0.9,3.1,2.2,4.4,3.5c0.7,0.6,1.2,2.1,0.1,2.9c-0.9,0.6-1.2,0.9-1.2,2c0,3.6,0,11.8,0,16.6c0.6-1.2,1.7-3.2,2.6-4.9
		c0.3-0.5,0.7-0.5,1.1,0c1.3,1.5,2.9,3.6,4,5.3C208,104,208,105.1,207,105.1z M192.8,89.9h-11.4c0,1.6,0,3.3,0,5h11.5
		C192.8,93.3,192.8,91.6,192.8,89.9z M181.4,97c0,2.2,0,4.3,0.1,6h11.3c0-1.8,0.1-3.9,0.1-6H181.4z M192.7,83.2h-11.2
		c0,1.1,0,2.8,0,4.7h11.4C192.8,86,192.8,84.4,192.7,83.2z"/>
	<path d="M241.4,76c-4.5,2.7-11.9,5.4-19.9,6.6c-0.1,3.7-0.2,7.5-0.3,10.8c0,1.7,0.7,2.7,2.2,2.7c4,0.2,8.9,0,12.8-0.6
		c1.8-0.3,3.1-1.2,5.3-1.1c5.1,0.3,5.7,7.3,0.5,8.4c-3.7,0.9-15.3,1.7-20.5,0.6c-4.4-0.9-6.7-4-6.5-10.2c0.2-10.3,0-21.3-0.3-25.9
		c-0.2-3.5-0.5-4.5-2.2-5.2c-1-0.4-1.2-0.8-0.2-1.4c3.7-2.1,10.7,1.2,10.9,4.2c0.1,1.5-0.8,1.5-1,3.4c-0.4,3.8-0.6,8.6-0.8,13.4
		c5.6-3.4,11.3-8.3,14.1-11.6c0.9-1.1,1.2-2.6,0.2-4.1c-0.5-0.9-0.5-1.1,0.4-1.1c4.9,0.1,8.7,7.4,7.9,9.6
		C243.7,75.9,242.6,75.3,241.4,76z M244.1,66.4c-1.2-2.4-2.9-4-4.5-5.2c-0.7-0.6-0.7-0.7,0.1-1c2.5-0.6,5.4,0.2,6.8,2.4
		C249.2,66.5,245.6,69.3,244.1,66.4z M247.4,61.2c-1.2-1.8-3.2-3.2-5.1-4.2c-0.9-0.5-1-0.6-0.2-1c2.7-1.2,5.6-0.5,7.2,1
		C252.4,60.2,249.5,64.2,247.4,61.2z"/>
	<path d="M262.5,80.9c-2.2-2.8-6.1-5.8-9.6-7.4c-0.9-0.4-0.7-0.5,0.3-0.9c4.7-1.8,11.4-0.9,13.9,2.3C271.1,80,266.4,86,262.5,80.9z
		 M264.6,103.1c-2.2,1-1.9,2.2-3.4,2.6c-2.7,0.7-6.9-6-7.1-11.3c0-1.6,0.6-1.7,1.3-0.6c1.2,1.9,2.9,2.4,6.2,1.3
		c8-2.7,21.8-10.8,29.8-21.8c0.8-1.1,1-1,0.5,0.4C285.9,89.8,274.8,98.5,264.6,103.1z M269,69.5c-2.4-2.9-5.4-5.4-9.6-7.7
		c-0.8-0.5-0.7-0.6,0.2-0.9c5.7-1.8,11.2-0.5,13.7,2.4C277.3,67.8,272.4,73.8,269,69.5z M283.8,70.3c-1-2.6-2.5-4.5-3.9-6
		c-0.6-0.7-0.6-0.9,0.2-0.9c2.5-0.1,5.3,1.1,6.5,3.5C288.8,71.2,284.9,73.3,283.8,70.3z M287.5,65.6c-1-1.9-2.8-3.8-4.7-5
		c-0.9-0.6-0.8-0.7,0-1c2.8-0.8,5.7,0.3,7.1,2.2C292.7,65.5,289.3,69,287.5,65.6z"/>
	<path d="M323,76.2c-2.1,2.8-4.4,5.4-6.9,7.8c-0.1,11.7,0.7,15,0.4,18.8c-0.5,6-6.5,6.7-7.1-0.9c-0.2-2.3,0.4-3.1,0.5-5
		c0-2.7,0-4,0-7.4c-5,3.9-10.8,7.1-17.4,9.5c-1.1,0.4-1.1-0.1-0.1-0.7c6.4-4.4,12.4-10.1,17.3-16c-0.1-0.9-0.3-1.5-0.7-2
		c-0.5-0.7-0.4-1.1,0.4-1c0.7,0.1,1.6,0.2,2.4,0.3c1.9-2.6,3.5-5.1,4.9-7.5c0.3-0.5,0.1-0.9-0.4-0.7c-2.9,0.9-7.1,2.7-10.8,4.4
		c-1.8,0.8-2.1,2.3-3.4,2.3c-1.6,0-3.9-4.9-3.4-9c0.1-1.1,0.4-1,0.7-0.1c0.9,1.9,2.8,2.3,5.6,1.9c3.7-0.6,7.7-1.5,10.4-2.3
		c3.1-0.9,2.5-1.9,3.9-2.1c2.6-0.3,6.8,6,6.6,7.5C325.8,75.5,324.1,74.9,323,76.2z M310.4,64c-1.2-1.7-3.4-4.1-6.5-6.1
		c-0.9-0.6-0.6-0.6,0.2-0.8c3.3-0.9,8.3-0.3,10.4,1.4C319.2,62.2,314.3,69.3,310.4,64z M327.5,98c-3.3-2.2-2.2-8.1-8.6-13.4
		c-0.7-0.6-0.6-0.9,0.4-0.8c4.5,0.5,9.9,3.2,12,6C335.2,95.1,331.3,100.6,327.5,98z"/>
	<path d="M366.6,99.5c-1.9-4.1-3.6-8.4-8.3-14c-5.3,8.1-12.7,14.2-23.8,18c-1.2,0.4-1.3,0.2-0.1-0.7c11.9-9.3,20.4-21.9,23.4-35.4
		c0.2-0.8-0.1-0.8-0.7-0.7c-3.7,0.7-6.9,1.5-11,2.9c-2,0.7-2.2,2-3.2,2c-2.9,0-4.9-6-3.9-9.5c0.2-0.9,0.4-0.8,0.7,0
		c1,2.5,2.3,2.7,5.7,2.4c2.7-0.2,6-0.6,10.9-1.3c2-0.3,2.4-2,3.5-2.1c2.1-0.1,8.1,4.8,8,6.7c-0.1,1.7-1.8,1.1-2.5,3.3
		c-1.8,4.9-3.9,9.5-6.5,13.5c5.7,1.8,10.7,4.8,12.6,7C377.8,99.8,369.7,106.3,366.6,99.5z"/>
	<path d="M382.7,104.1c-1-3-3.4-7.4-6.2-9.8c-0.5-0.5-0.8-1.2,0.4-1c5.2,0.6,9.8,3.6,11.5,6.7C391.5,106,384.4,109.6,382.7,104.1z"
		/>
	<path d="M428.5,78.7c-0.2-0.9-0.3-1.8-0.3-2.7c-4.4,2.4-8.6,3.9-12.7,5c-0.4,0.1-0.5,0.3-0.7,0.8c3,1.5,6.2,3.3,6.2,3.3h3.5
		c0.5,0,0.7-0.2,0.9-0.5c0.8-1,1.7-2.3,2.5-3.2c0.3-0.4,0.9-0.4,1.4,0c1.3,1.1,3,2.7,4.4,4c0.7,0.7,1.2,1.8,0,2.7
		c-1,0.8-1.2,0.8-1.2,2.3c0,3.3,0,8.2,0.1,13.8c0,1.9-1.4,2.4-3.7,2.6c-2,0.2-3.5,0.1-3.4-2c0-0.7,0-1.5,0-2.2h-4.9
		c0,0.6,0,1.1,0,1.7c0,1.9-1.1,2.6-3.8,2.7c-2.2,0.2-3.6,0-3.5-2.2c0.4-8.3,0.5-18,0-21.5c-0.1-0.1-0.2-0.3-0.2-0.6
		c-0.5-2.3-0.9-5.1-1.3-7.5c-0.7,6-1.7,11.5-3.2,16c1.3,0.9,2.4,2.1,3.2,3.7c2.7,6-3.3,10-5.3,5c-0.3-0.7-0.5-1.5-0.8-2.2
		c-2.3,3.8-5.5,6.9-10.1,9.1c-0.6,0.3-1-0.6-0.5-1c3.7-4.4,6.2-9.2,7.7-14.3c-0.3-0.3-1-0.7-1.4-1.1c-0.1,0.5-0.1,0.9-0.2,1.4
		c-0.2,1.4-1.5,1.8-3.4,1.5c-2.4-0.3-2.9-1.2-2.6-2.4c1.2-6.3,2.5-14.1,3.1-20.1c-0.8,0-1.5,0.2-2.1,0.4c-0.4,0.1-0.8-0.1-1-0.5
		c-0.2-0.5-0.5-1.6-0.6-2.2c-0.1-0.6,0-0.7,0.6-0.5c0.9,0.3,2,0.6,3.4,0.7c0.5-5,0.8-9,0.7-10.9c-0.1-0.7-0.2-1.1,0.5-1
		c2.2,0.3,4.5,0.9,6.7,1.4c1.1,0.3,1.1,1.7,0,2.2c-1,0.3-1.1,0.5-1.2,1.1c-0.2,1.9-0.5,4.4-0.8,7.3h0.9c0.5,0,0.8-0.1,1-0.3
		c0.6-1,1.4-1.9,2-2.7c0.3-0.3,0.7-0.4,1.3,0.1c1.3,1.1,2.8,2.6,3.9,3.7c0.9,0.9,0.6,2-0.1,2.6c-0.4,0.3-0.6,0.5-0.8,0.6
		c0.7,0.1,1.5,0.1,2.2,0.2c1.6-5,2.8-11.5,2.9-15.1c0-0.6-0.1-1,0.7-0.8c2.5,0.6,5.9,1.5,8.1,2.2c1.4,0.4,1.1,1.9,0,2
		c-0.9,0.1-1.1,0.2-1.5,1c-1.6,3.6-3.9,7.5-7.1,10.9c2.9,0.1,6.3,0,10-0.2c-0.2-2.1-0.8-4.2-2.4-6.7c-0.5-0.7,0-1.5,0.7-1.1
		c4,2.2,8,5.2,9.1,10.2C436.7,82.4,429.7,84.8,428.5,78.7z M404.2,70.9c-0.7,5.7-1.5,12.1-2.4,17.7c0.5,0.1,1.3,0.2,1.9,0.3
		c1.5-6.2,2-12.2,2.5-18.1H404.2z M420.6,87.2c-0.1,3.6-0.1,8.2,0,13.4h4.9c0.1-5,0.2-9.8,0-13.4H420.6z"/>
	<path d="M467,103.2c-1.6-1.8-3.6-3.5-5.6-4.9c0,0.1,0,0.2,0,0.3c-0.5,10.8-22.1,10.1-20.6-2.1c0.8-6.1,7.2-7.7,13.2-7.1
		c0-1.5-0.1-3.2-0.1-4.9c-7-0.2-11.9-2.7-11.9-8.5c0-0.7,0-0.8,0.5-0.2c1.3,1.8,5.2,2.9,11.3,2.9c0-1.8,0-3.6-0.1-5.2
		c-4.5-0.1-10-1.2-10.6-7.2c-0.1-0.7,0-0.8,0.5-0.2c1.4,1.5,5.5,2.1,10,2c0-1.1,0-1.9,0-2.4c0-2.8-0.5-5.7-2.2-6.1
		c-0.8-0.2-0.8-0.6,0-1.2c2.5-2.1,10.7-0.5,10.1,4.1c-0.2,1.2-0.5,0.8-0.9,3.9c0,0.3-0.1,0.6-0.1,0.9c3.3-0.9,4.5-2.1,5.4-2.2
		c4.7-0.8,7.1,3.7,1.1,6.5c-1.7,0.8-4.2,1.4-7.1,1.7c-0.1,1.8-0.1,3.5-0.1,5c1.7-0.3,2.8-0.7,3.5-1c0.8-0.4,1-0.7,0.8-1.2
		c-0.2-0.6-0.7-1.2-1.2-1.9c-0.5-0.9-0.2-0.9,0.5-0.4c3.2,2.1,3.7,1.4,5.2,1.4c2.8,0,4.9,3.7,0.7,6.5c-1.7,1.2-5.5,2.2-9.4,2.7
		c0.2,2.6,0.5,4.8,0.7,6.8c3.4,1.2,7,3.1,9.5,5.4C475,100.7,471.3,107.9,467,103.2z M454.2,94.4c-5.3-1.9-11-1.5-11.5,2.3
		c-0.8,6.1,11.7,6.1,11.5-0.2C454.3,96,454.2,95.3,454.2,94.4z"/>
	<path d="M488.6,107.6c-1,0-1-0.3-0.1-0.7c13.7-4.6,16-14.3,16.3-27.4c0.5-21.3-5.6-16.2-8.3-8.5c-1.8,5-3.2,10.2-3,16.6
		c0.2,8-6.8,8-8.6-0.1c-1.5-7.2-0.3-14,1-21.5c0.5-2.9,0.2-5.3-0.7-6.7c-0.4-0.7-0.5-0.8,0.4-0.9c4.8-0.7,7.9,3.5,7.4,7.1
		c-0.2,1.7-0.8,2.2-1.5,4.9c-1.3,4.7-1.9,8.9-1.5,12.2c0.2,1.5,0.8,1.4,1.1,0c1.2-5.4,2.4-9,3.6-12.4c5.6-15.7,16.8-13.6,17.6,7.4
		C513,93.6,507.9,107.3,488.6,107.6z"/>
	<path d="M550.5,103.2c-1.6-1.8-3.6-3.5-5.6-4.9c0,0.1,0,0.2,0,0.3c-0.5,10.8-22.1,10.1-20.6-2.1c0.8-6.1,7.2-7.7,13.2-7.1
		c0-1.5-0.1-3.2-0.1-4.9c-7-0.2-11.9-2.7-11.9-8.5c0-0.7,0-0.8,0.5-0.2c1.3,1.8,5.2,2.9,11.3,2.9c0-1.8,0-3.6-0.1-5.2
		c-4.5-0.1-10-1.2-10.6-7.2c-0.1-0.7,0-0.8,0.5-0.2c1.4,1.5,5.5,2.1,10,2c0-1.1,0-1.9,0-2.4c0-2.8-0.5-5.7-2.2-6.1
		c-0.8-0.2-0.8-0.6,0-1.2c2.5-2.1,10.7-0.5,10.1,4.1c-0.2,1.2-0.5,0.8-0.9,3.9c0,0.3-0.1,0.6-0.1,0.9c3.3-0.9,4.5-2.1,5.4-2.2
		c4.7-0.8,7.1,3.7,1.1,6.5c-1.7,0.8-4.2,1.4-7.1,1.7c-0.1,1.8-0.1,3.5-0.1,5c1.7-0.3,2.8-0.7,3.5-1c0.8-0.4,1-0.7,0.8-1.2
		c-0.2-0.6-0.7-1.2-1.2-1.9c-0.5-0.9-0.2-0.9,0.5-0.4c3.2,2.1,3.7,1.4,5.2,1.4c2.8,0,4.9,3.7,0.7,6.5c-1.7,1.2-5.5,2.2-9.4,2.7
		c0.2,2.6,0.5,4.8,0.7,6.8c3.4,1.2,7,3.1,9.5,5.4C558.5,100.7,554.8,107.9,550.5,103.2z M537.7,94.4c-5.4-1.9-11-1.5-11.5,2.3
		c-0.8,6.1,11.7,6.1,11.5-0.2C537.7,96,537.7,95.3,537.7,94.4z"/>
	<path d="M598.4,72.5c-4.2-1.1-7.2-1.6-11.2-1.6c-0.2,3.6-0.3,6.4-0.2,9c5,11.5-1.6,26-15.8,28.7c-1.2,0.2-1.5,0-0.3-0.8
		c5.4-3.5,8.9-8.4,10.1-14.3c-4.7,1.5-9.8-1.2-9.7-8.7c0.1-7.4,4.9-10.1,9.3-9c0-1-0.1-2.6-0.1-4.4c-3.4,0.3-6.9,1.2-9.7,2.8
		c-2.6,1.5-3.9,2.1-5.8,1.7c-2.1-0.4-4.6-3.7-3.7-8.3c0.2-0.9,0.4-1,1-0.2c1,1.2,1.8,1.6,6.3,1.2c2.7-0.2,7.7-0.7,11.8-1.1
		c0-1.2-0.1-2.3-0.1-3.4c-0.2-3.6-0.5-4.5-2.2-5.2c-0.8-0.3-0.8-0.7-0.1-1.1c4-2.7,11.2,0.4,10.7,4.1c-0.2,1.4-1,1.1-1.2,5
		c1.1-0.1,2-0.2,2.8-0.3c2.3-0.2,2.2-0.7,0.6-2.1c-1-0.9-0.9-1.1,0.4-0.6c1.3,0.6,4.3,1.5,6.3,1.6c1.9,0.1,3.9,1,4.6,2.2
		C604.3,71.4,602.2,73.5,598.4,72.5z M574.4,82.8c0,2.9,1.2,4.7,3.6,4.5c1.8-0.2,3.2-2.4,2.3-6.5C578.8,77.1,574.5,78.2,574.4,82.8z
		"/>
</g>
</svg>
