<!-- Generator: Adobe Illustrator 19.0.0, SVG Export Plug-In  -->
<svg version="1.1"
	 xmlns="http://www.w3.org/2000/svg" xmlns:xlink="http://www.w3.org/1999/xlink" xmlns:a="http://ns.adobe.com/AdobeSVGViewerExtensions/3.0/"
	 x="0px" y="0px" width="476.4px" height="169.2px" viewBox="0 0 476.4 169.2"
	 style="overflow:scroll;enable-background:new 0 0 476.4 169.2;" xml:space="preserve">
<defs>
</defs>
<g>
	<path d="M73.8,46.9c-2.3,2.1-2.1,3.6-2.3,7.8c-0.5,22.2-2,59.3-4.1,81c-1.7,19.1-6.3,24.3-25.1,29.4c-2.9,0.8-4-0.6-4.1-3.4
		c-0.8-13.6-2.9-20.3-10.1-24.8c-6,14-14.8,24.7-25.5,31.5c-2.3,1.5-3.2-0.8-2.1-3.4c7.5-18.9,12.7-36.3,15.3-62.1
		c1.7-16.6,3.1-39,3.5-58.7c-4.6,0.2-9.3,0.4-11.8,1.3c-1.2,0.4-2.6-0.2-3.2-1.7c-0.6-1.5-1.7-5.4-2.1-7.5c-0.5-2.1,0.2-2.3,2-1.7
		c3.8,1.5,9.3,2.3,15.3,2.7c0.3-13.4,0-24.5-0.6-30.6c-0.6-5.4-1.8-7.1,1.5-6.7c8.6,1.1,18.3,2.9,25.4,4.4c4,1,4.3,5.9,0.2,7.8
		c-3.4,1.3-4.3,2.1-4.3,5.7c0,6.3,0,12.8-0.2,19.3h4.4c1.7,0,2.3-0.6,2.9-1.5c1.7-2.5,5.2-7.3,8.1-10.9c1.1-1.3,2.9-1.3,4.6,0
		c3.5,3.1,8.6,7.8,13,12.2C76.9,39.4,77.8,43.1,73.8,46.9z M41.3,44.2c-0.5,23.9-2.1,48.4-6.6,71.1c-1.1,5.7-2.6,11.1-4.4,16.1
		c3.2,0.6,6.3,0.8,9.3,1c4.3,0.2,5.7-1.5,6.4-7.1c2.4-22.4,4-57.9,3.8-81H41.3z M131.9,45.3c-0.6,19.5-0.6,72.4,0.3,107.2
		c0.2,5-3.7,7.3-11.9,8c-7.8,0.8-10.9-1-10.7-7.3c0-3.1,0.2-6.1,0.2-9.6H98.6c0,4.8,0,9.4,0.2,13.6c0.2,5.5-2.9,7.3-11.2,8
		c-7.5,1-11.9-0.4-11.6-7.3c1.8-33.6,2.6-126.9-0.2-135.7c-1.4-4.6,0.6-4.4,2.3-3.6c8.7,4,21.7,11.5,21.7,11.5h6.9
		c1.5,0,2.4-0.8,2.9-1.5c2-2.7,4.7-6.1,7.3-9.6c1.1-1.5,2.6-1.7,4.4-0.2c4,3.1,10.2,8.2,14.2,11.9c2.8,2.5,2.4,5.9,0,7.8
		C132.4,41.3,132.1,41.9,131.9,45.3z M109.9,36.9H98.8c-0.3,18-0.5,64-0.2,100h11.3C110.4,102.5,110.4,56.4,109.9,36.9z"/>
	<path d="M269.7,161.2c-0.3,2.7-0.3,4-2.8,4c-18,0-44.8,0.2-62.4-2.3c-12.4-1.7-23.4-9-29.2-26c-6.9,9.2-14.1,18-19.3,22.7
		c-1.4,1.3-2,2.5-2,5.9c-0.2,3.4-4.1,5.7-5.7,0.8c-2.8-9-5.2-21-7.2-30c-0.9-3.2-0.8-4,1.1-4c3.2-0.2,8.4-1.3,14.1-3.1
		c0.3-16.6,0.5-35.2,0.2-49.5h-1.7c-2.6,0-6.4,0.4-9.2,1.3c-1.2,0.4-2.4,0.2-3.1-1.5c-0.6-1.5-1.4-5-1.8-7.3c-0.5-2.1,0.2-2.5,2-1.5
		c3.8,1.7,7.5,2.3,9.9,2.3h1.2c1.2,0,1.8-1,2.3-1.5c2.6-3.6,6.4-8.2,9-11.1c1.1-1.3,2.8-1.3,4.4-0.2c4.9,3.4,10.4,8.4,14.5,12.4
		c3.1,3.1,3.1,5.9,0,8.8c-2.8,2.9-4.3,3.2-4.4,6.9c-0.3,9.4-0.3,26.6-0.2,39.2c5.5,5.9,13.8,8.2,28.9,9c24.2,1.3,44.8,0.4,66.7-2.5
		c3.2-0.4,4.1,2.5,1.1,5.2C270.2,144.7,270.8,150.5,269.7,161.2z M156.7,38.1c-3.7-11.9,1.8-18.5-9-29.6c-1.8-1.9-1.1-4.2,1.4-3.8
		c16.2,2.7,28.4,8.4,30.3,22.6C181.9,46.9,161.5,53.9,156.7,38.1z M274.1,25.9h-35.3c-0.2,3.8-0.2,8-0.3,12.6h4
		c1.4,0,2.3-0.6,2.9-1.1c2.4-2.5,5.5-5.9,8.4-8.6c1.1-1,2.6-1,4.1,0c4,2.5,9,6.5,13.5,10.7c2.3,2.1,2.6,5.5-0.3,7.5
		c-3.1,1.9-3.5,3.1-3.5,5.7c0,4.8,0,13.4,0.3,21.6c0.2,5.9-4.4,7.5-11.2,8c-6.3,0.6-10.2-0.6-10.4-5.2h-7.8c0.2,2.7,0.2,5.4,0.2,8.2
		c15,2.3,27.7,7.5,32.1,16.8c8.4,17.6-9.2,31.5-16.5,17.2c-4.4-8.2-4.4-19.9-15.4-27.5c0.2,12.2,0.2,24.1,0.5,34.6
		c0.2,5.7-3.5,7.5-11.9,8.2c-9.3,1.1-11.9-1.7-11.6-7.8c0.3-6.1,0.2-15.9,0.3-24.7c-8.4,10.9-20,18-33.3,22.7
		c-1.8,0.6-2.9-2.5-1.5-3.8c11-10.7,20.5-25.8,26.6-42.2c-1.8,2.5-5.4,2.7-9.6,3.1c-7.2,0.6-11,0-10.7-5.5
		c1.1-18.7,1.1-35.6-0.5-42.8c-1.1-4.6,0-4.8,2.3-3.8c8.4,3.2,21.6,8.8,21.6,8.8h5.5c0-4.6-0.2-8.8-0.2-12.6h-15.9
		c-6,0-11.8,0.4-14.8,1.5c-1.2,0.4-2.8-0.2-3.4-1.7c-0.6-1.5-1.5-5.4-2-7.5c-0.5-2.1,0.3-2.3,2.1-1.7c4.6,1.7,12.4,2.5,18,2.5H216
		c-0.2-6.5-0.5-11.1-0.8-13.2c-1.1-5.7-0.9-5.9,2.1-5.5c7.3,0.8,17.9,2.3,25.4,3.8c4,1,4.3,5.7,0,7.5c-2.8,1-3.7,2.1-3.8,4.6
		c0,1,0,1.9-0.2,2.9h7c1.2,0,2.1-0.2,3.1-1.7c2.8-4.4,6-9,8.6-12.4c1.1-1.5,2.3-1.3,3.8,0c3.8,3.6,9.8,10.1,14.7,15.9
		C277.1,22,277.7,25.9,274.1,25.9z M216.5,45.3H209c-0.2,7.8-0.2,16.1,0,24.8h7.5C216.5,61.8,216.5,53.2,216.5,45.3z M238.4,45.3
		c0,7.8-0.2,16.2,0,24.8h8.1c0.3-9.2,0.5-17.6,0.2-24.8H238.4z"/>
</g>
<g>
	<path d="M375.2,164.8c-0.1,1.9-0.9,2.8-2.2,2.4c-19.3-5.3-31.1-19.9-35.5-45.7c-2.6,3.6-5.5,6.5-8.8,9c-0.1,4.4-0.1,9.9,0,14.6
		c4.8-0.3,9.7-0.5,14.2-1c1.2-0.1,2.7,1.5,0.5,3.2c-11.4,8.5-23.5,13.5-32.6,16c-1,0.3-1.5,0.5-1.8,2.3c-0.6,3.6-2.6,3.3-3.4-0.1
		c-1.1-5.2-2.9-13.6-3.8-18.5c-0.5-2.9,0.1-2.3,2-2.2c2.3,0.1,5.6,0.4,9.1,0.4c0-1.9,0.1-4.6,0.1-6.3c-6.7,2.3-13.8,3.7-20.5,4.3
		c-1.7,0.3-2-2.3-0.6-3c9.2-4.8,18.5-11.9,23.2-18.9H309c-4.6,0-10.1,0.4-12.2,1c-1.1,0.3-1.8,0-2.4-1.1c-0.5-1.3-1.2-4.1-1.6-5.7
		c-0.4-1.5,0-1.8,1.4-1.3c3,1.3,9.7,1.9,14.7,1.9h19.6c0.1-2.5,0.1-3.6,0-5.5c-1.4,0.5-3.3,0.9-5.7,1c-6.1,0.5-8.1-0.5-8-4.8
		c0.2-4.7,0.4-10.3,0.6-16.1c-4.4,5.8-8.9,11.2-12.8,14.9c-0.4,0.4-0.6,1.1-0.7,3c-0.1,3.3-2.6,3.6-3.4,0.9c-1.7-6-3.7-13.8-5-19.7
		c-0.4-2.2-0.3-2.2,0.8-2.3c6.3-0.8,13.9-2.2,21.1-4.4c0.2-9.9,0.1-19.3-0.5-24c-0.4-3.7-1-3.9,1.3-3.8c4.7,0.3,12.3,1.4,16.8,2.4
		c2.4,0.5,2.2,3.6,0.2,4.6c-1.7,0.8-2.4,1.3-2.5,2.9c-0.2,6.3-0.5,24.4,0,39c5.1,0.5,13.6,1.7,16.8,2.3c2.7,0.5,2.7,3.7,0.2,4.8
		c-1.5,0.6-2.5,1.1-2.6,2.8c-0.1,0.8-0.1,0.9-0.1,2h13.7c0.8,0,1.5-0.6,2-1.1c1.9-2.3,4.7-5.7,7-8.4c0.7-0.8,1.5-0.8,2.4,0
		c3.5,2.9,8.6,7.9,11.6,11.2c1.1,1.4,0.8,3.6-0.9,3.6h-39.6c3.4,7.4,6.7,10.9,10.8,14.2c3.1-4.7,4.9-9.1,5.6-12.7
		c0.2-1.1,0.6-1.7,1.7-1.1c4.6,1.9,11.3,5.6,14.8,7.9c1.9,1.3,1.3,4.6-1.4,4.2c-2-0.3-2.4-0.3-3.6,0.5c-2.8,1.9-6.8,3.8-10.7,5.1
		c7.1,3.4,15.1,5.5,23.2,5.2c1.7,0,1.7,2.8,0.4,3.6C377.3,150.9,376,154.4,375.2,164.8z M302.6,79.2c-4.1-4.8-0.1-11-6.1-15.6
		c-1.5-1.1-1.5-3.3,0.3-3.2c7.8,0.5,14.7,2.7,16.7,7.7C317.7,79.2,308.2,86,302.6,79.2z M381.2,78h-19.5c0,6.5,0,14,0.2,19.7h0.3
		c1,0,1.6,0,2.1-1.1c1.2-2.4,3.1-5.8,4.9-8.5c0.6-1,1.4-1,2.3,0c2.8,3,5.6,7.2,8.2,10.9c0.5,0.8,1.4,3.2-0.9,3.2h-31.8
		c-4,0-8,0.3-10.1,1c-0.8,0.3-1.7-0.1-2.1-1.1c-0.4-1-1-3.4-1.3-4.8c-0.3-1.4,0.1-1.5,1.3-1.1c2.6,1,7.8,1.5,11.5,1.7
		c0.1-6.2,0.2-13.2,0.3-19.7h-1.7c-4,0-8,0.3-10.1,1c-0.8,0.3-1.7-0.1-2.1-1.1c-0.4-1-1-3.6-1.3-5c-0.3-1.4,0.1-1.5,1.3-1.1
		c3,1.1,8.3,1.7,12.1,1.7h1.8c0-6.1-0.2-11.2-0.4-14c-0.4-4.1-1.3-4.4,1.3-4.2c4.7,0.4,12,1.3,16.5,2.3c3.1,0.8,3.3,4.3,0.2,5.5
		c-1.6,0.6-2.4,1.5-2.4,3.4c0,1.7,0,4.1,0,7h1.5c1,0,1.7-0.3,2.1-1.1c1.5-3.2,3.6-6.7,5.2-9.1c0.7-1,1.6-0.9,2.4,0
		c3,3.2,6.2,7.4,9,11.6C382.7,75.6,383.5,78,381.2,78z"/>
	<path d="M474.8,159.6h-68.1c0,0.6,0.1,1,0.1,1.7c0.1,4.3-2.2,5.5-8.3,6c-6.7,0.5-8.6-1.1-8.3-5.7c0.9-16.5,1.3-46.9,0-53.8
		c-0.7-3.8-0.7-3.9,1.5-3.7c4.6,0.5,12,1.8,16.8,2.9c2.5,0.6,2.5,3.7,0.3,4.7c-1.5,0.8-2.3,1.3-2.3,3.2c-0.1,7.2-0.1,25.8,0.2,40.3
		h46.2c0.9,0,1.6-0.5,2.1-1.1c1.2-1.4,2.6-2.9,4.1-4.3c-1.1,0.3-2.3,0.4-3.7,0.5c-5.2,0.4-7.9,0.1-8.2-3H428
		c-0.2,3.2-2.4,4.2-8.1,4.7c-5.1,0.4-8.3-0.1-8.1-4.1c0.8-14.6,1.2-40,0-46.4c-0.8-4.1,0.1-3.7,1.4-3.3c6.7,2.3,15.6,5.5,15.6,5.5
		c0.1-2.9,0.2-5.6,0.2-8.1h-30.6c-4,0-7.9,0.3-10,1c-0.8,0.3-1.7-0.1-2.1-1.1c-0.4-1-1.1-3.3-1.4-4.7c-0.3-1.4,0.1-1.5,1.3-1.1
		c3,1.1,8.3,1.7,12.1,1.7H429c0-2.3-0.1-4.7-0.2-7.2h-22.9c-0.9,1.9-3.3,2.7-7.4,2.9c-4.9,0.4-7.9,0-7.5-5
		c0.7-9.3,0.8-16.8-0.4-21.6c-1.3-5.1-0.7-5.2,1.6-4.4c6.7,2.2,15.7,5.8,15.7,5.8h43.6c1.2,0,1.5-0.3,2.2-1c1.7-1.5,4.2-3.7,5.7-5
		c0.7-0.6,1.6-0.9,2.9,0c2.9,1.8,6.7,4.6,9.2,6.7c1.5,1.3,2,3.3-0.2,5.1c-1.7,1.5-2.3,1.8-2.3,3.3c0,2.4,0,6,0.3,9.5
		c0.2,2.8-1,4.4-4,5.2c2.3,1.7,5.9,4.2,9.1,6.7c1.1,0.9,0.9,3.2-0.7,3.2h-29.1c0.1,2.7,0.1,5.5,0.2,8.1c0.8-0.1,1.3-0.4,1.7-0.8
		c2-1.8,4.1-3.6,6.1-5.2c0.7-0.6,1.8-0.5,2.6,0c2.6,1.4,6.7,3.9,10.2,6.6c1.6,1.3,2.1,3.7-0.1,5.3c-1.7,1.3-2.3,1.8-2.4,3.9
		c-0.3,6.6-0.3,19,0.2,31.1c0,0.6,0,1.3-0.2,1.8c0.5-0.1,1,0,1.7,0.5c2.7,1.8,7.7,6.1,10.9,9.3C476.7,157,476.8,159.6,474.8,159.6z
		 M412.6,66h-6.3c0,3.9,0,9,0.1,13.3h6.2C412.8,74.5,412.8,70.2,412.6,66z M433,66h-6.5c-0.1,4.1-0.1,8.6,0,13.3h6.5
		C433.1,74.3,433.1,69.9,433,66z M447.6,120.2h-19.9c0,2.9,0,5.7,0,8.8h19.9C447.6,126,447.6,123.1,447.6,120.2z M427.6,133.3
		c0.1,3.2,0.1,6.5,0.2,9.4h19.4c0.1-3,0.2-6.2,0.2-9.4H427.6z M447.4,107.6H428c-0.1,2.4-0.2,5-0.2,8.3h19.8
		C447.5,112.8,447.5,110.4,447.4,107.6z M454.4,83.7H445c-0.1,2.5-0.1,4.8-0.2,7.2h8.7c0.8,0,1.5-0.8,2-1.1c1.6-1.3,3.6-2.7,5.4-3.9
		C457.6,86,455.3,85.8,454.4,83.7z M446.8,66c-0.1,4.2-0.1,8.5,0,13.3h7.2c0.1-4.3,0.2-8.9,0.1-13.3H446.8z"/>
</g>
</svg>
