<!-- Generator: Adobe Illustrator 19.0.0, SVG Export Plug-In  -->
<svg version="1.1"
	 xmlns="http://www.w3.org/2000/svg" xmlns:xlink="http://www.w3.org/1999/xlink" xmlns:a="http://ns.adobe.com/AdobeSVGViewerExtensions/3.0/"
	 x="0px" y="0px" width="468.3px" height="52.2px" viewBox="0 0 468.3 52.2"
	 style="overflow:scroll;enable-background:new 0 0 468.3 52.2;" xml:space="preserve">
<style type="text/css">
	.st0{fill:#FF0000;}
</style>
<defs>
</defs>
<g>
	<path d="M31.6,8.8c-0.9,0.7-1.2,1.1-1.2,2.7c0,4.3-0.2,28.6,0.1,37.7c0.1,2-2,2.4-4.3,2.6c-2.3,0.2-3.7,0-3.7-2.2
		c0-0.9,0-2.2,0-3.4H8.4c0,1,0,2.1,0,2.8c0,2-1.8,2.6-4.1,2.7c-2,0.2-4,0.1-3.9-2.2c0.4-10.6,0.7-41.7-0.1-45
		C-0.3,2.2,0.1,2.1,1,2.4C4.1,3.7,9,5.8,9,5.8h12.6c0.5,0,0.6-0.1,0.9-0.5c0.7-0.9,2.1-2.3,2.9-3.1c0.3-0.3,0.8-0.4,1.4,0
		c1.6,1.1,3.8,2.7,5,3.8C32.4,6.6,32.9,7.8,31.6,8.8z M22.7,8H8.4c0,1.7,0,5,0,9.5h14.4C22.7,13,22.7,9.6,22.7,8z M22.7,19.6H8.3
		c0,3.3,0,6.8,0,10.4h14.4C22.7,26.4,22.7,22.9,22.7,19.6z M8.3,32.2c0,4.5,0,8.4,0.1,11.8h14.2c0-3.5,0-7.4,0.1-11.8H8.3z"/>
	<path d="M47.9,43.3c1.4,6.1-3.8,8.2-6.5,2.4c-3-6.5-2.6-17.4,0-31c0.5-2.8,1.2-5.7,0.6-7.4c-0.3-1.1-0.4-1.2,0.5-1
		c3.3,0.9,6,4.5,5.6,7.9c-0.3,2.5-1.8,4.8-2.7,8.1C44.5,25.7,43,33.4,44.3,37c0.3,0.8,0.6,0.7,1-0.1c1.4-3.3,3-7.7,4.7-11.7
		c0.3-0.8,0.5-0.7,0.4,0.3C47.9,38.2,47.4,40.8,47.9,43.3z M70.7,47.3C67.3,48,62.8,48,60,47.3c-8.8-1.8-10.2-9.7-6.5-17.4
		c0.5-1,0.8-0.8,0.5,0.5c-1.1,4.5-0.3,9.5,6.9,9.6c4.7,0.1,7.8-1.4,9.2-1.6c2.4-0.5,5,1.6,5.1,3.9C75.2,45.5,73.3,46.9,70.7,47.3z
		 M69.5,16.4c-2.2,0.3-3.6,1.2-8,4.1c-0.8,0.5-0.8,0.3-0.3-0.5c0.9-1.2,2.1-3,2.9-4.1c0.4-0.6,0.3-0.5-0.3-0.6
		c-5.7-0.2-8.2-1.2-9.4-4.9c-0.2-0.7-0.1-0.8,0.4-0.6C58.5,12,63.7,8.2,68,8.5c2.4,0.2,5,1.6,5.1,4.3C73.3,15.9,71.7,16.1,69.5,16.4
		z"/>
	<path d="M114.8,50.6c-3.7,0.4-7.7,0.4-11,0c-3.9-0.5-5.1-2-4.9-7c0.1-2.7,0.1-7.8,0-11.4h-1.4c-1.3,13.7-6.2,18.7-18.8,19.6
		c-0.9,0.1-0.8-1-0.3-1.2c7-3.9,10.7-8.3,11.4-16.8c-0.7,0.3-1.4,0.3-2.1,0.3c-2.1,0.1-3.9,0.1-3.8-2.2c0.3-7.4,0.5-24.3,0-27.9
		c-0.2-1.9-0.1-2.5,0.7-2c3.1,1.4,7.6,3.6,7.6,3.6h11.5c0.5,0,0.6,0,1-0.4c0.9-1.1,2-2.2,2.9-3.1c0.3-0.3,0.8-0.3,1.3,0
		c1.5,1.1,3.2,2.4,4.7,3.7c0.8,0.6,1,1.8-0.1,2.8c-0.8,0.8-1.1,0.9-1.1,2.4c0,3.9,0,14,0.1,19.3c0,2.4-1.5,2.8-3.9,3
		c-1,0.1-2,0.1-2.6-0.1c0,2.3,0,6,0,7.5c0,1.5,0.4,1.7,1.4,1.8c1.3,0.2,3.2,0.2,4.6,0c1.5-0.4,2.1-1.1,3.3-7.9c0.2-1,1-1,1,0.1
		c0,6,0,6.2,1.3,7.1C119.8,43.4,119.9,50,114.8,50.6z M105.3,7.7H91.6c0,1.4,0,3.3,0,5.7h13.8C105.4,11.1,105.3,9.1,105.3,7.7z
		 M91.6,15.5c0,2,0,4.1,0,6.2h13.7c0-2.1,0-4.3,0-6.2H91.6z M91.6,23.8c0,2.6,0,4.5,0,6.4h13.6c0-2,0.1-3.9,0.1-6.4H91.6z"/>
	<path d="M157.1,49.3c-3.3,0.5-7.1,0.6-9.8,0.3c-4.7-0.5-6.7-2.8-6.1-11.1c0.2-3.2-1.7-3.9-3.5-1.5c-2.6,3.6-5.2,7.7-6.9,10.3
		c-2.1,3.3-3.8,3.9-5.3,1.8c-1.8-2.4-1.3-5.8,1.6-8.4c5.2-4.7,15.6-16.5,18.5-21.4c0.5-0.9,0.2-1.4-0.8-0.9
		c-4.9,2.9-8.6,5.7-10.2,7.5c-1.7,1.9-5.1,2.9-6.9-2c-0.5-1.4-0.8-4.4-0.5-6c0.2-1.1,0.5-1.2,0.9-0.4c0.7,1.2,1.7,1.8,4.2,1.4
		c2.8-0.4,6.7-1.5,9.8-2.6c2.4-0.8,2.8-1.4,3.9-1.4c3,0,6.6,4,6.1,7c-0.3,2.2-2,2.1-3.4,3c-3.9,2.4-5.9,4.8-8.9,7.6
		c-0.5,0.5-0.3,0.5,0.2,0.3c3-1.1,6.7-0.7,6.4,5.9c-0.1,1.9,0.5,2.8,2.4,2.8c4,0.1,5.3-1,6.7-1.1c3.3-0.2,5.4,0.9,5.4,4.6
		C160.8,47.3,159.1,49,157.1,49.3z M145.9,10.3c-1.8-0.3-4.5,0.6-9.8,2.4c-0.7,0.2-0.9-0.1-0.2-0.5c1.3-0.9,2.3-1.7,3.5-2.8
		c0.8-0.7,0.8-1-0.2-1.3c-3-0.8-4.9-3.7-4.8-7.4c0-1,0.2-0.9,0.6-0.3c2.3,3.5,6.9,1.8,11.3,3c2.7,0.7,4.3,3,3.5,5.4
		C149.5,10.1,147.7,10.7,145.9,10.3z"/>
	<path d="M202.1,46.4c-0.4-0.3-1-1.1-1.7-2c-6,7.6-17.4,4.5-15.6-4.2c1-4.5,5.6-7.4,12.5-5.2c1-4.4,1.1-9.5,0.2-12.6
		c-1.2-4-3.9-6.5-8.7-6.2c-1.2,6.2-3.4,13.4-6.3,19.2c3.5,3.6,0.1,10.9-3.7,6.2c-1.3,1.5-2.5,2.9-3.8,3.9c-5.8,4.6-9.5,2.7-8.5-7.5
		c0.4-4.4,2.2-8.9,4.9-12.8c-1-4.8-0.7-8.2-1.9-11.6c-0.4-1-0.2-1.2,0.6-0.6c2.9,2.2,3.5,5,4.4,8.3c2.5-2.7,5.5-4.9,8.7-6.2
		c0.1-1.6,0.2-3.2,0.2-4.6c0-2.3,0.3-4.8-1.5-5.6c-0.8-0.4-0.9-0.7,0-1.1c3-1.4,9.4,0.6,9.1,4.1c-0.1,1.5-1,1.5-1.4,4.4
		c0,0.4-0.1,0.8-0.1,1.2c6.2-0.8,10.1,1.8,12.6,5.3c3.2,4.4,3.9,11.8,1.5,19.3c0.8,0.6,1.4,1.2,1.8,1.7
		C208.4,44.2,205.2,49.7,202.1,46.4z M174,33.1c-0.9-1.9-1.5-3.6-2-5.2c-1.5,2.7-2.4,5.8-2.6,8.8c-0.2,5.3,1.5,5.8,4.4,3.3
		c0.9-0.7,1.6-1.6,2.3-2.6C175.6,36.3,174.8,34.9,174,33.1z M175.1,23.6c0.3,0.9,0.6,1.8,1.1,2.7c0.6,1.1,1.9,3.2,3.2,5.1
		c1.8-4.7,2.9-9.4,3.4-13.7C180,18.9,177.3,21,175.1,23.6z M186.5,40.3c-0.9,4.9,5.5,6.1,9.1-0.6C191.1,36.7,187,37.8,186.5,40.3z"
		/>
	<path class="st0" d="M248.7,14.2c-0.8,0.5-1,0.8-1,2.2c-0.1,4.3-0.1,16.7,0,27.9c0,4.9-1.8,6.6-7.6,7.5c-1.3,0.2-1.4-0.3-1.5-1.1
		c-0.4-4.1-0.6-5.7-4.9-7.7c-0.7-0.3-0.5-1.5,0.1-1.4c1.9,0.3,3.9,0.6,5.5,0.6c1,0,1.2-0.5,1.2-1.6c0.1-6.7,0.1-20.6,0-27.5h-8.3
		c-0.1,2.7-0.2,4.1-0.5,6.3c4.3,2.6,7.3,7.8,7.7,12.3c0.7,7.7-5.8,8.8-6.8,3.4c-0.5-3.3,1.3-9-1.3-13.3c-1.3,9-4.9,15.6-11.5,18.8
		c-0.8,0.3-1.2-0.2-0.6-1.1c4.1-6.8,5.7-14.8,5.8-26.5h-6.5c-0.1,8.6-0.1,25.5,0,36.2c0,1.7-1.4,2.4-3.7,2.6
		c-2.5,0.2-3.6-0.5-3.5-2.5c0.3-12.4,0.3-36.4,0-39.5c-0.3-2.2-0.2-2.2,0.7-1.9c2.9,1.1,7.2,3,7.2,3h5.8c0-2.4,0-5-0.1-7.8
		c0-1.1-0.4-1.5,0.5-1.4c2.5,0.3,5.8,1,8.2,1.5c1.3,0.3,1.4,1.9,0,2.3c-0.9,0.2-1.4,0.4-1.4,1.6c0,1.3,0,2.6-0.1,3.7h6.9
		c0.5,0,0.6-0.1,0.9-0.3c0.8-0.8,2.2-2.2,3.1-3c0.4-0.3,0.8-0.4,1.4,0c1.2,0.9,3,2.4,4.3,3.6C249.8,12.2,249.8,13.4,248.7,14.2z"/>
	<path class="st0" d="M293.3,8.9c-0.9,0.3-1.2,0.5-1.4,1c-1.9,4-4.1,8.2-6.5,11.6c5.7,5.4,8.4,9.4,8,16.7c-0.3,4.8-3,7.1-6.5,7.7
		c-0.7,0.1-1-0.1-1-0.9c-0.2-3.6-0.5-5-2.3-6.3c0,3.5,0,7.1,0.1,10.6c0,1.8-1.2,2.4-3.5,2.5c-2.1,0.1-3.4-0.1-3.4-2
		c0.1-6.9,0.2-15.9,0.3-24h-17.9c-1.8,0-3.5,0.1-4.4,0.5c-0.4,0.1-0.8-0.1-1-0.5c-0.2-0.5-0.5-1.6-0.6-2.2c-0.1-0.6,0.1-0.7,0.6-0.5
		c1.4,0.5,3.7,0.7,5.4,0.7h6c0.8-3.7,1.5-8.8,1.5-11.9c0-0.6-0.1-0.8,0.8-0.6c1.9,0.5,4.7,1.4,7,2.2c1.3,0.5,1,2.2-0.3,2.2
		c-0.9,0.1-1.2,0.1-1.5,0.8c-1.1,2.3-3.3,5.3-5.4,7.3h2.2c0.4,0,0.6-0.1,0.9-0.5c0.8-1.5,1.6-2.8,2.3-4c0.3-0.4,0.7-0.5,1.1,0
		c1.1,1.2,2.2,2.6,3.2,4c0-9.3,0-17.2-0.2-19.3c-0.2-2.2,0-2,0.7-1.8c2.5,1,6.6,3.1,6.6,3.1h1c0.5,0,0.7-0.2,1-0.6
		c0.6-0.7,1.4-1.8,2-2.5c0.4-0.5,0.7-0.5,1.3,0c1.3,1.1,3,2.6,4.3,4.2C294.4,7.4,294.3,8.5,293.3,8.9z M276.1,10.7h-16.3
		c-1.8,0-3.5,0.1-4.4,0.5c-0.4,0.1-0.8-0.1-1-0.5c-0.2-0.5-0.5-1.6-0.6-2.2c-0.1-0.6,0.1-0.7,0.6-0.5c1.4,0.5,3.7,0.7,5.4,0.7h1.3
		c0-1.9,0-3.6-0.1-5.1c-0.2-1.9-0.6-1.9,0.5-1.8c2.2,0.2,5.7,0.6,7.8,0.9c1.1,0.2,1.3,1.7,0,2.3c-0.7,0.3-1.1,0.5-1.2,1.2
		c0,0.8,0,1.6,0,2.6h0.4c0.4,0,0.6,0,0.9-0.5c0.5-1,1.4-2.3,2.2-3.3c0.3-0.4,0.7-0.5,1.1,0c1.1,1.2,2.6,2.9,3.9,4.5
		C277,9.6,277.2,10.7,276.1,10.7z M275.3,33.6c-0.8,0.7-1.1,0.9-1.2,1.9c0,2.5,0,8,0.1,12.6c0,1.9-1.4,2.4-3.5,2.5
		c-2,0.1-3.4,0-3.3-2c0-0.5,0-0.9,0-1.3h-4.6c0,0.6,0,1.2,0,1.8c0,1.8-1.5,2.3-3.4,2.4c-2.1,0.2-3.6,0-3.5-1.9
		c0.3-6.6,0.4-18-0.1-20.9c-0.2-1.4-0.1-1.4,0.6-1.1c2.9,1.1,7.1,3.3,7.1,3.3h2.7c0.5,0,0.7-0.1,1-0.4c0.9-1.1,1.8-2.2,2.6-3.1
		c0.3-0.3,0.8-0.3,1.3,0c1.5,1,2.9,2.3,4.2,3.7C276,31.8,276.1,32.8,275.3,33.6z M257.8,20.2c-0.4-2.8,0.2-5.4-1.6-7.7
		c-0.5-0.7-0.3-1.2,0.6-1.1c3.8,0.6,7.1,2.9,7.3,6.9C264.4,24.2,258.5,24.8,257.8,20.2z M267.5,32.9h-4.7c0,2.9,0,7.9,0,12.3h4.7
		C267.6,40.8,267.6,36.2,267.5,32.9z M284,21.8c1-5.7,1.5-10,2-14.4h-2.3c-0.1,9.6-0.2,19.6-0.1,29.6c2.2,0.2,2.8,0.2,3.3-1.3
		C287.7,32.9,287.4,26.9,284,21.8z"/>
	<path d="M305.7,48.9c-1-3-3.4-7.4-6.2-9.8c-0.5-0.5-0.8-1.2,0.4-1c5.2,0.6,9.8,3.6,11.5,6.7C314.4,50.8,307.3,54.3,305.7,48.9z"/>
	<path d="M358.5,50.7c-1.9,0.3-4.8,0.3-6.6,0c-2.9-0.5-4-1.5-3.9-5.8c0-4.6,0.1-8.2,0-12.7h-1c-0.9,13.7-4.6,18.7-15.8,19.6
		c-0.8,0.1-0.8-0.8-0.3-1.1c6.7-4.1,8.8-9.1,9.4-17.2c-1.5,0.1-2.9-0.2-2.8-1.9c0.3-7.3,0.4-17.5,0.3-23.2h-5.2c0,3.6,0,7.7,0,11.8
		c0.4-1,1-2.4,1.7-3.7c0.2-0.3,0.5-0.4,0.8,0c0.8,1.3,1.5,2.7,2.4,4.7c0.4,0.7,0.2,1.3-0.5,1.3h-4.4c0,4,0,8.2,0,12.3
		c1.7-0.3,3.3-0.8,5.1-1.4c0.5-0.2,0.8,0.6,0.4,1.1c-3.6,4.4-8.8,8.3-13.2,10.4c-0.3,0.1-0.5,0.3-0.5,1.2c-0.1,1.4-1.2,1.8-1.5,0.4
		c-0.6-2.9-1.4-6.7-1.7-9.2c-0.1-1-0.2-1.1,0.5-1.1c1,0,2.7-0.2,4.2-0.3c0-4.4,0-9,0-13.4c-0.9,0-2.2,0.1-2.9,0.4
		c-0.4,0.1-0.7-0.1-0.9-0.5c-0.2-0.5-0.5-1.4-0.6-2c-0.1-0.6,0-0.7,0.6-0.5c1.2,0.5,2.9,0.7,3.8,0.7c0-4.3,0-8.4,0-12.2
		c-1,0-2.4,0.1-3.3,0.4c-0.4,0.1-0.7-0.1-0.9-0.5c-0.2-0.5-0.4-1.5-0.5-2.1c-0.1-0.6,0-0.7,0.5-0.5c1.3,0.5,2.8,0.7,4.1,0.7h3.6
		c0.5,0,0.7-0.2,0.9-0.5c0.8-1.1,1.7-2.4,2.6-3.5c0.3-0.4,0.7-0.4,1.1,0c1.2,1.1,2.5,2.6,3.8,4.3c0-1.1-0.1-1.9-0.2-2.3
		c-0.4-2.2-0.2-2.2,0.6-1.9c2.8,1.1,6.9,2.9,6.9,2.9h5c0.5,0,0.8-0.1,1-0.3c0.7-0.8,1.8-1.8,2.7-2.6c0.3-0.3,0.8-0.3,1.2,0
		c1.4,0.8,2.9,2,4.1,3.1c1,0.9,0.9,1.7,0,2.6c-1,0.9-1.1,1.1-1.1,2c0,5,0,13.4,0.1,20.6c0,1.7-1.4,2.4-3.7,2.7c0,2.9,0,6.1,0,8.5
		c0,0.9,0.2,1,0.6,1.1c0.5,0.1,1,0.1,1.4,0c1-0.3,1.5-0.7,2.4-8c0.1-1,1-1,1,0.1c0,6.5,0,6.7,0.9,7.4
		C362.6,43.7,362.9,50,358.5,50.7z M351.3,7.1h-6.7c0,1.9,0,3.9,0,5.8h6.8C351.3,11.1,351.3,9.1,351.3,7.1z M344.5,14.9
		c0,2,0,4.1,0,6.3h6.8c0-2.1,0-4.2,0-6.3H344.5z M344.5,23.1c0,2.3,0,4.6,0,7.1h6.6c0-2.4,0.1-4.8,0.1-7.1H344.5z"/>
	<path d="M386,48c-1.6-0.1-1.9-0.4,0-0.8c7.8-1.9,12.1-7.7,12.2-15.8c0.2-8.3-7.2-11.7-14.9-5.8c-0.2,6.1,0,12.3,0.4,16.2
		c0.5,5.4-1.2,8.9-4,8.9c-1.7,0-2.9-0.9-3.3-3.7c-0.4-3.4-0.3-3.3-3.5-6.1c-0.2,0.5-0.5,1-0.7,1.5c-1.6,3.3-3.3,3.7-4.5,1.6
		c-1-1.7-1.3-5.4,0.4-7.3c1.5-1.8,5.1-4.6,10.9-14.3c0-1.4,0.1-2.7,0.1-4c-5.9,4.1-5.1,5.8-7.8,6.5c-2.7,0.7-4.4-3.6-3.4-8.8
		c0.1-0.7,0.5-0.9,0.8-0.1c0.6,1.6,2.7,2.4,10.6-1.6c0.1-1.8,0.2-3.5,0.3-4.9c0.2-2.9,0.1-4.5-2-5.7c-0.6-0.3-0.6-0.7,0.1-1.1
		c3.3-1.8,8.8,0.5,8.6,4.5c0,1.3-1,2.2-1.4,3.6c0,0.2-0.1,0.5-0.1,0.7c3.4-1.2,5,3.3,1.8,6.1c-1.2,1-2.1,1.9-2.9,2.7
		c-0.1,1-0.1,1.9-0.2,2.9c11.4-9.4,22.2-3.7,21.9,9C405.1,43.9,396.7,48.8,386,48z M378.6,30.5c-1.8,2.4-3.4,5.6-5.5,9.9
		c1.5,0.5,3.4,1.2,4.5,1.4c0.9,0.3,1.1-0.1,1-1.1C378.5,37.8,378.5,34.2,378.6,30.5z"/>
	<path d="M418.6,40.8c1.1-8.2,13.6-8.8,14.2,3.6c2.1-0.8,4-2.7,4.6-7.1c1.6-12.4-12-14.7-18-4.9c-2.4,3.8-3.2,5.3-5.4,5.5
		c-2.4,0.2-4.1-5.5-0.7-8.3c4.9-4,11.6-10.9,17.2-19.1c0.8-1.2,0-2.4-1.3-1.4c-6.1,4.7-6.8,6.6-8.7,6.9c-2.6,0.3-5.4-2.7-3.9-9.2
		c0.2-0.8,0.5-0.7,0.8-0.2c0.8,1.7,2.8,1.5,4.1,1.3c1.8-0.1,4.5-1,6.3-1.6c1.4-0.3,2.7-1.4,3.8-1.5c2.6-0.3,6.5,4.3,6.2,7
		c-0.2,2.4-2,2.1-4.2,3.7c-3.5,2.6-7.3,6.6-11.1,10.2c-0.5,0.5-0.4,0.6,0.2,0.2c11.5-6.7,23.4-0.6,22.2,12.3
		C443.3,54.8,416.8,53.6,418.6,40.8z M420.6,40.4c-0.4,3.4,4.6,4.9,7.6,4.9C427.8,37,421.2,36.2,420.6,40.4z"/>
	<path d="M461.4,52.2c-3.8,0-6.9-3.8-6.9-8.6c0-4.8,3.1-8.6,6.9-8.6c3.8,0,6.9,3.8,6.9,8.6C468.3,48.4,465.2,52.2,461.4,52.2z
		 M461.4,37.9c-2.4,0-4.5,2.7-4.5,5.7c0,3.1,2.1,5.7,4.5,5.7c2.4,0,4.5-2.6,4.5-5.7C466,40.6,463.9,37.9,461.4,37.9z"/>
</g>
</svg>
