<!-- Generator: Adobe Illustrator 19.0.0, SVG Export Plug-In  -->
<svg version="1.1"
	 xmlns="http://www.w3.org/2000/svg" xmlns:xlink="http://www.w3.org/1999/xlink" xmlns:a="http://ns.adobe.com/AdobeSVGViewerExtensions/3.0/"
	 x="0px" y="0px" width="237.9px" height="145.3px" viewBox="0 0 237.9 145.3"
	 style="overflow:scroll;enable-background:new 0 0 237.9 145.3;" xml:space="preserve">
<defs>
</defs>
<g>
	<g>
		<path d="M108.2,142.9c-0.3,2.1-1.3,2.6-2.9,2.1c-12.7-3.4-33.7-13.8-42.1-44.1c-6.4,24.8-24.3,41.8-61.5,44.1
			c-2,0.2-2.1-2.6-0.5-3.4c24-12.8,36.2-26.1,41.1-43.1H19.8c-5.1,0-10.4,0.3-13,1.3c-1,0.3-2.2-0.2-2.8-1.5
			c-0.5-1.3-1.4-4.8-1.8-6.6c-0.4-1.8,0.3-2,1.8-1.5c3.9,1.5,10.8,2,15.6,2h24c1-5.9,1.4-12.1,1.8-18.7H35.2c-5.1,0-10.4,0.3-13,1.3
			c-1,0.3-2.2-0.2-2.8-1.5c-0.5-1.3-1.3-4.8-1.7-6.4c-0.4-1.8,0.3-2,1.8-1.5c3.9,1.5,10.8,2.1,15.6,2.1h10.5
			c0.3-5.4,0.3-11,0.3-16.1H32.9c-5.1,0-10.4,0.3-13,1.3c-1,0.3-2.2-0.2-2.8-1.5c-0.3-0.8-0.7-2.3-1-3.8C6.9,55.5-3.7,44,1.3,31.9
			c4.1-9.8,12.5-5.1,13.5-21.3c0.3-3.1,2-3.3,3.1-0.7c0.9,2.1,2,5.2,2.9,8.9h25.7C46.8,13.4,46.7,8.3,46,5c-0.9-4.9-1.4-5.2,1.6-4.9
			c6,0.5,16.1,1.5,23.3,2.6c3.5,0.7,3.5,4.8,0.3,6.1c-2.1,1-3.3,2-3.4,4.1c-0.1,1.5,0,3.8,0,5.9h20.9c1.4,0,2-0.3,3-1.5
			c1.6-1.8,4.5-5.2,6.3-7.2c1-1.3,2.4-1.1,3.5,0c4.3,4.1,10.2,10.5,13.8,14.8c4.3,5.2,2.8,13.1-4.6,11.3c-7.2-1.8-9-2.5-17.3,1.8
			c3.1,2.8,6.3,5.6,9.4,9.2c1.2,1.1,1.7,4.4-1.2,4.4h-34c-0.1,5.2-0.3,10.8-0.5,16.1h6.2c1.3,0,2.2-0.5,3-1.5
			c2.6-3.8,4.6-6.7,7.2-9.8c0.9-1,2.1-1,3.1,0c4.2,3.6,8,7,12.9,12.6c1,1.3,1.7,4.6-1.2,4.6H66.7c-0.3,6.7-0.9,13.1-1.7,18.7h20.5
			c1.3,0,2.4-0.3,3-1.5C91.4,86.7,94,83.2,97,79c0.8-1,2.2-1.1,3.4,0c4.7,4.4,9.6,9.2,14.4,14.9c1.2,1.5,1.7,4.6-1.2,4.6H67.5
			c10.8,15.1,32.1,17.9,48.8,16.9c2-0.2,2.1,3.8,0.1,4.6C111.1,122.2,109.1,132.1,108.2,142.9z M21.9,24.7
			c0.9,6.7,0.7,14.1-2.6,19.3c3.9,1,9.4,1.5,13.6,1.5h13c-0.1-5.7-0.4-10.8-0.8-14.4c-0.3-2.5,0-2.8,1.8-2.6c7.3,1,14.6,1.8,24,3.4
			c2.8,0.5,3.8,4.9-0.1,6.2c-2.2,0.8-3,1.5-3,3.8c0,1.1,0,2.5,0,3.6h8.1c1.3,0,2.2-0.5,3-1.5c2.5-3,4.3-5.4,7.3-9.3
			c0.8-1.1,1.8-1,2.9-0.2c1-3,1.8-5.7,2.9-9.8H21.9z"/>
		<path d="M152.5,75.3c-0.3-1.6-0.3-3-0.1-4.4c-0.3,0.2-0.5,0.3-0.8,0.5c-0.1,23.4,0,47.7,0.5,65.4c0.1,5.6-1.6,7.9-9.3,8.4
			c-7.1,0.5-8.9-2-8.7-7.4c0.4-10,0.7-21.2,0.7-32.3c-2.8,12.5-6.7,22.8-12.3,31.5c-1.3,2-3.1,1.3-2.6-1.3
			c2.9-15.2,4.1-35.3,3.9-46.2c-0.1-2.3-0.7-3,1.4-2.3c3,1,6.6,2.1,9.7,3.4c0-4.1,0-8,0-12.1c-2.1,0.8-4.1,1.5-5.9,2.1
			c-1.4,0.5-1.7,0.8-2,2.6c-0.5,3.4-3.1,4.1-3.9,0.5c-1.2-6.1-2.4-14.1-3-20c-0.4-3.6,0.4-2.5,2.2-2.1c2.4,0.3,4.7,0.7,7.1,1
			c1.7-3.3,3.4-6.6,5-9.8c-2.9,1-6-0.3-7.6-4.4c-3.1-8.7,3.3-14.4-5.4-25.7c-1-1.5,0.1-3.4,1.2-3c2.5,1.1,4.7,2.5,6.6,3.9
			c1.6-6.7,2.6-15.6,2.8-21c0-2.1-0.7-2.6,2.1-2.1c5.2,1,12.9,2.5,18.9,4.1c3.5,1,3.3,4.6-0.1,5.4c-2.1,0.5-2.5,0.7-3.1,1.5
			c-4.5,5.7-9.6,11-15.6,16.1c3.9,3.9,5.9,8,6.3,12c2.6-6.4,4.9-12.6,6.3-18.9c0.5-1.6,0.3-2.5,1.6-2c4.9,2.1,11.5,4.9,17.1,8
			c3,1.8,2.6,5.4-0.8,5.7c-2.1,0.2-2.4,0.7-3,1.5c-6.8,10-14.7,19.8-23.9,29.2c5.1,0.3,10.4,0.3,15.6,0.2c-0.1-3-0.9-6.4-3.8-11
			c-0.8-1.3,0.4-3.1,1.8-2.3c9.8,6.1,14.4,13.3,14.3,23C165.2,84,154,85.8,152.5,75.3z M153.4,115.4c0.1-10.3,3.7-12.6-1.4-27.4
			c-0.5-1.6,1-3,2.2-1.6c8.8,9.3,13,18.9,12.1,28.9C165.2,126.3,153.1,127.3,153.4,115.4z M229.5,68.3c-2,1.6-3,2-3.1,5.6
			c-0.3,6.7-0.1,21.2,0.4,34.6c0.3,5.2-1.3,7.7-9,8.2c-6,0.5-10.8,0.2-10.8-3.1h-20.3c0.1,1.5-1.3,2.8-2.9,3.1
			c5.1,2.5,10.8,5.6,15,7.9c3.1,1.8,3.1,6.6-1.6,6.2c-2-0.2-3.1-0.3-4.6,0.8c-9.8,7.5-20.6,11.8-37.8,13.4c-2.5,0.2-2.5-2.6-0.9-3.6
			c12.6-8.4,19-16.4,22.3-22.3c-5.2,0.5-9.4,1.5-9.1-7.4c0.8-15.2,0.9-48-0.1-54.1c-1-5.6-0.3-5.4,2.1-4.6
			c7.3,2.5,18.6,6.9,18.6,6.9h16.8c1.3,0,2-0.5,2.6-1.1c1.8-1.6,4.7-4.1,7.5-6.2c0.9-0.7,2.1-0.8,3.1-0.2c3.3,1.8,8.8,5.9,12.2,8.9
			C231.7,62.9,232.3,66,229.5,68.3z M236,51.4h-58.9c-5.1,0-10.1,0.3-12.7,1.3c-1,0.3-2.1-0.2-2.6-1.5c-0.5-1.3-1.3-3.9-1.7-6.1
			c-0.4-1.8,0.1-2,1.7-1.5c3.9,1.5,10.5,2.1,15.3,2.1h9.4c0.1-3.4,0.3-7.4,0.3-11.1c-5.8,0-11.5,0.3-14.2,1.3
			c-1,0.3-2.2-0.2-2.8-1.5c-0.5-1.3-1.3-4.3-1.7-6.1c-0.4-1.8,0.3-2,1.8-1.5c3.9,1.5,11,2.1,16.8,2.1c0-3.4,0.1-6.7,0-9.7h-5.2
			c-5.1,0-10.2,0.3-12.9,1.3c-1,0.3-2.2-0.2-2.8-1.5c-0.5-1.3-1.3-4.3-1.7-6.1c-0.4-1.8,0.3-2,1.8-1.5c3.9,1.5,10.6,2.1,15.5,2.1
			h5.1c0-4.3-0.3-7.4-0.5-8.7c-1-5.1-1.7-5.2,2-4.9c7,0.7,13.8,1.5,19.8,2.6c3.8,0.7,4.2,4.9,0.3,6.7c-2.1,1-2.4,1.5-2.2,4.3h5.1
			c1,0,1.7-0.3,2.6-1.5c2.1-2.6,4.7-5.7,6.8-8c0.9-1,2.1-1,3.1,0c2.9,2.8,7,6.9,10.5,10.8c1,1.3,1.4,4.3-1.6,4.3h-26.8
			c0,3-0.1,6.2-0.1,9.7h2.2c1,0,1.7-0.3,2.6-1.5c1.8-2.3,4.5-5.1,6.3-6.9c1-1.1,1.8-1,3,0c2.8,2.3,6.7,5.9,10.1,9.7
			c1.2,1.3,1.4,4.3-1.6,4.3h-22.7c0.1,3.8,0.1,7.5,0.3,11.1h5.4c1.2,0,1.8-0.5,2.6-1.5c2.1-2.5,5.4-5.9,7.9-8.4c0.8-0.8,1.7-1,2.9,0
			c3.4,3,8.7,7.5,12.5,11.3C238.2,48.3,238.4,51.4,236,51.4z M207.4,80.9h-21.1c0,3.3,0,6.9,0,10.3h21.1
			C207.4,87.6,207.4,84.2,207.4,80.9z M186.3,96.8c0.1,3.8,0.1,7.4,0.3,11.1h20.3c0.1-3.8,0.3-7.4,0.4-11.1H186.3z M207.2,65.5
			h-20.5c-0.1,2.8-0.3,6.1-0.3,9.8h21C207.3,71.7,207.3,68.5,207.2,65.5z M220,141.1c-5-5.9-7.3-15.2-21-20.3
			c-1.6-0.5-2-3.9,0.5-3.9c17.7,0.3,31.1,2.1,35,9.5C241.4,139.1,229.3,151.9,220,141.1z"/>
	</g>
</g>
</svg>
