<!-- Generator: Adobe Illustrator 19.0.0, SVG Export Plug-In  -->
<svg version="1.1"
	 xmlns="http://www.w3.org/2000/svg" xmlns:xlink="http://www.w3.org/1999/xlink" xmlns:a="http://ns.adobe.com/AdobeSVGViewerExtensions/3.0/"
	 x="0px" y="0px" width="83.3px" height="203.8px" viewBox="0 0 83.3 203.8"
	 style="overflow:scroll;enable-background:new 0 0 83.3 203.8;" xml:space="preserve">
<defs>
</defs>
<g>
	<path d="M76.6,86.3h-29c-0.8,0-1-0.3-1-1c0-0.8,0.2-1.3,1.3-1.5c4.5-0.9,5.4-1.7,4.4-3.6L37.8,50.8l-12,23.4
		c-2.2,4.4,0.6,7.8,5.4,9.6c0.8,0.3,1.2,0.6,1.2,1.4c0,0.9-0.4,1-1.4,1H8.2c-0.9,0-1.3-0.1-1.3-1c0-0.8,0.3-1.2,1-1.4
		c4.1-1.2,9.5-4.5,11.8-9l15.5-29.6L15.4,5.7c-1-2.1-3.4-2.8-5.4-3.2C9.4,2.3,9.2,2,9.2,1.3C9.2,0.3,9.4,0,10.1,0h27.1
		c0.7,0,1,0.3,1,1c0,0.9-0.2,1.3-1.3,1.5c-4,0.8-5.3,1.6-4.4,3.5l11.8,23.3l9.1-18.1c2.1-4.2-0.1-7.3-4.9-8.8c-0.7-0.2-1-0.6-1-1.4
		c0-0.9,0.4-1,1.3-1h20.6c1,0,1.3,0.1,1.3,1c0,0.8-0.2,1.2-0.9,1.4C64.1,3.8,61.3,6.5,59,11L47,34.7l22.8,44.7
		c1.4,2.7,5,3.8,6.9,4.4c0.6,0.2,0.8,0.5,0.8,1.2C77.5,85.9,77.3,86.3,76.6,86.3z"/>
	<path d="M78.2,195c-0.1,1.2-1.4,1.2-1.9,0.7c-9.3-7.3-12.3-21-13.8-36.1c0,11,0.1,23.4,0.3,30.3c0.2,10.4-3.6,12.5-12.4,13.7
		c-1.8,0.2-2.4,0-2.5-1.7c-0.6-8.9-1-10.5-6.5-13.8c-1.1-0.7-1.1-2.9,0.3-2.7c1.7,0.2,3.7,0.3,6.1,0.5c1.8,0,2-0.5,2.1-3
		c0.2-4.4,0.2-12.2,0.2-20c-0.6,0.6-1,1.2-1.1,2c-2.5,13.7-8.4,25.2-20.6,30.8c-1.4,0.7-1.8-0.8-0.8-2.2c6.4-9.8,9.2-22.4,10.3-32.4
		h-1.7c-1.8,0-2.9,0.1-4.5,0.8c-0.7,0.2-1.5-0.1-1.9-1c-0.3-0.7-0.6-1.9-0.9-3c-1.7,0-3.3-1-4-3.4c-0.4-1.2-0.5-2.3-0.6-3.4
		c-0.3,0.1-0.6,0.3-0.8,0.5c-0.1,16.6,0,33.9,0.4,46.6c0.1,3.9-1.3,5.3-6.9,5.7c-4.8,0.3-6.3-1.2-6.1-5c0.3-7.2,0.5-15.1,0.5-23
		c-2,8-4.9,16-9.5,22.5c-0.8,1.3-1.9,0.8-1.7-1c2-10.8,3.1-23.5,2.9-32c0-1.6-0.6-2.4,0.8-2.2c2.4,0.5,5,1.2,7.5,2
		c0-2.8,0-5.4,0-8.1c-1.6,0.6-3,1-4.3,1.4c-1,0.2-1.5,0.6-1.8,2c-0.4,2.1-2.1,2.4-2.7,0.3c-1.1-4.1-2-10.1-2.6-14.1
		c-0.4-2.5,0.3-1.9,1.6-1.6c1.8,0.2,3.7,0.5,5.9,0.6c1.5-2.5,2.8-5.2,4-7.8c-2.2,1-4.8,0.6-6-2c-3-5.9,1.1-10.7-4.3-17.5
		c-0.7-1-0.2-2.3,0.8-2c1.8,0.5,3.4,1,4.8,1.6c1.1-4.6,1.9-10.8,1.9-14.6c0.1-1.5-0.4-2.1,1.7-1.7c4.2,0.8,9.6,2,13.6,3.2
		c2.4,0.7,2.3,3.4-0.1,3.9c-1.5,0.3-1.8,0.2-2.2,0.8c-2.8,3.8-6.8,7.8-10.8,10.7c2.7,2.1,4.3,4.6,4.6,8c1.8-4.6,3-8.8,3.6-12
		c0.3-2,0.3-2.3,1.2-2c4.1,1.5,8.8,3.4,12.5,5.2c2.1,1.2,2,3.8-0.4,4.2c-1.7,0.2-2,0.1-2.5,0.9c-4.1,7.9-9.8,15.1-17,21.2
		c3.7,0.1,7.6,0.1,11.3-0.1c0-2.3-0.4-4.6-2.2-7.2c-0.6-0.8-0.1-2,1-1.5c5.4,2.3,11,6.9,10.8,14.5c-0.1,2.2-0.9,3.9-2.1,5.1
		c1.3,0.3,2.5,0.6,3.6,0.6h0.6c0.6,0,1-0.2,1.5-0.8c1.2-1.5,3.1-3.7,4.4-4.9c0.6-0.6,1.6-0.5,2.3,0c1.7,1.3,3.9,3.4,5.7,5.3
		c-0.1-3.8-0.1-7.8-0.2-10.8h-2.6c-0.7,2.4-3.4,3.4-6.7,3.6c-3.6,0.2-6.8,0-6.5-3.9c0.7-13.6,1-29.8-0.1-34.7
		c-0.7-3.1-0.4-3.2,1.3-2.7c3.9,1.6,8.6,3.6,11.6,4.9c0.3-4.1,0.3-7.5,0-9.7c-0.2-1.4-0.5-2,1.5-1.9c4.3,0.5,9.5,1,15.4,2
		c2.8,0.5,2.5,3.5,0,3.9c-1.8,0.3-2.1,0.9-2.9,1.5c-2.1,1.9-5.1,3.9-7.4,5.3h8.2c0.9,0,1.2-0.2,1.7-0.7c1.6-1.6,3.5-3.7,5.5-5.6
		c0.6-0.7,1.6-0.7,2.5,0c2.5,1.9,5.7,4.2,8.3,6.8c1.3,1.3,1.4,3.4-0.3,4.7c-1.3,1.2-1.9,1.4-2,3.6c-0.1,5.8-0.1,12.2,0.2,19.5
		c0.3,4.6-2.9,5.4-6.8,5.8c-3.5,0.3-6.1,0.1-6.7-2.4h-1.5c0,0,0,1.3,0,1.4c1,5.6,2.2,10,4.2,14.1c1.2-3.1,2.2-7.4,2.5-11.1
		c0.1-1.5,0.7-1.9,1.8-1c2.8,2.3,7.4,6.7,10.4,9.7c1.4,1.4,0.9,4.2-1,3.6c-1.6-0.5-2.1-0.3-3.2,0.3c-2.3,1.4-5,2.5-7.2,3.4
		c3.2,4.3,7,7.3,12.7,9.4c0.8,0.3,1.1,1.9,0,2.7C79.5,180.8,78.7,184.6,78.2,195z M24.7,180.2c-0.3-6.1,2.5-9.3-0.6-17.3
		c-0.4-1,0.5-2.1,1.4-1.2c5.3,4.9,8.5,10.8,8.2,17C33.1,186.8,25,188.1,24.7,180.2z M64.1,118H47.5c-0.1,3-0.1,6.1-0.1,9.5h16.8
		C64.2,124.2,64.2,120.9,64.1,118z M47.4,131.4c0,3.4,0,6.7,0.1,10.3H64c0.1-3.5,0.1-6.9,0.2-10.3H47.4z"/>
</g>
</svg>
