<!-- Generator: Adobe Illustrator 19.0.0, SVG Export Plug-In  -->
<svg version="1.1"
	 xmlns="http://www.w3.org/2000/svg" xmlns:xlink="http://www.w3.org/1999/xlink" xmlns:a="http://ns.adobe.com/AdobeSVGViewerExtensions/3.0/"
	 x="0px" y="0px" width="333.8px" height="118.1px" viewBox="0 0 333.8 118.1"
	 style="overflow:scroll;enable-background:new 0 0 333.8 118.1;" xml:space="preserve">
<defs>
</defs>
<g>
	<path d="M31.8,118.1c-22,0-31.8-13-31.8-24.8c0-5.7,1.6-12.3,7.7-12.3c14.8,0,3.4,29.5,23.5,29.5c9.3,0,14.4-8.9,14.4-21.8
		c0-19.5-7.3-30.4-24.7-31c-1.5,0-2.9-0.8-2.9-3.2c0-2.4,1.2-2.9,3.4-3c15.1-0.9,22.5-6.4,22.5-23.3c0-11.6-6.8-20.9-15.4-20.9
		c-5.4,0-10.4,3.5-10.4,8.2c0,5,1.8,7.6,1.8,11c0,5.1-2.7,9.2-8.5,9.2c-6.4,0-9.2-4.8-9.2-11.5c0-12.6,12-24.4,29-24.4
		C52,0,61.6,12.7,61.6,27.2c0,16.9-7.9,25.4-23.2,26.6c-2.2,0.2-2.1,0.9,0.1,0.9c15.7,0.2,26.7,13.2,26.7,30.7
		C65.2,106.6,53.8,118.1,31.8,118.1z"/>
	<path d="M102.2,118.1c-21.8,0-31.2-12.7-31.2-24.7c0-5.6,2.4-11.3,7.6-11.3c15.9,0,3.9,28.4,23.6,28.4c8.2,0,15-8.6,15-25
		c0-19.8-9.2-31.8-19.6-31.8c-8.8,0-13.6,3.2-18.8,9.8c-1.3,1.7-2.8,2.4-4,1.5c-1.3-0.9-0.7-3-0.6-4.8l5.1-56.7
		c0.1-0.8,0.2-0.9,1.6-0.9h41.1c2.2,0,5.1-0.5,6.1-1.2c3.3-1.8,3.6-1.4,3,1.8c-0.6,3.9-2.3,12.7-3,17.7c-0.1,1.1-0.4,1.2-0.8,1.2
		h-43l-2.9,29.9c-0.1,0.8,0.1,2.1,1.2,0.9c4.1-4.8,11.6-8,20.9-8c19.5,0,33,13.2,33,35.2C136.6,103,124.6,118.1,102.2,118.1z"/>
	<path d="M173.8,118.1c-25.5,0-32.8-26.5-32.8-59c0-28,6.9-59.1,32.8-59.1c25.8,0,33,27.7,33,59.1
		C206.8,87.6,199.5,118.1,173.8,118.1z M173.8,7.6c-9.3,0-13.1,18.5-13.1,51.7c0,34.2,3.8,50.8,13.1,50.8c9.3,0,13.1-16.6,13.1-50.8
		C186.8,26,183.1,7.6,173.8,7.6z"/>
	<path d="M272.3,115.4h-16.8c-0.8,0-1.2-0.2-1.2-1.5c0-1.1,0.1-1.5,0.8-1.8c1.7-0.9,2.2-1.7,2.2-5.9c0.1-8,0.1-19.2,0.1-33.7
		c0-18.6-0.4-25.4-3.8-25.4c-1.8,0-3,2-4.4,4.8c0.5,5.3,0.6,11.9,0.6,19.8c0,12.9,0.1,25.4,0.1,34.5c0,4.7,0.7,5.4,1.9,5.9
		c0.6,0.2,0.7,0.8,0.7,1.8c0,1.4-1,1.5-1.2,1.5h-15.4c-0.8,0-1.2-0.2-1.2-1.5c0-1.1,0.2-1.5,0.8-1.8c1-0.5,1.9-1.7,1.9-5.9
		c0.1-8,0.1-19.2,0.1-33.7c0-18.6-0.2-25.4-3.8-25.4c-1.7,0-2.9,1.2-4,3.5c0,8.8,0,19.5,0,25.3c0,12.4,0,18.9,0,30.6
		c0,4.5,0.8,5.3,2.1,5.7c0.6,0.2,0.7,0.8,0.7,1.8c0,1.4-0.2,1.5-1.1,1.5h-17.7c-0.6,0-1-0.2-1-1.5c0-1.1,0.1-1.7,0.8-1.8
		c1-0.5,2.9-1.5,2.9-5.9c0-11.9,0.1-17.7,0.1-30.4c0-8.9,0-16-0.1-25.3c0-4.1,0-4.8-2.8-4.8c-1.3,0-1.3-3.6-0.1-3.9
		c4.7-1.1,11.5-3.8,15.2-5c0.5-0.2,1.2,0.6,1.1,3.6c0,0.6-0.1,1.8-0.1,3.3c2.4-4.2,5.9-7,8.5-7c5.4,0,8.1,3.6,9.7,9.8
		c2.4-5.7,6.8-9.8,9.9-9.8c10.8,0,12.3,9.5,12.3,34.9c0,13.6,0.1,25.4,0.1,34.5c0,4.7,0.7,5.4,1.9,5.9c0.6,0.2,0.7,0.8,0.7,1.8
		C273.3,115.3,273.1,115.4,272.3,115.4z M332.8,115.4h-16.8c-0.8,0-1.2-0.2-1.2-1.5c0-1.1,0.1-1.5,0.8-1.8c1.7-0.9,2.2-1.7,2.2-5.9
		c0.1-8,0.1-19.2,0.1-33.7c0-18.6-0.4-25.4-3.8-25.4c-1.8,0-3,2-4.4,4.8c0.5,5.3,0.6,11.9,0.6,19.8c0,12.9,0.1,25.4,0.1,34.5
		c0,4.7,0.7,5.4,1.9,5.9c0.6,0.2,0.7,0.8,0.7,1.8c0,1.4-1,1.5-1.2,1.5h-15.4c-0.8,0-1.2-0.2-1.2-1.5c0-1.1,0.2-1.5,0.8-1.8
		c1-0.5,1.9-1.7,1.9-5.9c0.1-8,0.1-19.2,0.1-33.7c0-18.6-0.2-25.4-3.8-25.4c-1.7,0-2.9,1.2-4,3.5c0,8.8,0,19.5,0,25.3
		c0,12.4,0,18.9,0,30.6c0,4.5,0.8,5.3,2.1,5.7c0.6,0.2,0.7,0.8,0.7,1.8c0,1.4-0.2,1.5-1.1,1.5h-17.7c-0.6,0-1-0.2-1-1.5
		c0-1.1,0.1-1.5,0.8-1.8c1.2-0.5,2.9-1.5,2.9-5.9c0-11.9,0.1-17.7,0.1-30.4c0-8.9,0-16-0.1-25.3c0-4.1,0-4.8-2.8-4.8
		c-1.3,0-1.3-3.6-0.1-3.9c4.7-1.1,11.5-3.8,15.2-5c0.5-0.2,1.2,0.6,1.1,3.6c0,0.6-0.1,1.8-0.1,3.3c2.4-4.2,5.9-7,8.5-7
		c5.4,0,8.1,3.6,9.7,9.8c2.4-5.7,6.8-9.8,9.9-9.8c10.8,0,12.3,9.5,12.3,34.9c0,13.6,0.1,25.4,0.1,34.5c0,4.7,0.7,5.4,1.9,5.9
		c0.6,0.2,0.7,0.8,0.7,1.8C333.8,115.3,333.6,115.4,332.8,115.4z"/>
</g>
</svg>
