<!-- Generator: Adobe Illustrator 19.0.0, SVG Export Plug-In  -->
<svg version="1.1"
	 xmlns="http://www.w3.org/2000/svg" xmlns:xlink="http://www.w3.org/1999/xlink" xmlns:a="http://ns.adobe.com/AdobeSVGViewerExtensions/3.0/"
	 x="0px" y="0px" width="309px" height="98px" viewBox="0 0 309 98" style="overflow:scroll;enable-background:new 0 0 309 98;"
	 xml:space="preserve">
<style type="text/css">
	.st0{fill:#FF0000;}
</style>
<defs>
</defs>
<rect width="309" height="98"/>
<g>
	<path class="st0" d="M83.7,77.8c-1.9,0.4-3.9,0.6-6.2,0.6c-5.6,0-9.9-2.4-12.3-7.6C62.5,65,59.6,57,57.5,51c-0.7-2-5.4-2.5-5.4-2.5
		v24.8c0,2.1,1,2.9,4.5,3.3c0.4,0.1,0.6,0.2,0.6,0.9c0,0.6-0.2,0.8-0.7,0.8H37c-0.6,0-0.7-0.2-0.7-0.8c0-0.6,0.3-0.8,0.6-0.9
		c3.6-0.5,4.7-1.1,4.7-3.3V23.2c0-2.3-1-2.9-4.7-3.4c-0.4-0.1-0.6-0.2-0.6-0.9c0-0.6,0.3-0.8,0.7-0.8c8.9,0,14.9-0.3,23.6-0.3
		c9.9,0,16.1,5.7,16.1,15c0,8.3-2.8,13.7-9.6,15.5c1.9,5.6,5.9,15.2,9.3,21.9c2.6,5,4.3,6.1,7.2,6.1c0.5,0,0.6,0.1,0.6,0.7
		C84.2,77.6,84.1,77.8,83.7,77.8z M57.5,20.8c-1.9,0-4.8,0.2-5.4,0.2v21.6c0,2.6,3.3,3.2,6.6,3.2c4.7,0,7.8-5,7.8-13.1
		C66.5,25.5,62.9,20.8,57.5,20.8z"/>
	<path class="st0" d="M125.2,78.2h-20.6c-0.5,0-0.7-0.2-0.7-0.7c0-0.6,0.1-0.9,1-1c3.2-0.5,4-1,3.5-2.7l-3.9-12.5H88.1l-2.6,8.5
		c-1.1,3.6-0.1,5.5,5.5,6.9c0.5,0.2,0.7,0.3,0.7,1s-0.3,0.7-1,0.7H75.8c-0.8,0-1-0.1-1-0.7s0.1-0.8,0.7-1c3.6-1.1,5.3-3.4,6.4-7
		l15.6-51.2c0.4-1.2,0.8-1.7,1.9-1.7c1.1,0,1.5,0.5,1.9,1.8l18.5,54.3c0.7,2.1,2.6,3.4,5.3,3.8c0.5,0.1,0.6,0.2,0.6,0.8
		C125.8,78,125.7,78.2,125.2,78.2z M96.2,34.5l-7.1,23.3h14.3L96.2,34.5z"/>
	<path class="st0" d="M164.1,19.8c-2.6,1-4.7,2.8-6.3,6.6l-10.5,24.3v22.4c0,2.2,1.2,2.9,5.2,3.4c0.3,0.1,0.6,0.2,0.6,0.9
		c0,0.6-0.2,0.8-0.7,0.8h-20.9c-0.5,0-0.7-0.2-0.7-0.8c0-0.6,0.3-0.8,0.6-0.9c4.1-0.6,5.2-1.2,5.2-3.4V55l-15.2-32.6
		c-0.7-1.5-2.8-2.2-4.4-2.6c-0.5-0.1-0.5-0.3-0.5-0.8c0-0.6,0.1-0.9,0.6-0.9h20.3c0.5,0,0.6,0.2,0.6,0.7c0,0.6-0.1,0.9-0.8,1
		c-3.2,0.6-3.8,1.2-3.3,2.5l11.6,24.9l8.8-20.8c1.3-3.1,0.2-5-4.7-6.7c-0.5-0.2-0.7-0.3-0.7-1s0.2-0.7,0.9-0.7h14.2
		c0.7,0,1,0.1,1,0.7S164.7,19.6,164.1,19.8z"/>
	<path class="st0" d="M204.1,79.7c-15.2,0-24-12.5-24-31.5c0-19,8.8-31.6,24-31.6c15.3,0,24,12.6,24,31.6
		C228.1,67.2,219.4,79.7,204.1,79.7z M202.8,20.5c-6.8,0-11.4,7.6-11.6,23.3c0,18.4,5.7,32,13.9,32c6.7,0,11.6-7.7,11.6-23.3
		C216.7,33.2,211.1,20.5,202.8,20.5z"/>
	<path class="st0" d="M275.2,19.8c-3.6,1-5.5,3.3-5.5,6.8v50.1c0,2.3,0.1,3-0.7,3c-1.5,0-2.1-0.4-3.3-2.3l-28.7-49.7v42
		c0,3.6,2.4,6,5.9,6.8c0.4,0.1,0.7,0.2,0.7,0.9c0,0.6-0.2,0.8-0.7,0.8h-14.7c-0.5,0-0.7-0.2-0.7-0.8c0-0.6,0.3-0.8,0.6-0.9
		c3.7-0.9,5.4-3.3,5.4-6.8V24.2c-1.2-3.3-2.7-3.5-5.4-4.4c-0.4-0.2-0.6-0.2-0.6-0.9c0-0.6,0.2-0.8,0.7-0.8h14.4c1,0,1.4,0.6,1.9,1.4
		l21.8,37.1v-30c0-3.6-2.4-6-6-6.8c-0.3-0.1-0.6-0.2-0.6-0.9c0-0.6,0.2-0.8,0.7-0.8h14.8c0.5,0,0.7,0.2,0.7,0.8
		C275.9,19.6,275.6,19.7,275.2,19.8z"/>
</g>
</svg>
