<!-- Generator: Adobe Illustrator 19.0.0, SVG Export Plug-In  -->
<svg version="1.1"
	 xmlns="http://www.w3.org/2000/svg" xmlns:xlink="http://www.w3.org/1999/xlink" xmlns:a="http://ns.adobe.com/AdobeSVGViewerExtensions/3.0/"
	 x="0px" y="0px" width="462.7px" height="142.2px" viewBox="0 0 462.7 142.2"
	 style="overflow:scroll;enable-background:new 0 0 462.7 142.2;" xml:space="preserve">
<defs>
</defs>
<g>
	<path d="M18.9,12.3c-0.3,16.7,0,22.8-0.1,25.7c-0.3,9.7-10.6,9.5-10.5-0.7c0-2.5,0.3-5.7,0.3-9c0-3.1,0.1-11.1,0-17.2
		C8.5,7.8,8.3,5.5,6.2,5C5,4.7,5,3.9,6.1,3.3c4-2.6,13.2,0,14.3,4.1C20.9,9.3,19,9.7,18.9,12.3z M45.3,11.7
		c-0.1,6.6-0.1,13.8-0.1,19.2c0.1,20.6-7.4,32.7-31.4,39.2c-1.7,0.5-1.9,0-0.3-1.1c14.8-10.2,21.1-22,21.2-38.6c0-6,0-12.3-0.1-19.7
		c-0.1-4.3-0.3-6.8-3.2-7.7c-1.3-0.3-1.4-1.3-0.2-2C36.3-2,45.9,2.5,46.7,6C47.3,8.2,45.4,8.2,45.3,11.7z"/>
	<path d="M65.8,58.3c-1.8,0.8-2.6,2.1-4,2.1c-4.8-0.2-8.4-9.8-7.1-15.2c0.4-1.7,0.7-1.5,1.3,0c1.7,4.1,4.2,4.1,8.7,3.5
		c9.1-1.2,26.2-2.7,37.7-2.7c2.5,0,3.4-0.9,6-0.5c9.3,1.6,9.3,15,1.3,11.7C98.6,52.6,73.9,54.3,65.8,58.3z M72.4,22.8
		c-6.8,0.5-9.1-5.3-8.3-10.9c0.3-1.4,0.5-1.4,1-0.1c1.2,2.4,4.6,2.5,8.1,2.2c4.4-0.2,11.7-1,17-2.1c2.5-0.4,3.5-2,5.9-1.8
		c9.4,0.7,9.1,11,2.3,10.5C92.7,20.2,76.8,22.5,72.4,22.8z"/>
	<path d="M169.6,20.7c-5.9,4-10.5,6.6-18,9.4c-6,20.1-14.7,32.4-32.2,41.3c-1.6,0.8-1.8,0.3-0.4-1.1c11.9-12.2,18-25.3,20.4-38.9
		c0.6-3.3,0.1-6.5-2.7-7.7c-1.6-0.7-1.9-1.2-0.1-1.9c5.8-2.2,12.1,1.2,16,5.7c3.2-5.9,4.9-10.6,6.6-16.1c0.6-1.9,0.3-2.2-1.3-2
		c-8.1,1.6-19.2,3.8-28.1,6.8c-3.3,1.2-4,3-6.6,2.9c-3.9-0.1-7.4-10.2-6.4-16.2c0.3-1.9,0.6-1.6,1.3-0.1c1.5,3.2,4.2,4.1,8.8,3.9
		c9.5-0.5,20.4-1.1,29.2-1.8c3.8-0.3,3.9-2.9,6.4-2.8c4,0.1,13.3,13.6,12.4,16.4C174,21.2,171.8,19.2,169.6,20.7z"/>
	<path d="M195.1,42.3c-3.8,0-7-3.8-7-8.6c0-4.9,3.2-8.8,7-8.8c3.8,0,7,3.9,7,8.8C202.1,38.5,198.9,42.3,195.1,42.3z"/>
	<path d="M53,91.1c-5.9,4-10.5,6.6-18,9.4c-6,20.1-14.7,32.4-32.2,41.3c-1.6,0.8-1.8,0.3-0.4-1.1c11.9-12.2,18-25.3,20.4-38.9
		c0.6-3.3,0.1-6.5-2.7-7.7c-1.6-0.7-1.9-1.2-0.1-1.9c5.8-2.2,12.1,1.2,16,5.7c3.2-5.9,4.9-10.6,6.6-16.1c0.6-1.9,0.3-2.2-1.3-2
		c-8.1,1.6-19.2,3.8-28.1,6.8c-3.3,1.2-4,3-6.6,2.9c-3.9-0.1-7.4-10.2-6.4-16.2c0.3-1.9,0.6-1.6,1.3-0.1c1.5,3.2,4.2,4.1,8.8,3.9
		c9.5-0.5,20.4-1.1,29.2-1.8c3.8-0.3,3.9-2.9,6.4-2.8c4,0.1,13.3,13.6,12.4,16.4C57.3,91.6,55.2,89.6,53,91.1z"/>
	<path d="M109.3,95.4c-9.7,24.3-23.1,38.5-52.2,44.6c-1.6,0.3-1.9-0.2-0.6-1c23.6-12.3,36.5-30.7,42-50.1c0.4-1.3,0.2-1.6-0.9-1.2
		c-3.9,1.2-10.1,2.6-12.8,3c-1,0.2-2.3-0.3-3.1-1.6c-5.4,11.1-12.5,19.1-25.2,24.9c-1.5,0.7-1.8,0.4-0.5-0.9
		c9-9.5,15.3-22.3,18-33.8c1-4.2-0.1-6.3-1.5-7.2c-0.9-0.6-1-1,0.1-1.7c5-3.3,15.4,2.4,15.2,6.5c-0.1,1.7-1.7,2.1-2.6,4.2
		c-0.3,0.8-0.7,1.7-1.2,3.1c5.7-1.2,10.3-2.5,13.1-3.2c2.1-0.6,2.5-2.8,3.8-2.9c3.2-0.2,12.3,7.6,12.3,11.6
		C113.1,92.1,111,91.1,109.3,95.4z"/>
	<path d="M168.4,101.1c-5.4,4.4-12.2,8.7-18.8,11.2c-1.8,0.7-2.1,0.3-0.9-1.2c3.8-4.6,8.8-13,10.7-17.9c0.6-1.5,0.3-1.7-1-1.2
		c-4.5,1.6-10.4,3.8-16.4,6.2c-0.3,8.1-0.6,16-0.7,21.4c-0.1,3.4,1.7,5.2,4.3,5.3c4.4,0.2,7.6-0.5,11.7-1c2.7-0.3,2.6-1.1,6.3-1.3
		c8.1-0.6,9.4,10.6,1.7,12.2c-8,1.6-16,1.6-20.2,1.2c-9.3-0.7-12.7-7.9-12.3-18.6c0.2-5.3,0.3-10.4,0.3-15.5c-2.9,1.2-6,2.7-8.4,3.8
		c-2.4,1.2-2.5,3.2-4.2,3.6c-3.2,0.7-7.7-8.4-6.6-13.9c0.3-1.3,0.5-1.2,1.1-0.1c1.4,2.3,3.6,2.6,7.6,1.7c2.8-0.7,6.5-1.7,10.5-2.7
		c-0.1-4.2-0.1-8.5-0.2-12.8c-0.1-4.5-0.9-7-3.4-8.2c-1.3-0.6-1.3-0.8-0.1-1.8c4.4-3.8,15.5,1.4,15.4,5.5c-0.1,2.1-1.5,1.9-1.7,5.3
		c-0.2,2.9-0.4,6-0.5,9.4c5.8-1.7,11.4-3.4,15.5-4.8c3.2-1.1,2.3-2.7,4.5-2.7c2.7,0,11.3,11.2,10.9,13.6
		C172.6,100.6,170.4,99.5,168.4,101.1z"/>
	<path d="M225.2,102.7c-7.7,21.5-19.6,31.9-44.8,37.9c-1.7,0.4-1.9-0.2-0.3-1c19.6-10.9,30.2-26.4,33.7-42.8c0.3-1.4,0.3-2-1.2-1.7
		c-9.3,1.5-18,3.5-26,6c-2.1,0.7-2.9,2.6-4.5,2.4c-4.4-0.4-7.6-9.4-6.6-14c0.4-1.7,0.7-1.4,1.3-0.2c1.7,3.2,3.6,3.4,8.8,3.1
		c6.1-0.4,16.6-1.4,26.8-2.6c3-0.3,2.9-2.4,4.9-2.3c3.2,0.1,10.9,7.8,11,10.4C228.4,100.1,226.3,99.6,225.2,102.7z M190.1,81.5
		c-5-0.3-7.5-4.9-7.4-9c0.1-1.6,0.1-1.5,1.1-0.4c1.6,1.7,4.2,2.1,8.2,2c3.5-0.1,11.3-0.7,14.6-1.3c2.7-0.5,3-1.2,5.6-1.7
		c6.1-0.9,8.3,7.6,0.1,8.8C207.4,80.6,196,82,190.1,81.5z"/>
	<path d="M251.5,131c-2.3,1.5-2.1,4-3.9,4.3c-2,0.3-8.9-10.1-8.6-13.8c0.2-2.1,1.5-1,1.5-6.3c0.1-8.5,0.1-20.2-0.2-31.2
		c-0.1-4.6-1.1-6-4-7c-1.5-0.5-1.5-1-0.3-1.8c5.4-3.8,17,1.7,16.8,6.2c-0.1,1.5-1.8,1.7-2,4.7c-0.5,6.7-0.8,20.5-0.9,29.3
		c0,1.1,0.3,1.2,1.1,0.8c14.9-5.8,26.5-14.6,37.6-28.8c1.5-1.9,1.9-1.7,0.9,0.6C281.4,107,272.7,117.7,251.5,131z"/>
	<path d="M302.4,109.2c-3.6,0.2-3.2,1.9-5.5,2c-4.6,0.2-8.2-11.1-6-17.9c0.6-1.8,1.1-2,1.7-0.2c1.1,3,4.1,3.6,8,3.6
		c15.7,0.1,21.2-0.2,38.5-0.7c10.5-0.3,7.2,12.3,1.1,12.6C331.1,109.1,330.1,108.1,302.4,109.2z"/>
	<path d="M400.2,95.5c-2.6,7-5.7,13.3-9.6,18.9c1.3,1.3,2.5,2.7,3.5,4c9.1,11.6-1.6,23.3-7,9.9c-0.7-1.9-1.8-4-3-6.1
		c-8.6,8.5-19.9,14.4-35.3,17.9c-1.6,0.3-2-0.3-0.6-1c12.4-6.3,22.5-15.2,30-25.7c-2.9-3.8-6.2-7.6-9.9-10.9c-1.1-1-1-1.7,0.3-1.2
		c4.6,1.4,9.1,3.6,13.3,6.4c3.6-6,6.5-12.5,8.5-19.3c0.4-1.3,0.2-1.7-0.9-1.2c-3.8,1.3-10.1,3.1-12.8,3.5c-1,0.2-2.1-0.6-3-1.8
		c-5.6,11.4-13.4,19.6-25.7,25.3c-1.5,0.7-1.7,0.5-0.5-0.8c9.5-9.7,16-22,18.8-33.6c1-4.2-0.1-6.3-1.5-7.2c-0.9-0.6-1-0.9,0.1-1.7
		c4.8-3.3,14.9,2.7,14.7,6.3c-0.1,1.7-1.8,2.1-2.6,4.2c-0.4,1-0.8,2-1.2,3c5.5-1.2,10.1-2.5,12.9-3.2c2.1-0.6,2.3-2.2,4-2.2
		c3.9-0.1,11.7,7.9,11.3,11C403.7,92.2,401.7,91.1,400.2,95.5z"/>
	<path d="M419.1,109.2c-3.6,0.2-3.2,1.9-5.5,2c-4.6,0.2-8.2-11.1-6-17.9c0.6-1.8,1.1-2,1.7-0.2c1.1,3,4.1,3.6,8,3.6
		c15.7,0.1,21.2-0.2,38.5-0.7c10.5-0.3,7.2,12.3,1.1,12.6C447.8,109.1,446.8,108.1,419.1,109.2z"/>
</g>
</svg>
