<!-- Generator: Adobe Illustrator 19.0.1, SVG Export Plug-In  -->
<svg version="1.1"
	 xmlns="http://www.w3.org/2000/svg" xmlns:xlink="http://www.w3.org/1999/xlink" xmlns:a="http://ns.adobe.com/AdobeSVGViewerExtensions/3.0/"
	 x="0px" y="0px" width="70.3px" height="272px" viewBox="0 0 70.3 272"
	 style="overflow:scroll;enable-background:new 0 0 70.3 272;" xml:space="preserve">
<style type="text/css">
	.st0{fill:#FFFFFF;}
</style>
<defs>
</defs>
<g>
	<path class="st0" d="M64.4,83c-0.1,1.2-0.8,1.8-1.9,1.4c-4.7-1.9-8.5-4.6-11.6-8.1c-3.5,3.4-7.6,5.9-12.6,7.6
		c-1.3,0.5-1.4-1-0.6-1.8c3.5-4,6.2-8.4,8.3-13c-2.7-5.4-4.6-12.3-5.8-21.1c-0.3,0.1-0.7,0.2-1,0.3c-0.6,0.2-1.3-0.1-1.6-0.9
		c-0.2-0.4-0.4-1.2-0.6-1.9c-0.1,12.1-0.1,28.4,0.1,36.8c0.1,2.2-2.6,3.4-6.4,3.6c-3.7,0.1-5.6-0.6-5.4-3.4
		c0.2-3.3,0.2-7.7,0.3-12.5c-5.5,4.2-11,7-16.3,9c-0.7,0.3-1.1,0.8-1.2,2.3c-0.3,2.6-2.3,2.5-2.8,0.6c-1.3-4.6-2.6-10.1-3.3-14.6
		c-0.4-2.1,0.3-1.6,1.2-1.6c1.5,0.1,3,0.1,4.7,0.2c0.2-9.1,0-22.2-0.2-28.6c-1.7,0.1-3.2,0.3-4.1,0.7c-0.6,0.2-1.3-0.1-1.6-0.9
		c-0.3-0.8-0.9-2.7-1.1-3.8c-0.2-1.1,0.2-1.2,1.1-1c2.3,0.9,6.4,1.2,9.2,1.2h42.3c0.7,0,1,0,1.5-0.6c1.3-1.7,3.6-4.3,5-6
		c0.5-0.6,1.4-0.6,2,0c2.3,2.2,4.9,5.4,7.1,7.8c0.6,0.7,1,2.7-0.6,2.7H37c0,1-0.1,3.2-0.1,5.3c0.2,0,0.4-0.3,0.6-0.2
		c2.3,0.9,5.6,1,8.5,1h4.6c0.6,0,1.1,0,1.5-0.5c1.3-1.4,3-3.2,4.1-4.3c0.7-0.7,1.6-0.5,2.3,0.1c2.5,1.9,5.6,4.8,7.5,6.7
		c1.7,1.6,1.2,4.1-0.5,5c-1.7,0.9-2.4,1.1-2.8,2.5c-1.2,4.8-2.8,9-4.6,12.7c3.2,1.1,6.7,1.7,10.4,1.7c1.5,0.1,1.3,2.1,0.4,2.7
		C66.2,72.2,64.8,77,64.4,83z M60.5,10.5c-1.1,1-1.9,1.4-2,3.3c-0.1,2.8,0,7.3,0.2,12.1c0.2,3.9-2.5,4.4-6.8,4.8
		c-3.6,0.3-6.1-0.1-6.1-3.1H23.6c-0.2,3-2.2,4-6.9,4.2c-3.7,0.2-6.1-0.2-6-3.5c0.5-7.8,0.8-20.9-0.1-25.1c-0.6-3.2,0-2.8,1.2-2.4
		c4.6,1.5,12.7,4.8,12.7,4.8h19.1c0.9,0,1.3-0.3,1.8-0.8c1.1-1,3.3-3,4.8-4.4c0.5-0.6,1.3-0.6,2.3,0c2,1.3,5.8,3.8,8.2,5.6
		C61.7,7.1,62.1,9.1,60.5,10.5z M25.8,46.6h-7.3c0.1,2,0,5,0.1,7h7.2C25.8,51.6,25.8,48.6,25.8,46.6z M25.8,37.6h-7.1
		c0,1-0.1,3-0.1,6h7.2C25.8,41.6,25.8,38.6,25.8,37.6z M25.8,57.6h-7c0,2,0,5.5,0,7.9c2-0.2,5-0.5,7-0.8
		C25.8,62.4,25.8,59.6,25.8,57.6z M45.9,8.6H23.6c-0.1,1-0.1,4-0.1,6H46C46,12.6,46,9.6,45.9,8.6z M23.5,17.6c0,2,0,5,0.1,7h22.3
		c0.1-2,0.1-5,0.1-7H23.5z M46,47.6c-1.4,0-2.6,0-3.8,0.2c1.8,5.3,4.1,9.4,7.1,12.4c1.2-4.3,2-8.6,2.6-12.6H46z"/>
	<path class="st0" d="M67.6,135.6H49.3c-0.2,9-0.2,17.2,0,23.5c0.1,2.6,0.8,2.8,2.2,3c2.3,0.4,4.4,0.4,6.8,0c2.3-0.4,3-1.8,5.4-14.3
		c0.3-1.8,1.9-1.9,1.9,0.2c0,11.2,0,11.6,2.1,13.1c3.3,2.3,4.1,14.1-4.4,15.1c-5.5,0.7-12.7,0.8-17.9,0c-6.5-1-8.8-3.5-8.5-12.5
		c0.2-9.3,0.2-19.1,0.1-28.1h-6.1c-0.7,27-7.3,39.6-29.4,43.5c-1.7,0.3-1.8-1.7-0.8-2.4c11.7-9.2,17.5-19,17.5-41h-5.4
		c-3,0-6.1,0-7.6,0.6c-0.6,0.2-1.3-0.2-1.6-1c-0.3-0.8-0.9-2.7-1.1-3.7c-0.2-1.1,0.1-1.3,1-1c2.3,0.9,6.4,1.1,9.2,1.1h16.5
		c0.1-6,0.2-11,0.2-18h-9.2c-3.3,7-7.9,12.8-14,16.6c-1.2,0.7-1.6-0.6-1.2-1.5c4.4-12.5,6.7-24.8,6.6-31.3c0-1.7,0.2-1.9,1.2-1.6
		c4.2,1.3,9.9,2.6,13.8,4.1c2.3,0.8,1.8,3.6-0.9,3.9c-1.4,0.2-1.9,0.6-2.3,1.7c-0.5,1.7-1.1,3.1-1.8,5.1h7.6
		c0.1-7-0.1-12.1-0.4-14.4c-0.5-2.8-0.9-3.1,1-2.9c4,0.4,9.4,1.2,13.7,1.9c2.3,0.5,2.4,3.2,0.2,4.1c-1.3,0.5-1.9,1.2-1.9,2.6
		c-0.1,2.4-0.1,5.8-0.1,8.8h4.2c0.7,0,1.2-0.2,1.6-0.9c1.4-2.1,3.6-5.5,5.4-7.9c0.5-0.8,1.2-0.7,2,0c2.6,2.5,5.9,6,8.5,9.4
		c0.7,0.8,0.9,2.4-0.7,2.4h-21c0,7,0,12,0.1,18H50c0.7,0,1.2-0.1,1.6-0.7c1.6-2.5,3.7-6.1,5.6-9c0.5-0.8,1.3-0.6,2,0
		c2.8,2.9,6.3,7.3,9,10.9C69,133.5,69.1,135.6,67.6,135.6z"/>
	<path class="st0" d="M69,223.6H53.3c-2.7,3-5.7,6-8.4,9h10.6c0.7,0,1.2-0.4,1.6-0.9c1.1-1.4,2.7-3.5,3.8-4.6c0.6-0.6,1.3-0.5,1.9,0
		c1.7,1.4,4.5,4.1,6.4,6c1.2,1.3,1.2,3.3-0.1,4.2c-1.2,0.9-1.8,1.5-1.8,2.7c-0.1,3.8-0.1,17.3,0,22.5c0,5.2-1.2,8.7-9.2,9.6
		c-0.6,0-1.4,0-1.5-1.5c-0.1-5.5-0.2-8-1.6-9.5c0,1.2,0,2.1,0.1,2.9c0.1,3-1.3,3.5-4.1,3.7c-2.9,0.3-4.1-0.5-3.9-3.7
		c0.2-3.9,0.4-20.4,0.2-28.4h-1.9c0,8,0.1,24.4,0.2,30.2c0.1,3-1.2,3.6-4.1,3.8c-3,0.3-4-0.4-3.9-3.6c0.2-4.4,0.5-21.3,0.3-30.3h-2
		c0,7,0,24.7,0.2,31.7c0.1,3.4-1.1,4.4-5.4,4.6c-3.1,0.2-5-0.1-4.8-3.4c0.3-4.6,0.5-14.5,0.5-23.7c-6.8,8.4-13.9,14-19.7,17.6
		c-0.4,0.2-0.7,0.8-0.9,2.3c-0.2,2.7-2.2,2.6-2.6,0.8c-1.3-5.4-2.3-11.6-3-15.6c-0.3-2.3,0.2-1.8,1.2-1.9c2.6-0.1,6.7-0.7,11.5-1.7
		c1.6-11.7,2.3-25.8,2.3-35.2c0-1.4-0.4-2.1,1.1-1.8c3.6,0.7,7.1,1.9,11.1,3.1c0.1-1.6,0.2-3.6,0.2-4.6H9.9c-2.3,0-5.4,0.1-7,0.6
		c-0.6,0.2-1.2-0.2-1.6-0.9c-0.3-0.8-0.8-2.7-1-3.8c-0.2-1.1,0.1-1.2,1-0.8c1.7,0.6,4.2,1,6.4,1.2c0.2-6.6,0.1-10.1-0.2-13
		c-0.4-4.5-0.7-4.5,1.2-4.3c4,0.5,8.4,1.2,12,1.8c2.9,0.7,1.6,3.6,0.2,4.1c-1.6,0.6-2,1.1-2,2.4c-0.1,2.7,0,6.3,0,8.5
		c1.2-2.6,1.9-4.3,3-6.2c0.4-0.8,1.1-1,1.7,0c1.3,1.7,2.8,4.4,4.1,6.9c0-4.8-0.2-9.1-0.5-11.2c-0.5-2.7-0.6-3.2,0.9-3
		c3.5,0.5,8.2,1.2,11.2,2c1.6,0.5,1.8,2.6,0.2,3.5c-1.2,0.6-1.6,1.2-1.6,2.5c-0.1,2.3-0.1,6.6,0,10.6h3.3c0.3-7,0.2-16-0.3-19.2
		c-0.4-2.6-0.6-3.2,0.9-3c3.2,0.3,8.4,1.2,11.6,1.9c1.7,0.4,1.9,2.6,0.2,3.5c-1.2,0.7-1.6,1.1-1.6,2.5c-0.1,1.9-0.2,8.3-0.1,14.3
		h3.7c0.2-6,0.2-12.3-0.3-15.6c-0.4-2.7-0.7-3.2,0.9-3c3.3,0.5,8.6,1.6,11,2.1c1.8,0.5,1.8,2.8,0.2,3.5c-1,0.5-1.4,1.1-1.4,2.4
		c-0.1,2.8-0.1,9,0.1,13c0.1,1.9-0.7,3-2.7,3.5c2,1.7,4.4,4.3,6.4,6.3C70.4,221.5,70.7,223.6,69,223.6z M3.5,235.7
		c-0.1-8.3,3.1-13.5-0.4-24.3c-0.5-1.6,0.8-1.8,1.5-1c5.9,7.5,9.4,14.6,8.8,24.1C12.9,244.4,3.6,245.2,3.5,235.7z M34.9,223.6
		c-3.1,0-6.1,0-7.7,0.6c-0.6,0.2-1.3-0.2-1.6-1c-0.3-0.7-0.7-2.2-1-3.2c-2,8.5-4.6,17.8-7.8,25.2c3-0.9,6.4-1.9,9.7-3
		c-0.1-5-0.2-10.3-0.5-12.2c-0.3-2.6-0.3-2.9,1.2-2.2c4.1,1.7,9.5,4.9,9.5,4.9h2.1c0.4-3,0.7-7,0.9-9H34.9z M55.5,211.6H38
		c0.2,4-1.6,4.6-5.6,4.9c-2.9,0.3-4.4-0.1-4.9-1.5c-1.3,0.2-2,0.8-2.2,1.6c-0.2,0.6-0.2,1.2-0.4,1.9c0.2,0,0.4-0.1,0.6,0
		c2.3,0.9,6.4,1.2,9.3,1.2h19.9c0.8,0,1.3-0.2,1.8-0.8c1.1-1.5,2.2-3,3.2-4.3C56.9,214.8,55.5,214.6,55.5,211.6z M54.8,235.6
		c-0.1,6,0,15,0.1,22c0.4,0,0.7,0,1,0c1,0,1.3-0.6,1.4-2.1c0.2-2.3,0.2-15.9,0.1-19.9H54.8z"/>
</g>
</svg>
