<!-- Generator: Adobe Illustrator 19.0.1, SVG Export Plug-In  -->
<svg version="1.1"
	 xmlns="http://www.w3.org/2000/svg" xmlns:xlink="http://www.w3.org/1999/xlink" xmlns:a="http://ns.adobe.com/AdobeSVGViewerExtensions/3.0/"
	 x="0px" y="0px" width="70.3px" height="272.1px" viewBox="0 0 70.3 272.1"
	 style="overflow:scroll;enable-background:new 0 0 70.3 272.1;" xml:space="preserve">
<style type="text/css">
	.st0{fill:#FFFFFF;}
</style>
<defs>
</defs>
<g>
	<path class="st0" d="M64.4,83.1c-0.1,1.2-0.8,1.8-1.9,1.4c-4.7-1.9-8.5-4.6-11.6-8.1c-3.5,3.4-7.6,5.9-12.6,7.6
		c-1.3,0.5-1.4-1-0.6-1.8c3.5-4,6.2-8.4,8.3-13c-2.7-5.4-4.6-12.3-5.8-21.1c-0.3,0.1-0.7,0.2-1,0.3c-0.6,0.2-1.3-0.1-1.6-0.9
		c-0.2-0.4-0.4-1.2-0.6-1.9C36.8,57.7,36.8,74,37,82.3c0.1,2.2-2.6,3.4-6.4,3.6c-3.7,0.1-5.6-0.6-5.4-3.4c0.2-3.3,0.2-7.7,0.3-12.5
		c-5.5,4.2-11,7-16.3,9c-0.7,0.3-1.1,0.8-1.2,2.3c-0.3,2.6-2.3,2.5-2.8,0.6c-1.3-4.6-2.6-10.1-3.3-14.6c-0.4-2.1,0.3-1.6,1.2-1.6
		c1.5,0.1,3,0.1,4.7,0.2c0.2-9.1,0-22.2-0.2-28.6c-1.7,0.1-3.2,0.3-4.1,0.7c-0.6,0.2-1.3-0.1-1.6-0.9c-0.3-0.8-0.9-2.7-1.1-3.8
		c-0.2-1.1,0.2-1.2,1.1-0.9c2.3,0.9,6.4,1.3,9.2,1.3h42.3c0.7,0,1-0.1,1.5-0.7c1.3-1.7,3.6-4.4,5-6c0.5-0.6,1.4-0.6,2,0
		c2.3,2.2,4.9,5.2,7.1,7.7c0.6,0.7,1,2.5-0.6,2.5H37c0,1.6-0.1,3.4-0.1,5.4c0.2,0,0.4,0,0.6,0.1c2.3,0.9,5.6,1.3,8.5,1.3h4.6
		c0.6,0,1.1-0.2,1.5-0.7c1.3-1.4,3-3.3,4.1-4.4c0.7-0.7,1.6-0.6,2.3,0c2.5,1.9,5.6,4.8,7.5,6.7c1.7,1.6,1.2,4.1-0.5,4.9
		c-1.7,0.9-2.4,1.1-2.8,2.5c-1.2,4.8-2.8,9-4.6,12.7c3.2,1.1,6.7,1.6,10.4,1.7c1.5,0.1,1.3,2.1,0.4,2.7
		C66.2,72.2,64.8,77.1,64.4,83.1z M60.5,10.5c-1.1,1-1.9,1.4-2,3.3c-0.1,2.8,0,7.3,0.2,12.1c0.2,3.9-2.5,4.6-6.8,4.9
		c-3.6,0.3-6.1-0.1-6.1-2.9H23.6c-0.2,2.6-2.2,3.8-6.9,4.1c-3.7,0.2-6.1-0.3-6-3.6c0.5-7.8,0.8-21-0.1-25.1c-0.6-3.2,0-3,1.2-2.6
		c4.6,1.5,12.7,4.6,12.7,4.6h19.1c0.9,0,1.3-0.1,1.8-0.6c1.1-1,3.3-2.9,4.8-4.3c0.5-0.6,1.3-0.6,2.3,0c2,1.3,5.8,3.8,8.2,5.6
		C61.7,7.1,62.1,9.2,60.5,10.5z M25.6,46.9h-7.1c0.1,2.2,0,4.4,0.1,6.8h7C25.6,51.3,25.6,49.1,25.6,46.9z M25.6,37.3h-6.9
		c0,1.6-0.1,3.7-0.1,6h7C25.6,41.2,25.6,39,25.6,37.3z M25.6,57.4h-7c0,2.7,0,5.7,0,8.1c2.1-0.2,5-0.5,7-0.8
		C25.6,62.4,25.6,59.7,25.6,57.4z M45.9,8.4H23.6c-0.1,1.6-0.1,3.8-0.1,6.1H46C46,12.2,46,10.1,45.9,8.4z M23.5,17.8
		c0,2.3,0,4.9,0.1,6.9h22.3c0.1-2.2,0.1-4.7,0.1-6.9H23.5z M46,47.6c-1.4,0-2.6,0-3.8,0.2c1.8,5.3,4.1,9.4,7.1,12.4
		c1.2-4.3,2-8.5,2.6-12.6H46z"/>
	<path class="st0" d="M67.6,135.3H49.3c-0.2,9.1-0.2,17.4,0,23.7c0.1,2.6,0.8,2.9,2.2,3.1c2.3,0.4,4.4,0.5,6.8,0
		c2.3-0.4,3-1.7,5.4-14.3c0.3-1.8,1.9-1.8,1.9,0.2c0,11.2,0,11.6,2.1,13.1c3.3,2.3,4.1,14.1-4.4,15.1c-5.5,0.7-12.7,0.8-17.9,0
		c-6.5-1-8.8-3.7-8.5-12.7c0.2-9.3,0.2-18.9,0.1-28.2h-6.1c-0.7,27.1-7.3,39.8-29.4,43.7c-1.7,0.3-1.8-1.7-0.8-2.5
		c11.7-9.2,17.5-18.8,17.5-41.1h-5.4c-3,0-6.1,0.2-7.6,0.8c-0.6,0.2-1.3-0.1-1.6-0.9c-0.3-0.8-0.9-2.6-1.1-3.7
		c-0.2-1.1,0.1-1.2,1-0.9c2.3,0.9,6.4,1.3,9.2,1.3h16.5c0.1-5.9,0.2-11.7,0.2-17.9h-9.2c-3.3,6.8-7.9,12.6-14,16.4
		c-1.2,0.7-1.6-0.7-1.2-1.6c4.4-12.5,6.7-24.8,6.6-31.3c0-1.7,0.2-1.9,1.2-1.6c4.2,1.3,9.9,2.6,13.8,4.1c2.3,0.8,1.8,3.6-0.9,3.9
		c-1.4,0.2-1.9,0.6-2.3,1.6c-0.5,1.7-1.1,3.4-1.8,5h7.6c0.1-6.6-0.1-12-0.4-14.4c-0.5-2.8-0.9-3.1,1-2.9c4,0.4,9.4,1.2,13.7,1.9
		c2.3,0.5,2.4,3.2,0.2,4.1c-1.3,0.5-1.9,1.2-1.9,2.5c-0.1,2.4-0.1,5.4-0.1,8.7h4.2c0.7,0,1.2-0.2,1.6-0.9c1.4-2.1,3.6-5.4,5.4-7.9
		c0.5-0.8,1.2-0.7,2,0c2.6,2.5,5.9,6.2,8.5,9.6c0.7,0.8,0.9,2.6-0.7,2.6h-21c0,6.2,0,12,0.1,17.9H50c0.7,0,1.2-0.2,1.6-0.9
		c1.6-2.5,3.7-6.2,5.6-9c0.5-0.8,1.3-0.7,2,0c2.8,2.9,6.3,7.1,9,10.7C69,133.5,69.1,135.3,67.6,135.3z"/>
	<path class="st0" d="M69,223.3H53.3c-2.7,3.4-5.7,6.7-8.4,9.1h10.6c0.7,0,1.2-0.3,1.6-0.8c1.1-1.4,2.7-3.4,3.8-4.6
		c0.6-0.6,1.3-0.5,1.9,0c1.7,1.4,4.5,4.1,6.4,6c1.2,1.3,1.2,3.3-0.1,4.2c-1.2,0.9-1.8,1.5-1.8,2.7c-0.1,3.8-0.1,17.3,0,22.5
		c0,5.2-1.2,8.7-9.2,9.6c-0.6,0-1.4,0-1.5-1.5c-0.1-5.5-0.2-8-1.6-9.5c0,1.2,0,2.1,0.1,2.9c0.1,3-1.3,3.5-4.1,3.7
		c-2.9,0.3-4.1-0.3-3.9-3.5c0.2-3.9,0.4-20.8,0.2-28.2h-1.9c0,8,0.1,24.3,0.2,30c0.1,3-1.2,3.5-4.1,3.7c-3,0.3-4-0.3-3.9-3.5
		c0.2-4.4,0.5-21.9,0.3-30.2h-2c0,6.4,0,24.5,0.2,31.5c0.1,3.4-1.1,4.3-5.4,4.6c-3.1,0.2-5-0.2-4.8-3.5c0.3-4.6,0.5-14.6,0.5-23.8
		c-6.8,8.4-13.9,14-19.7,17.6c-0.4,0.2-0.7,0.8-0.9,2.3c-0.2,2.7-2.2,2.6-2.6,0.8c-1.3-5.4-2.3-11.6-3-15.6
		c-0.3-2.3,0.2-1.8,1.2-1.9c2.6-0.1,6.7-0.7,11.5-1.7c1.6-11.7,2.3-25.8,2.3-35.2c0-1.4-0.4-2.1,1.1-1.8c3.6,0.7,7.1,1.7,11.1,3
		c0.1-1.6,0.2-3.2,0.2-4.8H9.9c-2.3,0-5.4,0.2-7,0.8c-0.6,0.2-1.2-0.1-1.6-0.9c-0.3-0.8-0.8-2.6-1-3.8c-0.2-1.1,0.1-1.2,1-0.8
		c1.7,0.6,4.2,1,6.4,1.2c0.2-6.6,0.1-10.1-0.2-13c-0.4-4.5-0.7-4.5,1.2-4.3c4,0.5,8.4,1.2,12,1.8c2.9,0.7,1.6,3.6,0.2,4.1
		c-1.6,0.6-2,1.1-2,2.4c-0.1,2.7,0,6.3,0,8.5c1.2-2.6,1.9-4.3,3-6.2c0.4-0.8,1.1-1,1.7,0c1.3,1.7,2.8,4.4,4.1,6.9
		c0-4.8-0.2-9.1-0.5-11.2c-0.5-2.7-0.6-3.2,0.9-3c3.5,0.5,8.2,1.2,11.2,2c1.6,0.5,1.8,2.6,0.2,3.5c-1.2,0.6-1.6,1.2-1.6,2.5
		c-0.1,2.3-0.1,6.8,0,10.6h3.3c0.3-6.7,0.2-16-0.3-19.2c-0.4-2.6-0.6-3.2,0.9-3c3.2,0.3,8.4,1.2,11.6,1.9c1.7,0.4,1.9,2.6,0.2,3.5
		c-1.2,0.7-1.6,1.1-1.6,2.5c-0.1,1.9-0.2,8.5-0.1,14.3h3.7c0.2-5.9,0.2-12.3-0.3-15.6c-0.4-2.7-0.7-3.2,0.9-3
		c3.3,0.5,8.6,1.6,11,2.1c1.8,0.5,1.8,2.8,0.2,3.5c-1,0.5-1.4,1.1-1.4,2.4c-0.1,2.8-0.1,9,0.1,13c0.1,1.9-0.7,3-2.7,3.5
		c2,1.7,4.4,4.1,6.4,6.1C70.4,221.4,70.7,223.3,69,223.3z M3.5,235.8c-0.1-8.3,3.1-13.5-0.4-24.3c-0.5-1.6,0.8-1.8,1.5-1
		c5.9,7.5,9.4,14.6,8.8,24.1C12.9,244.4,3.6,245.3,3.5,235.8z M34.9,223.3c-3.1,0-6.1,0.2-7.7,0.8c-0.6,0.2-1.3-0.1-1.6-0.9
		c-0.3-0.7-0.7-2.1-1-3.2c-2,8.5-4.6,17.9-7.8,25.2c3-0.9,6.4-1.8,9.7-3c-0.1-5-0.2-10.3-0.5-12.2c-0.3-2.6-0.3-3,1.2-2.3
		c4.1,1.7,9.5,4.8,9.5,4.8h2.1c0.4-3,0.7-6.3,0.9-9.1H34.9z M55.5,212.1H38c0.2,3.3-1.6,4.4-5.6,4.7c-2.9,0.3-4.4-0.2-4.9-1.6
		c-1.3,0.2-2,0.8-2.2,1.6c-0.2,0.6-0.2,1.2-0.4,1.8c0.2,0,0.4,0,0.6,0.1c2.3,0.9,6.4,1.3,9.3,1.3h19.9c0.8,0,1.3-0.3,1.8-0.9
		c1.1-1.5,2.2-2.8,3.2-4.1C56.9,215.1,55.5,214.5,55.5,212.1z M54.8,236c-0.1,5.2,0,15,0.1,21.9c0.4,0,0.7,0,1,0c1,0,1.3-0.6,1.4-2
		c0.2-2.3,0.2-15.9,0.1-19.9H54.8z"/>
</g>
</svg>
