<!-- Generator: Adobe Illustrator 19.0.1, SVG Export Plug-In  -->
<svg version="1.1"
	 xmlns="http://www.w3.org/2000/svg" xmlns:xlink="http://www.w3.org/1999/xlink" xmlns:a="http://ns.adobe.com/AdobeSVGViewerExtensions/3.0/"
	 x="0px" y="0px" width="682.8px" height="122.4px" viewBox="0 0 682.8 122.4"
	 style="overflow:scroll;enable-background:new 0 0 682.8 122.4;" xml:space="preserve">
<defs>
</defs>
<g>
	<path d="M92.7,97.4H61.7c-0.8,0-1.1-0.3-1.1-1.3c0-1,0.4-1.3,1-1.4c5.3-0.6,7.1-1.9,7.1-5.2V19.3c0-0.9-0.7-1-1,0L47.3,93.7
		c-0.8,3.3-1.7,3.7-4,3.7c-2.4,0-3.1-0.6-4.2-3.8L15.3,18.4c-0.4-1.1-1-1.4-1,0.5v65.2c0,5.7,3.9,9.3,9.5,10.6c0.6,0.1,1,0.4,1,1.4
		c0,1-0.2,1.3-1.1,1.3H1.1c-0.8,0-1.1-0.3-1.1-1.3c0-1,0.5-1.3,1.1-1.4c5.7-1.3,8.3-5,8.3-10.6V15.5C9.4,9.6,6.9,6.2,1,5
		C0.5,4.9,0,4.8,0,3.6c0-1,0.3-1.3,1.1-1.3h23.5c1.3,0,1.7,1,2.2,2.4l21.3,65.7L66.5,4.8C67,3.4,67.3,2.4,69,2.4h23.7
		c0.8,0,1.1,0.3,1.1,1.3c0,1.1-0.6,1.3-1.1,1.4c-5.6,0.6-7.3,2-7.3,5.7v78.7c0,3.4,1.8,4.5,7.3,5.2c0.6,0.1,1.1,0.4,1.1,1.4
		C93.8,97.2,93.5,97.4,92.7,97.4z"/>
	<path d="M149.6,93.8c-3,3.3-7.6,5.5-12.2,5.5c-6.4,0-9.4-3.1-10.3-9.6c-3.5,6.1-10.6,9.6-19.2,9.6c-8.9,0-14.5-6.8-14.5-16.8
		c0-13,5.8-19.9,20.2-23.1c3.5-0.8,8.2-2,12-3.4c0-13.7-4.9-18.5-10.9-18.5c-5.7,0-8.1,2.6-8.1,6c0,2.9,1.3,3.3,1.3,7
		c0,4.3-2.3,6.6-6.4,6.6c-4,0-6.4-3.4-6.4-8.3c0-10,8.7-18,23.4-18c16.4,0,23.2,10.2,23.2,25.5V84c0,5.9,0.5,8.3,3.3,8.3
		c1.2,0,2.4-0.6,3.5-1.4c0.8-0.6,1.1-0.6,1.6,0.3C150.6,92.2,150.4,92.9,149.6,93.8z M126.1,62.6c-3.1,1.3-6.5,1.9-9.6,2.9
		c-5.9,1.9-8.6,5.7-8.6,13.4c0,6,3.7,9.4,8.8,9.3c3.7,0,7.7-2.3,9.4-5.7V62.6z"/>
	<path d="M187.3,99.2c-0.7,0.3-0.9-0.3-1.1-1.7l-0.3-5.5c-2.7,4.5-8.1,7.3-14.7,7.3c-15,0-23.8-14.3-23.8-34.1
		c0-19.8,9-34.5,23.9-34.5c5.8,0,10.8,2.6,13.4,5.6V13.1c0-3.3-0.1-3.7-5.2-3.7c-1.6,0-1.7-2.8-0.3-3.2c6.6-1.5,13.8-3.8,20.1-6.1
		c0.7-0.3,1.1,0.4,1.1,1.7v83.6c0,4.2,0.7,4.7,5.9,3.3c1.6-0.4,1.6,2.9,0.3,3.4C200.2,94.9,194.3,97.4,187.3,99.2z M185.1,56.3
		c0-11-5.2-18.2-11.6-18.2c-6.2,0-10.4,6.3-10.4,21.1c0,22.7,6.4,31.9,14.2,31.9c3.2,0,6.3-2.7,7.9-6.4V56.3z"/>
	<path d="M257.3,64.9l-35.2,3.4c1.7,17,9.3,23.3,16.9,23.3c5.5,0,11.4-3.4,15-10.3c0.4-0.9,1.3-1,2.1-0.3c0.6,0.8,0.6,1.5,0.4,2.6
		c-3.2,10.2-10.7,15.7-22.1,15.7c-17.9,0-28.1-14.2-28.1-34.3c0-21.1,11.7-34.2,27.1-34.2c15.1,0,25,14.2,25,30.1
		C258.5,63.7,258.3,64.7,257.3,64.9z M232.9,37.2c-6.9,0-11.3,6.1-11.3,22.3c0,1.1,0,2,0.1,3.1l21.8-2.7c1-0.1,0.8-1.1,0.8-1.7
		C244.4,48.5,239.4,37.2,232.9,37.2z"/>
	<path d="M317.8,97.4h-28.8c-0.8,0-1.1-0.3-1.1-1.3c0-1,0.5-1.3,1-1.4c5.4-0.6,6.5-2,6.5-5.6V43.8c0-3.4,0-3.7-5.2-3.7
		c-1.6,0-1.8-2.8-0.3-3.2c6.8-1.5,14.2-3.8,20.4-6.1c0.7-0.3,1.1,0.4,1.1,1.7v56.7c0,3.6,1,5,6.4,5.6c0.6,0.1,1,0.4,1,1.4
		C319,97.2,318.7,97.4,317.8,97.4z M303.2,23.1c-4.8,0-9-5.6-9-11.6c0-6,4.2-11.5,9-11.5c4.9,0,9,5.5,9,11.5
		C312.2,17.5,308.1,23.1,303.2,23.1z"/>
	<path d="M379.2,97.4H353c-0.8,0-1.1-0.3-1.1-1.3c0-1,0.4-1.3,1-1.4c4-0.5,4.9-2,4.9-5.6v-29c0-14.4-4.3-19.6-8.8-19.6
		c-4.1,0-7.6,2.9-10,6.8v41.9c0,3.7,0.9,5.1,4.9,5.6c0.6,0.1,1.1,0.4,1.1,1.4c0,1-0.3,1.3-1.1,1.3h-26.2c-0.9,0-1.1-0.3-1.1-1.3
		c0-1,0.4-1.3,1-1.4c4.2-0.5,5.7-2,5.7-5.6V43.9c0-3.4-0.1-3.7-5.2-3.7c-1.6,0-1.7-2.9-0.3-3.3c6.6-1.4,13.9-3.8,20.1-6
		c0.8-0.3,1.1,0.4,1.1,1.7v6.9c4.6-5.7,11-8.7,17.2-8.7c11.1,0,17.4,9.1,17.4,27v31.3c0,3.6,1.5,5.1,5.7,5.6c0.6,0.1,1,0.4,1,1.4
		C380.3,97.2,380,97.4,379.2,97.4z"/>
	<path d="M452.6,5c-6.2,0.8-7.7,1.7-7.7,5.2v61.6c0,19.4-7.2,27.8-22.9,27.8c-11,0-16.5-6-16.5-15.7c0-5.2,2.1-9.1,6.5-9.1
		c4.6,0,6.8,3.4,6.8,8.7c0,3.8-1.2,4.2-1.2,7.1c0,2.9,0.8,4,4,4c2.3,0,6.2-3.2,6.2-20.3V10.3c0-3.4-1.4-4.5-7.7-5.2
		c-0.5-0.1-1-0.4-1-1.4c0-1,0.3-1.3,1.1-1.3h32.2c0.8,0,1.1,0.3,1.1,1.3C453.6,4.6,453.1,4.9,452.6,5z"/>
	<path d="M509.4,93.8c-3,3.3-7.6,5.5-12.2,5.5c-6.4,0-9.4-3.1-10.3-9.6c-3.5,6.1-10.6,9.6-19.2,9.6c-8.9,0-14.5-6.8-14.5-16.8
		c0-13,5.8-19.9,20.2-23.1c3.5-0.8,8.2-2,12-3.4c0-13.7-4.9-18.5-10.9-18.5c-5.7,0-8.1,2.6-8.1,6c0,2.9,1.3,3.3,1.3,7
		c0,4.3-2.3,6.6-6.4,6.6c-4,0-6.4-3.4-6.4-8.3c0-10,8.7-18,23.4-18c16.4,0,23.2,10.2,23.2,25.5V84c0,5.9,0.5,8.3,3.3,8.3
		c1.2,0,2.4-0.6,3.5-1.4c0.8-0.6,1.1-0.6,1.6,0.3C510.3,92.2,510.2,92.9,509.4,93.8z M485.9,62.6c-3.1,1.3-6.5,1.9-9.6,2.9
		c-5.9,1.9-8.6,5.7-8.6,13.4c0,6,3.7,9.4,8.8,9.3c3.7,0,7.7-2.3,9.4-5.7V62.6z"/>
	<path d="M541.3,99.3c-5.6,0-10.7-2.4-13.3-5.7v20.5c0,3.4,1.5,5.1,5.9,5.6c0.6,0.1,1.1,0.4,1.1,1.4c0,1-0.3,1.3-1.1,1.3h-27.4
		c-0.8,0-1.1-0.3-1.1-1.3c0-1,0.4-1.3,1-1.4c4.2-0.6,5.7-2.2,5.7-5.6V43.9c0-3.3-0.1-3.7-5.2-3.7c-1.6,0-1.6-2.9-0.3-3.3
		c6.6-1.4,14-3.7,20.2-6c0.7-0.3,1.1,0.4,1.1,1.7v6.5c2.6-4.6,8.6-8.3,14.6-8.3c14.5,0,22.9,14.4,22.9,34.1
		C565.5,85.5,556.2,99.3,541.3,99.3z M536.1,40.9c-3.4,0-6.9,2.7-8.5,7.1v25.5c0,11.1,5.2,18.4,11.5,18.4c6.2,0,10.7-6,10.7-20.8
		C549.8,48.2,543.8,40.9,536.1,40.9z"/>
	<path d="M622.5,93.8c-3,3.3-7.6,5.5-12.2,5.5c-6.4,0-9.4-3.1-10.3-9.6c-3.5,6.1-10.6,9.6-19.2,9.6c-8.9,0-14.5-6.8-14.5-16.8
		c0-13,5.8-19.9,20.2-23.1c3.5-0.8,8.2-2,12-3.4c0-13.7-4.9-18.5-10.9-18.5c-5.7,0-8.1,2.6-8.1,6c0,2.9,1.3,3.3,1.3,7
		c0,4.3-2.3,6.6-6.4,6.6c-4,0-6.4-3.4-6.4-8.3c0-10,8.7-18,23.4-18c16.4,0,23.2,10.2,23.2,25.5V84c0,5.9,0.5,8.3,3.3,8.3
		c1.2,0,2.4-0.6,3.5-1.4c0.8-0.6,1.1-0.6,1.6,0.3C623.4,92.2,623.3,92.9,622.5,93.8z M598.9,62.6c-3.1,1.3-6.5,1.9-9.6,2.9
		c-5.9,1.9-8.6,5.7-8.6,13.4c0,6,3.7,9.4,8.8,9.3c3.7,0,7.7-2.3,9.4-5.7V62.6z"/>
	<path d="M681.7,97.4h-26.2c-0.8,0-1.1-0.3-1.1-1.3c0-1,0.4-1.3,1-1.4c4-0.5,4.9-2,4.9-5.6v-29c0-14.4-4.3-19.6-8.8-19.6
		c-4.1,0-7.6,2.9-10,6.8v41.9c0,3.7,0.9,5.1,4.9,5.6c0.6,0.1,1.1,0.4,1.1,1.4c0,1-0.3,1.3-1.1,1.3h-26.2c-0.9,0-1.1-0.3-1.1-1.3
		c0-1,0.4-1.3,1-1.4c4.2-0.5,5.7-2,5.7-5.6V43.9c0-3.4-0.1-3.7-5.2-3.7c-1.6,0-1.7-2.9-0.3-3.3c6.6-1.4,13.9-3.8,20.1-6
		c0.8-0.3,1.1,0.4,1.1,1.7v6.9c4.6-5.7,11-8.7,17.2-8.7c11.1,0,17.4,9.1,17.4,27v31.3c0,3.6,1.5,5.1,5.7,5.6c0.6,0.1,1,0.4,1,1.4
		C682.8,97.2,682.5,97.4,681.7,97.4z"/>
</g>
</svg>
