<!-- Generator: Adobe Illustrator 19.0.1, SVG Export Plug-In  -->
<svg version="1.1"
	 xmlns="http://www.w3.org/2000/svg" xmlns:xlink="http://www.w3.org/1999/xlink" xmlns:a="http://ns.adobe.com/AdobeSVGViewerExtensions/3.0/"
	 x="0px" y="0px" width="141.9px" height="145.6px" viewBox="0 0 141.9 145.6"
	 style="overflow:scroll;enable-background:new 0 0 141.9 145.6;" xml:space="preserve">
<defs>
</defs>
<g>
	<path d="M58.6,145.2c-4.2-0.4-3.8-1.2-0.3-2c42-9.2,58.2-39.7,58.7-74.6c0.5-41.3-23.7-64-51.8-58.8c7.1,6.6,9.5,15.6,9.3,25.9
		C74,67,60.7,99.5,44.3,121.2c-16.2,21.5-34.7,23.3-41.4-5.6C-10.2,59.4,22.8,9.9,63.1,1.6c48.8-9.8,78.5,26.1,78.8,69.6
		C142.2,118.4,113,149.4,58.6,145.2z M62.6,10.5c-32.1,8-50.1,51.3-45.1,82.8c2.6,15.6,10.4,16.2,21.2,3.4
		c11.9-14,21.8-37.1,27.1-63.6C67.3,25.5,65.7,15.7,62.6,10.5z"/>
</g>
</svg>
