<!-- Generator: Adobe Illustrator 19.0.0, SVG Export Plug-In  -->
<svg version="1.1"
	 xmlns="http://www.w3.org/2000/svg" xmlns:xlink="http://www.w3.org/1999/xlink" xmlns:a="http://ns.adobe.com/AdobeSVGViewerExtensions/3.0/"
	 x="0px" y="0px" width="592.6px" height="27.6px" viewBox="0 0 592.6 27.6"
	 style="overflow:scroll;enable-background:new 0 0 592.6 27.6;" xml:space="preserve">
<defs>
</defs>
<g>
	<path d="M13.8,21c0,0.2-0.1,0.3-0.4,0.5c-1.2,0.7-3.3,1.2-5.2,1.2C2.8,22.7,0,18.4,0,12.4C0,6.4,2.8,2,7.9,2c1,0,2.6,0.2,3.6,0.7
		c0.3,0.1,0.8,0.3,1.2,0.2c0.5-0.1,0.6-0.1,0.6,0.3c0.1,1.2,0.4,3.6,0.5,4.9c0,0.2,0,0.3-0.1,0.3c-0.3,0.1-0.3-0.1-0.3-0.2
		C12,4.5,10.3,3.3,8,3.3c-2.6,0-4.3,2.6-4.3,7.8c0,7,2.3,10.3,5.2,10.3c2,0,3.5-1.1,4.6-5.6c0-0.2,0.1-0.2,0.3-0.2
		c0.1,0,0.2,0.1,0.2,0.3C13.9,17.5,13.8,19.9,13.8,21z"/>
	<path d="M22.2,22.6c-3.7,0-5.8-3.1-5.8-7.1c0-4,2.1-7.1,5.8-7.1c3.8,0,5.9,3.1,5.9,7.1C28,19.5,25.9,22.6,22.2,22.6z M21.8,9.8
		c-1.4,0-2.1,1.5-2.1,4.5c0,4.6,1.3,6.9,3,6.9c1.4,0,2.1-1.5,2.1-4.5C24.7,12.5,23.5,9.8,21.8,9.8z"/>
	<path d="M37.4,22.6c-1.2,0-2.2-0.5-2.8-1.2v4.3c0,0.7,0.3,1.1,1.2,1.2c0.1,0,0.2,0.1,0.2,0.3c0,0.2-0.1,0.3-0.2,0.3h-5.7
		c-0.2,0-0.2-0.1-0.2-0.3c0-0.2,0.1-0.3,0.2-0.3c0.9-0.1,1.2-0.4,1.2-1.2V11.1c0-0.7,0-0.8-1.1-0.8c-0.3,0-0.3-0.6-0.1-0.7
		c1.4-0.3,2.9-0.8,4.2-1.2c0.1-0.1,0.2,0.1,0.2,0.3v1.3c0.5-1,1.8-1.7,3-1.7c3,0,4.7,3,4.7,7.1C42.4,19.8,40.5,22.6,37.4,22.6z
		 M36.3,10.5c-0.7,0-1.4,0.6-1.8,1.5v5.3c0,2.3,1.1,3.8,2.4,3.8c1.3,0,2.2-1.2,2.2-4.3C39.1,12,37.9,10.5,36.3,10.5z"/>
	<path d="M55.8,9.4C55,9.5,54.5,10,54,11.4L49.6,25c-0.6,1.9-1.4,2.6-2.7,2.6c-1.4,0-2.4-1.1-2.4-2.5c0-1,0.4-1.6,1.1-1.6
		c2,0,0.8,2.6,1.9,2.6c0.4,0,0.8-0.6,1.2-1.8l0.7-2.2l-4.7-12c-0.2-0.6-0.5-0.7-1.2-0.8c-0.1,0-0.2-0.1-0.2-0.3c0-0.2,0-0.3,0.2-0.3
		h5.7c0.2,0,0.3,0.1,0.3,0.2c0,0.2-0.1,0.3-0.3,0.3c-0.9,0.2-0.9,0.4-0.8,0.9l2.6,7.2l1.9-5.9c0.4-1.3-0.1-1.9-1.1-2.1
		c-0.2-0.1-0.3-0.1-0.3-0.3c0-0.2,0-0.2,0.3-0.2h3.9C56,8.8,56,8.9,56,9C56,9.2,56,9.3,55.8,9.4z"/>
	<path d="M65.3,12.8c-1.9,0-0.3-2.4-2.3-2.4c-0.9,0-2,0.8-2,2.3v7.8c0,0.7,0.3,1.1,1.2,1.2c0.1,0,0.2,0.1,0.2,0.3
		c0,0.2-0.1,0.3-0.2,0.3h-5.6c-0.2,0-0.2-0.1-0.2-0.3c0-0.2,0.1-0.3,0.2-0.3c0.9-0.1,1.2-0.4,1.2-1.2v-9.4c0-0.7-0.1-0.8-1.1-0.8
		c-0.3,0-0.3-0.6-0.1-0.7c1.4-0.3,2.9-0.8,4.2-1.2C60.9,8.4,61,8.5,61,8.8v1.5c1-1.2,2.2-1.9,3.3-1.9c1.3,0,2.2,1.2,2.2,2.6
		C66.5,12.2,66.1,12.8,65.3,12.8z"/>
	<path d="M73.8,22.2h-6c-0.2,0-0.2-0.1-0.2-0.3c0-0.2,0.1-0.3,0.2-0.3c1.1-0.1,1.4-0.4,1.4-1.2v-9.4c0-0.7,0-0.8-1.1-0.8
		c-0.3,0-0.4-0.6-0.1-0.7c1.4-0.3,2.9-0.8,4.2-1.3c0.1-0.1,0.2,0.1,0.2,0.3v11.7c0,0.7,0.2,1,1.3,1.2c0.1,0,0.2,0.1,0.2,0.3
		C74,22.2,73.9,22.2,73.8,22.2z M70.7,6.8c-1,0-1.9-1.2-1.9-2.4c0-1.2,0.9-2.4,1.9-2.4c1,0,1.9,1.1,1.9,2.4
		C72.6,5.7,71.8,6.8,70.7,6.8z"/>
	<path d="M86.7,11.1c-1.3,0-0.4-1.3-1.8-1.3c-0.2,0-0.3,0.1-0.5,0.2c0.6,0.8,1,1.8,1,2.9c0,2.5-1.6,4.5-4.7,4.5
		c-0.5,0-0.9,0-1.3-0.1c-0.6,0.3-0.9,0.7-0.9,1.1c0,0.4,0.5,0.6,1.6,0.6c5.3,0,7,1,7,3.9c0,3.1-2.9,4.8-6.7,4.8
		c-3.6,0-4.8-1.3-4.8-3c0-1.4,0.6-2.7,1.7-3.3c-1-0.2-1.2-1-1.2-1.8c0-1.1,1.2-2.1,2.3-2.7c-1.5-0.7-2.3-2.2-2.3-4
		c0-2.5,1.5-4.5,4.7-4.5c1.3,0,2.3,0.3,3.1,1c0.7-0.7,1.6-1,2.2-1c1.1,0,1.7,0.6,1.7,1.4C87.7,10.7,87.3,11.1,86.7,11.1z M78.5,21.7
		c-0.8,0.4-1.2,1.6-1.2,2.4c0,1.5,1,2.4,3.2,2.4c2.3,0,3.4-1.3,3.4-2.6C84,22.1,82.3,21.7,78.5,21.7z M80.4,9.5
		c-1.1,0-1.5,1-1.5,2.8c0,2.6,1,4,2.1,4c1.1,0,1.5-1,1.5-2.7C82.5,11.3,81.7,9.5,80.4,9.5z"/>
	<path d="M101.5,22.2h-5.4c-0.2,0-0.2-0.1-0.2-0.3c0-0.2,0.1-0.3,0.2-0.3c0.8-0.1,1-0.4,1-1.2v-6c0-3-0.9-4.1-1.8-4.1
		c-0.8,0-1.6,0.6-2.1,1.4v8.7c0,0.8,0.2,1.1,1,1.2c0.1,0,0.2,0.1,0.2,0.3c0,0.2-0.1,0.3-0.2,0.3h-5.4c-0.2,0-0.2-0.1-0.2-0.3
		c0-0.2,0.1-0.3,0.2-0.3c0.9-0.1,1.2-0.4,1.2-1.2V4.7c0-0.7,0-0.8-1.1-0.8c-0.3,0-0.4-0.6-0.1-0.7C90.1,3,91.6,2.5,92.9,2
		c0.1-0.1,0.2,0.1,0.2,0.3v7.8c1-1.2,2.3-1.8,3.6-1.8c2.3,0,3.6,1.9,3.6,5.6v6.5c0,0.7,0.3,1.1,1.2,1.2c0.1,0,0.2,0.1,0.2,0.3
		C101.7,22.2,101.7,22.2,101.5,22.2z"/>
	<path d="M111.1,20.9c-0.7,1.1-1.7,1.7-2.9,1.7c-2.2,0-3.4-1.2-3.4-3.8V9.9h-1.4c-0.2,0-0.3-0.1-0.3-0.4c0-0.3,0-0.5,0.4-0.6
		c1.5-0.2,3.3-2.1,3.9-4.4c0.1-0.3,0.2-0.3,0.4-0.3c0.2,0,0.3,0.1,0.3,0.5c0,0,0,3.1,0,4.1h2.3c0.2,0,0.3,0.2,0.3,0.6
		c0,0.4,0,0.6-0.3,0.6H108v8.9c0,1.5,0.6,2.2,1.4,2.2c0.5,0,1.1-0.3,1.4-0.6c0.1-0.1,0.2-0.2,0.3,0
		C111.3,20.6,111.3,20.7,111.1,20.9z"/>
	<path d="M128.9,22.6c-4.2,0-7.7-4.3-7.7-9.6c0-5.3,3.4-9.6,7.7-9.6c4.3,0,7.7,4.3,7.7,9.6C136.6,18.4,133.1,22.6,128.9,22.6z
		 M128.9,5.3c-3.4,0-6.2,3.4-6.2,7.7c0,4.3,2.8,7.7,6.2,7.7c3.4,0,6.2-3.4,6.2-7.7C135.1,8.7,132.3,5.3,128.9,5.3z M132.2,18
		c0,0.1-0.1,0.2-0.2,0.2c-0.7,0.4-1.8,0.7-2.7,0.7c-2.8,0-4.6-2-4.6-5.8c0-3.7,1.8-5.8,4.4-5.8c0.7,0,1.4,0.2,1.9,0.4
		c0.1,0.1,0.4,0.1,0.7,0.1c0.2,0,0.3-0.1,0.3,0.2c0,0.7,0.2,2,0.3,2.7c0,0.2,0,0.2-0.1,0.3c-0.2,0.1-0.2-0.1-0.2-0.2
		c-0.8-2.1-1.7-2.4-2.5-2.4c-0.9,0-1.9,1.2-1.9,4.1c0,3.6,1.1,5.3,2.2,5.3c0.7,0,1.5-0.4,2.3-2.7c0.1-0.2,0-0.2,0.2-0.2
		c0.1,0,0.1,0.1,0.1,0.3C132.2,16.1,132.2,17.4,132.2,18z"/>
	<path d="M164.6,23.7c-0.1,0.4-0.3,0.5-0.5,0.4c-4.3-2.7-5.5-7.6-6-14.8h-0.3c-0.2,2.3-0.5,4.6-1.1,6.4c-1.5,4.5-4.4,7.4-9,8.4
		c-0.4,0.1-0.5-0.3-0.2-0.6c2.9-2.7,5-5.7,5.9-9.6c0.3-1.3,0.5-3,0.7-4.7h-3.4c-0.8,0-1.7,0.1-2.1,0.2c-0.2,0.1-0.4,0-0.4-0.2
		c-0.1-0.2-0.2-0.8-0.3-1c-0.1-0.3,0-0.3,0.3-0.2c0.6,0.2,1.7,0.3,2.5,0.3h3.5c0.2-2.5,0.3-5.1,0-6.8c-0.1-0.7-0.1-0.7,0.3-0.7
		c1.1,0.1,2.9,0.3,4.1,0.6c0.6,0.1,0.6,0.9,0,1.1c-0.4,0.1-0.6,0.3-0.6,0.7c0,1.5-0.1,3.3-0.2,5.1h3.1c0.2,0,0.4-0.1,0.5-0.3
		c0.4-0.7,1-1.5,1.4-2.1c0.1-0.2,0.3-0.2,0.5,0c0.7,0.7,1.6,1.7,2.3,2.6c0.2,0.2,0.3,0.7-0.2,0.7h-6.8c1,5.5,3.4,8.4,7.4,9.8
		c0.3,0.1,0.3,0.6,0,0.7C165.2,20.3,165,21.4,164.6,23.7z"/>
	<path d="M187.4,4c-0.4,0.3-0.5,0.4-0.5,1c-0.1,4.1,0,10.7,0,15.7c0,2.4-0.6,3.1-3.4,3.5c-0.5,0.1-0.6-0.1-0.6-0.5
		c-0.1-2.2-0.5-2.8-2.3-3.6c-0.2-0.1-0.3-0.7,0-0.7c0.9,0.1,1.9,0.2,2.6,0.2c0.4,0,0.5-0.2,0.5-0.7c0-3.6,0.1-10.5,0-15.5h-10.4
		c0,5.2-0.1,13.9,0,19.6c0,0.7-0.7,1.1-1.7,1.1c-1,0-1.6-0.1-1.6-1c0.1-7.4,0.2-20.1,0-21.2c-0.1-1.2-0.1-1.1,0.3-0.9
		c1.4,0.6,3.2,1.5,3.2,1.5h9.5c0.2,0,0.3-0.1,0.4-0.1c0.4-0.4,1-1,1.4-1.4c0.1-0.2,0.4-0.2,0.6,0c0.6,0.4,1.4,1.1,2,1.7
		C187.8,3.1,187.9,3.6,187.4,4z M183.2,7.4h-6.9c-0.8,0-1.7,0.1-2.1,0.2c-0.2,0.1-0.4-0.1-0.4-0.2c-0.1-0.2-0.2-0.7-0.3-1
		c-0.1-0.3,0-0.3,0.3-0.2c0.6,0.2,1.7,0.3,2.5,0.3h2.6c0.2,0,0.4-0.1,0.5-0.2c0.4-0.6,0.9-1.3,1.3-1.9c0.1-0.2,0.3-0.2,0.5,0
		c0.7,0.6,1.4,1.5,2.2,2.4C183.6,6.9,183.7,7.4,183.2,7.4z M182.8,11.6c-0.4,0.3-0.5,0.3-0.5,0.7c0,1.1,0,3.5,0,5.5
		c0,0.8-0.6,1.1-1.5,1.1c-1,0.1-1.6,0-1.5-0.8c0-0.1,0-0.3,0-0.4h-1.8c0,0.5,0,1,0,1.5c0,0.9-0.6,1.1-1.5,1.2
		c-1.1,0.1-1.6-0.1-1.6-0.9c0.1-3,0.3-8.8,0-10c-0.1-0.4,0-0.7,0.3-0.6c1.1,0.5,3,1.5,3,1.5h1c0.2,0,0.3-0.1,0.4-0.2
		c0.4-0.5,0.8-1,1.2-1.5c0.1-0.1,0.3-0.1,0.6,0c0.6,0.5,1.2,1.1,1.9,1.8C183.1,10.9,183.1,11.3,182.8,11.6z M179.3,11.4h-1.8
		c0,1.3,0,3.4,0,5.4h1.8C179.3,14.8,179.3,12.7,179.3,11.4z"/>
	<path d="M202.2,14c0.5,2.8,0.9,5.2,1.2,6.8c0.7,4.3-2.9,4.7-3.6,1.1c-0.2-1.2-0.1-1.9-0.1-2.5c0-1-0.2-2.6-0.4-4.8
		c-2,0.4-3.8,1-4.8,1.5c-0.7,0.3-0.7,0.9-1.4,0.8c-0.8-0.1-2-1.5-2-3.5c0-0.5,0-0.6,0.4-0.1c0.4,0.7,1.2,0.9,2.6,0.6
		c0.8-0.2,2.8-0.5,5-1c-0.1-0.8-0.3-2.3-0.5-3.9c-1.5,0.3-2.8,0.6-3.4,0.9c-0.8,0.3-0.9,0.8-1.5,0.7c-0.8-0.1-1.8-1.8-1.7-3.2
		c0-0.3,0.1-0.4,0.3-0.1c0.5,0.6,1.1,0.8,2.4,0.6c0.8-0.1,2.2-0.4,3.7-0.7c-0.1-0.7-0.2-1.3-0.3-2c-0.3-1.6-0.8-2.4-1.9-2.5
		c-0.5,0-0.5-0.2-0.1-0.6c1.4-1.7,4.8-0.9,5.3,0.4c0.3,0.9-0.3,1.1-0.2,2.5c0,0.5,0.1,1,0.1,1.5c1-0.2,1.8-0.4,2.5-0.5
		c0.6-0.2,0.8-0.5,1.8-0.5c2.3-0.1,2.4,2.4,0.5,2.4c-1,0-2.7,0.2-4.6,0.5c0.1,1.3,0.3,2.6,0.5,3.8c1.3-0.3,2.5-0.5,3.3-0.7
		c1.2-0.3,1.5-0.9,2.4-0.8c2.8,0.5,2.3,3.1,0.4,2.8C206.8,13.5,204.6,13.6,202.2,14z"/>
	<path d="M228.3,12.8c-1.3,1.3-3.3,2.5-5.5,3.2c-0.3,0.1-0.3,0-0.1-0.2c1.1-1.5,2-3.1,2.7-4.7c0.1-0.3,0.1-0.5-0.3-0.4
		c-1.2,0.4-2.4,0.8-3.5,1.2c0.6,4.5,1.1,6.3,1.6,8.5c0.7,3-2.5,4.8-3.2,1.3c-0.2-1-0.1-1.7-0.1-2.4c-0.1-1.7-0.4-4-0.8-6.5
		c-0.7,0.3-1.2,0.5-1.7,0.7c-0.8,0.4-1.1,1.1-1.6,1c-0.9-0.1-2.2-2.2-1.8-3.8c0.1-0.4,0.1-0.4,0.3,0c0.2,0.7,0.9,0.7,1.9,0.5
		c0.7-0.2,1.6-0.4,2.6-0.6c-0.1-0.9-0.3-1.8-0.5-2.6c-0.2-1.1-0.5-1.6-1.4-1.8c-0.3-0.1-0.4-0.2-0.1-0.5c1.2-1.2,4.1-0.6,4.4,0.4
		c0.2,0.6-0.2,0.5-0.1,1.6c0.1,0.8,0.2,1.5,0.3,2.2c1.2-0.3,2.5-0.6,3.6-0.8c0.8-0.2,0.7-0.6,1.2-0.6c0.7,0,3.3,2.4,3.1,3.5
		C229.2,12.7,228.8,12.4,228.3,12.8z"/>
	<path d="M249,20.7c-0.9-1.9-1.7-3.9-3.9-6.5c-2.5,3.8-5.9,6.6-11.1,8.4c-0.6,0.2-0.6,0.1-0.1-0.3c5.5-4.3,9.5-10.2,10.9-16.5
		c0.1-0.4-0.1-0.4-0.3-0.3c-1.7,0.3-3.2,0.7-5.1,1.3c-0.9,0.3-1,1-1.5,1c-1.4,0-2.3-2.8-1.8-4.4c0.1-0.4,0.2-0.4,0.3,0
		c0.5,1.2,1.1,1.2,2.7,1.1c1.3-0.1,2.8-0.3,5.1-0.6c0.9-0.1,1.1-1,1.6-1c1-0.1,3.8,2.2,3.7,3.1c-0.1,0.8-0.8,0.5-1.2,1.5
		c-0.8,2.3-1.8,4.4-3,6.3c2.7,0.8,5,2.2,5.9,3.3C254.3,20.8,250.5,23.9,249,20.7z"/>
	<path d="M265.4,10.1c1.2,0.5,2.7,1.3,2.7,2.1c0,0.7-0.7,0.7-0.8,1.6c-0.9,4.9-3.7,8.6-8.8,10.6c-0.3,0.1-0.4,0.1-0.1-0.3
		c3.3-3,5.2-8.2,5.1-12c0-0.9,0-1.5-0.3-1.9c-1.3,0.2-2.4,0.4-3.3,0.5c-1.3,0.3-1.4,0.8-2.2,0.9c-1.1,0.1-2.3-2.2-1.8-3.9
		c0.1-0.4,0.2-0.4,0.3,0c0.3,1,1.2,1,2.4,0.8c2.9-0.2,8-0.6,11.2-0.8c1-0.1,1.3-0.5,2-0.4c3,0.4,3.3,4.1,0.6,3.2
		C270.4,10,267.8,10,265.4,10.1z M261.5,5c-1.8,0.2-2.9-1-3.1-2.9c0-0.5,0-0.5,0.3-0.1c0.5,0.6,1.1,0.7,2.1,0.7
		c1.6,0,4.4-0.4,6.5-0.8c0.5-0.1,0.7-0.5,1.5-0.4c2.4,0.3,2.4,2.8,0.1,2.9C267.5,4.4,263,4.9,261.5,5z"/>
	<path d="M291.8,9.4c-1.1,1.1-2.3,2-3.6,2.9c0.7,0.2,1.1,0.6,1.2,0.9c0,0.5-0.3,0.4-0.3,1.3c0,3.9,0.1,6,0,7.5
		c-0.2,2.1-2.5,2.6-3-0.1c-0.3-1.4,0.1-2.3,0.1-4.4c0-1.5,0.1-2.9,0-3.9c-2.1,1.2-4.5,2.2-7.1,3c-0.4,0.1-0.5-0.1-0.1-0.3
		c3.9-2.4,7.9-6.2,9.8-8.7c0.6-0.8,0.7-1.5,0.2-2.2c-0.3-0.5-0.3-0.6,0.1-0.5c1.7,0.1,4.1,2.9,3.9,3.9
		C292.8,9.1,292.5,8.6,291.8,9.4z"/>
	<path d="M304.7,21.9c-1.2,0.6-1,1.5-1.7,1.6c-1.4,0.1-3.5-3.8-3.1-6c0.1-0.6,0.3-0.5,0.6-0.1c0.5,0.7,0.9,0.8,2.3,0.4
		c5.5-1.6,11-5.7,14.7-10.6c0.4-0.5,0.5-0.3,0.2,0.2C314.8,14.4,310.5,19,304.7,21.9z M305.6,8.2c-1.1-2-2.7-3.7-4.8-5.1
		c-0.5-0.3-0.5-0.5,0.1-0.6c2.5-0.2,5.3,0.6,6.6,2C310.4,7.8,306.9,10.6,305.6,8.2z"/>
	<path d="M337.4,10.5c-3.1,7.4-7.4,11.7-16.7,13.6c-0.5,0.1-0.6-0.1-0.2-0.3c7.6-3.8,11.7-9.4,13.4-15.3c0.1-0.4,0.1-0.5-0.3-0.4
		c-1.2,0.3-3.2,0.8-4.1,0.9c-0.4,0.1-0.9-0.2-1.2-0.8c-1.7,3.4-4,5.8-7.9,7.6c-0.5,0.2-0.6,0.1-0.2-0.3c2.9-3,4.9-7.1,5.8-10.8
		c0.3-1.3,0-2-0.5-2.3c-0.3-0.2-0.3-0.3,0-0.5c1.6-1.1,4.9,0.8,4.9,2.1c0,0.6-0.6,0.7-0.8,1.3c-0.2,0.6-0.5,1.2-0.7,1.7
		c2-0.4,3.6-0.8,4.6-1c0.7-0.2,0.8-0.9,1.2-0.9c1-0.1,3.9,2.3,3.9,3.5C338.6,9.5,338,9.2,337.4,10.5z M336.9,5.1
		c-0.6-1.1-1.4-1.9-2.1-2.4c-0.3-0.3-0.3-0.3,0.1-0.5c1.2-0.3,2.5,0.1,3.2,1.1C339.3,5.2,337.6,6.5,336.9,5.1z M338.5,2.7
		c-0.6-0.8-1.5-1.5-2.4-2c-0.4-0.2-0.4-0.3-0.1-0.5c1.2-0.6,2.6-0.2,3.4,0.5C340.8,2.2,339.5,4.1,338.5,2.7z"/>
	<path d="M357,20.7c-0.9-1.9-1.7-3.9-3.9-6.5c-2.5,3.8-5.9,6.6-11.1,8.4c-0.5,0.2-0.6,0.1-0.1-0.3c5.5-4.3,9.5-10.2,10.9-16.5
		c0.1-0.4-0.1-0.4-0.3-0.3c-1.7,0.3-3.2,0.7-5.1,1.3c-0.9,0.3-1,1-1.5,1c-1.4,0-2.3-2.8-1.8-4.4c0.1-0.4,0.2-0.4,0.3,0
		c0.5,1.2,1.1,1.2,2.7,1.1c1.3-0.1,2.8-0.3,5.1-0.6c0.9-0.1,1.1-1,1.6-1c1-0.1,3.8,2.2,3.7,3.1c-0.1,0.8-0.8,0.5-1.2,1.5
		c-0.8,2.3-1.8,4.4-3,6.3c2.7,0.8,5,2.2,5.9,3.3C362.2,20.8,358.4,23.9,357,20.7z"/>
	<path d="M386.3,22.2h-6.8c-0.2,0-0.2-0.1-0.2-0.2c0-0.2,0-0.3,0.3-0.3c1.1-0.2,1.3-0.3,1.1-0.9l-1.3-4.1h-5.4l-0.8,2.8
		c-0.4,1.2,0,1.8,1.8,2.2c0.2,0.1,0.2,0.1,0.2,0.3s-0.1,0.2-0.3,0.2h-4.9c-0.3,0-0.3,0-0.3-0.2s0-0.3,0.2-0.3
		c1.2-0.4,1.7-1.1,2.1-2.3l5.1-16.8c0.1-0.4,0.3-0.6,0.6-0.6c0.4,0,0.5,0.2,0.6,0.6l6.1,17.8c0.2,0.7,0.9,1.1,1.7,1.2
		c0.2,0,0.2,0.1,0.2,0.3C386.5,22.1,386.4,22.2,386.3,22.2z M376.8,7.9l-2.3,7.6h4.7L376.8,7.9z"/>
	<path d="M392.9,22.2h-6c-0.2,0-0.2-0.1-0.2-0.3c0-0.2,0.1-0.3,0.2-0.3c1.1-0.1,1.3-0.4,1.3-1.2V4.7c0-0.7,0-0.8-1.1-0.8
		c-0.3,0-0.4-0.6-0.1-0.7c1.4-0.3,3-0.8,4.3-1.3c0.1-0.1,0.2,0.1,0.2,0.3v18.1c0,0.7,0.2,1,1.4,1.2c0.1,0,0.2,0.1,0.2,0.3
		C393.1,22.2,393.1,22.2,392.9,22.2z"/>
	<path d="M400.8,22.2h-6c-0.2,0-0.2-0.1-0.2-0.3c0-0.2,0.1-0.3,0.2-0.3c1.1-0.1,1.3-0.4,1.3-1.2V4.7c0-0.7,0-0.8-1.1-0.8
		c-0.3,0-0.4-0.6-0.1-0.7c1.4-0.3,3-0.8,4.3-1.3c0.1-0.1,0.2,0.1,0.2,0.3v18.1c0,0.7,0.2,1,1.4,1.2c0.1,0,0.2,0.1,0.2,0.3
		C401,22.2,400.9,22.2,400.8,22.2z"/>
	<path d="M420.1,12.8c-1.9,0-0.3-2.4-2.3-2.4c-0.9,0-2,0.8-2,2.3v7.8c0,0.7,0.3,1.1,1.2,1.2c0.1,0,0.2,0.1,0.2,0.3
		c0,0.2-0.1,0.3-0.2,0.3h-5.6c-0.2,0-0.2-0.1-0.2-0.3c0-0.2,0.1-0.3,0.2-0.3c0.9-0.1,1.2-0.4,1.2-1.2v-9.4c0-0.7-0.1-0.8-1.1-0.8
		c-0.3,0-0.3-0.6-0.1-0.7c1.4-0.3,2.9-0.8,4.2-1.2c0.2-0.1,0.2,0.1,0.2,0.3v1.5c1-1.2,2.2-1.9,3.3-1.9c1.3,0,2.2,1.2,2.2,2.6
		C421.2,12.2,420.9,12.8,420.1,12.8z"/>
	<path d="M428.5,22.2h-6c-0.2,0-0.2-0.1-0.2-0.3c0-0.2,0.1-0.3,0.2-0.3c1.1-0.1,1.4-0.4,1.4-1.2v-9.4c0-0.7,0-0.8-1.1-0.8
		c-0.3,0-0.4-0.6-0.1-0.7c1.4-0.3,2.9-0.8,4.2-1.3c0.1-0.1,0.2,0.1,0.2,0.3v11.7c0,0.7,0.2,1,1.3,1.2c0.1,0,0.2,0.1,0.2,0.3
		C428.8,22.2,428.7,22.2,428.5,22.2z M425.5,6.8c-1,0-1.9-1.2-1.9-2.4c0-1.2,0.9-2.4,1.9-2.4c1,0,1.9,1.1,1.9,2.4
		C427.4,5.7,426.5,6.8,425.5,6.8z"/>
	<path d="M441.4,11.1c-1.3,0-0.4-1.3-1.8-1.3c-0.2,0-0.3,0.1-0.5,0.2c0.6,0.8,1,1.8,1,2.9c0,2.5-1.6,4.5-4.7,4.5
		c-0.5,0-0.9,0-1.3-0.1c-0.6,0.3-0.9,0.7-0.9,1.1c0,0.4,0.5,0.6,1.6,0.6c5.3,0,7,1,7,3.9c0,3.1-2.9,4.8-6.7,4.8
		c-3.6,0-4.8-1.3-4.8-3c0-1.4,0.6-2.7,1.7-3.3c-1-0.2-1.2-1-1.2-1.8c0-1.1,1.2-2.1,2.3-2.7c-1.5-0.7-2.3-2.2-2.3-4
		c0-2.5,1.5-4.5,4.7-4.5c1.3,0,2.3,0.3,3.1,1c0.7-0.7,1.6-1,2.2-1c1.1,0,1.7,0.6,1.7,1.4C442.4,10.7,442.1,11.1,441.4,11.1z
		 M433.2,21.7c-0.8,0.4-1.2,1.6-1.2,2.4c0,1.5,1,2.4,3.2,2.4c2.3,0,3.5-1.3,3.5-2.6C438.7,22.1,437,21.7,433.2,21.7z M435.2,9.5
		c-1.1,0-1.5,1-1.5,2.8c0,2.6,1,4,2.1,4c1.1,0,1.5-1,1.5-2.7C437.3,11.3,436.4,9.5,435.2,9.5z"/>
	<path d="M456.3,22.2h-5.4c-0.2,0-0.2-0.1-0.2-0.3c0-0.2,0.1-0.3,0.2-0.3c0.8-0.1,1-0.4,1-1.2v-6c0-3-0.9-4.1-1.8-4.1
		c-0.8,0-1.6,0.6-2.1,1.4v8.7c0,0.8,0.2,1.1,1,1.2c0.1,0,0.2,0.1,0.2,0.3c0,0.2-0.1,0.3-0.2,0.3h-5.4c-0.2,0-0.2-0.1-0.2-0.3
		c0-0.2,0.1-0.3,0.2-0.3c0.9-0.1,1.2-0.4,1.2-1.2V4.7c0-0.7,0-0.8-1.1-0.8c-0.3,0-0.4-0.6-0.1-0.7c1.4-0.3,2.8-0.8,4.2-1.3
		c0.1-0.1,0.2,0.1,0.2,0.3v7.8c1-1.2,2.3-1.8,3.6-1.8c2.3,0,3.6,1.9,3.6,5.6v6.5c0,0.7,0.3,1.1,1.2,1.2c0.1,0,0.2,0.1,0.2,0.3
		C456.5,22.2,456.4,22.2,456.3,22.2z"/>
	<path d="M465.9,20.9c-0.7,1.1-1.7,1.7-2.9,1.7c-2.2,0-3.4-1.2-3.4-3.8V9.9h-1.4c-0.2,0-0.3-0.1-0.3-0.4c0-0.3,0-0.5,0.4-0.6
		c1.5-0.2,3.3-2.1,3.9-4.4c0.1-0.3,0.2-0.3,0.4-0.3c0.2,0,0.3,0.1,0.3,0.5c0,0,0,3.1,0,4.1h2.3c0.2,0,0.3,0.2,0.3,0.6
		c0,0.4,0,0.6-0.3,0.6h-2.3v8.9c0,1.5,0.6,2.2,1.4,2.2c0.5,0,1.1-0.3,1.4-0.6c0.1-0.1,0.2-0.2,0.3,0C466.1,20.6,466,20.7,465.9,20.9
		z"/>
	<path d="M471.9,22.6c-1.5,0-3-0.6-3.8-1c-0.1-0.1-0.3-0.1-0.3-0.3c-0.1-0.9-0.2-2.5-0.4-3.8c0-0.2,0-0.2,0.1-0.3
		c0.2-0.1,0.3,0,0.3,0.1c0.8,2.8,2.1,4.1,3.6,4.1c1.5,0,2.1-0.7,2.1-1.7c0-1.3-0.6-2.1-3.1-3.1c-1.9-0.8-2.9-2.1-2.9-4.2
		c0-2.2,1.5-4,4-4c1.3,0,2.4,0.1,3.1,0.3c0.5,0.1,0.8,0.1,1.1-0.1c0.2-0.1,0.3,0,0.3,0.2c0.1,1.2,0.2,2.5,0.3,3.7
		c0,0.2,0,0.3-0.1,0.3c-0.2,0.1-0.3,0-0.4-0.2c-1-2.6-2.2-3.2-3.6-3.2c-1.1,0-1.8,0.6-1.8,1.7c0,1,0.5,1.5,2.7,2.4
		c2.6,1.2,3.8,2.4,3.8,4.8C477,21.3,475.7,22.6,471.9,22.6z"/>
	<path d="M496.5,12.8c-1.9,0-0.3-2.4-2.3-2.4c-0.9,0-2,0.8-2,2.3v7.8c0,0.7,0.3,1.1,1.2,1.2c0.1,0,0.2,0.1,0.2,0.3
		c0,0.2-0.1,0.3-0.2,0.3h-5.6c-0.2,0-0.2-0.1-0.2-0.3c0-0.2,0.1-0.3,0.2-0.3c0.9-0.1,1.2-0.4,1.2-1.2v-9.4c0-0.7-0.1-0.8-1.1-0.8
		c-0.3,0-0.3-0.6-0.1-0.7c1.4-0.3,2.9-0.8,4.2-1.2c0.2-0.1,0.2,0.1,0.2,0.3v1.5c1-1.2,2.2-1.9,3.3-1.9c1.3,0,2.2,1.2,2.2,2.6
		C497.7,12.2,497.3,12.8,496.5,12.8z"/>
	<path d="M509.7,15.5l-7.3,0.7c0.4,3.5,1.9,4.8,3.5,4.8c1.1,0,2.4-0.7,3.1-2.1c0.1-0.2,0.3-0.2,0.4-0.1c0.1,0.2,0.1,0.3,0.1,0.5
		c-0.7,2.1-2.2,3.3-4.6,3.3c-3.7,0-5.8-2.9-5.8-7.1c0-4.4,2.4-7.1,5.6-7.1c3.1,0,5.2,2.9,5.2,6.2C510,15.2,509.9,15.4,509.7,15.5z
		 M504.7,9.7c-1.4,0-2.3,1.3-2.3,4.6c0,0.2,0,0.4,0,0.6l4.5-0.6c0.2,0,0.2-0.2,0.2-0.3C507,12.1,506,9.7,504.7,9.7z"/>
	<path d="M516.6,22.6c-1.5,0-3-0.6-3.8-1c-0.1-0.1-0.3-0.1-0.3-0.3c-0.1-0.9-0.2-2.5-0.4-3.8c0-0.2,0-0.2,0.1-0.3
		c0.2-0.1,0.3,0,0.3,0.1c0.8,2.8,2.1,4.1,3.6,4.1c1.5,0,2.1-0.7,2.1-1.7c0-1.3-0.6-2.1-3.1-3.1c-1.9-0.8-2.9-2.1-2.9-4.2
		c0-2.2,1.5-4,4-4c1.3,0,2.4,0.1,3.1,0.3c0.5,0.1,0.8,0.1,1.1-0.1c0.2-0.1,0.3,0,0.3,0.2c0.1,1.2,0.2,2.5,0.3,3.7
		c0,0.2,0,0.3-0.1,0.3c-0.2,0.1-0.3,0-0.4-0.2c-1-2.6-2.2-3.2-3.6-3.2c-1.1,0-1.8,0.6-1.8,1.7c0,1,0.5,1.5,2.7,2.4
		c2.6,1.2,3.8,2.4,3.8,4.8C521.7,21.3,520.3,22.6,516.6,22.6z"/>
	<path d="M534.5,15.5l-7.3,0.7c0.4,3.5,1.9,4.8,3.5,4.8c1.1,0,2.4-0.7,3.1-2.1c0.1-0.2,0.3-0.2,0.4-0.1c0.1,0.2,0.1,0.3,0.1,0.5
		c-0.7,2.1-2.2,3.3-4.6,3.3c-3.7,0-5.8-2.9-5.8-7.1c0-4.4,2.4-7.1,5.6-7.1c3.1,0,5.2,2.9,5.2,6.2C534.8,15.2,534.7,15.4,534.5,15.5z
		 M529.5,9.7c-1.4,0-2.3,1.3-2.3,4.6c0,0.2,0,0.4,0,0.6l4.5-0.6c0.2,0,0.2-0.2,0.2-0.3C531.8,12.1,530.8,9.7,529.5,9.7z"/>
	<path d="M545.7,12.8c-1.9,0-0.3-2.4-2.3-2.4c-0.9,0-2,0.8-2,2.3v7.8c0,0.7,0.3,1.1,1.2,1.2c0.1,0,0.2,0.1,0.2,0.3
		c0,0.2-0.1,0.3-0.2,0.3H537c-0.2,0-0.2-0.1-0.2-0.3c0-0.2,0.1-0.3,0.2-0.3c0.9-0.1,1.2-0.4,1.2-1.2v-9.4c0-0.7-0.1-0.8-1.1-0.8
		c-0.3,0-0.3-0.6-0.1-0.7c1.4-0.3,2.9-0.8,4.2-1.2c0.2-0.1,0.2,0.1,0.2,0.3v1.5c1-1.2,2.2-1.9,3.3-1.9c1.3,0,2.2,1.2,2.2,2.6
		C546.9,12.2,546.5,12.8,545.7,12.8z"/>
	<path d="M559.1,9.3c-0.7,0.2-1.3,0.6-1.7,1.9l-3.3,10.9c-0.1,0.3-0.3,0.5-0.7,0.5c-0.4,0-0.6-0.2-0.7-0.5l-4.6-12
		c-0.2-0.6-0.4-0.7-1.2-0.8c-0.1,0-0.2-0.1-0.2-0.3c0-0.2,0-0.3,0.2-0.3h5.7c0.2,0,0.3,0.1,0.3,0.2c0,0.2,0,0.3-0.3,0.3
		c-0.9,0.2-1,0.5-0.8,0.9l2.6,7.6l2-6.5c0.3-1.1-0.2-1.8-1.1-2c-0.2-0.1-0.3-0.1-0.3-0.3c0-0.2,0-0.2,0.3-0.2h3.9
		c0.3,0,0.3,0.1,0.3,0.2C559.4,9.2,559.4,9.3,559.1,9.3z"/>
	<path d="M570.7,15.5l-7.3,0.7c0.4,3.5,1.9,4.8,3.5,4.8c1.1,0,2.4-0.7,3.1-2.1c0.1-0.2,0.3-0.2,0.4-0.1c0.1,0.2,0.1,0.3,0.1,0.5
		c-0.7,2.1-2.2,3.3-4.6,3.3c-3.7,0-5.8-2.9-5.8-7.1c0-4.4,2.4-7.1,5.6-7.1c3.1,0,5.2,2.9,5.2,6.2C570.9,15.2,570.9,15.4,570.7,15.5z
		 M565.6,9.7c-1.4,0-2.3,1.3-2.3,4.6c0,0.2,0,0.4,0,0.6l4.5-0.6c0.2,0,0.2-0.2,0.2-0.3C568,12.1,567,9.7,565.6,9.7z"/>
	<path d="M581.4,22.6c-0.1,0.1-0.2-0.1-0.2-0.3l-0.1-1.1c-0.6,0.9-1.7,1.5-3,1.5c-3.1,0-4.9-3-4.9-7.1c0-4.1,1.9-7.1,5-7.1
		c1.2,0,2.2,0.5,2.8,1.2V4.7c0-0.7,0-0.8-1.1-0.8c-0.3,0-0.4-0.6-0.1-0.7c1.4-0.3,2.9-0.8,4.2-1.3c0.1-0.1,0.2,0.1,0.2,0.3v17.3
		c0,0.9,0.1,1,1.2,0.7c0.3-0.1,0.3,0.6,0.1,0.7C584.1,21.7,582.9,22.2,581.4,22.6z M581,13.7c0-2.3-1.1-3.8-2.4-3.8
		c-1.3,0-2.2,1.3-2.2,4.4c0,4.7,1.3,6.6,2.9,6.6c0.7,0,1.3-0.6,1.6-1.3V13.7z"/>
	<path d="M590.6,22.6c-1.1,0-2-1.2-2-2.5c0-1.3,0.9-2.5,2-2.5c1.1,0,2,1.2,2,2.5C592.6,21.4,591.7,22.6,590.6,22.6z"/>
</g>
</svg>
