<!-- Generator: Adobe Illustrator 19.0.0, SVG Export Plug-In  -->
<svg version="1.1"
	 xmlns="http://www.w3.org/2000/svg" xmlns:xlink="http://www.w3.org/1999/xlink" xmlns:a="http://ns.adobe.com/AdobeSVGViewerExtensions/3.0/"
	 x="0px" y="0px" width="171.6px" height="324.5px" viewBox="0 0 171.6 324.5"
	 style="overflow:scroll;enable-background:new 0 0 171.6 324.5;" xml:space="preserve">
<defs>
</defs>
<g>
	<g>
		<path d="M81.4,15H55.5c0,3.2,0,7,0.1,10.9c1.4,0.1,1.7-0.4,2.2-0.9c1.5-1.9,3.6-4.1,5.4-5.7c0.7-0.6,1.6-0.7,2.7,0
			c2.5,1.5,6.3,4.4,9.4,6.5c1.6,1.1,2.1,4-0.2,5.8c-2.1,1.8-2.3,1.8-2.4,5c-0.2,8.8-0.2,27.9,0.3,42.1c0.1,4.1-2,5-7.1,5.4
			c-5.6,0.4-7.8-0.5-7.7-3H40.7c0.1,3.4-1.8,4.7-7.4,5c-5.2,0.4-7.6-1.2-7.4-4.3c1.1-18.6,1-52.3,0-58.1c-0.8-4.6-0.4-4.9,1.5-4.1
			c5.2,2.1,10.6,4.3,13.4,5.6c0.1-3.4,0.1-6.9,0.1-10.2H12.6c-3.6,0-7.4,0.2-9.3,0.9c-0.7,0.2-1.6-0.1-2-1.1c-0.4-0.9-1-3.3-1.3-4.6
			C-0.2,9,0.3,8.9,1.4,9.3c2.8,1.1,7.7,1.5,11.1,1.5h28.2c-0.1-3.2-0.2-5.6-0.5-7.1c-0.7-3.7-0.9-3.7,1.3-3.6
			c4.7,0.4,11.6,1.3,16.3,2.2c2.7,0.6,2.8,3.7,0.2,4.6c-2.3,0.8-2.4,2-2.4,4h5.5c0.8,0,1.4-0.2,2-1.1C65,7.3,67.4,4.4,69.7,2
			c0.7-0.7,1.5-0.7,2.3,0c2.5,2.1,6.8,6.1,10.2,9.5C83,12.3,83.2,15,81.4,15z M83,96.5H21.1c0.3,4.4-1.3,6.2-7.6,6.7
			c-6.5,0.5-8-1.3-7.9-5.5c0.9-19.4,1.4-57.2,0.2-65.1C5.3,29,5,28.4,7.2,28.8c5.1,0.7,11.4,1.5,15.5,2.5c2.3,0.6,2.4,3.2,0.3,4.2
			c-1.6,0.8-2.1,1.2-2.2,2.8c-0.2,7.6-0.3,34.5,0.2,54h41.6c0.8,0,1.4-0.2,2-1.1c1.9-2.2,4.6-5,6.7-7c0.7-0.7,1.6-0.7,2.3,0
			c3.1,2.6,6.5,5.8,10.1,9.1C84.6,94.2,84.8,96.5,83,96.5z M40.4,45.8c0,4.2-0.1,8.5,0,12.9h18.3c0-4.3,0.1-8.7,0.1-12.9H40.4z
			 M58.5,30H40.5c0,3.7-0.1,7.4-0.1,11.7h18.3C58.7,37.4,58.7,33.7,58.5,30z M40.4,62.8c0,4.7,0.1,9.7,0.2,14h17.9
			c0.1-4.2,0.2-9.2,0.3-14H40.4z"/>
		<path d="M79.2,202.1c-0.1,1.2-1.4,1.2-2,0.7c-9.4-7.4-12.4-21.2-13.9-36.5c0,11.1,0.1,23.6,0.3,30.6c0.2,10.5-3.6,12.6-12.5,13.8
			c-1.8,0.2-2.4,0-2.5-1.8c-0.6-9-1-10.6-6.5-13.9c-1.1-0.7-1.1-2.9,0.3-2.7c1.7,0.2,3.7,0.4,6.2,0.5c1.8,0,2.1-0.5,2.2-3
			c0.2-4.4,0.2-12.3,0.2-20.2c-0.7,0.6-1,1.2-1.1,2c-2.5,13.8-8.5,25.5-20.8,31.1c-1.4,0.7-1.8-0.8-0.8-2.2
			c6.5-9.9,9.3-22.6,10.4-32.7h-1.7c-1.8,0-2.9,0.1-4.6,0.8c-0.7,0.2-1.5-0.1-1.9-1.1c-0.3-0.7-0.7-1.9-0.9-3c-1.7,0-3.4-1.1-4-3.4
			c-0.4-1.2-0.5-2.3-0.6-3.4c-0.3,0.1-0.6,0.4-0.8,0.5c-0.1,16.7,0,34.3,0.4,47c0.1,4-1.3,5.4-6.9,5.7c-4.9,0.4-6.4-1.2-6.2-5
			c0.3-7.3,0.5-15.2,0.5-23.3c-2.1,8.1-5,16.1-9.5,22.7c-0.8,1.3-1.9,0.8-1.7-1.1c2.1-10.9,3.1-23.7,2.9-32.3c0-1.6-0.7-2.5,0.8-2.2
			c2.4,0.5,5.1,1.2,7.6,2c0-2.8,0-5.5,0-8.2c-1.6,0.6-3,1.1-4.3,1.4c-1,0.2-1.5,0.6-1.8,2c-0.4,2.1-2.2,2.5-2.7,0.4
			c-1.1-4.1-2.1-10.2-2.6-14.3c-0.4-2.6,0.3-1.9,1.6-1.6c1.8,0.2,3.7,0.5,6,0.6c1.5-2.6,2.8-5.3,4-7.8c-2.2,1.1-4.9,0.6-6.1-2
			c-3-6,1.1-10.8-4.3-17.7c-0.7-1.1-0.2-2.3,0.8-2c1.8,0.5,3.5,1.1,4.9,1.6c1.1-4.7,2-10.9,2-14.7c0.1-1.5-0.4-2.1,1.7-1.8
			c4.2,0.8,9.7,2,13.8,3.3c2.4,0.7,2.3,3.4-0.1,4c-1.5,0.4-1.8,0.2-2.2,0.8c-2.8,3.9-6.8,7.8-10.9,10.8c2.7,2.1,4.3,4.7,4.7,8.1
			c1.8-4.7,3-8.9,3.6-12.2c0.3-2,0.3-2.3,1.2-2c4.1,1.5,8.9,3.4,12.6,5.3c2.2,1.2,2.1,3.9-0.4,4.2c-1.7,0.2-2.1,0.1-2.5,0.9
			c-4.1,8-9.9,15.2-17.1,21.4c3.7,0.1,7.7,0.1,11.4-0.1c0-2.3-0.4-4.7-2.2-7.2c-0.6-0.8-0.1-2,1-1.5c5.4,2.3,11.1,7,10.9,14.6
			c-0.1,2.2-0.9,4-2.2,5.1c1.3,0.4,2.5,0.6,3.6,0.6h0.6c0.6,0,1-0.2,1.5-0.8c1.2-1.5,3.1-3.7,4.4-4.9c0.7-0.6,1.6-0.5,2.3,0
			c1.7,1.3,3.9,3.4,5.8,5.4c-0.1-3.9-0.1-7.8-0.2-10.9H48c-0.7,2.5-3.5,3.4-6.7,3.6c-3.6,0.2-6.8,0-6.5-4c0.7-13.7,1-30.1-0.1-35.1
			c-0.7-3.2-0.4-3.3,1.3-2.7c3.9,1.6,8.7,3.6,11.7,4.9c0.3-4.1,0.3-7.6,0-9.8c-0.2-1.4-0.5-2,1.5-1.9c4.3,0.5,9.6,1.1,15.5,2
			c2.8,0.5,2.5,3.5,0,4c-1.8,0.4-2.2,0.9-2.9,1.5c-2.2,1.9-5.1,4-7.5,5.4h8.2c0.9,0,1.2-0.2,1.7-0.7c1.6-1.6,3.6-3.7,5.5-5.6
			c0.7-0.7,1.6-0.7,2.5,0c2.5,1.9,5.7,4.2,8.4,6.9c1.3,1.3,1.4,3.4-0.3,4.8c-1.3,1.2-2,1.4-2.1,3.6c-0.1,5.8-0.1,12.3,0.2,19.6
			c0.3,4.7-2.9,5.5-6.8,5.8c-3.6,0.4-6.2,0.1-6.7-2.5h-1.5c0,0,0,1.3,0,1.4c1,5.6,2.2,10.1,4.2,14.3c1.2-3.2,2.2-7.5,2.5-11.2
			c0.1-1.5,0.7-1.9,1.8-1.1c2.8,2.3,7.5,6.8,10.5,9.8c1.4,1.4,0.9,4.2-1,3.6c-1.6-0.5-2.2-0.4-3.3,0.4c-2.3,1.4-5.1,2.6-7.3,3.4
			c3.2,4.3,7.1,7.4,12.8,9.5c0.8,0.4,1.1,1.9,0,2.7C80.5,187.7,79.7,191.6,79.2,202.1z M25.1,187.1c-0.3-6.2,2.5-9.4-0.7-17.4
			c-0.4-1.1,0.5-2.1,1.4-1.2c5.3,4.9,8.6,10.9,8.2,17.2C33.7,193.8,25.5,195.1,25.1,187.1z M65,124.3H48.3c-0.1,3-0.1,6.2-0.1,9.6
			h16.9C65.1,130.5,65.1,127.3,65,124.3z M48.2,137.9c0,3.4,0,6.8,0.1,10.4h16.6c0.1-3.5,0.1-7,0.2-10.4H48.2z"/>
	</g>
</g>
<g>
	<path d="M81.2,251.3c-4.4-0.7-6,1.4-11.1,5.3c1.3,1.2,2.8,2.7,5,5.1c0.9,1.1,0.5,2.7-0.7,2.7H58.4c-1.9,0-4.1,0.1-5.7,0.7
		c-0.6,0.1-1.1-0.1-1.5-0.9c-0.4-0.8-0.9-2.7-1.1-3.9c-0.2-0.9,0.2-1.2,1.1-0.8c2.2,0.9,5.1,1.2,6.9,1.2h4.3c0.7,0,1-0.4,1.5-0.9
		c0.7-0.9,1.9-2.5,3.1-3.9c0.1-0.5,0.3-1.1,0.4-1.6H58c-1.9,0-3.9,0.1-5.4,0.7c-0.7,0.1-1.2-0.1-1.6-0.9c-0.3-0.8-0.8-2.6-1.1-3.7
		c-0.2-1.1,0.3-1.3,1.2-0.9c2.2,0.9,3.7,1.3,5.5,1.3h1c0.7,0,1.1-0.5,1.5-0.9c0.8-1.4,2-2.9,3.1-4.4c0.5-0.7,1-0.7,1.8,0
		c1.2,1.4,2.7,3.2,4.2,5.1c0.6-2.7,1-5.3,1.3-7.3H49.2c0,6.7,0.1,13.3,0.3,20.8c0.2,4.4-2.4,5.1-7.6,5.5c-5.3,0.4-7.1-1.5-7-5.5
		c0.3-7.3,0.4-14,0.4-20.8H14.8c0.5,2,0.8,4.1,0.9,6.1c2.2,1.1,4.1,1.4,6.1,1.4h1c0.7,0,1.1-0.5,1.5-0.9c0.8-1.3,2.1-2.9,3.1-4.4
		c0.6-0.7,1.1-0.7,1.9,0c1.5,1.6,3.5,4.2,5,6.3c1,1.3,0.5,2.7-0.7,2.7H23.1c-1.9,0-3.9,0.1-5.4,0.7c-0.7,0.1-1.2-0.1-1.6-0.9
		c-0.1-0.4-0.3-0.8-0.4-1.3c-0.3,2.3-1,4.3-2.4,6c-0.4,0.4-0.7,0.8-1,1.1c2.1,0.7,4.6,0.9,6.4,0.9h3.2c0.7,0,1-0.4,1.5-0.9
		c0.8-1.1,2.2-2.7,3.6-4.2c0.5-0.6,1-0.7,1.8,0c1.8,1.6,3.3,3.3,5.6,6.2c0.7,0.9,0.6,2.7-0.7,2.7H18.7c-2,0-4.2,0.1-5.7,0.7
		c-0.7,0.1-1.2-0.1-1.6-0.9c-0.3-0.7-0.7-2.1-0.9-3.3c-5.9,2.9-11.7-5.4-8.4-12.2c3.1-6.9,6.8-3.4,7.9-13.6c0.2-2,1.2-2,2.1-0.2
		c0.5,1.2,1.1,2.6,1.6,4.1h21.7c0-2.2,0-4.6-0.1-6.9h-13c-3.6,0-7.8,0.5-10.1,1.1c-0.8,0.2-1.6-0.1-2-1.1c-0.4-1.1-0.9-3.2-1.2-4.4
		c-0.3-1.3,0.2-1.4,1.3-1.1c2.8,1.1,8.5,1.5,12,1.5h35.5c0.7,0,1.4-0.4,2-0.9c2.2-2.1,4.6-4.2,6.5-6.1c0.7-0.7,1.6-0.7,2.4-0.1
		c2.6,1.9,6.6,5,10.3,8.2c1.1,0.9,0.8,2.9-0.8,2.9H49.3c0,2.3-0.1,4.7-0.1,6.9h17.9c1.2,0,1.6-0.2,2.3-0.9c1-1.2,2.6-2.8,3.9-4
		c0.9-0.9,1.8-0.9,2.8,0c2.6,2.5,5.2,5.4,7.8,8.5C87.6,247.3,85.6,252,81.2,251.3z M77.6,321.3c-7.2,1.6-23.1,1.3-31.5,0.6
		c-8-0.5-11.5-3.4-11.3-13.6c0.1-2.3,0.1-4.7,0.1-7H24.6c0,0.7,0.1,1.3,0.1,1.9c0.2,4.2-2.4,5.6-7.6,6c-4.3,0.4-7.4-0.4-7.2-4.9
		c0.6-11.7,0.9-29.3-0.1-34.8c-0.7-3.9-0.2-4.3,1.9-3.5c5.1,2.2,14.1,5.7,14.1,5.7h31.6c0.9,0,1.4-0.4,1.9-0.8
		c1.7-1.6,3.8-3.5,5.6-5.1c0.7-0.6,1.7-0.7,2.8,0c2.8,1.8,6.4,4.1,9.2,6.5c1.4,1.2,2.5,3.6-0.3,5.5c-1.6,1.2-2.3,1.5-2.3,4.6
		c0,3.5,0.1,11.5,0.3,16.5c0.2,4.1-3,5.3-8,5.6c-4,0.4-6.3,0.1-6.7-3H49.2c0,0.6,0,1.4,0,2c0,3.3,0.7,4,3.1,4.1
		c4.5,0.5,12.5,0.6,18.1-0.1c5.1-0.7,6.5-2.2,9.1-16.6c0.3-1.9,2.2-2,2.2,0.5c0,11.7-0.2,12.6,1.8,14
		C87.4,308.2,87,319.1,77.6,321.3z M34.9,275.6H24.6c-0.1,2.5-0.1,5.3-0.1,8.2H35C35,281,35,278.3,34.9,275.6z M24.5,287.7
		c0,3.2,0,6.4,0.1,9.6h10.3c0-3.2,0.1-6.4,0.1-9.6H24.5z M49.1,287.7c0,3.4-0.1,6.7,0,9.6H60c0-3.2,0.1-6.4,0.1-9.6H49.1z
		 M60.1,275.6H49.1c0,2.7,0,5.5,0,8.2c0,0,11,0,10.9,0C60.1,280.8,60.2,278,60.1,275.6z"/>
	<path d="M170.1,272.8h-32.6c0,11.1,0,25,0.2,37.1c0.2,10.1-5,13.2-17.4,14.6c-1.5,0.2-2.2-0.4-2.2-1.8c-0.9-10.1-1.1-11.6-12-16.4
		c-1.2-0.6-1.2-3.3,0.3-3c4.9,0.6,9.6,0.8,13,0.7c1.8-0.1,2.2-1.2,2.3-2.9c0.2-4.2,0.2-17.1,0.1-28.3H99.9c-3.6,0-7.5,0.2-9.4,0.9
		c-0.7,0.2-1.5-0.1-1.9-1.1c-0.4-0.9-1-3.5-1.3-4.8c-0.3-1.3,0.2-1.4,1.3-1.1c2.8,1.1,7.8,1.5,11.2,1.5h21.8
		c-0.1-6.5-0.3-11.8-0.5-13.7c-0.4-2.8-0.9-4,1.2-3.6c1.6,0.2,4.5,0.6,7.6,1.1c4.3-6.7,7.4-12.3,10.8-18.7H110
		c-3.6,0-7.5,0.2-9.4,0.9c-0.7,0.2-1.5-0.1-1.9-1.1c-0.4-0.9-0.9-3.5-1.2-4.7c-0.3-1.3,0.1-1.4,1.2-1.1c2.8,1.1,7.8,1.6,11.2,1.6h29
		c0.8,0,1.7-0.5,2.3-1.1c1.7-1.9,4.5-4.7,6.1-6.2c0.7-0.8,1.8-0.9,2.8-0.1c3.5,2.9,8.8,8,11.9,11.1c3,3,2.1,6.8-1.9,7
		c-5.2,0.4-6.2,0.8-24.5,13c1.9,0.4,3.4,0.6,4.2,0.8c2.8,0.7,2.2,3.7,0,4.4c-1.5,0.5-2.2,1.3-2.2,2.7c0,2.1,0,4.7,0,7.5h10.3
		c0.8,0,1.6-0.2,2.1-1.1c1.9-2.8,4.6-6.5,7.4-10.2c0.6-0.8,1.6-0.9,2.4,0c3.4,3.4,7.3,7.7,11.1,12.2
		C172.1,270.6,171.8,272.8,170.1,272.8z"/>
</g>
</svg>
