<!-- Generator: Adobe Illustrator 19.0.0, SVG Export Plug-In  -->
<svg version="1.1"
	 xmlns="http://www.w3.org/2000/svg" xmlns:xlink="http://www.w3.org/1999/xlink" xmlns:a="http://ns.adobe.com/AdobeSVGViewerExtensions/3.0/"
	 x="0px" y="0px" width="243.2px" height="336.8px" viewBox="0 0 243.2 336.8"
	 style="overflow:scroll;enable-background:new 0 0 243.2 336.8;" xml:space="preserve">
<defs>
</defs>
<g>
	<path d="M43.7,21.3c-0.1-3.5-0.1-6.3-0.3-7.4c-0.2-2.1-0.6-2.5,0.9-2.3c1.9,0.2,5.8,0.7,9.7,1.6c1.3,0.3,1.5,2.4,0.1,3.1
		c-1.2,0.5-1.4,1-1.4,2.2c0,0.9,0,1.8,0,2.9h1.5c0.7,0,1.1-0.4,1.4-0.9c0.6-1.3,1.7-3.6,2.5-5.1c0.5-0.9,1.1-0.8,1.8,0
		c1.5,1.7,4,5.3,4.9,6.8c0.9,1.4,0.5,2.4-0.8,2.4H55c2.4,5.2,6,7.5,9.9,8.3c0.7,0.2,1,1.7,0.1,2.2c-1.8,1.2-2.3,3.3-3,10.8
		c-0.1,1.4-1.1,1.4-1.6,0.8c-4.5-4.4-6.5-12.2-7.4-22.1h-0.4c0,5.7,0.1,12.3,0.3,20.5c0.1,2.9-0.6,3.6-4.6,4c-4,0.6-5.1-0.8-5-3.5
		c0.1-2.7,0.1-5.8,0.2-8.9c-2.8,3.4-6.1,6.4-10.1,8.9c-0.8,0.5-1.4-0.6-0.8-1.5c1.5-2.1,2.8-4.3,4-6.5c-1.5,1-3.5,0.6-4.6-1.6
		c-1.2-2.5,0.5-5.2-1.8-7.8c0,5.4,0.1,11.5,0.3,17.5c0.1,3.1-0.9,3.6-4.9,4c-4,0.5-4.8-0.7-4.6-3.5c0.1-2.4,0.1-5.4,0.2-8.6
		c-2.1,2.9-4.6,5.4-7.1,7.4c-0.1,2.6-0.3,5-0.6,7C11.7,66.5,7.9,74.7,1.6,80.9c-0.8,0.8-2,0.8-1.4-1.5C2.2,71.2,3.1,63,3.8,50.9
		C4.5,37.6,4.3,9.8,3.5,4.7C3,1.6,3.3,1.1,4.6,1.8c5,2.1,9.5,4.3,11.3,5.4h31.6c0.7,0,1.2-0.2,1.8-0.8c1.5-1.9,3.5-4,5.3-6
		c0.5-0.6,1.3-0.6,2,0c2.6,2,5.9,4.9,8.5,7.4c1,0.9,1,2.6-0.7,2.6H14.9c0,1.6,0,5.7,0,10.8h6.5c0-3.6-0.1-6.3-0.2-7.4
		c-0.2-2.2-0.5-2.5,0.9-2.3c1.6,0.1,7.5,1.1,9.5,1.6c1.6,0.4,1.8,2.2,0.1,3c-1.1,0.6-1.4,0.8-1.4,2.1c0,0.9,0,2,0,3h0.8
		c0.7,0,1-0.3,1.4-0.9c0.7-1.2,1.8-3.5,2.6-4.9c0.4-0.7,1-0.7,1.7,0c1.2,1.4,3,4,4.1,5.8H43.7z M47.6,59.7c0.6,0,1.1-0.3,1.4-0.9
		c1.1-1.9,2.6-3.9,3.9-5.8c0.5-0.7,1.1-0.7,1.8,0c2.1,2,4.9,5.1,6.6,7.5c0.7,1.1,0.7,2.5-0.7,2.5H45.2c0,4,0,8.2,0.1,12.6h4.2
		c0.6,0,1.2-0.3,1.5-0.9c1.3-2,3.4-4.9,4.9-7.2c0.5-0.7,1.1-0.6,1.8,0c2.6,2.6,5.7,6,7.9,8.9c0.8,1.1,0.7,2.5-0.7,2.5H18.8
		c-2.9,0-5.7,0.2-7.1,0.7c-0.6,0.2-1.1-0.1-1.4-0.8c-0.3-0.7-0.8-2.6-1-3.6c-0.2-1-0.1-1.1,0.8-0.8c2.2,0.8,6,1.2,8.7,1.2
		c0.2-9.6,0.1-17.4-0.2-19.7c-0.4-2.5-0.7-3,1-2.9c3.6,0.4,7.6,1,11,1.8c1.9,0.5,1.8,2.8,0.1,3.5c-0.9,0.4-1.5,0.7-1.5,2
		c-0.1,4.5-0.1,9.3,0,15.2h5.3c0.2-9.9,0.1-22.2-0.2-24.5c-0.4-2.5-0.7-3,1-2.9c3.5,0.3,8.4,1,11.7,1.8c1.5,0.3,1.8,2.6,0.1,3.3
		c-1.3,0.6-1.8,0.9-1.8,2.2c0,1.3,0,2.7-0.1,4H47.6z M14.9,24.5c-0.1,5-0.2,12-0.4,17.2c2.5-5.5,4.4-11.9,5.5-17.2H14.9z M30.3,24.5
		c0,0.4,0,0.7,0,1.1c3.8,0.6,7.5,1.7,8.2,6c0.1,0.7,0.1,1.4,0.1,2c1.3-2.8,2.5-5.9,3.7-9.1H30.3z"/>
	<path d="M61.9,164c-0.1,1.1-0.4,1.7-1.5,1.7c-11.8,0-22.4-2.2-29.8-7.4c-6.5,7.1-17,9.3-29.7,9.6c-1.1,0-1.1-1.7-0.2-2
		c10.4-3.8,17.7-8.8,23.1-16.7c-2.6-4.3-4.4-8.5-6-13.9c-1,5.1-2.9,9.4-4.9,13.1c-0.4,0.6-0.7,2.4-0.5,4.4c0.1,1.9-1.6,3.2-2.5,1.2
		c-1.8-4.1-3.9-9.9-5.4-13.8c-0.3-0.8-0.1-1.4,0.7-1.7c4-1.4,8.6-4,11.6-7.1c1-1,2.1-0.7,2.8,0.6c2,3.9,4.7,7.5,7.3,10
		c0.6-1.9,1-4.3,1.1-7c0.1-1.7,0.2-4.8,0.2-7.3h-8.3c-0.4,2.1-2.8,2.9-6.2,3.2c-4.3,0.4-6-0.2-5.9-3.2c0.6-12.3,1-24-0.1-28.9
		c-0.6-2.3-0.2-2.8,1-2.3c4.9,1.8,12.1,5.4,12.1,5.4h7.5c-0.1-4.8-0.2-9-0.4-11.7c-0.2-2.6-1.3-4,0.7-3.7c4.3,0.5,9.3,1.2,13.5,1.8
		c2.1,0.4,2.1,3,0,4c-1.7,0.7-2.1,1.4-2.1,3c0,2.1,0,4.3,0,6.5h6.6c0.7,0,1.1-0.3,1.5-0.7c1.4-1.7,3-3.5,4.5-5.1
		c0.4-0.5,1.3-0.6,2.1,0c2.1,1.5,5.3,4,7.8,6.3c1,0.9,1.3,2.9,0.1,3.9c-1.8,1.3-2.2,1.4-2.2,3.8c-0.1,5.1-0.1,10.8,0.1,19.2
		c0.1,2.8-2.6,3.8-6.3,4c-4.6,0.4-5.9-0.2-5.9-3.2c0-0.8,0.1-1.7,0.1-2.5h-8.8c-0.1,4.5-0.2,8-0.7,11.7c-0.4,2.8-1.3,6.4-2.1,8.7
		c7.4,2.2,16.6,2.2,28.5,1.3c1.2-0.1,1.6,1.5,0.3,2.6C62.5,154.5,62.2,158.1,61.9,164z M19.8,105.3c-0.2,6.9-0.4,13.3,0,19.1h8.4
		c0.1-5.9,0.2-12.8,0.1-19.1H19.8z M39.9,105.3c0.1,6.3,0.1,12.9-0.1,19.1h8.7c0.1-6.4,0.2-12.7,0.1-19.1H39.9z"/>
</g>
<g>
	<g>
		<path d="M113.5,334.4c-0.3,2.1-1.3,2.6-2.9,2.1c-12.7-3.4-33.7-13.8-42.1-44.1C62,317.2,44.2,334.2,7,336.5
			c-2,0.2-2.1-2.6-0.5-3.4c24-12.8,36.2-26.1,41.1-43.1H25.1c-5.1,0-10.4,0.3-13,1.3c-1,0.3-2.2-0.2-2.8-1.5
			c-0.5-1.3-1.4-4.8-1.8-6.6c-0.4-1.8,0.3-2,1.8-1.5c3.9,1.5,10.8,2,15.6,2h24c1-5.9,1.4-12.1,1.8-18.7H40.5c-5.1,0-10.4,0.3-13,1.3
			c-1,0.3-2.2-0.2-2.8-1.5c-0.5-1.3-1.3-4.8-1.7-6.4c-0.4-1.8,0.3-2,1.8-1.5c3.9,1.5,10.8,2.1,15.6,2.1H51c0.3-5.4,0.3-11,0.3-16.1
			H38.2c-5.1,0-10.4,0.3-13,1.3c-1,0.3-2.2-0.2-2.8-1.5c-0.3-0.8-0.7-2.3-1-3.8c-9.2,7.9-19.8-3.6-14.8-15.7
			c4.1-9.8,12.5-5.1,13.5-21.3c0.3-3.1,2-3.3,3.1-0.7c0.9,2.1,2,5.2,2.9,8.9h25.7c0.3-5.4,0.1-10.5-0.5-13.8
			c-0.9-4.9-1.4-5.2,1.6-4.9c6,0.5,16.1,1.5,23.3,2.6c3.5,0.7,3.5,4.8,0.3,6.1c-2.1,1-3.3,2-3.4,4.1c-0.1,1.5,0,3.8,0,5.9h20.9
			c1.4,0,2-0.3,3-1.5c1.6-1.8,4.5-5.2,6.3-7.2c1-1.3,2.4-1.1,3.5,0c4.3,4.1,10.2,10.5,13.8,14.8c4.3,5.2,2.8,13.1-4.6,11.3
			c-7.2-1.8-9-2.5-17.3,1.8c3.1,2.8,6.3,5.6,9.4,9.2c1.2,1.1,1.7,4.4-1.2,4.4h-34c-0.1,5.2-0.3,10.8-0.5,16.1h6.2
			c1.3,0,2.2-0.5,3-1.5c2.6-3.8,4.6-6.7,7.2-9.8c0.9-1,2.1-1,3.1,0c4.2,3.6,8,7,12.9,12.6c1,1.3,1.7,4.6-1.2,4.6H72
			c-0.3,6.7-0.9,13.1-1.7,18.7h20.5c1.3,0,2.4-0.3,3-1.5c2.9-4.1,5.5-7.5,8.5-11.8c0.8-1,2.2-1.1,3.4,0c4.7,4.4,9.6,9.2,14.4,14.9
			c1.2,1.5,1.7,4.6-1.2,4.6H72.8c10.8,15.1,32.1,17.9,48.8,16.9c2-0.2,2.1,3.8,0.1,4.6C116.3,313.8,114.4,323.6,113.5,334.4z
			 M27.2,216.2c0.9,6.7,0.7,14.1-2.6,19.3c3.9,1,9.4,1.5,13.6,1.5h13c-0.1-5.7-0.4-10.8-0.8-14.4c-0.3-2.5,0-2.8,1.8-2.6
			c7.3,1,14.6,1.8,24,3.4c2.8,0.5,3.8,4.9-0.1,6.2c-2.2,0.8-3,1.5-3,3.8c0,1.1,0,2.5,0,3.6h8.1c1.3,0,2.2-0.5,3-1.5
			c2.5-3,4.3-5.4,7.3-9.3c0.8-1.1,1.8-1,2.9-0.2c1-3,1.8-5.7,2.9-9.8H27.2z"/>
		<path d="M157.7,266.9c-0.3-1.6-0.3-3-0.1-4.4c-0.3,0.2-0.5,0.3-0.8,0.5c-0.1,23.4,0,47.7,0.5,65.4c0.1,5.6-1.6,7.9-9.3,8.4
			c-7.1,0.5-8.9-2-8.7-7.4c0.4-10,0.7-21.2,0.7-32.3c-2.8,12.5-6.7,22.8-12.3,31.5c-1.3,2-3.1,1.3-2.6-1.3
			c2.9-15.2,4.1-35.3,3.9-46.2c-0.1-2.3-0.7-3,1.4-2.3c3,1,6.6,2.1,9.7,3.4c0-4.1,0-8,0-12.1c-2.1,0.8-4.1,1.5-5.9,2.1
			c-1.4,0.5-1.7,0.8-2,2.6c-0.5,3.4-3.1,4.1-3.9,0.5c-1.2-6.1-2.4-14.1-3-20c-0.4-3.6,0.4-2.5,2.2-2.1c2.4,0.3,4.7,0.7,7.1,1
			c1.7-3.3,3.4-6.6,5-9.8c-2.9,1-6-0.3-7.6-4.4c-3.1-8.7,3.3-14.4-5.4-25.7c-1-1.5,0.1-3.4,1.2-3c2.5,1.1,4.7,2.5,6.6,3.9
			c1.6-6.7,2.6-15.6,2.8-21c0-2.1-0.7-2.6,2.1-2.1c5.2,1,12.9,2.5,18.9,4.1c3.5,1,3.3,4.6-0.1,5.4c-2.1,0.5-2.5,0.7-3.1,1.5
			c-4.5,5.7-9.6,11-15.6,16.1c3.9,3.9,5.9,8,6.3,12c2.6-6.4,4.9-12.6,6.3-18.9c0.5-1.6,0.3-2.5,1.6-2c4.9,2.1,11.5,4.9,17.1,8
			c3,1.8,2.6,5.4-0.8,5.7c-2.1,0.2-2.4,0.7-3,1.5c-6.8,10-14.7,19.8-23.9,29.2c5.1,0.3,10.4,0.3,15.6,0.2c-0.1-3-0.9-6.4-3.8-11
			c-0.8-1.3,0.4-3.1,1.8-2.3c9.8,6.1,14.4,13.3,14.3,23C170.5,275.6,159.3,277.4,157.7,266.9z M158.7,306.9
			c0.1-10.3,3.7-12.6-1.4-27.4c-0.5-1.6,1-3,2.2-1.6c8.8,9.3,13,18.9,12.1,28.9C170.5,317.9,158.4,318.8,158.7,306.9z M234.7,259.8
			c-2,1.6-3,2-3.1,5.6c-0.3,6.7-0.1,21.2,0.4,34.6c0.3,5.2-1.3,7.7-9,8.2c-6,0.5-10.8,0.2-10.8-3.1h-20.3c0.1,1.5-1.3,2.8-2.9,3.1
			c5.1,2.5,10.8,5.6,15,7.9c3.1,1.8,3.1,6.6-1.6,6.2c-2-0.2-3.1-0.3-4.6,0.8c-9.8,7.5-20.6,11.8-37.8,13.4c-2.5,0.2-2.5-2.6-0.9-3.6
			c12.6-8.4,19-16.4,22.3-22.3c-5.2,0.5-9.4,1.5-9.1-7.4c0.8-15.2,0.9-48-0.1-54.1c-1-5.6-0.3-5.4,2.1-4.6
			c7.3,2.5,18.6,6.9,18.6,6.9h16.8c1.3,0,2-0.5,2.6-1.1c1.8-1.6,4.7-4.1,7.5-6.2c0.9-0.7,2.1-0.8,3.1-0.2c3.3,1.8,8.8,5.9,12.2,8.9
			C237,254.4,237.6,257.5,234.7,259.8z M241.3,242.9h-58.9c-5.1,0-10.1,0.3-12.7,1.3c-1,0.3-2.1-0.2-2.6-1.5
			c-0.5-1.3-1.3-3.9-1.7-6.1c-0.4-1.8,0.1-2,1.7-1.5c3.9,1.5,10.5,2.1,15.3,2.1h9.4c0.1-3.4,0.3-7.4,0.3-11.1
			c-5.8,0-11.5,0.3-14.2,1.3c-1,0.3-2.2-0.2-2.8-1.5c-0.5-1.3-1.3-4.3-1.7-6.1c-0.4-1.8,0.3-2,1.8-1.5c3.9,1.5,11,2.1,16.8,2.1
			c0-3.4,0.1-6.7,0-9.7h-5.2c-5.1,0-10.2,0.3-12.9,1.3c-1,0.3-2.2-0.2-2.8-1.5c-0.5-1.3-1.3-4.3-1.7-6.1c-0.4-1.8,0.3-2,1.8-1.5
			c3.9,1.5,10.6,2.1,15.5,2.1h5.1c0-4.3-0.3-7.4-0.5-8.7c-1-5.1-1.7-5.2,2-4.9c7,0.7,13.8,1.5,19.8,2.6c3.8,0.7,4.2,4.9,0.3,6.7
			c-2.1,1-2.4,1.5-2.2,4.3h5.1c1,0,1.7-0.3,2.6-1.5c2.1-2.6,4.7-5.7,6.8-8c0.9-1,2.1-1,3.1,0c2.9,2.8,7,6.9,10.5,10.8
			c1,1.3,1.4,4.3-1.6,4.3h-26.8c0,3-0.1,6.2-0.1,9.7h2.2c1,0,1.7-0.3,2.6-1.5c1.8-2.3,4.5-5.1,6.3-6.9c1-1.1,1.8-1,3,0
			c2.8,2.3,6.7,5.9,10.1,9.7c1.2,1.3,1.4,4.3-1.6,4.3H211c0.1,3.8,0.1,7.5,0.3,11.1h5.4c1.2,0,1.8-0.5,2.6-1.5
			c2.1-2.5,5.4-5.9,7.9-8.4c0.8-0.8,1.7-1,2.9,0c3.4,3,8.7,7.5,12.5,11.3C243.5,239.8,243.7,242.9,241.3,242.9z M212.7,272.4h-21.1
			c0,3.3,0,6.9,0,10.3h21.1C212.7,279.2,212.7,275.7,212.7,272.4z M191.6,288.3c0.1,3.8,0.1,7.4,0.3,11.1h20.3
			c0.1-3.8,0.3-7.4,0.4-11.1H191.6z M212.4,257H192c-0.1,2.8-0.3,6.1-0.3,9.8h21C212.6,263.3,212.6,260,212.4,257z M225.3,332.6
			c-5-5.9-7.3-15.2-21-20.3c-1.6-0.5-2-3.9,0.5-3.9c17.7,0.3,31.1,2.1,35,9.5C246.7,330.6,234.6,343.4,225.3,332.6z"/>
	</g>
</g>
</svg>
