<!-- Generator: Adobe Illustrator 19.0.0, SVG Export Plug-In  -->
<svg version="1.1"
	 xmlns="http://www.w3.org/2000/svg" xmlns:xlink="http://www.w3.org/1999/xlink" xmlns:a="http://ns.adobe.com/AdobeSVGViewerExtensions/3.0/"
	 x="0px" y="0px" width="399px" height="86.2px" viewBox="0 0 399 86.2"
	 style="overflow:scroll;enable-background:new 0 0 399 86.2;" xml:space="preserve">
<defs>
</defs>
<g>
	<path d="M55.4,35.6C46.9,58.9,32.1,76.5,4.9,85.8c-2.3,0.8-2.4,0.5-0.4-1c19.7-15.8,32.9-33.4,38-56.3c0.4-1.7,0.5-1.9-1.2-1.5
		c-10.1,2.1-16.6,3.4-27.5,6.4c-4.2,1.2-4.5,3.2-7.1,3.3c-2.8,0.1-7.1-8.7-6.5-15.8c0.1-1.8,0.8-2,1.6-0.6c1.9,3.3,4,3.8,8.6,3.5
		c7.4-0.5,19.6-1.7,29.3-2.9c3.7-0.5,3.3-2.8,5.7-3.2c3.7-0.5,14.2,7.8,14.4,11.7C59.7,31.7,56.9,31.4,55.4,35.6z M55.9,19.6
		c-2-3.8-4.6-6.3-7.3-8.3c-1.2-0.9-1.1-1.2,0.2-1.5c4-0.9,8.6,0.3,11,3.9C64.1,19.8,58.3,24.2,55.9,19.6z M59.7,9.2
		c-2-2.8-5.1-5.2-8.2-6.7C50.1,1.8,50,1.6,51.2,1c4.3-1.9,9-0.8,11.5,1.6C67.8,7.7,63.1,14,59.7,9.2z"/>
	<path d="M123,33.9c-1.3,6.5-3.7,18.1-5.6,28.6c5.4,1.9,4.9,10.6-2,8.8c-9.7-2.7-25.8,0.2-27.7,0.3c-1.2,0.1-2.8-0.6-4.3-1.9
		C81.3,82.3,72.5,80.9,71.8,71c-0.3-3.4,0-6.7,0-9.7c0-6.6-0.7-22.7-1.5-29.4c-0.7-5.8-1.9-9-4.9-10.3c-1.2-0.5-1.3-1.3-0.1-1.8
		c4.7-2.1,11.8,0.1,15,3.9c6.4,0.1,14.6-0.7,25.3-2c2.8-0.4,3.8-4.2,6-4.4c4.1-0.4,14.4,7.3,14.5,10.4
		C126.3,31.1,123.9,29.5,123,33.9z M107.7,28.5c-8.7,0.7-18.8,1.5-23.5,2c-0.8,0.1-1.6-0.1-2.4-0.5C82,41.7,82.4,53.9,83,63.9
		c6,0.3,15.2-0.8,23.9-1.8c0.9-12.4,1.6-23.8,2-32.1C108.9,28.8,108.6,28.5,107.7,28.5z"/>
	<path d="M145.3,52c-3.9,0.2-3.6,2.1-6,2.2c-5.1,0.2-9-12.2-6.5-19.6c0.7-2,1.2-2.2,1.9-0.3c1.2,3.3,4.5,3.9,8.8,3.9
		c17.2,0.1,23.2-0.2,42.2-0.7c11.5-0.4,7.8,13.5,1.2,13.8C176.8,51.8,175.7,50.7,145.3,52z"/>
	<path d="M209.2,71.3c-6.7,9.1-15.9-0.3-7.8-10.4c3.7-4.6,7-6,11-17.1c0.7-2.1,1.2-1.7,1.4,0.1C214.9,54.4,212.9,66.2,209.2,71.3z
		 M235,34.1c-0.1,12,0.2,22.8,0.4,28.8c0.3,7.4,1.3,12.4-0.9,17.7c-2.8,6.7-10.5,7.6-12.5,0.1c-0.7-2.5,0.2-6.4-5.5-11.4
		c-1.5-1.3-1.4-1.4,0.2-1.1c3.4,0.5,4.4,0.6,6.4,0.8c1.5,0.1,1.7,0.1,1.7-1.5c0.1-10.4,0.1-22,0-32.5c-3.4,0.5-7.1,1.1-11,2
		c-4.6,1-5.1,3-6.7,3.3c-3.4,0.6-7.6-7.3-5.9-13.3c0.4-1.3,0.7-1.5,1.2-0.1c1.1,2.8,3.4,3.6,7.1,3.4c5.4-0.6,10.5-1.1,15.2-1.5
		c-0.1-2.9-0.1-5.7-0.1-8.3c-0.1-4.4,0.1-8.3-3.4-9c-1.4-0.3-1.5-0.9-0.2-1.9c4.2-3.2,15.5,0.2,15.6,5.4c0.1,2.3-1.4,2.4-1.5,6.3
		c-0.1,2.2-0.1,4.4-0.1,6.6c3.6-0.3,7-0.5,10.4-0.8c2.2-0.2,2.8-1.5,5.8-1.3c8.7,0.5,9.3,11.4,0.6,9.8
		C246.2,34.4,240.8,33.9,235,34.1z M249.9,70c-3-6,0.4-13.8-7.3-26.8c-1.2-2-0.7-2.3,1.1-1.4c7.5,3.7,14.3,11.4,16.1,18.1
		C263.3,73.1,253.3,76.7,249.9,70z"/>
	<path d="M278.9,52c-3.9,0.2-3.6,2.1-6,2.2c-5.1,0.2-9-12.2-6.5-19.6c0.7-2,1.2-2.2,1.9-0.3c1.2,3.3,4.5,3.9,8.8,3.9
		c17.2,0.1,23.2-0.2,42.2-0.7c11.5-0.4,7.8,13.5,1.2,13.8C310.3,51.8,309.2,50.7,278.9,52z"/>
	<path d="M351.6,29.7c-0.4,27.3-3.8,40.4-21.5,53.7c-1.6,1.2-1.8,0.6-0.5-1.2c10.5-14.5,12.9-35.6,12.3-51.7
		c-0.2-4.8-0.8-7.3-3.3-7.8c-1.5-0.4-1.6-0.8-0.4-1.8c3.8-3,15.2,0.3,15.3,4.1C353.5,26.6,351.6,26.8,351.6,29.7z M369.3,76.4
		c-1.8,1.5-2,3.8-3,4.2c-2.4,0.8-9.1-8.9-8.9-12.1c0.1-1.3,1.2-1.8,1.2-4.3c0.4-11,0.3-29.8-0.4-41.1c-0.3-4.6-0.9-6.9-3.8-7.2
		c-1.9-0.2-1.8-0.7-0.3-2.1c4.4-3.8,16.9,1.9,16.8,6.2c-0.1,2.4-1.8,2.8-2.2,6.3c-0.8,7.2-1.2,24.4-1,33c0,1.3,0.3,1.5,1.2,1
		c10.5-5.3,20.8-14,28.9-25.7c0.9-1.3,1.4-1,0.8,0.6C392.5,53.7,383.6,65.1,369.3,76.4z"/>
</g>
</svg>
