<!-- Generator: Adobe Illustrator 19.0.0, SVG Export Plug-In  -->
<svg version="1.1"
	 xmlns="http://www.w3.org/2000/svg" xmlns:xlink="http://www.w3.org/1999/xlink" xmlns:a="http://ns.adobe.com/AdobeSVGViewerExtensions/3.0/"
	 x="0px" y="0px" width="50.3px" height="182.1px" viewBox="0 0 50.3 182.1"
	 style="overflow:scroll;enable-background:new 0 0 50.3 182.1;" xml:space="preserve">
<defs>
</defs>
<g>
	<path d="M30.6,33.2c1.2,7.2,2.4,13.4,3.1,17.6c1.9,11.3-7.5,12.1-9.3,2.9c-0.6-3.2-0.3-5-0.4-6.4c-0.1-2.5-0.4-6.7-1.1-12.6
		c-5.2,1.2-9.9,2.5-12.5,3.9c-1.9,0.9-1.7,2.3-3.6,2.1c-2-0.1-5.2-4-5.1-9.1c0-1.4,0.1-1.6,0.9-0.3c1.2,1.9,3.2,2.3,6.9,1.6
		c2.1-0.4,7.3-1.4,12.9-2.5c-0.2-2-0.7-6.1-1.3-10c-3.9,0.8-7.3,1.7-8.9,2.3c-2,0.8-2.4,2.1-4,1.9C6.1,24.2,3.6,20,4,16.3
		c0.1-0.9,0.2-1,0.7-0.3c1.3,1.6,2.9,2.1,6.3,1.6c2.1-0.3,5.7-1,9.5-1.8c-0.3-1.8-0.5-3.4-0.8-5.1c-0.7-4.1-2-6.3-4.8-6.4
		c-1.3-0.1-1.2-0.6-0.3-1.7c3.7-4.5,12.5-2.3,13.9,1c0.9,2.3-0.7,2.8-0.4,6.5c0.1,1.3,0.2,2.6,0.3,4c2.5-0.5,4.7-1,6.4-1.4
		c1.7-0.4,2.1-1.2,4.6-1.3c6-0.1,6.2,6.3,1.3,6.3c-2.5,0-7,0.6-11.9,1.4c0.4,3.4,0.8,6.7,1.3,10c3.4-0.7,6.5-1.3,8.5-1.7
		c3.2-0.8,4-2.4,6.2-2.1c7.3,1.2,6.1,8.2,1.2,7.2C42.5,31.8,36.8,32.2,30.6,33.2z"/>
	<path d="M40.1,115.4c-2.3-5-4.3-10.2-10.1-17c-6.5,9.8-15.5,17.2-28.8,21.9c-1.4,0.5-1.6,0.3-0.2-0.8c14.4-11.3,24.8-26.6,28.5-43
		c0.2-1-0.2-1-0.8-0.9c-4.5,0.9-8.4,1.9-13.4,3.5c-2.4,0.8-2.6,2.5-3.9,2.5c-3.5,0-6-7.2-4.7-11.5c0.3-1,0.4-1,0.8,0
		c1.3,3,2.8,3.2,6.9,2.9c3.3-0.3,7.3-0.8,13.3-1.6c2.4-0.3,3-2.5,4.2-2.5c2.5-0.1,9.9,5.8,9.7,8.2c-0.2,2.1-2.1,1.4-3.1,4
		c-2.1,6-4.7,11.5-7.9,16.4c6.9,2.1,13,5.8,15.2,8.5C53.8,115.8,43.9,123.7,40.1,115.4z M41.6,71.6c-1.2-3.2-3-5.5-4.8-7.3
		c-0.8-0.8-0.7-1,0.3-1.1c3.1-0.1,6.4,1.3,7.9,4.3C47.7,72.7,43,75.3,41.6,71.6z M46.2,65.9c-1.2-2.3-3.4-4.6-5.7-6.1
		c-1-0.7-1-0.9-0.1-1.2c3.4-1,6.9,0.4,8.6,2.7C52.4,65.8,48.3,70,46.2,65.9z"/>
	<path d="M26.3,163.9c-0.3,2.5-2.2,2.4-2.2,0.1c0-9.3,8.4-9.8,8.4-20c0-6.5-3.4-11.5-8.2-11.5c-4.6,0-8.3,4.1-6.9,11.1
		c0.9,4.6-2.6,7.8-6.1,6.1c-2.1-1-2.8-3.6-2.6-5.6c0.4-7.6,5.9-15,16.3-15c10.8,0,16.3,6.9,16.3,15.3
		C41.2,157.5,27.2,155.9,26.3,163.9z M25.2,182.1c-2.6,0-4.9-3-4.9-6.3c0-3.2,2.3-6.1,4.9-6.1c2.6,0,4.9,2.9,4.9,6.1
		C30.1,179.1,27.8,182.1,25.2,182.1z"/>
</g>
</svg>
