<!-- Generator: Adobe Illustrator 19.0.0, SVG Export Plug-In  -->
<svg version="1.1"
	 xmlns="http://www.w3.org/2000/svg" xmlns:xlink="http://www.w3.org/1999/xlink" xmlns:a="http://ns.adobe.com/AdobeSVGViewerExtensions/3.0/"
	 x="0px" y="0px" width="73.3px" height="338.5px" viewBox="0 0 73.3 338.5"
	 style="overflow:scroll;enable-background:new 0 0 73.3 338.5;" xml:space="preserve">
<defs>
</defs>
<g>
	<path d="M65.3,39.6C63,54.7,62.4,79.8,50.8,84.1c-5.4,1.9-9.6,1.5-9.7-4.1c-0.1-6.1-1.9-7.5-8.2-14.5c-0.9-1.1-0.7-1.6,0.6-1.1
		c4.3,1.8,8,2.9,11.4,3.4c1.8,0.3,3.2-0.4,3.7-2.2c2.4-7.8,4.7-24.6,5.3-34.7c0.2-2-0.1-2.1-1.8-1.8c-3.2,0.6-8.2,1.7-13.4,2.8
		C33,59.5,24.7,75.1,1.8,86C0,86.9-0.7,86.7,1,85c13.8-13,21.3-31.2,25.2-50c-2.6,0.7-4.9,1.3-6.9,1.8c-3.4,0.9-5.3,3.6-6.3,3.5
		C9,39.8,4.3,30.5,6,24c0.5-1.8,0.7-2,1.3-0.6c1.8,4,5.1,4.6,9.9,4.1c3.3-0.3,6.9-0.7,10.4-1.1c0.5-4,1-8,1.3-12.1
		c0.4-5.3-0.5-7.3-3.6-8.5c-1.8-0.7-2.2-1.2-0.2-2.4c7.7-4.7,19.9,2.7,19.4,7.3c-0.2,2.4-2.2,2-3,6.7c-0.4,2.4-0.9,5-1.4,7.6
		c3.7-0.4,7.4-0.9,10.8-1.3c2.3-0.3,2.8-2.5,5.1-2.6c3.7-0.1,12.5,7.9,12,11.7C67.9,35.7,66,34.7,65.3,39.6z M62.1,18.9
		c-2.1-4.1-5-6.8-7.8-9c-1.2-1-1.2-1.3,0.2-1.7c4.3-1,9.2,0.3,11.8,4.2C70.9,19.1,64.7,23.8,62.1,18.9z M67.7,9.9
		c-2.1-3-5.5-5.5-8.8-7.2c-1.6-0.8-1.6-1-0.3-1.7c4.6-2,9.7-0.9,12.4,1.8C76.4,8.2,71.4,15.1,67.7,9.9z"/>
	<path d="M24.1,164.6c-4.3,2.1-3.7,5.6-6.2,5.8c-5.3,0.5-12.8-13.9-11.3-22.2c0.4-2,1-1.8,2.2-0.3c1.9,2.6,3.3,2.8,8.4,1.4
		c20.2-5.7,40.6-20.8,54-38.8c1.3-1.8,1.7-1.3,0.9,0.8C61.3,137,45.3,154.2,24.1,164.6z M27.2,114.3c-4-7.2-10-13.6-17.8-18.7
		c-1.7-1.1-1.7-1.9,0.3-2c9.1-0.6,19.6,2.1,24.5,7.5C44.8,112.9,32,123,27.2,114.3z"/>
	<path d="M65.8,197.4c-6.5,5.8-15.8,12.8-27.3,18.1c3.6,4,6.2,8.7,7.3,13.1c4.2,17.8-13.2,22.1-14.6,4.5c-0.9-11-3.7-19.9-8.7-27.7
		c-1.1-1.7-0.9-2,1-1.3c5,2.1,10.4,6.1,14.5,10.8c7.6-8.5,13.8-20,16.4-26.9c0.6-1.7,0.5-1.8-0.8-1.6c-12.9,2.3-28.2,5.9-38.2,9.1
		c-3.7,1.2-4.5,3.4-7,3.3c-3.6-0.1-8-12.6-6.8-19.5c0.4-2.1,0.8-2.2,1.5-0.5c1.6,3.8,3.7,5.7,9.1,5.5c13.5-0.8,27.7-2.2,40.9-3.9
		c3.1-0.4,3.4-3.1,5.2-3c3.6,0.2,14.9,12.9,13.5,16.6C70.8,197,68.1,195.3,65.8,197.4z"/>
	<path d="M67.2,331.2c-0.1,1-1.2,1-1.6,0.6c-7.8-6.1-10.4-17.6-11.6-30.4c0,9.2,0.1,19.7,0.2,25.5c0.2,8.8-3,10.5-10.4,11.5
		c-1.5,0.2-2,0-2.1-1.5c-0.5-7.5-0.9-8.9-5.5-11.6c-0.9-0.6-0.9-2.4,0.2-2.2c1.4,0.2,3.1,0.3,5.1,0.4c1.5,0,1.7-0.4,1.8-2.5
		c0.2-3.7,0.2-10.2,0.2-16.8c-0.5,0.5-0.9,1-0.9,1.7c-2.1,11.5-7.1,21.2-17.3,25.9c-1.2,0.6-1.5-0.7-0.7-1.8
		c5.4-8.3,7.7-18.8,8.6-27.3h-1.4c-1.5,0-2.4,0.1-3.8,0.7c-0.6,0.2-1.2-0.1-1.6-0.9c-0.2-0.6-0.5-1.6-0.8-2.5
		c-1.4,0-2.8-0.9-3.3-2.8c-0.3-1-0.4-1.9-0.5-2.8c-0.2,0.1-0.5,0.3-0.7,0.4c-0.1,13.9,0,28.5,0.3,39.1c0.1,3.3-1.1,4.5-5.8,4.8
		c-4,0.3-5.3-1-5.1-4.2c0.2-6,0.4-12.7,0.4-19.4c-1.7,6.7-4.1,13.4-7.9,18.9c-0.7,1.1-1.6,0.7-1.4-0.9c1.7-9.1,2.6-19.8,2.4-26.9
		c0-1.4-0.5-2,0.7-1.8c2,0.4,4.2,1,6.3,1.7c0-2.3,0-4.6,0-6.8c-1.3,0.5-2.5,0.9-3.6,1.2c-0.9,0.2-1.2,0.5-1.5,1.7
		c-0.3,1.8-1.8,2-2.3,0.3c-0.9-3.4-1.7-8.5-2.2-11.9c-0.3-2.1,0.2-1.6,1.3-1.4c1.5,0.2,3.1,0.4,5,0.5c1.2-2.1,2.3-4.4,3.3-6.5
		c-1.9,0.9-4,0.5-5.1-1.7c-2.5-5,0.9-9-3.6-14.7c-0.6-0.9-0.2-1.9,0.7-1.7c1.5,0.4,2.9,0.9,4,1.4c0.9-3.9,1.6-9.1,1.6-12.3
		c0.1-1.3-0.3-1.8,1.4-1.5c3.5,0.7,8.1,1.7,11.4,2.7c2,0.6,1.9,2.8-0.1,3.3c-1.2,0.3-1.5,0.2-1.9,0.7c-2.3,3.2-5.7,6.5-9.1,9
		c2.3,1.8,3.6,3.9,3.9,6.7c1.5-3.9,2.5-7.4,3-10.1c0.2-1.7,0.2-1.9,1-1.7c3.4,1.3,7.4,2.8,10.5,4.4c1.8,1,1.7,3.2-0.3,3.5
		c-1.4,0.2-1.7,0.1-2.1,0.8c-3.4,6.6-8.3,12.7-14.3,17.8c3.1,0.1,6.4,0.1,9.5-0.1c0-1.9-0.3-3.9-1.9-6c-0.5-0.7-0.1-1.7,0.9-1.3
		c4.5,1.9,9.3,5.8,9.1,12.2c-0.1,1.8-0.8,3.3-1.8,4.3c1.1,0.3,2.1,0.5,3,0.5h0.5c0.5,0,0.9-0.2,1.2-0.7c1-1.3,2.6-3.1,3.7-4.1
		c0.5-0.5,1.3-0.4,1.9,0c1.4,1.1,3.3,2.8,4.8,4.5c-0.1-3.2-0.1-6.5-0.2-9.1h-2.2c-0.6,2-2.9,2.8-5.6,3c-3,0.2-5.7,0-5.5-3.3
		c0.6-11.4,0.9-25-0.1-29.2c-0.6-2.6-0.3-2.7,1.1-2.2c3.3,1.4,7.2,3,9.7,4.1c0.2-3.4,0.2-6.3,0-8.2c-0.2-1.2-0.4-1.7,1.2-1.6
		c3.6,0.4,8,0.9,12.9,1.7c2.3,0.4,2.1,2.9,0,3.3c-1.5,0.3-1.8,0.8-2.4,1.3c-1.8,1.6-4.3,3.3-6.2,4.5h6.9c0.8,0,1-0.2,1.4-0.6
		c1.3-1.4,3-3.1,4.6-4.7c0.5-0.6,1.3-0.6,2.1,0c2.1,1.6,4.7,3.5,7,5.7c1.1,1.1,1.2,2.8-0.2,4c-1.1,1-1.6,1.2-1.7,3
		c-0.1,4.9-0.1,10.2,0.2,16.4c0.2,3.9-2.4,4.6-5.7,4.9c-3,0.3-5.1,0.1-5.6-2H54c0,0,0,1.1,0,1.2c0.9,4.7,1.9,8.4,3.5,11.9
		c1-2.6,1.9-6.2,2.1-9.3c0.1-1.3,0.6-1.6,1.5-0.9c2.3,1.9,6.2,5.6,8.7,8.2c1.2,1.2,0.8,3.5-0.9,3c-1.3-0.4-1.8-0.3-2.7,0.3
		c-1.9,1.2-4.2,2.1-6.1,2.8c2.6,3.6,5.9,6.1,10.7,7.9c0.7,0.3,0.9,1.6,0,2.2C68.3,319.2,67.6,322.4,67.2,331.2z M22.2,318.7
		c-0.2-5.2,2.1-7.8-0.5-14.5c-0.3-0.9,0.4-1.8,1.2-1c4.4,4.1,7.2,9.1,6.9,14.3C29.2,324.3,22.5,325.4,22.2,318.7z M55.3,266.5H41.4
		c-0.1,2.5-0.1,5.2-0.1,8h14.1C55.4,271.6,55.4,268.9,55.3,266.5z M41.3,277.8c0,2.8,0,5.6,0.1,8.7h13.9c0.1-2.9,0.1-5.8,0.2-8.7
		H41.3z"/>
</g>
</svg>
