<!-- Generator: Adobe Illustrator 19.0.0, SVG Export Plug-In  -->
<svg version="1.1"
	 xmlns="http://www.w3.org/2000/svg" xmlns:xlink="http://www.w3.org/1999/xlink" xmlns:a="http://ns.adobe.com/AdobeSVGViewerExtensions/3.0/"
	 x="0px" y="0px" width="274.2px" height="339.6px" viewBox="0 0 274.2 339.6"
	 style="overflow:scroll;enable-background:new 0 0 274.2 339.6;" xml:space="preserve">
<style type="text/css">
	.st0{fill:#FFFFFF;}
</style>
<defs>
</defs>
<g>
	<path class="st0" d="M34.1,335.2H20c-0.4,0-0.5-0.2-0.5-0.5c0-0.4,0.1-0.6,0.6-0.7c2.2-0.5,2.6-0.9,2.2-1.8l-7.1-14.3l-5.9,11.5
		c-1.1,2.2,0.3,3.8,2.6,4.7c0.4,0.2,0.6,0.3,0.6,0.7c0,0.5-0.2,0.5-0.7,0.5H0.6c-0.5,0-0.6-0.1-0.6-0.5c0-0.4,0.1-0.6,0.5-0.7
		c2-0.6,4.6-2.2,5.8-4.4l7.6-14.5l-9.7-19.3c-0.5-1-1.6-1.4-2.6-1.6c-0.3-0.1-0.4-0.2-0.4-0.6c0-0.5,0.1-0.6,0.5-0.6h13.3
		c0.4,0,0.5,0.2,0.5,0.5c0,0.5-0.1,0.6-0.6,0.7c-1.9,0.4-2.6,0.8-2.1,1.7l5.8,11.4l4.4-8.8c1-2,0-3.6-2.4-4.3
		c-0.4-0.1-0.5-0.3-0.5-0.7c0-0.5,0.2-0.5,0.6-0.5h10.1c0.5,0,0.6,0.1,0.6,0.5c0,0.4-0.1,0.6-0.5,0.7c-2.7,0.7-4.1,2-5.2,4.2
		L19.6,310l11.2,21.9c0.7,1.3,2.4,1.9,3.4,2.2c0.3,0.1,0.4,0.2,0.4,0.6C34.6,335.1,34.5,335.2,34.1,335.2z"/>
	<path class="st0" d="M75.1,335.2c0,0.6-0.7,0.6-1,0.3c-4.5-3.6-6-10.3-6.8-17.7c0,5.4,0,11.5,0.1,14.9c0.1,5.1-1.8,6.1-6.1,6.7
		c-0.9,0.1-1.2,0-1.2-0.8c-0.3-4.4-0.5-5.2-3.2-6.7c-0.5-0.3-0.5-1.4,0.1-1.3c0.8,0.1,1.8,0.2,3,0.2c0.9,0,1-0.2,1-1.5
		c0.1-2.2,0.1-6,0.1-9.8c-0.3,0.3-0.5,0.6-0.5,1c-1.2,6.7-4.1,12.4-10.1,15.1c-0.7,0.3-0.9-0.4-0.4-1.1c3.1-4.8,4.5-10.9,5-15.9
		h-0.8c-0.9,0-1.4,0.1-2.2,0.4c-0.4,0.1-0.7-0.1-0.9-0.5c-0.1-0.3-0.3-0.9-0.5-1.5c-0.8,0-1.6-0.5-2-1.6c-0.2-0.6-0.2-1.1-0.3-1.6
		c-0.1,0.1-0.3,0.2-0.4,0.2c0,8.1,0,16.6,0.2,22.8c0,1.9-0.6,2.6-3.4,2.8c-2.4,0.2-3.1-0.6-3-2.4c0.1-3.5,0.2-7.4,0.2-11.3
		c-1,3.9-2.4,7.8-4.6,11c-0.4,0.6-0.9,0.4-0.8-0.5c1-5.3,1.5-11.5,1.4-15.6c0-0.8-0.3-1.2,0.4-1.1c1.2,0.2,2.4,0.6,3.7,1
		c0-1.4,0-2.7,0-4c-0.8,0.3-1.5,0.5-2.1,0.7c-0.5,0.1-0.7,0.3-0.9,1c-0.2,1-1,1.2-1.3,0.2c-0.5-2-1-4.9-1.3-6.9
		c-0.2-1.2,0.1-0.9,0.8-0.8c0.9,0.1,1.8,0.2,2.9,0.3c0.7-1.2,1.4-2.6,2-3.8c-1.1,0.5-2.4,0.3-2.9-1c-1.5-2.9,0.5-5.2-2.1-8.6
		c-0.4-0.5-0.1-1.1,0.4-1c0.9,0.2,1.7,0.5,2.4,0.8c0.5-2.3,1-5.3,1-7.1c0-0.7-0.2-1,0.8-0.9c2,0.4,4.7,1,6.7,1.6
		c1.2,0.3,1.1,1.6,0,1.9c-0.7,0.2-0.9,0.1-1.1,0.4c-1.4,1.9-3.3,3.8-5.3,5.2c1.3,1,2.1,2.3,2.3,3.9c0.9-2.3,1.5-4.3,1.8-5.9
		c0.1-1,0.1-1.1,0.6-1c2,0.7,4.3,1.6,6.1,2.6c1,0.6,1,1.9-0.2,2c-0.8,0.1-1,0.1-1.2,0.5c-2,3.9-4.8,7.4-8.3,10.4
		c1.8,0.1,3.7,0.1,5.5-0.1c0-1.1-0.2-2.3-1.1-3.5c-0.3-0.4,0-1,0.5-0.7c2.6,1.1,5.4,3.4,5.3,7.1c0,1.1-0.5,1.9-1,2.5
		c0.6,0.2,1.2,0.3,1.8,0.3h0.3c0.3,0,0.5-0.1,0.7-0.4c0.6-0.7,1.5-1.8,2.1-2.4c0.3-0.3,0.8-0.2,1.1,0c0.8,0.6,1.9,1.6,2.8,2.6
		c0-1.9,0-3.8-0.1-5.3H60c-0.4,1.2-1.7,1.6-3.3,1.8c-1.8,0.1-3.3,0-3.2-1.9c0.4-6.6,0.5-14.6,0-17c-0.4-1.5-0.2-1.6,0.6-1.3
		c1.9,0.8,4.2,1.8,5.7,2.4c0.1-2,0.1-3.7,0-4.8c-0.1-0.7-0.2-1,0.7-0.9c2.1,0.2,4.7,0.5,7.5,1c1.4,0.2,1.2,1.7,0,1.9
		c-0.9,0.2-1,0.5-1.4,0.7c-1,0.9-2.5,1.9-3.6,2.6h4c0.5,0,0.6-0.1,0.8-0.3c0.8-0.8,1.7-1.8,2.7-2.7c0.3-0.3,0.8-0.3,1.2,0
		c1.2,0.9,2.8,2,4.1,3.3c0.6,0.6,0.7,1.6-0.1,2.3c-0.6,0.6-1,0.7-1,1.8c0,2.8,0,6,0.1,9.5c0.1,2.3-1.4,2.7-3.3,2.8
		c-1.7,0.2-3,0.1-3.3-1.2h-0.7c0,0,0,0.6,0,0.7c0.5,2.7,1.1,4.9,2,6.9c0.6-1.5,1.1-3.6,1.2-5.4c0-0.7,0.4-0.9,0.9-0.5
		c1.4,1.1,3.6,3.3,5.1,4.8c0.7,0.7,0.5,2-0.5,1.8c-0.8-0.2-1-0.2-1.6,0.2c-1.1,0.7-2.4,1.2-3.5,1.6c1.5,2.1,3.4,3.6,6.2,4.6
		c0.4,0.2,0.5,0.9,0,1.3C75.7,328.2,75.3,330.1,75.1,335.2z M48.9,327.9c-0.1-3,1.2-4.5-0.3-8.4c-0.2-0.5,0.2-1,0.7-0.6
		c2.6,2.4,4.2,5.3,4,8.3C53,331.2,49.1,331.8,48.9,327.9z M68.2,297.5h-8.1c0,1.5,0,3,0,4.6h8.2C68.3,300.5,68.3,298.9,68.2,297.5z
		 M60.1,304.1c0,1.6,0,3.3,0,5h8.1c0-1.7,0-3.4,0.1-5H60.1z"/>
	<path class="st0" d="M119.8,337.1c-0.1,0.8-0.1,1.2-0.8,1.2c-5.4,0-13.5,0.1-18.7-0.7c-3.7-0.5-6.9-2.4-8.7-7.6
		c-2,2.8-4.1,5.2-5.6,6.6c-0.4,0.4-0.8,0.7-0.8,1.8c0,1-1,1.7-1.5,0.2c-0.8-2.7-1.6-6.3-2.2-9c-0.3-1-0.2-1.2,0.3-1.2
		c1,0,2.4-0.3,4.1-0.8c0.1-4.8,0.1-10.4,0-14.6h-0.4c-0.8,0-1.6,0.2-2.6,0.5c-0.4,0.1-0.7,0-0.9-0.5c-0.2-0.5-0.4-1.5-0.5-2.1
		c-0.1-0.6,0-0.8,0.6-0.5c1.1,0.5,2,0.7,2.7,0.7h0.4c0.4,0,0.5-0.3,0.7-0.5c0.8-1.1,1.8-2.3,2.5-3.2c0.3-0.4,0.8-0.5,1.3-0.1
		c1.5,1.1,2.9,2.4,4.2,3.6c0.9,0.9,0.9,1.8,0,2.6c-0.8,0.8-1.3,1-1.3,2c-0.1,2.7-0.1,7.7,0,11.4c0.4,0.4,0.7,0.8,1.1,1.1
		c3.3-3.9,5-8.5,5.2-16c-1.1,0.1-1.8,0.2-2.4,0.4c-0.4,0.1-0.7-0.1-0.9-0.5c-0.2-0.5-0.5-1.5-0.6-2.1c-0.1-0.6,0-0.7,0.5-0.5
		c1.4,0.5,3.7,0.7,5.4,0.7h6.8c0.5,0,0.7-0.2,1-0.5c0.6-0.5,1.4-1.2,2-1.8c0.3-0.3,0.7-0.3,1.3,0c0.8,0.5,2.5,1.7,3.4,2.5
		c1,0.8,0.9,1.9-0.2,2.4c-0.6,0.3-1,0.5-1,1.1c-0.1,0.5-0.2,1.2-0.4,1.9c0.3-0.1,0.5-0.2,0.6-0.3c0.5-0.6,1.1-1.2,1.7-1.8
		c0.4-0.4,0.8-0.5,1.4,0c0.8,0.6,2.5,1.8,3.4,2.7c0.7,0.7,0.9,1.9-0.1,2.5c-0.7,0.4-0.9,0.6-1,1.4c-0.1,1-0.3,3.2-0.7,4.8
		c-0.6,2.8-2.7,3.6-6.9,4c-1,0.1-1.3-0.2-1.3-0.9c-0.2-3.3-0.5-4.1-4.2-5.7c-0.5-0.2-0.6-1.4,0.2-1.3c1.9,0.2,3.7,0.5,4.8,0.5
		c0.7,0,1.2-0.2,1.4-1c0.2-1,0.3-1.9,0.5-3H113c-0.5,0.9-1.6,1.1-3.4,1c-2-0.1-3.1-0.6-2.6-2.2c0.4-1.3,0.9-3.1,1.1-4.4h-2.3
		c-0.9,10.6-4.3,15.1-11,16.8c1.5,0.7,3.6,1,6.6,1.2c7.2,0.4,13.6,0.1,20.1-0.7c1-0.1,1.2,0.7,0.3,1.5
		C120,332.3,120.1,333.9,119.8,337.1z M86.4,300.5c-1.2-3.5-0.3-5.9-2.9-8.7c-0.5-0.5-0.3-1.2,0.4-1.1c4.2,0.5,8.4,1.9,9.1,6.5
		C94,302.9,87.9,305,86.4,300.5z M119.9,310.1c0,0.7-0.5,1-0.9,0.8c-3.4-1.2-6.8-4.3-8.7-10.5h-0.4c0,2,0.1,4.1,0.2,5.9
		c0,1.8-1,2.3-3.5,2.4c-2.9,0.2-3.5-0.5-3.4-2.2c0-0.7,0.1-1.5,0.1-2.2c-2.9,2.6-6.3,4-10.2,5.1c-0.7,0.2-1-0.5-0.4-1.1
		c2.5-2.3,5-5.2,6.6-7.9c-1.6,0-3,0.2-3.9,0.5c-0.4,0.1-0.7-0.1-0.9-0.5c-0.2-0.5-0.5-1.5-0.6-2.1c-0.1-0.6,0-0.7,0.5-0.5
		c1.4,0.5,3.7,0.7,5.4,0.7h3.6c0-0.9,0-1.9,0-2.8c-2.6,0.1-5.3,0.1-7.7,0c-0.8,0-1-1.1,0-1.2c7.1-1.5,13.3-3.5,15.6-4.9
		c0.7-0.4,0.5-0.6,1.2-0.2c1.1,0.7,4.1,2.8,5.1,3.7c1,0.8,0.8,2-0.4,1.7c-0.9-0.2-1-0.2-1.7-0.1c-1.3,0.3-3.3,0.5-5.6,0.7
		c0,1,0,2,0,3.1h3.1c0.5,0,0.7-0.2,1-0.5c0.7-0.9,1.5-1.9,2.2-2.6c0.4-0.4,0.7-0.3,1.2,0c0.8,0.6,2.7,2.3,3.9,3.6
		c0.3,0.3,0.6,1.5-0.4,1.5h-8.2c2.4,2.1,5.9,2.4,9.3,2.6c0.5,0,0.6,1,0.1,1.3C120.7,305.1,120.2,306.8,119.9,310.1z"/>
	<path class="st0" d="M165,337.1c-0.1,0.8-0.1,1.2-0.8,1.2c-5.4,0-14,0.1-19.2-0.7c-3.7-0.5-7-2.6-8.8-7.7c-1.8,2.7-3.8,5.2-5.3,6.6
		c-0.4,0.3-0.4,0.9-0.5,1.8c-0.1,1.6-1.2,1.7-1.6,0.3c-0.8-2.7-1.7-5.9-2.3-8.7c-0.2-1.1-0.1-1.2,0.4-1.2c0.9,0,2.4-0.2,3.9-0.6
		c0.1-5,0.1-10.8,0-15.1h-0.3c-0.7,0-1.7,0.1-2.5,0.5c-0.4,0.1-0.7,0-0.9-0.5c-0.2-0.5-0.5-1.5-0.6-2.1c-0.1-0.6,0.1-0.7,0.6-0.5
		c1,0.4,1.8,0.6,2.8,0.6h0.2c0.3,0,0.6-0.3,0.7-0.5c0.7-1.1,1.7-2.3,2.4-3.2c0.3-0.4,0.8-0.5,1.3,0c1.4,1.1,2.8,2.4,3.9,3.6
		c0.9,0.9,1,1.9,0,2.6c-1,0.8-1.2,1-1.3,2c-0.1,2.7-0.1,7.7-0.1,11.4c1.7,2.2,4,2.9,8.9,3.2c7.2,0.4,14.1,0.1,20.6-0.8
		c1-0.1,1.2,0.8,0.3,1.6C165.2,332.6,165.3,333.9,165,337.1z M131.4,300.7c-1.4-3.3,0.2-5.7-3.1-8.9c-0.5-0.5-0.4-1.2,0.4-1.1
		c4.9,0.7,8.7,2.4,9.2,6.7C138.6,302.8,133,304.8,131.4,300.7z M166.3,309.8c-0.7,0.5-1.1,0.8-1.2,1.5c-0.1,3.3-0.1,8.3,0,11.8
		c0.1,3.6-1,5.7-5.7,6.2c-0.5,0.1-1,0-1-1.1c0-2.5-0.1-3.6-0.7-4.1c-0.4,0.7-1.3,0.9-2.4,1.1c-1.7,0.3-2.4,0.2-2.4-1.8h-1.5
		c0,0.4,0,0.8,0,1.1c0,1.8-0.9,2-2.6,2.3c-1.3,0.1-2.5,0.1-2.4-1.6c0.3-3.7,0.4-11,0-13.5c-0.2-1.8,0-1.5,0.6-1.3
		c1.9,0.7,4.6,1.9,4.6,1.9h0.9c0.2,0,0.5-0.1,0.6-0.3c0.4-0.5,0.9-1.2,1.4-1.8c0.2-0.3,0.5-0.3,1,0c1,0.6,2.2,1.6,3,2.4
		c0.5,0.5,0.5,1.4,0,1.9c-0.7,0.6-0.8,0.8-0.8,1.5c0,1.1,0,4.1,0,6.1c0.8,0.1,1.3-0.2,1.3-1.1c0.2-3.6,0.1-7.9,0-12.2h-14.1
		c0,5.3-0.1,12.8,0,17.5c0,2-0.7,2.5-3.2,2.7c-2,0.1-2.9,0-2.9-2.1c0.3-7,0.5-18.2,0.1-21.1c-0.3-1.5-0.2-1.8,0.7-1.4
		c0.8,0.3,1.6,0.8,2.4,1.2c0-5.8,0.1-11.6-0.2-13.7c-0.4-2.5-0.1-2.3,0.7-2c2.4,1,5.8,2.6,5.8,2.6h5.9c0.5,0,0.6-0.1,0.9-0.3
		c0.7-0.8,1.5-1.8,2.3-2.6c0.3-0.3,0.8-0.4,1.3,0c1,0.8,2.7,2.3,3.9,3.3c0.8,0.7,1,2-0.2,2.8c-0.6,0.4-1,0.9-1.1,1.8
		c-0.1,1.4,0,5.1,0,7.8c0.3-0.4,0.6-0.8,0.9-1.2c0.3-0.4,0.7-0.5,1.2,0c0.9,1,1.9,2.2,2.8,3.3C167.1,308.4,167,309.3,166.3,309.8z
		 M155.6,294.5H148c0,2.6,0,7.4,0,12.2h1.4c0.1-2.9,0.1-7.8-0.1-9.8c-0.1-1.4,0-1.4,0.5-1.2c2.2,1,4.8,2.3,4.8,2.3h1
		C155.7,296.7,155.7,295.6,155.6,294.5z M151.5,314.1c0,1.5,0,4.6,0,7.4h1.5c0-2.5,0.1-5.9,0.1-7.4H151.5z M154.1,300.1
		c0,2.2,0,4.6,0,6.6h1.6c0-1.9,0-4.3,0-6.6H154.1z"/>
	<path class="st0" d="M208.8,338.1c-0.1,0.9-0.4,1.3-1,1.1c-4.1-1.1-7.4-3.3-10.1-6.5c-3.8,3.5-8.7,5.9-14.2,6.7
		c-0.9,0.1-1-0.7-0.3-1.2c4.1-2.8,7.4-5.7,11-10.5c-2-4.3-3.1-8.8-3.8-15.8c-0.8,0.1-1.5,0.2-2,0.3c-0.4,0.1-0.8-0.1-1-0.5
		c0-0.1-0.1-0.3-0.2-0.5c-1.1,1.2-2.2,2.3-3.3,3.3c0,6.6,0.1,13.3,0.1,18.4c0,3.8-1.3,5.6-6.6,6.5c-1.4,0.2-1.4-0.1-1.5-1
		c-0.3-4-0.6-5.5-3.7-6.9c-0.7-0.3-0.7-1.6,0.1-1.5c1,0.2,2.4,0.2,3.4,0.2c1,0.1,1.2-0.4,1.2-1.5c0-2.2,0.1-5.2,0.1-8.4
		c-0.6,0.4-1.3,0.7-1.9,1.1c-0.4,0.2-0.6,0.5-0.7,1.5c-0.1,1.2-1.2,1.4-1.5,0.2c-0.6-2.9-1.1-6.5-1.5-9.3c-0.1-1-0.3-1,1-1.1
		c1.3-0.2,3-0.3,4.7-0.6c0-2.9,0-5.8,0-8.5h-0.8c-1.3,0-2.4,0.1-3.3,0.4c-0.4,0.1-0.7-0.1-0.9-0.5c-0.2-0.5-0.5-1.5-0.6-2.1
		c-0.1-0.6,0-0.7,0.6-0.5c1.3,0.5,2.8,0.7,4.2,0.7h0.8c0-5.2,0-9.2-0.2-10.1c-0.2-1.9-0.5-2,0.6-1.9c2.4,0.2,5.2,0.7,7.5,1.2
		c1.4,0.3,1.3,1.9,0,2.3c-0.8,0.3-1.2,0.6-1.2,1.4c0,1.9,0,4.1-0.1,6.7c0.4-1,0.9-1.9,1.4-2.8c0.2-0.5,0.6-0.5,0.9,0
		c0.8,1.2,1.8,2.8,2.4,4c0.4,0.6,0.2,1.3-0.5,1.3h-4.3c0,2.3,0,4.6,0,7c1-0.2,1.9-0.5,2.9-0.9c-0.2-0.5,0-0.9,0.5-0.7
		c1.5,0.6,3.7,0.8,5.4,0.8h0.9c0-2.7,0.1-6.2,0.1-9.4h-0.5c-1.8,0-3.5,0.1-4.4,0.5c-0.4,0.1-0.8-0.1-1-0.5c-0.2-0.5-0.5-1.5-0.6-2.2
		c-0.1-0.6,0-0.7,0.5-0.6c1.4,0.5,3.7,0.8,5.4,0.8h0.6c0-3.5-0.1-6.3-0.2-7c-0.3-2-0.5-1.9,0.6-1.8c2.3,0.2,5.2,0.6,7.6,1.1
		c1.3,0.3,1.4,1.9,0.1,2.3c-0.7,0.2-1.1,0.5-1.1,1.2c0,1.1,0,2.6,0,4.2h1.2c0.5,0,0.6-0.1,1-0.5c0.7-1,1.9-2.7,2.8-4
		c0.3-0.4,0.6-0.5,1,0c1.4,1.4,3.1,3.3,4.6,5.1c0.3,0.3,0.6,1.5-0.4,1.5h-10.2c0,3.1,0,6.6,0,9.3c0.1-0.1,0.2-0.2,0.3-0.3
		c0.6-0.9,1.6-2,2.4-2.9c0.3-0.4,0.8-0.3,1.2-0.1c1.4,1.1,3.5,3,4.7,4.2c1.2,1.2,1,2.6-0.3,3.2c-0.5,0.2-1.2,0.7-1.4,1.3
		c-1.3,4.3-2.8,8.4-4.9,11.4c2.6,1.2,5.6,2,8.8,2.4c0.9,0.1,0.8,1.1,0.1,1.5C209.6,331.7,209.3,333.9,208.8,338.1z M192.9,311.8
		c-0.4,0-0.8,0-1.2,0c1.5,5.2,3.2,8.6,5.5,11.1c1.7-2.9,2.9-7,3.7-11.1H192.9z"/>
	<path class="st0" d="M227.6,305.9c-1,0.1-1.1,0.2-1.4,0.9c-0.3,0.8-0.6,1.6-1,2.4c0,9.9,0,19.6,0.1,28.2c0,1.3-1.5,2-3.4,2.1
		c-2.1,0.1-3.5-0.2-3.5-1.9c0.2-6.2,0.2-13.2,0.2-19.3c-0.9,0.9-1.9,1.6-2.9,2.4c-0.6,0.5-1,0-0.6-0.9c2.5-5.7,4.3-12,4.9-17.9
		c-1.1,1.1-2.4,2.2-3.9,3.1c-0.9,0.6-1.1-0.1-0.7-1c2-4.4,3.7-9.9,4.1-13.8c0.1-0.5,0-1,0.6-0.9c2.7,0.6,5.4,1.2,7.6,1.9
		c1.1,0.4,1.1,1.9-0.1,2.1c-0.9,0.2-1.1,0.2-1.5,0.8c-1.2,2.2-2.8,4.4-4.8,6.6c2.1,1,4.4,2,6.4,3.1
		C228.9,304.5,228.7,305.8,227.6,305.9z M255.1,296.4h-9.6c-0.2,1.3-1,2.2-2,2.5c0.8,0.8,1.7,1.9,2.4,2.8c0.5,0.6,0.2,1.3-0.4,1.3
		h-6.6c0,9.8,0,24.2,0.2,34.1c0,1.4-1.1,2-3.6,2.3c-2.4,0.3-3.3-0.3-3.2-2c0.2-7,0.3-17.1,0.3-26.2c0,0.1-0.3,0.2-0.3,0.3
		c-0.5,9.1-2.4,16.7-5.6,21.5c-0.4,0.5-0.9,0.2-0.8-0.5c1.4-8.3,1.5-20.1,1.1-24.4c-0.1-0.9,0-1,0.6-0.8c1.4,0.3,3.3,0.7,5,1.1
		c0-1.9,0-3.7,0-5.4h-0.9c-1.4,0-3.1,0.1-4,0.5c-0.4,0.1-0.7-0.1-0.9-0.5c-0.2-0.6-0.5-1.4-0.6-2.1c-0.1-0.6,0-0.7,0.5-0.5
		c1.4,0.5,3.6,0.7,5,0.7h0.8c0-5.2-0.1-9.1-0.3-10.1c-0.2-1.5-0.2-1.6,0.5-1.5c2.1,0.2,4.9,0.7,7.2,1.2c0.3,0.1,0.5,0.3,0.7,0.5
		c2.1,0.6,3.9,1.5,4.5,3.3h2.2c0.3,0,0.6-0.1,0.8-0.5c0.6-1.1,1.5-2.8,2.4-4c0.2-0.3,0.7-0.3,1,0c1.2,1.4,2.5,3.1,3.9,5
		C255.9,295.5,255.8,296.4,255.1,296.4z M241.2,297.6c-1-1.9,0.3-3.4-0.7-5.2c-0.1,0.1-0.3,0.2-0.5,0.3c-0.7,0.2-1,0.6-1,1.2
		c0,1.5-0.1,3.9-0.1,7h0.2c0.4,0,0.7-0.2,0.9-0.5c0.4-0.6,1.1-1.6,1.6-2.3C241.5,298.1,241.3,297.9,241.2,297.6z M240.1,324.6
		c0-3.7,1.3-9.2-0.5-16.3c-0.2-0.6,0.4-1.1,0.9-0.6c3.9,4.8,5.3,11.1,5.3,15.1C245.6,329.1,240.1,329.1,240.1,324.6z M255.5,307.9
		h-2.1c0,8.3,0,17.2,0.1,24.5c0,4-0.5,6.1-6.3,7c-1.1,0.2-1.2,0.1-1.3-1c-0.3-4.5-0.6-5.1-4-6.8c-0.5-0.3-0.6-1.4,0.1-1.4
		c1.3,0.1,2.7,0.3,3.9,0.2c0.9,0,1-0.4,1-1.4c0.2-5.7,0.2-13.2,0.1-21.1c-1.2,0.1-2.9,0.2-3.6,0.5c-0.4,0.1-0.7-0.1-0.9-0.5
		c-0.2-0.5-0.5-1.5-0.6-2.1c-0.1-0.6,0.1-0.7,0.6-0.5c1.4,0.5,3.8,0.7,4.8,0.7h0.3c0.3,0,0.6-0.1,0.8-0.5c0.7-1.3,1.7-3.1,2.5-4.3
		c0.2-0.3,0.7-0.4,1,0c1.2,1.3,2.6,3.2,4,5.3C256.3,306.9,256.2,307.9,255.5,307.9z"/>
	<path class="st0" d="M267.8,336.5c-1-3-3.4-7.4-6.2-9.8c-0.5-0.5-0.8-1.2,0.4-1c5.2,0.6,9.8,3.6,11.5,6.7
		C276.5,338.5,269.4,342,267.8,336.5z"/>
</g>
<g>
	<path class="st0" d="M68,83.1c-0.1,1.2-0.8,1.8-1.9,1.4c-4.7-1.9-8.5-4.6-11.6-8.1c-3.5,3.4-7.6,5.9-12.6,7.6
		c-1.3,0.5-1.4-1-0.6-1.8c3.5-4,6.2-8.4,8.3-13c-2.7-5.4-4.6-12.3-5.8-21.1c-0.3,0.1-0.7,0.2-1,0.3c-0.6,0.2-1.3-0.1-1.6-0.9
		c-0.2-0.4-0.4-1.2-0.6-1.9c-0.1,12.1-0.1,28.4,0.1,36.8c0.1,2.2-2.6,3.4-6.4,3.6c-3.7,0.1-5.6-0.6-5.4-3.4
		c0.2-3.3,0.2-7.7,0.3-12.5c-5.5,4.2-11,7-16.3,9c-0.7,0.3-1.1,0.8-1.2,2.3c-0.3,2.6-2.3,2.5-2.8,0.6c-1.3-4.6-2.6-10.1-3.3-14.6
		c-0.4-2.1,0.3-1.6,1.2-1.6c1.5,0.1,3,0.1,4.7,0.2c0.2-9.1,0-22.2-0.2-28.6c-1.7,0.1-3.2,0.3-4.1,0.7c-0.6,0.2-1.3-0.1-1.6-0.9
		c-0.3-0.8-0.9-2.7-1.1-3.8c-0.2-1.1,0.2-1.2,1.1-0.9c2.3,0.9,6.4,1.3,9.2,1.3h42.3c0.7,0,1-0.1,1.5-0.7c1.3-1.7,3.6-4.4,5-6
		c0.5-0.6,1.4-0.6,2,0c2.3,2.2,4.9,5.2,7.1,7.7c0.6,0.7,1,2.5-0.6,2.5H40.6c0,1.6-0.1,3.4-0.1,5.4c0.2,0,0.4,0,0.6,0.1
		c2.3,0.9,5.6,1.3,8.5,1.3h4.6c0.6,0,1.1-0.2,1.5-0.7c1.3-1.4,3-3.3,4.1-4.4c0.7-0.7,1.6-0.6,2.3,0c2.5,1.9,5.6,4.8,7.5,6.7
		c1.7,1.6,1.2,4.1-0.5,4.9c-1.7,0.9-2.4,1.1-2.8,2.5c-1.2,4.8-2.8,9-4.6,12.7c3.2,1.1,6.7,1.6,10.4,1.7c1.5,0.1,1.3,2.1,0.4,2.7
		C69.8,72.2,68.4,77.1,68,83.1z M64.1,10.5c-1.1,1-1.9,1.4-2,3.3c-0.1,2.8,0,7.3,0.2,12.1c0.2,3.9-2.5,4.6-6.8,4.9
		c-3.6,0.3-6.1-0.1-6.1-2.9H27.1c-0.2,2.6-2.2,3.8-6.9,4.1c-3.7,0.2-6.1-0.3-6-3.6c0.5-7.8,0.8-21-0.1-25.1c-0.6-3.2,0-3,1.2-2.6
		c4.6,1.5,12.7,4.6,12.7,4.6h19.1c0.9,0,1.3-0.1,1.8-0.6c1.1-1,3.3-2.9,4.8-4.3c0.5-0.6,1.3-0.6,2.3,0c2,1.3,5.8,3.8,8.2,5.6
		C65.3,7.1,65.7,9.2,64.1,10.5z M29.1,46.9h-7.1c0.1,2.2,0,4.4,0.1,6.8h7C29.1,51.3,29.1,49.1,29.1,46.9z M29.1,37.3h-6.9
		c0,1.6-0.1,3.7-0.1,6h7C29.1,41.2,29.1,39,29.1,37.3z M29.1,57.4h-7c0,2.7,0,5.7,0,8.1c2.1-0.2,5-0.5,7-0.8
		C29.1,62.4,29.1,59.7,29.1,57.4z M49.5,8.4H27.1C27,10,27,12.2,27,14.5h22.5C49.6,12.2,49.6,10.1,49.5,8.4z M27,17.8
		c0,2.3,0,4.9,0.1,6.9h22.3c0.1-2.2,0.1-4.7,0.1-6.9H27z M49.6,47.6c-1.4,0-2.6,0-3.8,0.2c1.8,5.3,4.1,9.4,7.1,12.4
		c1.2-4.3,2-8.5,2.6-12.6H49.6z"/>
	<path class="st0" d="M71.1,135.3H52.9c-0.2,9.1-0.2,17.4,0,23.7c0.1,2.6,0.8,2.9,2.2,3.1c2.3,0.4,4.4,0.5,6.8,0
		c2.3-0.4,3-1.7,5.4-14.3c0.3-1.8,1.9-1.8,1.9,0.2c0,11.2,0,11.6,2.1,13.1c3.3,2.3,4.1,14.1-4.4,15.1c-5.5,0.7-12.7,0.8-17.9,0
		c-6.5-1-8.8-3.7-8.5-12.7c0.2-9.3,0.2-18.9,0.1-28.2h-6.1C33.7,162.4,27.1,175.1,5,179c-1.7,0.3-1.8-1.7-0.8-2.5
		c11.7-9.2,17.5-18.8,17.5-41.1h-5.4c-3,0-6.1,0.2-7.6,0.8C8,136.3,7.3,136,7,135.2c-0.3-0.8-0.9-2.6-1.1-3.7
		c-0.2-1.1,0.1-1.2,1-0.9c2.3,0.9,6.4,1.3,9.2,1.3h16.5c0.1-5.9,0.2-11.7,0.2-17.9h-9.2c-3.3,6.8-7.9,12.6-14,16.4
		c-1.2,0.7-1.6-0.7-1.2-1.6c4.4-12.5,6.7-24.8,6.6-31.3c0-1.7,0.2-1.9,1.2-1.6c4.2,1.3,9.9,2.6,13.8,4.1c2.3,0.8,1.8,3.6-0.9,3.9
		c-1.4,0.2-1.9,0.6-2.3,1.6c-0.5,1.7-1.1,3.4-1.8,5h7.6c0.1-6.6-0.1-12-0.4-14.4c-0.5-2.8-0.9-3.1,1-2.9c4,0.4,9.4,1.2,13.7,1.9
		c2.3,0.5,2.4,3.2,0.2,4.1c-1.3,0.5-1.9,1.2-1.9,2.5c-0.1,2.4-0.1,5.4-0.1,8.7h4.2c0.7,0,1.2-0.2,1.6-0.9c1.4-2.1,3.6-5.4,5.4-7.9
		c0.5-0.8,1.2-0.7,2,0c2.6,2.5,5.9,6.2,8.5,9.6c0.7,0.8,0.9,2.6-0.7,2.6h-21c0,6.2,0,12,0.1,17.9h8.2c0.7,0,1.2-0.2,1.6-0.9
		c1.6-2.5,3.7-6.2,5.6-9c0.5-0.8,1.3-0.7,2,0c2.8,2.9,6.3,7.1,9,10.7C72.5,133.5,72.7,135.3,71.1,135.3z"/>
	<path class="st0" d="M72.6,223.3H56.9c-2.7,3.4-5.7,6.7-8.4,9.1H59c0.7,0,1.2-0.3,1.6-0.8c1.1-1.4,2.7-3.4,3.8-4.6
		c0.6-0.6,1.3-0.5,1.9,0c1.7,1.4,4.5,4.1,6.4,6c1.2,1.3,1.2,3.3-0.1,4.2c-1.2,0.9-1.8,1.5-1.8,2.7c-0.1,3.8-0.1,17.3,0,22.5
		c0,5.2-1.2,8.7-9.2,9.6c-0.6,0-1.4,0-1.5-1.5c-0.1-5.5-0.2-8-1.6-9.5c0,1.2,0,2.1,0.1,2.9c0.1,3-1.3,3.5-4.1,3.7
		c-2.9,0.3-4.1-0.3-3.9-3.5c0.2-3.9,0.4-20.8,0.2-28.2h-1.9c0,8,0.1,24.3,0.2,30c0.1,3-1.2,3.5-4.1,3.7c-3,0.3-4-0.3-3.9-3.5
		c0.2-4.4,0.5-21.9,0.3-30.2h-2c0,6.4,0,24.5,0.2,31.5c0.1,3.4-1.1,4.3-5.4,4.6c-3.1,0.2-5-0.2-4.8-3.5C29.8,264,30,254,30,244.8
		c-6.8,8.4-13.9,14-19.7,17.6c-0.4,0.2-0.7,0.8-0.9,2.3c-0.2,2.7-2.2,2.6-2.6,0.8c-1.3-5.4-2.3-11.6-3-15.6C3.5,247.5,4,248,5,247.9
		c2.6-0.1,6.7-0.7,11.5-1.7c1.6-11.7,2.3-25.8,2.3-35.2c0-1.4-0.4-2.1,1.1-1.8c3.6,0.7,7.1,1.7,11.1,3c0.1-1.6,0.2-3.2,0.2-4.8H13.5
		c-2.3,0-5.4,0.2-7,0.8c-0.6,0.2-1.2-0.1-1.6-0.9c-0.3-0.8-0.8-2.6-1-3.8c-0.2-1.1,0.1-1.2,1-0.8c1.7,0.6,4.2,1,6.4,1.2
		c0.2-6.6,0.1-10.1-0.2-13c-0.4-4.5-0.7-4.5,1.2-4.3c4,0.5,8.4,1.2,12,1.8c2.9,0.7,1.6,3.6,0.2,4.1c-1.6,0.6-2,1.1-2,2.4
		c-0.1,2.7,0,6.3,0,8.5c1.2-2.6,1.9-4.3,3-6.2c0.4-0.8,1.1-1,1.7,0c1.3,1.7,2.8,4.4,4.1,6.9c0-4.8-0.2-9.1-0.5-11.2
		c-0.5-2.7-0.6-3.2,0.9-3c3.5,0.5,8.2,1.2,11.2,2c1.6,0.5,1.8,2.6,0.2,3.5c-1.2,0.6-1.6,1.2-1.6,2.5c-0.1,2.3-0.1,6.8,0,10.6h3.3
		c0.3-6.7,0.2-16-0.3-19.2c-0.4-2.6-0.6-3.2,0.9-3c3.2,0.3,8.4,1.2,11.6,1.9c1.7,0.4,1.9,2.6,0.2,3.5c-1.2,0.7-1.6,1.1-1.6,2.5
		c-0.1,1.9-0.2,8.5-0.1,14.3h3.7c0.2-5.9,0.2-12.3-0.3-15.6c-0.4-2.7-0.7-3.2,0.9-3c3.3,0.5,8.6,1.6,11,2.1c1.8,0.5,1.8,2.8,0.2,3.5
		c-1,0.5-1.4,1.1-1.4,2.4c-0.1,2.8-0.1,9,0.1,13c0.1,1.9-0.7,3-2.7,3.5c2,1.7,4.4,4.1,6.4,6.1C74,221.4,74.2,223.3,72.6,223.3z
		 M7.1,235.8c-0.1-8.3,3.1-13.5-0.4-24.3c-0.5-1.6,0.8-1.8,1.5-1c5.9,7.5,9.4,14.6,8.8,24.1C16.5,244.4,7.2,245.3,7.1,235.8z
		 M38.5,223.3c-3.1,0-6.1,0.2-7.7,0.8c-0.6,0.2-1.3-0.1-1.6-0.9c-0.3-0.7-0.7-2.1-1-3.2c-2,8.5-4.6,17.9-7.8,25.2
		c3-0.9,6.4-1.8,9.7-3c-0.1-5-0.2-10.3-0.5-12.2c-0.3-2.6-0.3-3,1.2-2.3c4.1,1.7,9.5,4.8,9.5,4.8h2.1c0.4-3,0.7-6.3,0.9-9.1H38.5z
		 M59.1,212.1H41.6c0.2,3.3-1.6,4.4-5.6,4.7c-2.9,0.3-4.4-0.2-4.9-1.6c-1.3,0.2-2,0.8-2.2,1.6c-0.2,0.6-0.2,1.2-0.4,1.8
		c0.2,0,0.4,0,0.6,0.1c2.3,0.9,6.4,1.3,9.3,1.3h19.9c0.8,0,1.3-0.3,1.8-0.9c1.1-1.5,2.2-2.8,3.2-4.1C60.4,215.1,59,214.5,59.1,212.1
		z M58.4,236c-0.1,5.2,0,15,0.1,21.9c0.4,0,0.7,0,1,0c1,0,1.3-0.6,1.4-2C61,253.6,61,240,61,236H58.4z"/>
</g>
</svg>
