<!-- Generator: Adobe Illustrator 19.0.0, SVG Export Plug-In  -->
<svg version="1.1"
	 xmlns="http://www.w3.org/2000/svg" xmlns:xlink="http://www.w3.org/1999/xlink" xmlns:a="http://ns.adobe.com/AdobeSVGViewerExtensions/3.0/"
	 x="0px" y="0px" width="392.5px" height="164px" viewBox="0 0 392.5 164"
	 style="overflow:scroll;enable-background:new 0 0 392.5 164;" xml:space="preserve">
<defs>
</defs>
<g>
	<path d="M56.9,96.2c-0.3,12-0.1,43.1,0.3,58.5c0.1,5.2-3.4,7-11.2,7.7c-7.7,0.7-10.9-0.2-10.8-5.9c0-1.8,0.1-4,0.1-5.9H23.6
		c0,1.3,0,3.5,0,4.6c0.1,5.7-3.4,7.2-10.9,7.9C6,163.7,0.6,163,1,156.9c1.3-21.4,2.4-73.3-0.4-82.3c-1.3-4.4-0.3-4.6,1.8-3.9
		c7.5,3.1,22.8,10.5,22.8,10.5h7.5c1.2,0,2.1-0.4,2.7-1.1c2.4-2.9,5.6-7.4,7.7-9.8c0.9-1.1,2.4-1.3,4-0.2c4.6,3.5,9.7,8.1,13.8,12.3
		c2.2,2.2,2.7,5,0,7.4C58.5,91.9,56.9,93.2,56.9,96.2z M104.4,25.7c-0.3,9-0.1,23.9,0.1,35.5c0.3,5.3-4.7,7-12.5,7.5
		c-7.5,0.6-12.4,0-12.2-5.5c0-1.3,0.1-2.6,0.1-4.1H43.6c0,1.1,0,2,0,3.1c0.1,5.5-5.6,7.4-13,7.9c-6.6,0.6-12.1-0.4-11.8-6.1
		c1-19.1,1.5-50.3-0.4-57.8c-1-4.1-0.9-5.5,2.5-4.4c9.9,3.1,25.2,9.6,25.2,9.6h29.5c1.3,0,2.2-0.6,3.1-1.3c3.1-2.9,6.9-6.3,10-8.8
		c1-0.9,2.8-0.9,4.4,0c5.2,3.1,10.6,7.2,15.3,11.2c2.1,1.7,2.2,5.9,0,7.9C105.9,22.7,104.4,23.1,104.4,25.7z M35.5,88.3H23.4
		c-0.3,12-0.3,36.6,0,55.4h12.1C35.8,124.7,35.8,100.8,35.5,88.3z M80.1,18.3H43.5c-0.3,9.6-0.1,21.2,0,34.1h36.7
		C80.3,39.7,80.4,27.9,80.1,18.3z M120.8,96c-0.3,11.2-0.1,43.6,0.3,59.5c0.1,5.2-3.4,7-11.3,7.7c-5.4,0.6-10.9-0.2-10.8-5.9
		c0-1.8,0.1-4.8,0.1-6.6h-13c0,1.3,0.1,3.3,0.1,4.6c0.1,5.7-3.5,7.2-10.9,7.9c-6.6,0.6-11.9-0.2-11.6-6.3
		c1.5-21.5,2.4-73.3-0.3-82.3c-1.5-4.4-0.3-4.6,1.6-3.9c7.5,3.1,22.8,10.5,22.8,10.5h8c1.2,0,2.1-0.4,2.7-1.1
		c2.4-2.9,6-7.7,8.1-10.1c0.9-1.1,2.4-1.3,4-0.2c4,2.9,9.6,8.1,13.7,12.3c2.2,2.2,2.7,5.2,0,7.5C121.9,91.9,120.8,93,120.8,96z
		 M99.3,88.3H86.2c-0.3,12.2-0.3,37,0,55.4h13.1C99.6,125.1,99.6,100.6,99.3,88.3z"/>
	<path d="M260.1,37.6h-13.7c0,5.7,0.3,13.8,0.4,17.9c0.1,6.3-1.9,7.9-8.5,8.7c3.1,2,6.2,4.2,8.5,6.1c2.7,2,3.7,5.9,0,9
		c-2.9,2.6-3.7,2.8-3.8,7.2c-0.1,9.8,0,22.3,0.4,37.2c0.3,6.4-3.2,8.8-12.2,9c-6,0.2-9.7,0-10.6-3.9h-43.2
		c6.5,2.8,13.1,6.6,20.3,10.5c3.7,1.8,2.8,8.1-1.6,7.2c-2.9-0.6-4.1-0.4-5.4,0.4c-15.3,10.5-35.8,15.6-55.4,16.8
		c-2.9,0-3.1-3.1-1.2-4.1c14.9-7.5,28.1-17.1,35.5-26.7c-1.9,1.1-4.9,1.7-8.5,1.8c-5.7,0.4-11.9,0.4-11.6-6.8
		c1-21.9,1.9-48.6-0.1-59.6c-4.9,4.4-10.6,7-16.1,9c-3.1,1.1-2.4-2.8-1.6-3.9c4.9-7.5,9-18.2,9.9-34.6c0.6-9.6,0.4-19.7-0.7-28.7
		c-0.6-4-1.5-5.7,1.8-4.8c9.6,2.8,22.4,7.9,22.4,7.9c5.6-3.1,11.2-8.1,13.5-12c1.2-2,2.5-1.1,4,0.2c2.9,2.6,10.5,9.9,12.8,12.5
		c3.8,4.1,1.9,8.5-2.4,6.1c-1.6-0.9-2.2-1.3-4.3-0.7c-6.5,1.7-18.1,2.2-25.3,2.2c0,3.1,0,6.6-0.3,10.1h12.1c1.5,0,2.1-0.4,3.1-1.7
		c2.1-2.4,4.9-5.7,6.9-8.1c1-1.3,1.9-1.1,3.2,0c2.4,2,7.2,6.6,10.8,10.3c0.3-8.3,0-18-1-22.6c-0.7-3.7-1.3-6.1,1.8-4.8
		c9.3,3.5,20.6,9,20.6,9c7.7-3.7,15-8.8,17.2-12.5c1.2-1.8,2.4-1.1,4,0.2c2.7,2.2,10.3,9.2,13.4,12.3c3.5,3.7,1.9,7.4-2.2,5.9
		c-2.2-0.7-3.4-0.9-6-0.4c-6.2,1.5-15.8,2.2-27,2.2c0,3.5-0.1,7-0.3,10.1h15.5c1.5,0,2.1-0.6,3.1-1.7c2.2-2.6,5.4-5.9,7.5-8.1
		c1.2-1.3,1.6-1.1,3.1,0c2.9,2.2,9,7,12.7,10.9C262.6,34,263.5,37.6,260.1,37.6z M226.1,55.5c0.3-5,0.4-12.2,0.4-17.9H219
		c-0.4,3.5-1.2,6.6-2.1,9.4c-3.5,10.9-12.7,17.3-24.7,19.7c-3.4,0.7-2.7-2.4-1.6-3.7c6.2-7.9,8.1-16.6,8.2-25.4h-10.5
		c-0.1,5.3,0.1,12.5,0.4,19c0.3,5.5-2.2,7.9-10.2,8.8c-8.2,0.9-10.6-1.1-9.9-8.3c0.6-7.4,0.9-14.2,0.7-19.5h-6.9
		c-0.3,4.8-1,9.4-2.1,12.7c-1.3,4.4-3.2,8.1-5.4,11.4c10,3.3,20,7.2,20,7.2h41.1c1.6,0,2.4-0.2,3.4-1.1c2.2-2,4.7-4.4,7.4-6.6
		C226.2,59.7,225.9,57.9,226.1,55.5z M220.6,75.4h-47.7c0,3.1-0.1,6.4-0.1,9.9h48C220.8,82,220.8,78.7,220.6,75.4z M220.8,91.8h-48
		c0,3.7,0,7.5,0,11.2h48C220.8,99.3,220.8,95.4,220.8,91.8z M172.9,109.4c0,4.2,0,8.7,0.1,12.9h47.3c0.1-4.2,0.3-8.7,0.3-12.9H172.9
		z M238.6,160.6c-9.6-8.5-18.3-16.8-37.7-23c-1.9-0.6-2.2-4.4,0.6-4.4c18.7-0.4,39.6-1.5,48.9,4.8
		C265,147.9,252.6,172.9,238.6,160.6z"/>
	<path d="M302.9,140c2.9,18.6-13.7,25.2-22.2,6.3c-11.3-25.4-8.8-64.3-2.5-100.3c2.1-12,4.7-25.8,2.9-32.4c-0.9-3.5-1.3-4.2,1.6-3.5
		c13.1,3.1,19.6,15.3,19.3,27.8c-0.1,6.3-2.7,7.5-6,16.9c-9.1,25.8-9.9,46-6.9,61.5c0.9,4.8,2.7,5,4.3,0.6c4.1-11,10.2-26,14.4-37.4
		c1.3-3.5,2.2-2.9,1.6,0.7C302.2,120.7,300.4,124.2,302.9,140z M373.8,147.5c-1.9-3.1-4.1-6.4-6.6-9.4
		c-7.1,30.7-57.9,23.6-52.6-10.5c2.4-15.1,15.3-21.5,32.8-19.1c-0.1-11.4-0.3-25.6-0.7-39.2c-19.6-0.4-32-7.7-32.5-22.5
		c-0.1-3.7-0.1-3.9,1.5-0.7c2.8,5.5,14.3,8.1,30.6,6.8c-0.4-8.3-0.7-16-1.2-22.1c-0.4-7-2.1-14.2-8-15.5c-2.4-0.6-2.8-2.2,0.3-3.9
		c13.1-7.2,30.6,0.7,31.5,10.1c0.4,5.2-3.1,9.6-3.2,15.8c-0.1,3.9-0.1,7.9-0.1,12.3c1.8-0.6,2.8-1.3,4.3-2c1.6-0.9,2.2-2.9,1.2-5
		c-0.7-1.5-2.1-3.9-3.4-5.7c-0.7-0.9-0.6-1.3,0.4-0.9c8.1,3.7,9.4,3.5,13.4,3.3c9.7-0.4,16.5,14.9,2.8,22.3
		c-4.9,2.8-11.2,4.8-18.7,6.1c0.1,14.9,0.6,31.1,1.5,46.2c9.1,4,16.6,9.6,21.5,16.4C400.6,147.2,382.2,162.1,373.8,147.5z
		 M320.5,129.5c-2.2,15.8,28.3,22.1,27.2-6.4C332.3,116.1,321.8,120.7,320.5,129.5z"/>
</g>
</svg>
