<!-- Generator: Adobe Illustrator 19.0.0, SVG Export Plug-In  -->
<svg version="1.1"
	 xmlns="http://www.w3.org/2000/svg" xmlns:xlink="http://www.w3.org/1999/xlink" xmlns:a="http://ns.adobe.com/AdobeSVGViewerExtensions/3.0/"
	 x="0px" y="0px" width="200px" height="44.4px" viewBox="0 0 200 44.4"
	 style="overflow:scroll;enable-background:new 0 0 200 44.4;" xml:space="preserve">
<style type="text/css">
	.st0{opacity:0.8;fill:#FFFFFF;}
	.st1{fill:#231815;}
</style>
<defs>
</defs>
<rect id="XMLID_45_" class="st0" width="200" height="44.4"/>
<g id="XMLID_27_">
	<g id="XMLID_35_">
		<path id="XMLID_43_" class="st1" d="M43.8,16l-1,0.3c-1.5-2.9-2.8-5.3-7.5-5.3c-3.8,0-4.7,2.7-4.7,4.2c0,2.6,1.6,3.7,6.2,5.6
			c5.1,2.2,7.5,3.6,7.5,7.5c0,4.1-3.2,7.5-7.7,7.5c-1.1,0-2.2-0.2-3.3-0.6C32.1,35.1,32,35,31.6,35c-0.4,0-1.8,0.2-3.2,0.9l-2-6.9
			l1-0.3c2.9,4.7,6.7,6.1,8.9,6.1c1.8,0,5.2-1.2,5.2-5.1c0-2.4-1.2-3.4-6.1-5.4c-4.4-1.7-7.2-3.1-7.2-7.4c0-3.3,2.1-6.9,6.9-6.9
			c0.9,0,1.3,0,3.2,0.4c0.4,0.1,0.9,0.2,1.3,0.2c0.7,0,1.5-0.2,2.2-0.5L43.8,16z"/>
		<path id="XMLID_41_" class="st1" d="M53.7,25.8v6c0,1.7,0.8,2.5,2.3,2.5H57v1.1h-9.8v-1.1H48c1.6,0,2.4-0.8,2.4-2.5V14.2
			c0-1.7-0.8-2.5-2.4-2.5h-0.9v-1.1H57v1.1h-0.9c-1.6,0-2.3,0.8-2.3,2.5v9.9l8.5-10c0.3-0.4,0.7-0.9,0.7-1.4c0-1-1.2-1.1-1.5-1.1
			h-1.2v-1.1h9.6v1.1h-1.6c-1.9,0-3.7,1.5-4.8,2.8l-4.6,5.3l6.5,11.8c1.2,2.2,2.3,2.7,3.8,2.7h1.1v1.1H59.8v-1.1h1
			c0.8,0,1.4-0.5,1.4-1.4c0-0.2,0-0.5-0.4-1.3l-5.1-9.2L53.7,25.8z"/>
		<path id="XMLID_39_" class="st1" d="M72,34.3h1.6c1.9,0,2.3-1.2,2.3-2.5V14.2c0-2-1.1-2.5-2.3-2.5H72v-1.1h11.2v1.1h-1.5
			c-1.9,0-2.4,1.2-2.4,2.5v17.6c0,2,1.1,2.5,2.4,2.5h1.5v1.1H72V34.3z"/>
		<path id="XMLID_36_" class="st1" d="M84.5,10.6h11.4c4.7,0,8.1,2.5,8.1,6.5c0,4.1-3.9,6.5-8.9,6.5h-3.7v8c0,1.8,1,2.8,2.2,2.8H95
			v1.1H84.5v-1.1h1.3c1.4,0,2.2-1.1,2.2-2.8V14.4c0-1.8-0.9-2.8-2.2-2.8h-1.3V10.6z M91.4,22.4h3.3c1.1,0,2.3-0.2,4.1-1.7
			c0.9-0.8,1.5-2.2,1.5-3.7c0-2.3-1.4-5.3-5.4-5.3h-1.2c-0.6,0-2.2,0.4-2.2,2.8V22.4z"/>
	</g>
	<g id="XMLID_28_">
		<path id="XMLID_33_" d="M151.1,33.4l-0.5-1.9l6.5-7.5l-6.5-7.5l0.5-1.9l8.2,9.5L151.1,33.4z"/>
		<path id="XMLID_31_" d="M160.1,33.4l-0.5-1.9l6.5-7.5l-6.5-7.5l0.5-1.9l8.2,9.5L160.1,33.4z"/>
		<path id="XMLID_29_" d="M169,33.4l-0.5-1.9l6.5-7.5l-6.5-7.5l0.5-1.9l8.2,9.5L169,33.4z"/>
	</g>
</g>
</svg>
